<?xml version="1.0" encoding="utf-8" standalone="no"?>
<!DOCTYPE svg PUBLIC "-//W3C//DTD SVG 1.1//EN"
  "http://www.w3.org/Graphics/SVG/1.1/DTD/svg11.dtd">
<svg xmlns:xlink="http://www.w3.org/1999/xlink" width="392.103208pt" height="212.387294pt" viewBox="0 0 392.103208 212.387294" xmlns="http://www.w3.org/2000/svg" version="1.1">
 <metadata>
  <rdf:RDF xmlns:dc="http://purl.org/dc/elements/1.1/" xmlns:cc="http://creativecommons.org/ns#" xmlns:rdf="http://www.w3.org/1999/02/22-rdf-syntax-ns#">
   <cc:Work>
    <dc:type rdf:resource="http://purl.org/dc/dcmitype/StillImage"/>
    <dc:date>2025-01-30T18:54:29.338752</dc:date>
    <dc:format>image/svg+xml</dc:format>
    <dc:creator>
     <cc:Agent>
      <dc:title>Matplotlib v3.10.0, https://matplotlib.org/</dc:title>
     </cc:Agent>
    </dc:creator>
   </cc:Work>
  </rdf:RDF>
 </metadata>
 <defs>
  <style type="text/css">*{stroke-linejoin: round; stroke-linecap: butt}</style>
 </defs>
 <g id="figure_1">
  <g id="patch_1">
   <path d="M 0 212.387294 
L 392.103208 212.387294 
L 392.103208 0 
L 0 0 
z
" style="fill: #ffffff"/>
  </g>
  <g id="axes_1">
   <g id="patch_2">
    <path d="M 34.240625 174.609169 
L 369.040625 174.609169 
L 369.040625 8.289169 
L 34.240625 8.289169 
z
" style="fill: #ffffff"/>
   </g>
   <g id="patch_3">
    <path d="M 49.458807 174.609169 
L 52.533187 174.609169 
L 52.533187 174.141373 
L 49.458807 174.141373 
z
" clip-path="url(#pc284f517ce)" style="fill: #1f77b4"/>
   </g>
   <g id="patch_4">
    <path d="M 52.533187 174.609169 
L 55.607567 174.609169 
L 55.607567 174.609169 
L 52.533187 174.609169 
z
" clip-path="url(#pc284f517ce)" style="fill: #1f77b4"/>
   </g>
   <g id="patch_5">
    <path d="M 55.607567 174.609169 
L 58.681947 174.609169 
L 58.681947 174.609169 
L 55.607567 174.609169 
z
" clip-path="url(#pc284f517ce)" style="fill: #1f77b4"/>
   </g>
   <g id="patch_6">
    <path d="M 58.681947 174.609169 
L 61.756327 174.609169 
L 61.756327 174.609169 
L 58.681947 174.609169 
z
" clip-path="url(#pc284f517ce)" style="fill: #1f77b4"/>
   </g>
   <g id="patch_7">
    <path d="M 61.756327 174.609169 
L 64.830708 174.609169 
L 64.830708 174.609169 
L 61.756327 174.609169 
z
" clip-path="url(#pc284f517ce)" style="fill: #1f77b4"/>
   </g>
   <g id="patch_8">
    <path d="M 64.830708 174.609169 
L 67.905088 174.609169 
L 67.905088 174.609169 
L 64.830708 174.609169 
z
" clip-path="url(#pc284f517ce)" style="fill: #1f77b4"/>
   </g>
   <g id="patch_9">
    <path d="M 67.905088 174.609169 
L 70.979468 174.609169 
L 70.979468 174.609169 
L 67.905088 174.609169 
z
" clip-path="url(#pc284f517ce)" style="fill: #1f77b4"/>
   </g>
   <g id="patch_10">
    <path d="M 70.979468 174.609169 
L 74.053848 174.609169 
L 74.053848 174.609169 
L 70.979468 174.609169 
z
" clip-path="url(#pc284f517ce)" style="fill: #1f77b4"/>
   </g>
   <g id="patch_11">
    <path d="M 74.053848 174.609169 
L 77.128228 174.609169 
L 77.128228 174.16498 
L 74.053848 174.16498 
z
" clip-path="url(#pc284f517ce)" style="fill: #1f77b4"/>
   </g>
   <g id="patch_12">
    <path d="M 77.128228 174.609169 
L 80.202608 174.609169 
L 80.202608 173.726523 
L 77.128228 173.726523 
z
" clip-path="url(#pc284f517ce)" style="fill: #1f77b4"/>
   </g>
   <g id="patch_13">
    <path d="M 80.202608 174.609169 
L 83.276989 174.609169 
L 83.276989 174.609169 
L 80.202608 174.609169 
z
" clip-path="url(#pc284f517ce)" style="fill: #1f77b4"/>
   </g>
   <g id="patch_14">
    <path d="M 83.276989 174.609169 
L 86.351369 174.609169 
L 86.351369 174.173522 
L 83.276989 174.173522 
z
" clip-path="url(#pc284f517ce)" style="fill: #1f77b4"/>
   </g>
   <g id="patch_15">
    <path d="M 86.351369 174.609169 
L 89.425749 174.609169 
L 89.425749 174.609169 
L 86.351369 174.609169 
z
" clip-path="url(#pc284f517ce)" style="fill: #1f77b4"/>
   </g>
   <g id="patch_16">
    <path d="M 89.425749 174.609169 
L 92.500129 174.609169 
L 92.500129 174.609169 
L 89.425749 174.609169 
z
" clip-path="url(#pc284f517ce)" style="fill: #1f77b4"/>
   </g>
   <g id="patch_17">
    <path d="M 92.500129 174.609169 
L 95.574509 174.609169 
L 95.574509 174.1819 
L 92.500129 174.1819 
z
" clip-path="url(#pc284f517ce)" style="fill: #1f77b4"/>
   </g>
   <g id="patch_18">
    <path d="M 95.574509 174.609169 
L 98.648889 174.609169 
L 98.648889 174.609169 
L 95.574509 174.609169 
z
" clip-path="url(#pc284f517ce)" style="fill: #1f77b4"/>
   </g>
   <g id="patch_19">
    <path d="M 98.648889 174.609169 
L 101.72327 174.609169 
L 101.72327 173.765623 
L 98.648889 173.765623 
z
" clip-path="url(#pc284f517ce)" style="fill: #1f77b4"/>
   </g>
   <g id="patch_20">
    <path d="M 101.72327 174.609169 
L 104.79765 174.609169 
L 104.79765 174.609169 
L 101.72327 174.609169 
z
" clip-path="url(#pc284f517ce)" style="fill: #1f77b4"/>
   </g>
   <g id="patch_21">
    <path d="M 104.79765 174.609169 
L 107.87203 174.609169 
L 107.87203 174.609169 
L 104.79765 174.609169 
z
" clip-path="url(#pc284f517ce)" style="fill: #1f77b4"/>
   </g>
   <g id="patch_22">
    <path d="M 107.87203 174.609169 
L 110.94641 174.609169 
L 110.94641 174.195507 
L 107.87203 174.195507 
z
" clip-path="url(#pc284f517ce)" style="fill: #1f77b4"/>
   </g>
   <g id="patch_23">
    <path d="M 110.94641 174.609169 
L 114.02079 174.609169 
L 114.02079 173.787183 
L 110.94641 173.787183 
z
" clip-path="url(#pc284f517ce)" style="fill: #1f77b4"/>
   </g>
   <g id="patch_24">
    <path d="M 114.02079 174.609169 
L 117.09517 174.609169 
L 117.09517 174.200828 
L 114.02079 174.200828 
z
" clip-path="url(#pc284f517ce)" style="fill: #1f77b4"/>
   </g>
   <g id="patch_25">
    <path d="M 117.09517 174.609169 
L 120.169551 174.609169 
L 120.169551 174.203462 
L 117.09517 174.203462 
z
" clip-path="url(#pc284f517ce)" style="fill: #1f77b4"/>
   </g>
   <g id="patch_26">
    <path d="M 120.169551 174.609169 
L 123.243931 174.609169 
L 123.243931 171.787545 
L 120.169551 171.787545 
z
" clip-path="url(#pc284f517ce)" style="fill: #1f77b4"/>
   </g>
   <g id="patch_27">
    <path d="M 123.243931 174.609169 
L 126.318311 174.609169 
L 126.318311 171.80575 
L 123.243931 171.80575 
z
" clip-path="url(#pc284f517ce)" style="fill: #1f77b4"/>
   </g>
   <g id="patch_28">
    <path d="M 126.318311 174.609169 
L 129.392691 174.609169 
L 129.392691 172.221742 
L 126.318311 172.221742 
z
" clip-path="url(#pc284f517ce)" style="fill: #1f77b4"/>
   </g>
   <g id="patch_29">
    <path d="M 129.392691 174.609169 
L 132.467071 174.609169 
L 132.467071 171.841808 
L 129.392691 171.841808 
z
" clip-path="url(#pc284f517ce)" style="fill: #1f77b4"/>
   </g>
   <g id="patch_30">
    <path d="M 132.467071 174.609169 
L 135.541451 174.609169 
L 135.541451 168.717371 
L 132.467071 168.717371 
z
" clip-path="url(#pc284f517ce)" style="fill: #1f77b4"/>
   </g>
   <g id="patch_31">
    <path d="M 135.541451 174.609169 
L 138.615832 174.609169 
L 138.615832 169.926142 
L 135.541451 169.926142 
z
" clip-path="url(#pc284f517ce)" style="fill: #1f77b4"/>
   </g>
   <g id="patch_32">
    <path d="M 138.615832 174.609169 
L 141.690212 174.609169 
L 141.690212 168.793153 
L 138.615832 168.793153 
z
" clip-path="url(#pc284f517ce)" style="fill: #1f77b4"/>
   </g>
   <g id="patch_33">
    <path d="M 141.690212 174.609169 
L 144.764592 174.609169 
L 144.764592 171.142074 
L 141.690212 171.142074 
z
" clip-path="url(#pc284f517ce)" style="fill: #1f77b4"/>
   </g>
   <g id="patch_34">
    <path d="M 144.764592 174.609169 
L 147.838972 174.609169 
L 147.838972 169.633454 
L 144.764592 169.633454 
z
" clip-path="url(#pc284f517ce)" style="fill: #1f77b4"/>
   </g>
   <g id="patch_35">
    <path d="M 147.838972 174.609169 
L 150.913352 174.609169 
L 150.913352 166.623335 
L 147.838972 166.623335 
z
" clip-path="url(#pc284f517ce)" style="fill: #1f77b4"/>
   </g>
   <g id="patch_36">
    <path d="M 150.913352 174.609169 
L 153.987732 174.609169 
L 153.987732 168.56398 
L 150.913352 168.56398 
z
" clip-path="url(#pc284f517ce)" style="fill: #1f77b4"/>
   </g>
   <g id="patch_37">
    <path d="M 153.987732 174.609169 
L 157.062113 174.609169 
L 157.062113 166.350664 
L 153.987732 166.350664 
z
" clip-path="url(#pc284f517ce)" style="fill: #1f77b4"/>
   </g>
   <g id="patch_38">
    <path d="M 157.062113 174.609169 
L 160.136493 174.609169 
L 160.136493 161.928371 
L 157.062113 161.928371 
z
" clip-path="url(#pc284f517ce)" style="fill: #1f77b4"/>
   </g>
   <g id="patch_39">
    <path d="M 160.136493 174.609169 
L 163.210873 174.609169 
L 163.210873 158.675162 
L 160.136493 158.675162 
z
" clip-path="url(#pc284f517ce)" style="fill: #1f77b4"/>
   </g>
   <g id="patch_40">
    <path d="M 163.210873 174.609169 
L 166.285253 174.609169 
L 166.285253 155.096292 
L 163.210873 155.096292 
z
" clip-path="url(#pc284f517ce)" style="fill: #1f77b4"/>
   </g>
   <g id="patch_41">
    <path d="M 166.285253 174.609169 
L 169.359633 174.609169 
L 169.359633 158.148524 
L 166.285253 158.148524 
z
" clip-path="url(#pc284f517ce)" style="fill: #1f77b4"/>
   </g>
   <g id="patch_42">
    <path d="M 169.359633 174.609169 
L 172.434013 174.609169 
L 172.434013 152.076382 
L 169.359633 152.076382 
z
" clip-path="url(#pc284f517ce)" style="fill: #1f77b4"/>
   </g>
   <g id="patch_43">
    <path d="M 172.434013 174.609169 
L 175.508394 174.609169 
L 175.508394 148.249803 
L 172.434013 148.249803 
z
" clip-path="url(#pc284f517ce)" style="fill: #1f77b4"/>
   </g>
   <g id="patch_44">
    <path d="M 175.508394 174.609169 
L 178.582774 174.609169 
L 178.582774 149.854901 
L 175.508394 149.854901 
z
" clip-path="url(#pc284f517ce)" style="fill: #1f77b4"/>
   </g>
   <g id="patch_45">
    <path d="M 178.582774 174.609169 
L 181.657154 174.609169 
L 181.657154 138.252001 
L 178.582774 138.252001 
z
" clip-path="url(#pc284f517ce)" style="fill: #1f77b4"/>
   </g>
   <g id="patch_46">
    <path d="M 181.657154 174.609169 
L 184.731534 174.609169 
L 184.731534 130.341283 
L 181.657154 130.341283 
z
" clip-path="url(#pc284f517ce)" style="fill: #1f77b4"/>
   </g>
   <g id="patch_47">
    <path d="M 184.731534 174.609169 
L 187.805914 174.609169 
L 187.805914 132.738045 
L 184.731534 132.738045 
z
" clip-path="url(#pc284f517ce)" style="fill: #1f77b4"/>
   </g>
   <g id="patch_48">
    <path d="M 187.805914 174.609169 
L 190.880294 174.609169 
L 190.880294 123.918906 
L 187.805914 123.918906 
z
" clip-path="url(#pc284f517ce)" style="fill: #1f77b4"/>
   </g>
   <g id="patch_49">
    <path d="M 190.880294 174.609169 
L 193.954675 174.609169 
L 193.954675 122.509293 
L 190.880294 122.509293 
z
" clip-path="url(#pc284f517ce)" style="fill: #1f77b4"/>
   </g>
   <g id="patch_50">
    <path d="M 193.954675 174.609169 
L 197.029055 174.609169 
L 197.029055 113.873057 
L 193.954675 113.873057 
z
" clip-path="url(#pc284f517ce)" style="fill: #1f77b4"/>
   </g>
   <g id="patch_51">
    <path d="M 197.029055 174.609169 
L 200.103435 174.609169 
L 200.103435 121.122222 
L 197.029055 121.122222 
z
" clip-path="url(#pc284f517ce)" style="fill: #1f77b4"/>
   </g>
   <g id="patch_52">
    <path d="M 200.103435 174.609169 
L 203.177815 174.609169 
L 203.177815 101.368795 
L 200.103435 101.368795 
z
" clip-path="url(#pc284f517ce)" style="fill: #1f77b4"/>
   </g>
   <g id="patch_53">
    <path d="M 203.177815 174.609169 
L 206.252195 174.609169 
L 206.252195 103.533611 
L 203.177815 103.533611 
z
" clip-path="url(#pc284f517ce)" style="fill: #1f77b4"/>
   </g>
   <g id="patch_54">
    <path d="M 206.252195 174.609169 
L 209.326575 174.609169 
L 209.326575 98.275572 
L 206.252195 98.275572 
z
" clip-path="url(#pc284f517ce)" style="fill: #1f77b4"/>
   </g>
   <g id="patch_55">
    <path d="M 209.326575 174.609169 
L 212.400956 174.609169 
L 212.400956 88.410915 
L 209.326575 88.410915 
z
" clip-path="url(#pc284f517ce)" style="fill: #1f77b4"/>
   </g>
   <g id="patch_56">
    <path d="M 212.400956 174.609169 
L 215.475336 174.609169 
L 215.475336 79.008675 
L 212.400956 79.008675 
z
" clip-path="url(#pc284f517ce)" style="fill: #1f77b4"/>
   </g>
   <g id="patch_57">
    <path d="M 215.475336 174.609169 
L 218.549716 174.609169 
L 218.549716 66.103498 
L 215.475336 66.103498 
z
" clip-path="url(#pc284f517ce)" style="fill: #1f77b4"/>
   </g>
   <g id="patch_58">
    <path d="M 218.549716 174.609169 
L 221.624096 174.609169 
L 221.624096 74.667806 
L 218.549716 74.667806 
z
" clip-path="url(#pc284f517ce)" style="fill: #1f77b4"/>
   </g>
   <g id="patch_59">
    <path d="M 221.624096 174.609169 
L 224.698476 174.609169 
L 224.698476 69.126933 
L 221.624096 69.126933 
z
" clip-path="url(#pc284f517ce)" style="fill: #1f77b4"/>
   </g>
   <g id="patch_60">
    <path d="M 224.698476 174.609169 
L 227.772856 174.609169 
L 227.772856 63.661719 
L 224.698476 63.661719 
z
" clip-path="url(#pc284f517ce)" style="fill: #1f77b4"/>
   </g>
   <g id="patch_61">
    <path d="M 227.772856 174.609169 
L 230.847237 174.609169 
L 230.847237 71.126418 
L 227.772856 71.126418 
z
" clip-path="url(#pc284f517ce)" style="fill: #1f77b4"/>
   </g>
   <g id="patch_62">
    <path d="M 230.847237 174.609169 
L 233.921617 174.609169 
L 233.921617 50.400879 
L 230.847237 50.400879 
z
" clip-path="url(#pc284f517ce)" style="fill: #1f77b4"/>
   </g>
   <g id="patch_63">
    <path d="M 233.921617 174.609169 
L 236.995997 174.609169 
L 236.995997 64.5264 
L 233.921617 64.5264 
z
" clip-path="url(#pc284f517ce)" style="fill: #1f77b4"/>
   </g>
   <g id="patch_64">
    <path d="M 236.995997 174.609169 
L 240.070377 174.609169 
L 240.070377 59.878337 
L 236.995997 59.878337 
z
" clip-path="url(#pc284f517ce)" style="fill: #1f77b4"/>
   </g>
   <g id="patch_65">
    <path d="M 240.070377 174.609169 
L 243.144757 174.609169 
L 243.144757 67.194952 
L 240.070377 67.194952 
z
" clip-path="url(#pc284f517ce)" style="fill: #1f77b4"/>
   </g>
   <g id="patch_66">
    <path d="M 243.144757 174.609169 
L 246.219137 174.609169 
L 246.219137 68.821402 
L 243.144757 68.821402 
z
" clip-path="url(#pc284f517ce)" style="fill: #1f77b4"/>
   </g>
   <g id="patch_67">
    <path d="M 246.219137 174.609169 
L 249.293518 174.609169 
L 249.293518 75.686597 
L 246.219137 75.686597 
z
" clip-path="url(#pc284f517ce)" style="fill: #1f77b4"/>
   </g>
   <g id="patch_68">
    <path d="M 249.293518 174.609169 
L 252.367898 174.609169 
L 252.367898 76.939114 
L 249.293518 76.939114 
z
" clip-path="url(#pc284f517ce)" style="fill: #1f77b4"/>
   </g>
   <g id="patch_69">
    <path d="M 252.367898 174.609169 
L 255.442278 174.609169 
L 255.442278 80.010529 
L 252.367898 80.010529 
z
" clip-path="url(#pc284f517ce)" style="fill: #1f77b4"/>
   </g>
   <g id="patch_70">
    <path d="M 255.442278 174.609169 
L 258.516658 174.609169 
L 258.516658 82.44 
L 255.442278 82.44 
z
" clip-path="url(#pc284f517ce)" style="fill: #1f77b4"/>
   </g>
   <g id="patch_71">
    <path d="M 258.516658 174.609169 
L 261.591038 174.609169 
L 261.591038 87.251915 
L 258.516658 87.251915 
z
" clip-path="url(#pc284f517ce)" style="fill: #1f77b4"/>
   </g>
   <g id="patch_72">
    <path d="M 261.591038 174.609169 
L 264.665418 174.609169 
L 264.665418 91.706286 
L 261.591038 91.706286 
z
" clip-path="url(#pc284f517ce)" style="fill: #1f77b4"/>
   </g>
   <g id="patch_73">
    <path d="M 264.665418 174.609169 
L 267.739799 174.609169 
L 267.739799 104.730179 
L 264.665418 104.730179 
z
" clip-path="url(#pc284f517ce)" style="fill: #1f77b4"/>
   </g>
   <g id="patch_74">
    <path d="M 267.739799 174.609169 
L 270.814179 174.609169 
L 270.814179 112.862444 
L 267.739799 112.862444 
z
" clip-path="url(#pc284f517ce)" style="fill: #1f77b4"/>
   </g>
   <g id="patch_75">
    <path d="M 270.814179 174.609169 
L 273.888559 174.609169 
L 273.888559 105.335445 
L 270.814179 105.335445 
z
" clip-path="url(#pc284f517ce)" style="fill: #1f77b4"/>
   </g>
   <g id="patch_76">
    <path d="M 273.888559 174.609169 
L 276.962939 174.609169 
L 276.962939 117.15631 
L 273.888559 117.15631 
z
" clip-path="url(#pc284f517ce)" style="fill: #1f77b4"/>
   </g>
   <g id="patch_77">
    <path d="M 276.962939 174.609169 
L 280.037319 174.609169 
L 280.037319 127.08898 
L 276.962939 127.08898 
z
" clip-path="url(#pc284f517ce)" style="fill: #1f77b4"/>
   </g>
   <g id="patch_78">
    <path d="M 280.037319 174.609169 
L 283.111699 174.609169 
L 283.111699 121.925709 
L 280.037319 121.925709 
z
" clip-path="url(#pc284f517ce)" style="fill: #1f77b4"/>
   </g>
   <g id="patch_79">
    <path d="M 283.111699 174.609169 
L 286.18608 174.609169 
L 286.18608 134.564923 
L 283.111699 134.564923 
z
" clip-path="url(#pc284f517ce)" style="fill: #1f77b4"/>
   </g>
   <g id="patch_80">
    <path d="M 286.18608 174.609169 
L 289.26046 174.609169 
L 289.26046 141.075353 
L 286.18608 141.075353 
z
" clip-path="url(#pc284f517ce)" style="fill: #1f77b4"/>
   </g>
   <g id="patch_81">
    <path d="M 289.26046 174.609169 
L 292.33484 174.609169 
L 292.33484 146.938737 
L 289.26046 146.938737 
z
" clip-path="url(#pc284f517ce)" style="fill: #1f77b4"/>
   </g>
   <g id="patch_82">
    <path d="M 292.33484 174.609169 
L 295.40922 174.609169 
L 295.40922 151.605739 
L 292.33484 151.605739 
z
" clip-path="url(#pc284f517ce)" style="fill: #1f77b4"/>
   </g>
   <g id="patch_83">
    <path d="M 295.40922 174.609169 
L 298.4836 174.609169 
L 298.4836 153.983912 
L 295.40922 153.983912 
z
" clip-path="url(#pc284f517ce)" style="fill: #1f77b4"/>
   </g>
   <g id="patch_84">
    <path d="M 298.4836 174.609169 
L 301.55798 174.609169 
L 301.55798 153.840063 
L 298.4836 153.840063 
z
" clip-path="url(#pc284f517ce)" style="fill: #1f77b4"/>
   </g>
   <g id="patch_85">
    <path d="M 301.55798 174.609169 
L 304.632361 174.609169 
L 304.632361 160.577297 
L 301.55798 160.577297 
z
" clip-path="url(#pc284f517ce)" style="fill: #1f77b4"/>
   </g>
   <g id="patch_86">
    <path d="M 304.632361 174.609169 
L 307.706741 174.609169 
L 307.706741 161.761268 
L 304.632361 161.761268 
z
" clip-path="url(#pc284f517ce)" style="fill: #1f77b4"/>
   </g>
   <g id="patch_87">
    <path d="M 307.706741 174.609169 
L 310.781121 174.609169 
L 310.781121 168.362463 
L 307.706741 168.362463 
z
" clip-path="url(#pc284f517ce)" style="fill: #1f77b4"/>
   </g>
   <g id="patch_88">
    <path d="M 310.781121 174.609169 
L 313.855501 174.609169 
L 313.855501 165.164644 
L 310.781121 165.164644 
z
" clip-path="url(#pc284f517ce)" style="fill: #1f77b4"/>
   </g>
   <g id="patch_89">
    <path d="M 313.855501 174.609169 
L 316.929881 174.609169 
L 316.929881 167.906605 
L 313.855501 167.906605 
z
" clip-path="url(#pc284f517ce)" style="fill: #1f77b4"/>
   </g>
   <g id="patch_90">
    <path d="M 316.929881 174.609169 
L 320.004261 174.609169 
L 320.004261 169.548086 
L 316.929881 169.548086 
z
" clip-path="url(#pc284f517ce)" style="fill: #1f77b4"/>
   </g>
   <g id="patch_91">
    <path d="M 320.004261 174.609169 
L 323.078642 174.609169 
L 323.078642 173.285898 
L 320.004261 173.285898 
z
" clip-path="url(#pc284f517ce)" style="fill: #1f77b4"/>
   </g>
   <g id="patch_92">
    <path d="M 323.078642 174.609169 
L 326.153022 174.609169 
L 326.153022 169.613182 
L 323.078642 169.613182 
z
" clip-path="url(#pc284f517ce)" style="fill: #1f77b4"/>
   </g>
   <g id="patch_93">
    <path d="M 326.153022 174.609169 
L 329.227402 174.609169 
L 329.227402 172.780418 
L 326.153022 172.780418 
z
" clip-path="url(#pc284f517ce)" style="fill: #1f77b4"/>
   </g>
   <g id="patch_94">
    <path d="M 329.227402 174.609169 
L 332.301782 174.609169 
L 332.301782 173.051781 
L 329.227402 173.051781 
z
" clip-path="url(#pc284f517ce)" style="fill: #1f77b4"/>
   </g>
   <g id="patch_95">
    <path d="M 332.301782 174.609169 
L 335.376162 174.609169 
L 335.376162 173.061829 
L 332.301782 173.061829 
z
" clip-path="url(#pc284f517ce)" style="fill: #1f77b4"/>
   </g>
   <g id="patch_96">
    <path d="M 335.376162 174.609169 
L 338.450542 174.609169 
L 338.450542 173.840491 
L 335.376162 173.840491 
z
" clip-path="url(#pc284f517ce)" style="fill: #1f77b4"/>
   </g>
   <g id="patch_97">
    <path d="M 338.450542 174.609169 
L 341.524923 174.609169 
L 341.524923 174.354596 
L 338.450542 174.354596 
z
" clip-path="url(#pc284f517ce)" style="fill: #1f77b4"/>
   </g>
   <g id="patch_98">
    <path d="M 341.524923 174.609169 
L 344.599303 174.609169 
L 344.599303 174.356238 
L 341.524923 174.356238 
z
" clip-path="url(#pc284f517ce)" style="fill: #1f77b4"/>
   </g>
   <g id="patch_99">
    <path d="M 344.599303 174.609169 
L 347.673683 174.609169 
L 347.673683 174.609169 
L 344.599303 174.609169 
z
" clip-path="url(#pc284f517ce)" style="fill: #1f77b4"/>
   </g>
   <g id="patch_100">
    <path d="M 347.673683 174.609169 
L 350.748063 174.609169 
L 350.748063 174.609169 
L 347.673683 174.609169 
z
" clip-path="url(#pc284f517ce)" style="fill: #1f77b4"/>
   </g>
   <g id="patch_101">
    <path d="M 350.748063 174.609169 
L 353.822443 174.609169 
L 353.822443 173.86497 
L 350.748063 173.86497 
z
" clip-path="url(#pc284f517ce)" style="fill: #1f77b4"/>
   </g>
   <g id="patch_102">
    <path d="M 96.893874 174.609169 
L 99.215276 174.609169 
L 99.215276 174.048075 
L 96.893874 174.048075 
z
" clip-path="url(#pc284f517ce)" style="fill: #ff7f0e"/>
   </g>
   <g id="patch_103">
    <path d="M 99.215276 174.609169 
L 101.536678 174.609169 
L 101.536678 174.609169 
L 99.215276 174.609169 
z
" clip-path="url(#pc284f517ce)" style="fill: #ff7f0e"/>
   </g>
   <g id="patch_104">
    <path d="M 101.536678 174.609169 
L 103.85808 174.609169 
L 103.85808 174.609169 
L 101.536678 174.609169 
z
" clip-path="url(#pc284f517ce)" style="fill: #ff7f0e"/>
   </g>
   <g id="patch_105">
    <path d="M 103.85808 174.609169 
L 106.179482 174.609169 
L 106.179482 174.609169 
L 103.85808 174.609169 
z
" clip-path="url(#pc284f517ce)" style="fill: #ff7f0e"/>
   </g>
   <g id="patch_106">
    <path d="M 106.179482 174.609169 
L 108.500884 174.609169 
L 108.500884 174.609169 
L 106.179482 174.609169 
z
" clip-path="url(#pc284f517ce)" style="fill: #ff7f0e"/>
   </g>
   <g id="patch_107">
    <path d="M 108.500884 174.609169 
L 110.822286 174.609169 
L 110.822286 174.609169 
L 108.500884 174.609169 
z
" clip-path="url(#pc284f517ce)" style="fill: #ff7f0e"/>
   </g>
   <g id="patch_108">
    <path d="M 110.822286 174.609169 
L 113.143688 174.609169 
L 113.143688 174.609169 
L 110.822286 174.609169 
z
" clip-path="url(#pc284f517ce)" style="fill: #ff7f0e"/>
   </g>
   <g id="patch_109">
    <path d="M 113.143688 174.609169 
L 115.46509 174.609169 
L 115.46509 174.066947 
L 113.143688 174.066947 
z
" clip-path="url(#pc284f517ce)" style="fill: #ff7f0e"/>
   </g>
   <g id="patch_110">
    <path d="M 115.46509 174.609169 
L 117.786492 174.609169 
L 117.786492 174.609169 
L 115.46509 174.609169 
z
" clip-path="url(#pc284f517ce)" style="fill: #ff7f0e"/>
   </g>
   <g id="patch_111">
    <path d="M 117.786492 174.609169 
L 120.107894 174.609169 
L 120.107894 174.609169 
L 117.786492 174.609169 
z
" clip-path="url(#pc284f517ce)" style="fill: #ff7f0e"/>
   </g>
   <g id="patch_112">
    <path d="M 120.107894 174.609169 
L 122.429296 174.609169 
L 122.429296 174.609169 
L 120.107894 174.609169 
z
" clip-path="url(#pc284f517ce)" style="fill: #ff7f0e"/>
   </g>
   <g id="patch_113">
    <path d="M 122.429296 174.609169 
L 124.750698 174.609169 
L 124.750698 174.609169 
L 122.429296 174.609169 
z
" clip-path="url(#pc284f517ce)" style="fill: #ff7f0e"/>
   </g>
   <g id="patch_114">
    <path d="M 124.750698 174.609169 
L 127.0721 174.609169 
L 127.0721 174.609169 
L 124.750698 174.609169 
z
" clip-path="url(#pc284f517ce)" style="fill: #ff7f0e"/>
   </g>
   <g id="patch_115">
    <path d="M 127.0721 174.609169 
L 129.393502 174.609169 
L 129.393502 174.609169 
L 127.0721 174.609169 
z
" clip-path="url(#pc284f517ce)" style="fill: #ff7f0e"/>
   </g>
   <g id="patch_116">
    <path d="M 129.393502 174.609169 
L 131.714904 174.609169 
L 131.714904 174.085184 
L 129.393502 174.085184 
z
" clip-path="url(#pc284f517ce)" style="fill: #ff7f0e"/>
   </g>
   <g id="patch_117">
    <path d="M 131.714904 174.609169 
L 134.036306 174.609169 
L 134.036306 174.087739 
L 131.714904 174.087739 
z
" clip-path="url(#pc284f517ce)" style="fill: #ff7f0e"/>
   </g>
   <g id="patch_118">
    <path d="M 134.036306 174.609169 
L 136.357708 174.609169 
L 136.357708 174.609169 
L 134.036306 174.609169 
z
" clip-path="url(#pc284f517ce)" style="fill: #ff7f0e"/>
   </g>
   <g id="patch_119">
    <path d="M 136.357708 174.609169 
L 138.67911 174.609169 
L 138.67911 173.576453 
L 136.357708 173.576453 
z
" clip-path="url(#pc284f517ce)" style="fill: #ff7f0e"/>
   </g>
   <g id="patch_120">
    <path d="M 138.67911 174.609169 
L 141.000512 174.609169 
L 141.000512 174.095328 
L 138.67911 174.095328 
z
" clip-path="url(#pc284f517ce)" style="fill: #ff7f0e"/>
   </g>
   <g id="patch_121">
    <path d="M 141.000512 174.609169 
L 143.321914 174.609169 
L 143.321914 174.097834 
L 141.000512 174.097834 
z
" clip-path="url(#pc284f517ce)" style="fill: #ff7f0e"/>
   </g>
   <g id="patch_122">
    <path d="M 143.321914 174.609169 
L 145.643315 174.609169 
L 145.643315 173.082642 
L 143.321914 173.082642 
z
" clip-path="url(#pc284f517ce)" style="fill: #ff7f0e"/>
   </g>
   <g id="patch_123">
    <path d="M 145.643315 174.609169 
L 147.964717 174.609169 
L 147.964717 172.077363 
L 145.643315 172.077363 
z
" clip-path="url(#pc284f517ce)" style="fill: #ff7f0e"/>
   </g>
   <g id="patch_124">
    <path d="M 147.964717 174.609169 
L 150.286119 174.609169 
L 150.286119 170.57803 
L 147.964717 170.57803 
z
" clip-path="url(#pc284f517ce)" style="fill: #ff7f0e"/>
   </g>
   <g id="patch_125">
    <path d="M 150.286119 174.609169 
L 152.607521 174.609169 
L 152.607521 171.099119 
L 150.286119 171.099119 
z
" clip-path="url(#pc284f517ce)" style="fill: #ff7f0e"/>
   </g>
   <g id="patch_126">
    <path d="M 152.607521 174.609169 
L 154.928923 174.609169 
L 154.928923 170.617242 
L 152.607521 170.617242 
z
" clip-path="url(#pc284f517ce)" style="fill: #ff7f0e"/>
   </g>
   <g id="patch_127">
    <path d="M 154.928923 174.609169 
L 157.250325 174.609169 
L 157.250325 169.643589 
L 154.928923 169.643589 
z
" clip-path="url(#pc284f517ce)" style="fill: #ff7f0e"/>
   </g>
   <g id="patch_128">
    <path d="M 157.250325 174.609169 
L 159.571727 174.609169 
L 159.571727 167.691251 
L 157.250325 167.691251 
z
" clip-path="url(#pc284f517ce)" style="fill: #ff7f0e"/>
   </g>
   <g id="patch_129">
    <path d="M 159.571727 174.609169 
L 161.893129 174.609169 
L 161.893129 169.691891 
L 159.571727 169.691891 
z
" clip-path="url(#pc284f517ce)" style="fill: #ff7f0e"/>
   </g>
   <g id="patch_130">
    <path d="M 161.893129 174.609169 
L 164.214531 174.609169 
L 164.214531 164.822562 
L 161.893129 164.822562 
z
" clip-path="url(#pc284f517ce)" style="fill: #ff7f0e"/>
   </g>
   <g id="patch_131">
    <path d="M 164.214531 174.609169 
L 166.535933 174.609169 
L 166.535933 167.305 
L 164.214531 167.305 
z
" clip-path="url(#pc284f517ce)" style="fill: #ff7f0e"/>
   </g>
   <g id="patch_132">
    <path d="M 166.535933 174.609169 
L 168.857335 174.609169 
L 168.857335 166.856042 
L 166.535933 166.856042 
z
" clip-path="url(#pc284f517ce)" style="fill: #ff7f0e"/>
   </g>
   <g id="patch_133">
    <path d="M 168.857335 174.609169 
L 171.178737 174.609169 
L 171.178737 161.107349 
L 168.857335 161.107349 
z
" clip-path="url(#pc284f517ce)" style="fill: #ff7f0e"/>
   </g>
   <g id="patch_134">
    <path d="M 171.178737 174.609169 
L 173.500139 174.609169 
L 173.500139 162.612748 
L 171.178737 162.612748 
z
" clip-path="url(#pc284f517ce)" style="fill: #ff7f0e"/>
   </g>
   <g id="patch_135">
    <path d="M 173.500139 174.609169 
L 175.821541 174.609169 
L 175.821541 162.671238 
L 173.500139 162.671238 
z
" clip-path="url(#pc284f517ce)" style="fill: #ff7f0e"/>
   </g>
   <g id="patch_136">
    <path d="M 175.821541 174.609169 
L 178.142943 174.609169 
L 178.142943 158.927929 
L 175.821541 158.927929 
z
" clip-path="url(#pc284f517ce)" style="fill: #ff7f0e"/>
   </g>
   <g id="patch_137">
    <path d="M 178.142943 174.609169 
L 180.464345 174.609169 
L 180.464345 155.221406 
L 178.142943 155.221406 
z
" clip-path="url(#pc284f517ce)" style="fill: #ff7f0e"/>
   </g>
   <g id="patch_138">
    <path d="M 180.464345 174.609169 
L 182.785747 174.609169 
L 182.785747 150.610265 
L 180.464345 150.610265 
z
" clip-path="url(#pc284f517ce)" style="fill: #ff7f0e"/>
   </g>
   <g id="patch_139">
    <path d="M 182.785747 174.609169 
L 185.107149 174.609169 
L 185.107149 146.044549 
L 182.785747 146.044549 
z
" clip-path="url(#pc284f517ce)" style="fill: #ff7f0e"/>
   </g>
   <g id="patch_140">
    <path d="M 185.107149 174.609169 
L 187.428551 174.609169 
L 187.428551 145.717829 
L 185.107149 145.717829 
z
" clip-path="url(#pc284f517ce)" style="fill: #ff7f0e"/>
   </g>
   <g id="patch_141">
    <path d="M 187.428551 174.609169 
L 189.749953 174.609169 
L 189.749953 144.467538 
L 187.428551 144.467538 
z
" clip-path="url(#pc284f517ce)" style="fill: #ff7f0e"/>
   </g>
   <g id="patch_142">
    <path d="M 189.749953 174.609169 
L 192.071355 174.609169 
L 192.071355 142.307214 
L 189.749953 142.307214 
z
" clip-path="url(#pc284f517ce)" style="fill: #ff7f0e"/>
   </g>
   <g id="patch_143">
    <path d="M 192.071355 174.609169 
L 194.392757 174.609169 
L 194.392757 133.739778 
L 192.071355 133.739778 
z
" clip-path="url(#pc284f517ce)" style="fill: #ff7f0e"/>
   </g>
   <g id="patch_144">
    <path d="M 194.392757 174.609169 
L 196.714159 174.609169 
L 196.714159 124.342717 
L 194.392757 124.342717 
z
" clip-path="url(#pc284f517ce)" style="fill: #ff7f0e"/>
   </g>
   <g id="patch_145">
    <path d="M 196.714159 174.609169 
L 199.035561 174.609169 
L 199.035561 120.040397 
L 196.714159 120.040397 
z
" clip-path="url(#pc284f517ce)" style="fill: #ff7f0e"/>
   </g>
   <g id="patch_146">
    <path d="M 199.035561 174.609169 
L 201.356963 174.609169 
L 201.356963 121.664019 
L 199.035561 121.664019 
z
" clip-path="url(#pc284f517ce)" style="fill: #ff7f0e"/>
   </g>
   <g id="patch_147">
    <path d="M 201.356963 174.609169 
L 203.678365 174.609169 
L 203.678365 111.114565 
L 201.356963 111.114565 
z
" clip-path="url(#pc284f517ce)" style="fill: #ff7f0e"/>
   </g>
   <g id="patch_148">
    <path d="M 203.678365 174.609169 
L 205.999767 174.609169 
L 205.999767 101.56548 
L 203.678365 101.56548 
z
" clip-path="url(#pc284f517ce)" style="fill: #ff7f0e"/>
   </g>
   <g id="patch_149">
    <path d="M 205.999767 174.609169 
L 208.321169 174.609169 
L 208.321169 90.327276 
L 205.999767 90.327276 
z
" clip-path="url(#pc284f517ce)" style="fill: #ff7f0e"/>
   </g>
   <g id="patch_150">
    <path d="M 208.321169 174.609169 
L 210.642571 174.609169 
L 210.642571 80.531678 
L 208.321169 80.531678 
z
" clip-path="url(#pc284f517ce)" style="fill: #ff7f0e"/>
   </g>
   <g id="patch_151">
    <path d="M 210.642571 174.609169 
L 212.963973 174.609169 
L 212.963973 71.716799 
L 210.642571 71.716799 
z
" clip-path="url(#pc284f517ce)" style="fill: #ff7f0e"/>
   </g>
   <g id="patch_152">
    <path d="M 212.963973 174.609169 
L 215.285375 174.609169 
L 215.285375 69.581787 
L 212.963973 69.581787 
z
" clip-path="url(#pc284f517ce)" style="fill: #ff7f0e"/>
   </g>
   <g id="patch_153">
    <path d="M 215.285375 174.609169 
L 217.606777 174.609169 
L 217.606777 68.781948 
L 215.285375 68.781948 
z
" clip-path="url(#pc284f517ce)" style="fill: #ff7f0e"/>
   </g>
   <g id="patch_154">
    <path d="M 217.606777 174.609169 
L 219.928179 174.609169 
L 219.928179 60.594507 
L 217.606777 60.594507 
z
" clip-path="url(#pc284f517ce)" style="fill: #ff7f0e"/>
   </g>
   <g id="patch_155">
    <path d="M 219.928179 174.609169 
L 222.249581 174.609169 
L 222.249581 58.552101 
L 219.928179 58.552101 
z
" clip-path="url(#pc284f517ce)" style="fill: #ff7f0e"/>
   </g>
   <g id="patch_156">
    <path d="M 222.249581 174.609169 
L 224.570983 174.609169 
L 224.570983 55.23951 
L 222.249581 55.23951 
z
" clip-path="url(#pc284f517ce)" style="fill: #ff7f0e"/>
   </g>
   <g id="patch_157">
    <path d="M 224.570983 174.609169 
L 226.892385 174.609169 
L 226.892385 46.815942 
L 224.570983 46.815942 
z
" clip-path="url(#pc284f517ce)" style="fill: #ff7f0e"/>
   </g>
   <g id="patch_158">
    <path d="M 226.892385 174.609169 
L 229.213787 174.609169 
L 229.213787 41.037825 
L 226.892385 41.037825 
z
" clip-path="url(#pc284f517ce)" style="fill: #ff7f0e"/>
   </g>
   <g id="patch_159">
    <path d="M 229.213787 174.609169 
L 231.535189 174.609169 
L 231.535189 16.209169 
L 229.213787 16.209169 
z
" clip-path="url(#pc284f517ce)" style="fill: #ff7f0e"/>
   </g>
   <g id="patch_160">
    <path d="M 231.535189 174.609169 
L 233.856591 174.609169 
L 233.856591 33.885235 
L 231.535189 33.885235 
z
" clip-path="url(#pc284f517ce)" style="fill: #ff7f0e"/>
   </g>
   <g id="patch_161">
    <path d="M 233.856591 174.609169 
L 236.177993 174.609169 
L 236.177993 27.842801 
L 233.856591 27.842801 
z
" clip-path="url(#pc284f517ce)" style="fill: #ff7f0e"/>
   </g>
   <g id="patch_162">
    <path d="M 236.177993 174.609169 
L 238.499395 174.609169 
L 238.499395 28.976855 
L 236.177993 28.976855 
z
" clip-path="url(#pc284f517ce)" style="fill: #ff7f0e"/>
   </g>
   <g id="patch_163">
    <path d="M 238.499395 174.609169 
L 240.820797 174.609169 
L 240.820797 43.845968 
L 238.499395 43.845968 
z
" clip-path="url(#pc284f517ce)" style="fill: #ff7f0e"/>
   </g>
   <g id="patch_164">
    <path d="M 240.820797 174.609169 
L 243.142199 174.609169 
L 243.142199 45.726753 
L 240.820797 45.726753 
z
" clip-path="url(#pc284f517ce)" style="fill: #ff7f0e"/>
   </g>
   <g id="patch_165">
    <path d="M 243.142199 174.609169 
L 245.463601 174.609169 
L 245.463601 41.818812 
L 243.142199 41.818812 
z
" clip-path="url(#pc284f517ce)" style="fill: #ff7f0e"/>
   </g>
   <g id="patch_166">
    <path d="M 245.463601 174.609169 
L 247.785003 174.609169 
L 247.785003 43.697386 
L 245.463601 43.697386 
z
" clip-path="url(#pc284f517ce)" style="fill: #ff7f0e"/>
   </g>
   <g id="patch_167">
    <path d="M 247.785003 174.609169 
L 250.106405 174.609169 
L 250.106405 51.686513 
L 247.785003 51.686513 
z
" clip-path="url(#pc284f517ce)" style="fill: #ff7f0e"/>
   </g>
   <g id="patch_168">
    <path d="M 250.106405 174.609169 
L 252.427807 174.609169 
L 252.427807 62.039187 
L 250.106405 62.039187 
z
" clip-path="url(#pc284f517ce)" style="fill: #ff7f0e"/>
   </g>
   <g id="patch_169">
    <path d="M 252.427807 174.609169 
L 254.749209 174.609169 
L 254.749209 66.227706 
L 252.427807 66.227706 
z
" clip-path="url(#pc284f517ce)" style="fill: #ff7f0e"/>
   </g>
   <g id="patch_170">
    <path d="M 254.749209 174.609169 
L 257.070611 174.609169 
L 257.070611 49.451349 
L 254.749209 49.451349 
z
" clip-path="url(#pc284f517ce)" style="fill: #ff7f0e"/>
   </g>
   <g id="patch_171">
    <path d="M 257.070611 174.609169 
L 259.392013 174.609169 
L 259.392013 72.087668 
L 257.070611 72.087668 
z
" clip-path="url(#pc284f517ce)" style="fill: #ff7f0e"/>
   </g>
   <g id="patch_172">
    <path d="M 259.392013 174.609169 
L 261.713415 174.609169 
L 261.713415 71.790475 
L 259.392013 71.790475 
z
" clip-path="url(#pc284f517ce)" style="fill: #ff7f0e"/>
   </g>
   <g id="patch_173">
    <path d="M 261.713415 174.609169 
L 264.034817 174.609169 
L 264.034817 83.395989 
L 261.713415 83.395989 
z
" clip-path="url(#pc284f517ce)" style="fill: #ff7f0e"/>
   </g>
   <g id="patch_174">
    <path d="M 264.034817 174.609169 
L 266.356219 174.609169 
L 266.356219 100.415816 
L 264.034817 100.415816 
z
" clip-path="url(#pc284f517ce)" style="fill: #ff7f0e"/>
   </g>
   <g id="patch_175">
    <path d="M 266.356219 174.609169 
L 268.677621 174.609169 
L 268.677621 103.133879 
L 266.356219 103.133879 
z
" clip-path="url(#pc284f517ce)" style="fill: #ff7f0e"/>
   </g>
   <g id="patch_176">
    <path d="M 268.677621 174.609169 
L 270.999023 174.609169 
L 270.999023 103.873169 
L 268.677621 103.873169 
z
" clip-path="url(#pc284f517ce)" style="fill: #ff7f0e"/>
   </g>
   <g id="patch_177">
    <path d="M 270.999023 174.609169 
L 273.320425 174.609169 
L 273.320425 110.440467 
L 270.999023 110.440467 
z
" clip-path="url(#pc284f517ce)" style="fill: #ff7f0e"/>
   </g>
   <g id="patch_178">
    <path d="M 273.320425 174.609169 
L 275.641827 174.609169 
L 275.641827 123.13749 
L 273.320425 123.13749 
z
" clip-path="url(#pc284f517ce)" style="fill: #ff7f0e"/>
   </g>
   <g id="patch_179">
    <path d="M 275.641827 174.609169 
L 277.963229 174.609169 
L 277.963229 131.861045 
L 275.641827 131.861045 
z
" clip-path="url(#pc284f517ce)" style="fill: #ff7f0e"/>
   </g>
   <g id="patch_180">
    <path d="M 277.963229 174.609169 
L 280.284631 174.609169 
L 280.284631 133.219188 
L 277.963229 133.219188 
z
" clip-path="url(#pc284f517ce)" style="fill: #ff7f0e"/>
   </g>
   <g id="patch_181">
    <path d="M 280.284631 174.609169 
L 282.606033 174.609169 
L 282.606033 143.336661 
L 280.284631 143.336661 
z
" clip-path="url(#pc284f517ce)" style="fill: #ff7f0e"/>
   </g>
   <g id="patch_182">
    <path d="M 282.606033 174.609169 
L 284.927434 174.609169 
L 284.927434 148.422797 
L 282.606033 148.422797 
z
" clip-path="url(#pc284f517ce)" style="fill: #ff7f0e"/>
   </g>
   <g id="patch_183">
    <path d="M 284.927434 174.609169 
L 287.248836 174.609169 
L 287.248836 144.396185 
L 284.927434 144.396185 
z
" clip-path="url(#pc284f517ce)" style="fill: #ff7f0e"/>
   </g>
   <g id="patch_184">
    <path d="M 287.248836 174.609169 
L 289.570238 174.609169 
L 289.570238 154.690657 
L 287.248836 154.690657 
z
" clip-path="url(#pc284f517ce)" style="fill: #ff7f0e"/>
   </g>
   <g id="patch_185">
    <path d="M 289.570238 174.609169 
L 291.89164 174.609169 
L 291.89164 160.771589 
L 289.570238 160.771589 
z
" clip-path="url(#pc284f517ce)" style="fill: #ff7f0e"/>
   </g>
   <g id="patch_186">
    <path d="M 291.89164 174.609169 
L 294.213042 174.609169 
L 294.213042 156.373073 
L 291.89164 156.373073 
z
" clip-path="url(#pc284f517ce)" style="fill: #ff7f0e"/>
   </g>
   <g id="patch_187">
    <path d="M 294.213042 174.609169 
L 296.534444 174.609169 
L 296.534444 162.757946 
L 294.213042 162.757946 
z
" clip-path="url(#pc284f517ce)" style="fill: #ff7f0e"/>
   </g>
   <g id="patch_188">
    <path d="M 296.534444 174.609169 
L 298.855846 174.609169 
L 298.855846 165.764088 
L 296.534444 165.764088 
z
" clip-path="url(#pc284f517ce)" style="fill: #ff7f0e"/>
   </g>
   <g id="patch_189">
    <path d="M 298.855846 174.609169 
L 301.177248 174.609169 
L 301.177248 169.107946 
L 298.855846 169.107946 
z
" clip-path="url(#pc284f517ce)" style="fill: #ff7f0e"/>
   </g>
   <g id="patch_190">
    <path d="M 301.177248 174.609169 
L 303.49865 174.609169 
L 303.49865 168.404848 
L 301.177248 168.404848 
z
" clip-path="url(#pc284f517ce)" style="fill: #ff7f0e"/>
   </g>
   <g id="patch_191">
    <path d="M 303.49865 174.609169 
L 305.820052 174.609169 
L 305.820052 169.524639 
L 303.49865 169.524639 
z
" clip-path="url(#pc284f517ce)" style="fill: #ff7f0e"/>
   </g>
   <g id="patch_192">
    <path d="M 305.820052 174.609169 
L 308.141454 174.609169 
L 308.141454 170.272249 
L 305.820052 170.272249 
z
" clip-path="url(#pc284f517ce)" style="fill: #ff7f0e"/>
   </g>
   <g id="patch_193">
    <path d="M 308.141454 174.609169 
L 310.462856 174.609169 
L 310.462856 171.731986 
L 308.141454 171.731986 
z
" clip-path="url(#pc284f517ce)" style="fill: #ff7f0e"/>
   </g>
   <g id="patch_194">
    <path d="M 310.462856 174.609169 
L 312.784258 174.609169 
L 312.784258 172.461802 
L 310.462856 172.461802 
z
" clip-path="url(#pc284f517ce)" style="fill: #ff7f0e"/>
   </g>
   <g id="patch_195">
    <path d="M 312.784258 174.609169 
L 315.10566 174.609169 
L 315.10566 173.89687 
L 312.784258 173.89687 
z
" clip-path="url(#pc284f517ce)" style="fill: #ff7f0e"/>
   </g>
   <g id="patch_196">
    <path d="M 315.10566 174.609169 
L 317.427062 174.609169 
L 317.427062 174.254756 
L 315.10566 174.254756 
z
" clip-path="url(#pc284f517ce)" style="fill: #ff7f0e"/>
   </g>
   <g id="patch_197">
    <path d="M 317.427062 174.609169 
L 319.748464 174.609169 
L 319.748464 173.903799 
L 317.427062 173.903799 
z
" clip-path="url(#pc284f517ce)" style="fill: #ff7f0e"/>
   </g>
   <g id="patch_198">
    <path d="M 319.748464 174.609169 
L 322.069866 174.609169 
L 322.069866 174.609169 
L 319.748464 174.609169 
z
" clip-path="url(#pc284f517ce)" style="fill: #ff7f0e"/>
   </g>
   <g id="patch_199">
    <path d="M 322.069866 174.609169 
L 324.391268 174.609169 
L 324.391268 174.609169 
L 322.069866 174.609169 
z
" clip-path="url(#pc284f517ce)" style="fill: #ff7f0e"/>
   </g>
   <g id="patch_200">
    <path d="M 324.391268 174.609169 
L 326.71267 174.609169 
L 326.71267 174.261617 
L 324.391268 174.261617 
z
" clip-path="url(#pc284f517ce)" style="fill: #ff7f0e"/>
   </g>
   <g id="matplotlib.axis_1">
    <g id="xtick_1">
     <g id="line2d_1">
      <defs>
       <path id="m3a5a169dfe" d="M 0 0 
L 0 2 
" style="stroke: #000000; stroke-width: 0.6"/>
      </defs>
      <g>
       <use xlink:href="#m3a5a169dfe" x="67.979759" y="174.609169" style="stroke: #000000; stroke-width: 0.6"/>
      </g>
     </g>
     <g id="text_1">
      <!-- $\mathdefault{1.4\times10^{0}}$ -->
      <g transform="translate(45.079759 187.607606) scale(0.1 -0.1)">
       <defs>
        <path id="DejaVuSans-31" d="M 794 531 
L 1825 531 
L 1825 4091 
L 703 3866 
L 703 4441 
L 1819 4666 
L 2450 4666 
L 2450 531 
L 3481 531 
L 3481 0 
L 794 0 
L 794 531 
z
" transform="scale(0.015625)"/>
        <path id="DejaVuSans-2e" d="M 684 794 
L 1344 794 
L 1344 0 
L 684 0 
L 684 794 
z
" transform="scale(0.015625)"/>
        <path id="DejaVuSans-34" d="M 2419 4116 
L 825 1625 
L 2419 1625 
L 2419 4116 
z
M 2253 4666 
L 3047 4666 
L 3047 1625 
L 3713 1625 
L 3713 1100 
L 3047 1100 
L 3047 0 
L 2419 0 
L 2419 1100 
L 313 1100 
L 313 1709 
L 2253 4666 
z
" transform="scale(0.015625)"/>
        <path id="DejaVuSans-d7" d="M 4488 3438 
L 3059 2003 
L 4488 575 
L 4116 197 
L 2681 1631 
L 1247 197 
L 878 575 
L 2303 2003 
L 878 3438 
L 1247 3816 
L 2681 2381 
L 4116 3816 
L 4488 3438 
z
" transform="scale(0.015625)"/>
        <path id="DejaVuSans-30" d="M 2034 4250 
Q 1547 4250 1301 3770 
Q 1056 3291 1056 2328 
Q 1056 1369 1301 889 
Q 1547 409 2034 409 
Q 2525 409 2770 889 
Q 3016 1369 3016 2328 
Q 3016 3291 2770 3770 
Q 2525 4250 2034 4250 
z
M 2034 4750 
Q 2819 4750 3233 4129 
Q 3647 3509 3647 2328 
Q 3647 1150 3233 529 
Q 2819 -91 2034 -91 
Q 1250 -91 836 529 
Q 422 1150 422 2328 
Q 422 3509 836 4129 
Q 1250 4750 2034 4750 
z
" transform="scale(0.015625)"/>
       </defs>
       <use xlink:href="#DejaVuSans-31" transform="translate(0 0.765625)"/>
       <use xlink:href="#DejaVuSans-2e" transform="translate(63.623047 0.765625)"/>
       <use xlink:href="#DejaVuSans-34" transform="translate(95.410156 0.765625)"/>
       <use xlink:href="#DejaVuSans-d7" transform="translate(178.515625 0.765625)"/>
       <use xlink:href="#DejaVuSans-31" transform="translate(281.787109 0.765625)"/>
       <use xlink:href="#DejaVuSans-30" transform="translate(345.410156 0.765625)"/>
       <use xlink:href="#DejaVuSans-30" transform="translate(409.990234 39.046875) scale(0.7)"/>
      </g>
     </g>
    </g>
    <g id="xtick_2">
     <g id="line2d_2">
      <g>
       <use xlink:href="#m3a5a169dfe" x="131.402819" y="174.609169" style="stroke: #000000; stroke-width: 0.6"/>
      </g>
     </g>
     <g id="text_2">
      <!-- $\mathdefault{1.6\times10^{0}}$ -->
      <g transform="translate(108.502819 187.607606) scale(0.1 -0.1)">
       <defs>
        <path id="DejaVuSans-36" d="M 2113 2584 
Q 1688 2584 1439 2293 
Q 1191 2003 1191 1497 
Q 1191 994 1439 701 
Q 1688 409 2113 409 
Q 2538 409 2786 701 
Q 3034 994 3034 1497 
Q 3034 2003 2786 2293 
Q 2538 2584 2113 2584 
z
M 3366 4563 
L 3366 3988 
Q 3128 4100 2886 4159 
Q 2644 4219 2406 4219 
Q 1781 4219 1451 3797 
Q 1122 3375 1075 2522 
Q 1259 2794 1537 2939 
Q 1816 3084 2150 3084 
Q 2853 3084 3261 2657 
Q 3669 2231 3669 1497 
Q 3669 778 3244 343 
Q 2819 -91 2113 -91 
Q 1303 -91 875 529 
Q 447 1150 447 2328 
Q 447 3434 972 4092 
Q 1497 4750 2381 4750 
Q 2619 4750 2861 4703 
Q 3103 4656 3366 4563 
z
" transform="scale(0.015625)"/>
       </defs>
       <use xlink:href="#DejaVuSans-31" transform="translate(0 0.765625)"/>
       <use xlink:href="#DejaVuSans-2e" transform="translate(63.623047 0.765625)"/>
       <use xlink:href="#DejaVuSans-36" transform="translate(95.410156 0.765625)"/>
       <use xlink:href="#DejaVuSans-d7" transform="translate(178.515625 0.765625)"/>
       <use xlink:href="#DejaVuSans-31" transform="translate(281.787109 0.765625)"/>
       <use xlink:href="#DejaVuSans-30" transform="translate(345.410156 0.765625)"/>
       <use xlink:href="#DejaVuSans-30" transform="translate(409.990234 39.046875) scale(0.7)"/>
      </g>
     </g>
    </g>
    <g id="xtick_3">
     <g id="line2d_3">
      <g>
       <use xlink:href="#m3a5a169dfe" x="187.345922" y="174.609169" style="stroke: #000000; stroke-width: 0.6"/>
      </g>
     </g>
     <g id="text_3">
      <!-- $\mathdefault{1.8\times10^{0}}$ -->
      <g transform="translate(164.595922 187.607606) scale(0.1 -0.1)">
       <defs>
        <path id="DejaVuSans-38" d="M 2034 2216 
Q 1584 2216 1326 1975 
Q 1069 1734 1069 1313 
Q 1069 891 1326 650 
Q 1584 409 2034 409 
Q 2484 409 2743 651 
Q 3003 894 3003 1313 
Q 3003 1734 2745 1975 
Q 2488 2216 2034 2216 
z
M 1403 2484 
Q 997 2584 770 2862 
Q 544 3141 544 3541 
Q 544 4100 942 4425 
Q 1341 4750 2034 4750 
Q 2731 4750 3128 4425 
Q 3525 4100 3525 3541 
Q 3525 3141 3298 2862 
Q 3072 2584 2669 2484 
Q 3125 2378 3379 2068 
Q 3634 1759 3634 1313 
Q 3634 634 3220 271 
Q 2806 -91 2034 -91 
Q 1263 -91 848 271 
Q 434 634 434 1313 
Q 434 1759 690 2068 
Q 947 2378 1403 2484 
z
M 1172 3481 
Q 1172 3119 1398 2916 
Q 1625 2713 2034 2713 
Q 2441 2713 2670 2916 
Q 2900 3119 2900 3481 
Q 2900 3844 2670 4047 
Q 2441 4250 2034 4250 
Q 1625 4250 1398 4047 
Q 1172 3844 1172 3481 
z
" transform="scale(0.015625)"/>
       </defs>
       <use xlink:href="#DejaVuSans-31" transform="translate(0 0.765625)"/>
       <use xlink:href="#DejaVuSans-2e" transform="translate(63.623047 0.765625)"/>
       <use xlink:href="#DejaVuSans-38" transform="translate(92.785156 0.765625)"/>
       <use xlink:href="#DejaVuSans-d7" transform="translate(175.890625 0.765625)"/>
       <use xlink:href="#DejaVuSans-31" transform="translate(279.162109 0.765625)"/>
       <use xlink:href="#DejaVuSans-30" transform="translate(342.785156 0.765625)"/>
       <use xlink:href="#DejaVuSans-30" transform="translate(407.365234 39.046875) scale(0.7)"/>
      </g>
     </g>
    </g>
    <g id="xtick_4">
     <g id="line2d_4">
      <g>
       <use xlink:href="#m3a5a169dfe" x="237.388733" y="174.609169" style="stroke: #000000; stroke-width: 0.6"/>
      </g>
     </g>
     <g id="text_4">
      <!-- $\mathdefault{2\times10^{0}}$ -->
      <g transform="translate(219.288733 187.607606) scale(0.1 -0.1)">
       <defs>
        <path id="DejaVuSans-32" d="M 1228 531 
L 3431 531 
L 3431 0 
L 469 0 
L 469 531 
Q 828 903 1448 1529 
Q 2069 2156 2228 2338 
Q 2531 2678 2651 2914 
Q 2772 3150 2772 3378 
Q 2772 3750 2511 3984 
Q 2250 4219 1831 4219 
Q 1534 4219 1204 4116 
Q 875 4013 500 3803 
L 500 4441 
Q 881 4594 1212 4672 
Q 1544 4750 1819 4750 
Q 2544 4750 2975 4387 
Q 3406 4025 3406 3419 
Q 3406 3131 3298 2873 
Q 3191 2616 2906 2266 
Q 2828 2175 2409 1742 
Q 1991 1309 1228 531 
z
" transform="scale(0.015625)"/>
       </defs>
       <use xlink:href="#DejaVuSans-32" transform="translate(0 0.765625)"/>
       <use xlink:href="#DejaVuSans-d7" transform="translate(83.105469 0.765625)"/>
       <use xlink:href="#DejaVuSans-31" transform="translate(186.376953 0.765625)"/>
       <use xlink:href="#DejaVuSans-30" transform="translate(250 0.765625)"/>
       <use xlink:href="#DejaVuSans-30" transform="translate(314.580078 39.046875) scale(0.7)"/>
      </g>
     </g>
    </g>
    <g id="xtick_5">
     <g id="line2d_5">
      <g>
       <use xlink:href="#m3a5a169dfe" x="282.657962" y="174.609169" style="stroke: #000000; stroke-width: 0.6"/>
      </g>
     </g>
     <g id="text_5">
      <!-- $\mathdefault{2.2\times10^{0}}$ -->
      <g transform="translate(260.057962 187.607606) scale(0.1 -0.1)">
       <use xlink:href="#DejaVuSans-32" transform="translate(0 0.765625)"/>
       <use xlink:href="#DejaVuSans-2e" transform="translate(63.623047 0.765625)"/>
       <use xlink:href="#DejaVuSans-32" transform="translate(89.910156 0.765625)"/>
       <use xlink:href="#DejaVuSans-d7" transform="translate(173.015625 0.765625)"/>
       <use xlink:href="#DejaVuSans-31" transform="translate(276.287109 0.765625)"/>
       <use xlink:href="#DejaVuSans-30" transform="translate(339.910156 0.765625)"/>
       <use xlink:href="#DejaVuSans-30" transform="translate(404.490234 39.046875) scale(0.7)"/>
      </g>
     </g>
    </g>
    <g id="xtick_6">
     <g id="line2d_6">
      <g>
       <use xlink:href="#m3a5a169dfe" x="323.985531" y="174.609169" style="stroke: #000000; stroke-width: 0.6"/>
      </g>
     </g>
     <g id="text_6">
      <!-- $\mathdefault{2.4\times10^{0}}$ -->
      <g transform="translate(301.085531 187.607606) scale(0.1 -0.1)">
       <use xlink:href="#DejaVuSans-32" transform="translate(0 0.765625)"/>
       <use xlink:href="#DejaVuSans-2e" transform="translate(63.623047 0.765625)"/>
       <use xlink:href="#DejaVuSans-34" transform="translate(95.410156 0.765625)"/>
       <use xlink:href="#DejaVuSans-d7" transform="translate(178.515625 0.765625)"/>
       <use xlink:href="#DejaVuSans-31" transform="translate(281.787109 0.765625)"/>
       <use xlink:href="#DejaVuSans-30" transform="translate(345.410156 0.765625)"/>
       <use xlink:href="#DejaVuSans-30" transform="translate(409.990234 39.046875) scale(0.7)"/>
      </g>
     </g>
    </g>
    <g id="xtick_7">
     <g id="line2d_7">
      <g>
       <use xlink:href="#m3a5a169dfe" x="362.003208" y="174.609169" style="stroke: #000000; stroke-width: 0.6"/>
      </g>
     </g>
     <g id="text_7">
      <!-- $\mathdefault{2.6\times10^{0}}$ -->
      <g transform="translate(339.103208 187.607606) scale(0.1 -0.1)">
       <use xlink:href="#DejaVuSans-32" transform="translate(0 0.765625)"/>
       <use xlink:href="#DejaVuSans-2e" transform="translate(63.623047 0.765625)"/>
       <use xlink:href="#DejaVuSans-36" transform="translate(95.410156 0.765625)"/>
       <use xlink:href="#DejaVuSans-d7" transform="translate(178.515625 0.765625)"/>
       <use xlink:href="#DejaVuSans-31" transform="translate(281.787109 0.765625)"/>
       <use xlink:href="#DejaVuSans-30" transform="translate(345.410156 0.765625)"/>
       <use xlink:href="#DejaVuSans-30" transform="translate(409.990234 39.046875) scale(0.7)"/>
      </g>
     </g>
    </g>
    <g id="text_8">
     <!-- $\hat{beta}$ -->
     <g transform="translate(190.340625 203.107606) scale(0.1 -0.1)">
      <defs>
       <path id="DejaVuSans-302" d="M -1831 5119 
L -1369 5119 
L -603 3944 
L -1038 3944 
L -1600 4709 
L -2163 3944 
L -2597 3944 
L -1831 5119 
z
M -1600 3584 
L -1600 3584 
z
" transform="scale(0.015625)"/>
       <path id="DejaVuSans-Oblique-62" d="M 3169 2138 
Q 3169 2591 2961 2847 
Q 2753 3103 2388 3103 
Q 2122 3103 1889 2973 
Q 1656 2844 1484 2597 
Q 1303 2338 1198 1995 
Q 1094 1653 1094 1313 
Q 1094 881 1298 636 
Q 1503 391 1863 391 
Q 2134 391 2365 517 
Q 2597 644 2772 891 
Q 2950 1147 3059 1487 
Q 3169 1828 3169 2138 
z
M 1381 2969 
Q 1594 3256 1914 3420 
Q 2234 3584 2584 3584 
Q 3122 3584 3439 3221 
Q 3756 2859 3756 2241 
Q 3756 1734 3570 1259 
Q 3384 784 3041 416 
Q 2816 172 2522 40 
Q 2228 -91 1906 -91 
Q 1566 -91 1316 65 
Q 1066 222 909 531 
L 806 0 
L 231 0 
L 1178 4863 
L 1753 4863 
L 1381 2969 
z
" transform="scale(0.015625)"/>
       <path id="DejaVuSans-Oblique-65" d="M 3078 2063 
Q 3088 2113 3092 2166 
Q 3097 2219 3097 2272 
Q 3097 2653 2873 2875 
Q 2650 3097 2266 3097 
Q 1838 3097 1509 2826 
Q 1181 2556 1013 2059 
L 3078 2063 
z
M 3578 1613 
L 903 1613 
Q 884 1494 878 1425 
Q 872 1356 872 1306 
Q 872 872 1139 634 
Q 1406 397 1894 397 
Q 2269 397 2603 481 
Q 2938 566 3225 728 
L 3116 159 
Q 2806 34 2476 -28 
Q 2147 -91 1806 -91 
Q 1078 -91 686 257 
Q 294 606 294 1247 
Q 294 1794 489 2264 
Q 684 2734 1063 3103 
Q 1306 3334 1642 3459 
Q 1978 3584 2356 3584 
Q 2950 3584 3301 3228 
Q 3653 2872 3653 2272 
Q 3653 2128 3634 1964 
Q 3616 1800 3578 1613 
z
" transform="scale(0.015625)"/>
       <path id="DejaVuSans-Oblique-74" d="M 2706 3500 
L 2619 3053 
L 1472 3053 
L 1100 1153 
Q 1081 1047 1072 975 
Q 1063 903 1063 863 
Q 1063 663 1183 572 
Q 1303 481 1569 481 
L 2150 481 
L 2053 0 
L 1503 0 
Q 991 0 739 200 
Q 488 400 488 806 
Q 488 878 497 964 
Q 506 1050 525 1153 
L 897 3053 
L 409 3053 
L 500 3500 
L 978 3500 
L 1172 4494 
L 1747 4494 
L 1556 3500 
L 2706 3500 
z
" transform="scale(0.015625)"/>
       <path id="DejaVuSans-Oblique-61" d="M 3438 1997 
L 3047 0 
L 2472 0 
L 2578 531 
Q 2325 219 2001 64 
Q 1678 -91 1281 -91 
Q 834 -91 548 182 
Q 263 456 263 884 
Q 263 1497 752 1853 
Q 1241 2209 2100 2209 
L 2900 2209 
L 2931 2363 
Q 2938 2388 2941 2417 
Q 2944 2447 2944 2509 
Q 2944 2788 2717 2942 
Q 2491 3097 2081 3097 
Q 1800 3097 1504 3025 
Q 1209 2953 897 2809 
L 997 3341 
Q 1322 3463 1633 3523 
Q 1944 3584 2234 3584 
Q 2853 3584 3176 3315 
Q 3500 3047 3500 2534 
Q 3500 2431 3484 2292 
Q 3469 2153 3438 1997 
z
M 2816 1759 
L 2241 1759 
Q 1534 1759 1195 1570 
Q 856 1381 856 984 
Q 856 709 1029 553 
Q 1203 397 1509 397 
Q 1978 397 2328 733 
Q 2678 1069 2791 1631 
L 2816 1759 
z
" transform="scale(0.015625)"/>
      </defs>
      <use xlink:href="#DejaVuSans-302" transform="translate(165.950195 33.015625)"/>
      <use xlink:href="#DejaVuSans-Oblique-62" transform="translate(0 0.53125)"/>
      <use xlink:href="#DejaVuSans-Oblique-65" transform="translate(63.476562 0.53125)"/>
      <use xlink:href="#DejaVuSans-Oblique-74" transform="translate(125 0.53125)"/>
      <use xlink:href="#DejaVuSans-Oblique-61" transform="translate(164.208984 0.53125)"/>
     </g>
    </g>
   </g>
   <g id="matplotlib.axis_2">
    <g id="ytick_1">
     <g id="line2d_8">
      <defs>
       <path id="m657bd72b16" d="M 0 0 
L -3.5 0 
" style="stroke: #000000; stroke-width: 0.8"/>
      </defs>
      <g>
       <use xlink:href="#m657bd72b16" x="34.240625" y="174.609169" style="stroke: #000000; stroke-width: 0.8"/>
      </g>
     </g>
     <g id="text_9">
      <!-- 0 -->
      <g transform="translate(20.878125 178.408388) scale(0.1 -0.1)">
       <use xlink:href="#DejaVuSans-30"/>
      </g>
     </g>
    </g>
    <g id="ytick_2">
     <g id="line2d_9">
      <g>
       <use xlink:href="#m657bd72b16" x="34.240625" y="133.706681" style="stroke: #000000; stroke-width: 0.8"/>
      </g>
     </g>
     <g id="text_10">
      <!-- 1 -->
      <g transform="translate(20.878125 137.5059) scale(0.1 -0.1)">
       <use xlink:href="#DejaVuSans-31"/>
      </g>
     </g>
    </g>
    <g id="ytick_3">
     <g id="line2d_10">
      <g>
       <use xlink:href="#m657bd72b16" x="34.240625" y="92.804194" style="stroke: #000000; stroke-width: 0.8"/>
      </g>
     </g>
     <g id="text_11">
      <!-- 2 -->
      <g transform="translate(20.878125 96.603413) scale(0.1 -0.1)">
       <use xlink:href="#DejaVuSans-32"/>
      </g>
     </g>
    </g>
    <g id="ytick_4">
     <g id="line2d_11">
      <g>
       <use xlink:href="#m657bd72b16" x="34.240625" y="51.901706" style="stroke: #000000; stroke-width: 0.8"/>
      </g>
     </g>
     <g id="text_12">
      <!-- 3 -->
      <g transform="translate(20.878125 55.700925) scale(0.1 -0.1)">
       <defs>
        <path id="DejaVuSans-33" d="M 2597 2516 
Q 3050 2419 3304 2112 
Q 3559 1806 3559 1356 
Q 3559 666 3084 287 
Q 2609 -91 1734 -91 
Q 1441 -91 1130 -33 
Q 819 25 488 141 
L 488 750 
Q 750 597 1062 519 
Q 1375 441 1716 441 
Q 2309 441 2620 675 
Q 2931 909 2931 1356 
Q 2931 1769 2642 2001 
Q 2353 2234 1838 2234 
L 1294 2234 
L 1294 2753 
L 1863 2753 
Q 2328 2753 2575 2939 
Q 2822 3125 2822 3475 
Q 2822 3834 2567 4026 
Q 2313 4219 1838 4219 
Q 1578 4219 1281 4162 
Q 984 4106 628 3988 
L 628 4550 
Q 988 4650 1302 4700 
Q 1616 4750 1894 4750 
Q 2613 4750 3031 4423 
Q 3450 4097 3450 3541 
Q 3450 3153 3228 2886 
Q 3006 2619 2597 2516 
z
" transform="scale(0.015625)"/>
       </defs>
       <use xlink:href="#DejaVuSans-33"/>
      </g>
     </g>
    </g>
    <g id="ytick_5">
     <g id="line2d_12">
      <g>
       <use xlink:href="#m657bd72b16" x="34.240625" y="10.999219" style="stroke: #000000; stroke-width: 0.8"/>
      </g>
     </g>
     <g id="text_13">
      <!-- 4 -->
      <g transform="translate(20.878125 14.798438) scale(0.1 -0.1)">
       <use xlink:href="#DejaVuSans-34"/>
      </g>
     </g>
    </g>
    <g id="text_14">
     <!-- Density -->
     <g transform="translate(14.798437 110.457763) rotate(-90) scale(0.1 -0.1)">
      <defs>
       <path id="DejaVuSans-44" d="M 1259 4147 
L 1259 519 
L 2022 519 
Q 2988 519 3436 956 
Q 3884 1394 3884 2338 
Q 3884 3275 3436 3711 
Q 2988 4147 2022 4147 
L 1259 4147 
z
M 628 4666 
L 1925 4666 
Q 3281 4666 3915 4102 
Q 4550 3538 4550 2338 
Q 4550 1131 3912 565 
Q 3275 0 1925 0 
L 628 0 
L 628 4666 
z
" transform="scale(0.015625)"/>
       <path id="DejaVuSans-65" d="M 3597 1894 
L 3597 1613 
L 953 1613 
Q 991 1019 1311 708 
Q 1631 397 2203 397 
Q 2534 397 2845 478 
Q 3156 559 3463 722 
L 3463 178 
Q 3153 47 2828 -22 
Q 2503 -91 2169 -91 
Q 1331 -91 842 396 
Q 353 884 353 1716 
Q 353 2575 817 3079 
Q 1281 3584 2069 3584 
Q 2775 3584 3186 3129 
Q 3597 2675 3597 1894 
z
M 3022 2063 
Q 3016 2534 2758 2815 
Q 2500 3097 2075 3097 
Q 1594 3097 1305 2825 
Q 1016 2553 972 2059 
L 3022 2063 
z
" transform="scale(0.015625)"/>
       <path id="DejaVuSans-6e" d="M 3513 2113 
L 3513 0 
L 2938 0 
L 2938 2094 
Q 2938 2591 2744 2837 
Q 2550 3084 2163 3084 
Q 1697 3084 1428 2787 
Q 1159 2491 1159 1978 
L 1159 0 
L 581 0 
L 581 3500 
L 1159 3500 
L 1159 2956 
Q 1366 3272 1645 3428 
Q 1925 3584 2291 3584 
Q 2894 3584 3203 3211 
Q 3513 2838 3513 2113 
z
" transform="scale(0.015625)"/>
       <path id="DejaVuSans-73" d="M 2834 3397 
L 2834 2853 
Q 2591 2978 2328 3040 
Q 2066 3103 1784 3103 
Q 1356 3103 1142 2972 
Q 928 2841 928 2578 
Q 928 2378 1081 2264 
Q 1234 2150 1697 2047 
L 1894 2003 
Q 2506 1872 2764 1633 
Q 3022 1394 3022 966 
Q 3022 478 2636 193 
Q 2250 -91 1575 -91 
Q 1294 -91 989 -36 
Q 684 19 347 128 
L 347 722 
Q 666 556 975 473 
Q 1284 391 1588 391 
Q 1994 391 2212 530 
Q 2431 669 2431 922 
Q 2431 1156 2273 1281 
Q 2116 1406 1581 1522 
L 1381 1569 
Q 847 1681 609 1914 
Q 372 2147 372 2553 
Q 372 3047 722 3315 
Q 1072 3584 1716 3584 
Q 2034 3584 2315 3537 
Q 2597 3491 2834 3397 
z
" transform="scale(0.015625)"/>
       <path id="DejaVuSans-69" d="M 603 3500 
L 1178 3500 
L 1178 0 
L 603 0 
L 603 3500 
z
M 603 4863 
L 1178 4863 
L 1178 4134 
L 603 4134 
L 603 4863 
z
" transform="scale(0.015625)"/>
       <path id="DejaVuSans-74" d="M 1172 4494 
L 1172 3500 
L 2356 3500 
L 2356 3053 
L 1172 3053 
L 1172 1153 
Q 1172 725 1289 603 
Q 1406 481 1766 481 
L 2356 481 
L 2356 0 
L 1766 0 
Q 1100 0 847 248 
Q 594 497 594 1153 
L 594 3053 
L 172 3053 
L 172 3500 
L 594 3500 
L 594 4494 
L 1172 4494 
z
" transform="scale(0.015625)"/>
       <path id="DejaVuSans-79" d="M 2059 -325 
Q 1816 -950 1584 -1140 
Q 1353 -1331 966 -1331 
L 506 -1331 
L 506 -850 
L 844 -850 
Q 1081 -850 1212 -737 
Q 1344 -625 1503 -206 
L 1606 56 
L 191 3500 
L 800 3500 
L 1894 763 
L 2988 3500 
L 3597 3500 
L 2059 -325 
z
" transform="scale(0.015625)"/>
      </defs>
      <use xlink:href="#DejaVuSans-44"/>
      <use xlink:href="#DejaVuSans-65" transform="translate(77.001953 0)"/>
      <use xlink:href="#DejaVuSans-6e" transform="translate(138.525391 0)"/>
      <use xlink:href="#DejaVuSans-73" transform="translate(201.904297 0)"/>
      <use xlink:href="#DejaVuSans-69" transform="translate(254.003906 0)"/>
      <use xlink:href="#DejaVuSans-74" transform="translate(281.787109 0)"/>
      <use xlink:href="#DejaVuSans-79" transform="translate(320.996094 0)"/>
     </g>
    </g>
   </g>
   <g id="line2d_13">
    <path d="M 237.388733 174.609169 
L 237.388733 8.289169 
" clip-path="url(#pc284f517ce)" style="fill: none; stroke-dasharray: 5.55,2.4; stroke-dashoffset: 0; stroke: #ff0000; stroke-width: 1.5"/>
   </g>
   <g id="patch_201">
    <path d="M 34.240625 174.609169 
L 34.240625 8.289169 
" style="fill: none; stroke: #000000; stroke-width: 0.8; stroke-linejoin: miter; stroke-linecap: square"/>
   </g>
   <g id="patch_202">
    <path d="M 369.040625 174.609169 
L 369.040625 8.289169 
" style="fill: none; stroke: #000000; stroke-width: 0.8; stroke-linejoin: miter; stroke-linecap: square"/>
   </g>
   <g id="patch_203">
    <path d="M 34.240625 174.609169 
L 369.040625 174.609169 
" style="fill: none; stroke: #000000; stroke-width: 0.8; stroke-linejoin: miter; stroke-linecap: square"/>
   </g>
   <g id="patch_204">
    <path d="M 34.240625 8.289169 
L 369.040625 8.289169 
" style="fill: none; stroke: #000000; stroke-width: 0.8; stroke-linejoin: miter; stroke-linecap: square"/>
   </g>
   <g id="legend_1">
    <g id="patch_205">
     <path d="M 294.835938 60.323544 
L 362.040625 60.323544 
Q 364.040625 60.323544 364.040625 58.323544 
L 364.040625 15.289169 
Q 364.040625 13.289169 362.040625 13.289169 
L 294.835938 13.289169 
Q 292.835938 13.289169 292.835938 15.289169 
L 292.835938 58.323544 
Q 292.835938 60.323544 294.835938 60.323544 
z
" style="fill: #ffffff; opacity: 0.8; stroke: #cccccc; stroke-linejoin: miter"/>
    </g>
    <g id="patch_206">
     <path d="M 296.835938 24.887606 
L 316.835938 24.887606 
L 316.835938 17.887606 
L 296.835938 17.887606 
z
" style="fill: #1f77b4"/>
    </g>
    <g id="text_15">
     <!-- OLS fit -->
     <g transform="translate(324.835938 24.887606) scale(0.1 -0.1)">
      <defs>
       <path id="DejaVuSans-4f" d="M 2522 4238 
Q 1834 4238 1429 3725 
Q 1025 3213 1025 2328 
Q 1025 1447 1429 934 
Q 1834 422 2522 422 
Q 3209 422 3611 934 
Q 4013 1447 4013 2328 
Q 4013 3213 3611 3725 
Q 3209 4238 2522 4238 
z
M 2522 4750 
Q 3503 4750 4090 4092 
Q 4678 3434 4678 2328 
Q 4678 1225 4090 567 
Q 3503 -91 2522 -91 
Q 1538 -91 948 565 
Q 359 1222 359 2328 
Q 359 3434 948 4092 
Q 1538 4750 2522 4750 
z
" transform="scale(0.015625)"/>
       <path id="DejaVuSans-4c" d="M 628 4666 
L 1259 4666 
L 1259 531 
L 3531 531 
L 3531 0 
L 628 0 
L 628 4666 
z
" transform="scale(0.015625)"/>
       <path id="DejaVuSans-53" d="M 3425 4513 
L 3425 3897 
Q 3066 4069 2747 4153 
Q 2428 4238 2131 4238 
Q 1616 4238 1336 4038 
Q 1056 3838 1056 3469 
Q 1056 3159 1242 3001 
Q 1428 2844 1947 2747 
L 2328 2669 
Q 3034 2534 3370 2195 
Q 3706 1856 3706 1288 
Q 3706 609 3251 259 
Q 2797 -91 1919 -91 
Q 1588 -91 1214 -16 
Q 841 59 441 206 
L 441 856 
Q 825 641 1194 531 
Q 1563 422 1919 422 
Q 2459 422 2753 634 
Q 3047 847 3047 1241 
Q 3047 1584 2836 1778 
Q 2625 1972 2144 2069 
L 1759 2144 
Q 1053 2284 737 2584 
Q 422 2884 422 3419 
Q 422 4038 858 4394 
Q 1294 4750 2059 4750 
Q 2388 4750 2728 4690 
Q 3069 4631 3425 4513 
z
" transform="scale(0.015625)"/>
       <path id="DejaVuSans-20" transform="scale(0.015625)"/>
       <path id="DejaVuSans-66" d="M 2375 4863 
L 2375 4384 
L 1825 4384 
Q 1516 4384 1395 4259 
Q 1275 4134 1275 3809 
L 1275 3500 
L 2222 3500 
L 2222 3053 
L 1275 3053 
L 1275 0 
L 697 0 
L 697 3053 
L 147 3053 
L 147 3500 
L 697 3500 
L 697 3744 
Q 697 4328 969 4595 
Q 1241 4863 1831 4863 
L 2375 4863 
z
" transform="scale(0.015625)"/>
      </defs>
      <use xlink:href="#DejaVuSans-4f"/>
      <use xlink:href="#DejaVuSans-4c" transform="translate(78.710938 0)"/>
      <use xlink:href="#DejaVuSans-53" transform="translate(134.423828 0)"/>
      <use xlink:href="#DejaVuSans-20" transform="translate(197.900391 0)"/>
      <use xlink:href="#DejaVuSans-66" transform="translate(229.6875 0)"/>
      <use xlink:href="#DejaVuSans-69" transform="translate(264.892578 0)"/>
      <use xlink:href="#DejaVuSans-74" transform="translate(292.675781 0)"/>
     </g>
    </g>
    <g id="patch_207">
     <path d="M 296.835938 39.565731 
L 316.835938 39.565731 
L 316.835938 32.565731 
L 296.835938 32.565731 
z
" style="fill: #ff7f0e"/>
    </g>
    <g id="text_16">
     <!-- WLS fit -->
     <g transform="translate(324.835938 39.565731) scale(0.1 -0.1)">
      <defs>
       <path id="DejaVuSans-57" d="M 213 4666 
L 850 4666 
L 1831 722 
L 2809 4666 
L 3519 4666 
L 4500 722 
L 5478 4666 
L 6119 4666 
L 4947 0 
L 4153 0 
L 3169 4050 
L 2175 0 
L 1381 0 
L 213 4666 
z
" transform="scale(0.015625)"/>
      </defs>
      <use xlink:href="#DejaVuSans-57"/>
      <use xlink:href="#DejaVuSans-4c" transform="translate(98.876953 0)"/>
      <use xlink:href="#DejaVuSans-53" transform="translate(154.589844 0)"/>
      <use xlink:href="#DejaVuSans-20" transform="translate(218.066406 0)"/>
      <use xlink:href="#DejaVuSans-66" transform="translate(249.853516 0)"/>
      <use xlink:href="#DejaVuSans-69" transform="translate(285.058594 0)"/>
      <use xlink:href="#DejaVuSans-74" transform="translate(312.841797 0)"/>
     </g>
    </g>
    <g id="line2d_14">
     <path d="M 296.835938 50.743856 
L 306.835938 50.743856 
L 316.835938 50.743856 
" style="fill: none; stroke-dasharray: 5.55,2.4; stroke-dashoffset: 0; stroke: #ff0000; stroke-width: 1.5"/>
    </g>
    <g id="text_17">
     <!-- true -->
     <g transform="translate(324.835938 54.243856) scale(0.1 -0.1)">
      <defs>
       <path id="DejaVuSans-72" d="M 2631 2963 
Q 2534 3019 2420 3045 
Q 2306 3072 2169 3072 
Q 1681 3072 1420 2755 
Q 1159 2438 1159 1844 
L 1159 0 
L 581 0 
L 581 3500 
L 1159 3500 
L 1159 2956 
Q 1341 3275 1631 3429 
Q 1922 3584 2338 3584 
Q 2397 3584 2469 3576 
Q 2541 3569 2628 3553 
L 2631 2963 
z
" transform="scale(0.015625)"/>
       <path id="DejaVuSans-75" d="M 544 1381 
L 544 3500 
L 1119 3500 
L 1119 1403 
Q 1119 906 1312 657 
Q 1506 409 1894 409 
Q 2359 409 2629 706 
Q 2900 1003 2900 1516 
L 2900 3500 
L 3475 3500 
L 3475 0 
L 2900 0 
L 2900 538 
Q 2691 219 2414 64 
Q 2138 -91 1772 -91 
Q 1169 -91 856 284 
Q 544 659 544 1381 
z
M 1991 3584 
L 1991 3584 
z
" transform="scale(0.015625)"/>
      </defs>
      <use xlink:href="#DejaVuSans-74"/>
      <use xlink:href="#DejaVuSans-72" transform="translate(39.208984 0)"/>
      <use xlink:href="#DejaVuSans-75" transform="translate(80.322266 0)"/>
      <use xlink:href="#DejaVuSans-65" transform="translate(143.701172 0)"/>
     </g>
    </g>
   </g>
  </g>
 </g>
 <defs>
  <clipPath id="pc284f517ce">
   <rect x="34.240625" y="8.289169" width="334.8" height="166.32"/>
  </clipPath>
 </defs>
</svg>
