<?xml version="1.0" encoding="utf-8" standalone="no"?>
<!DOCTYPE svg PUBLIC "-//W3C//DTD SVG 1.1//EN"
  "http://www.w3.org/Graphics/SVG/1.1/DTD/svg11.dtd">
<svg xmlns:xlink="http://www.w3.org/1999/xlink" width="385.78125pt" height="214.898125pt" viewBox="0 0 385.78125 214.898125" xmlns="http://www.w3.org/2000/svg" version="1.1">
 <metadata>
  <rdf:RDF xmlns:dc="http://purl.org/dc/elements/1.1/" xmlns:cc="http://creativecommons.org/ns#" xmlns:rdf="http://www.w3.org/1999/02/22-rdf-syntax-ns#">
   <cc:Work>
    <dc:type rdf:resource="http://purl.org/dc/dcmitype/StillImage"/>
    <dc:date>2025-02-01T01:14:22.538881</dc:date>
    <dc:format>image/svg+xml</dc:format>
    <dc:creator>
     <cc:Agent>
      <dc:title>Matplotlib v3.10.0, https://matplotlib.org/</dc:title>
     </cc:Agent>
    </dc:creator>
   </cc:Work>
  </rdf:RDF>
 </metadata>
 <defs>
  <style type="text/css">*{stroke-linejoin: round; stroke-linecap: butt}</style>
 </defs>
 <g id="figure_1">
  <g id="patch_1">
   <path d="M 0 214.898125 
L 385.78125 214.898125 
L 385.78125 0 
L 0 0 
z
" style="fill: #ffffff"/>
  </g>
  <g id="axes_1">
   <g id="patch_2">
    <path d="M 43.78125 173.52 
L 378.58125 173.52 
L 378.58125 7.2 
L 43.78125 7.2 
z
" style="fill: #ffffff"/>
   </g>
   <g id="patch_3">
    <path d="M 58.999432 173.52 
L 63.650336 173.52 
L 63.650336 172.993957 
L 58.999432 172.993957 
z
" clip-path="url(#pd16e12fcfc)" style="fill: #1f77b4"/>
   </g>
   <g id="patch_4">
    <path d="M 63.650336 173.52 
L 68.355061 173.52 
L 68.355061 172.999975 
L 63.650336 172.999975 
z
" clip-path="url(#pd16e12fcfc)" style="fill: #1f77b4"/>
   </g>
   <g id="patch_5">
    <path d="M 68.355061 173.52 
L 73.11423 173.52 
L 73.11423 173.52 
L 68.355061 173.52 
z
" clip-path="url(#pd16e12fcfc)" style="fill: #1f77b4"/>
   </g>
   <g id="patch_6">
    <path d="M 73.11423 173.52 
L 77.928473 173.52 
L 77.928473 173.52 
L 73.11423 173.52 
z
" clip-path="url(#pd16e12fcfc)" style="fill: #1f77b4"/>
   </g>
   <g id="patch_7">
    <path d="M 77.928473 173.52 
L 82.798427 173.52 
L 82.798427 173.52 
L 77.928473 173.52 
z
" clip-path="url(#pd16e12fcfc)" style="fill: #1f77b4"/>
   </g>
   <g id="patch_8">
    <path d="M 82.798427 173.52 
L 87.724738 173.52 
L 87.724738 173.52 
L 82.798427 173.52 
z
" clip-path="url(#pd16e12fcfc)" style="fill: #1f77b4"/>
   </g>
   <g id="patch_9">
    <path d="M 87.724738 173.52 
L 92.708057 173.52 
L 92.708057 172.292618 
L 87.724738 172.292618 
z
" clip-path="url(#pd16e12fcfc)" style="fill: #1f77b4"/>
   </g>
   <g id="patch_10">
    <path d="M 92.708057 173.52 
L 97.749043 173.52 
L 97.749043 171.578655 
L 92.708057 171.578655 
z
" clip-path="url(#pd16e12fcfc)" style="fill: #1f77b4"/>
   </g>
   <g id="patch_11">
    <path d="M 97.749043 173.52 
L 102.848365 173.52 
L 102.848365 171.840756 
L 97.749043 171.840756 
z
" clip-path="url(#pd16e12fcfc)" style="fill: #1f77b4"/>
   </g>
   <g id="patch_12">
    <path d="M 102.848365 173.52 
L 108.006698 173.52 
L 108.006698 170.199932 
L 102.848365 170.199932 
z
" clip-path="url(#pd16e12fcfc)" style="fill: #1f77b4"/>
   </g>
   <g id="patch_13">
    <path d="M 108.006698 173.52 
L 113.224723 173.52 
L 113.224723 168.127999 
L 108.006698 168.127999 
z
" clip-path="url(#pd16e12fcfc)" style="fill: #1f77b4"/>
   </g>
   <g id="patch_14">
    <path d="M 113.224723 173.52 
L 118.503133 173.52 
L 118.503133 168.421436 
L 113.224723 168.421436 
z
" clip-path="url(#pd16e12fcfc)" style="fill: #1f77b4"/>
   </g>
   <g id="patch_15">
    <path d="M 118.503133 173.52 
L 123.842625 173.52 
L 123.842625 166.87605 
L 118.503133 166.87605 
z
" clip-path="url(#pd16e12fcfc)" style="fill: #1f77b4"/>
   </g>
   <g id="patch_16">
    <path d="M 123.842625 173.52 
L 129.243907 173.52 
L 129.243907 162.422439 
L 123.842625 162.422439 
z
" clip-path="url(#pd16e12fcfc)" style="fill: #1f77b4"/>
   </g>
   <g id="patch_17">
    <path d="M 129.243907 173.52 
L 134.707693 173.52 
L 134.707693 159.414934 
L 129.243907 159.414934 
z
" clip-path="url(#pd16e12fcfc)" style="fill: #1f77b4"/>
   </g>
   <g id="patch_18">
    <path d="M 134.707693 173.52 
L 140.234708 173.52 
L 140.234708 156.699021 
L 134.707693 156.699021 
z
" clip-path="url(#pd16e12fcfc)" style="fill: #1f77b4"/>
   </g>
   <g id="patch_19">
    <path d="M 140.234708 173.52 
L 145.825682 173.52 
L 145.825682 152.734312 
L 140.234708 152.734312 
z
" clip-path="url(#pd16e12fcfc)" style="fill: #1f77b4"/>
   </g>
   <g id="patch_20">
    <path d="M 145.825682 173.52 
L 151.481356 173.52 
L 151.481356 141.724822 
L 145.825682 141.724822 
z
" clip-path="url(#pd16e12fcfc)" style="fill: #1f77b4"/>
   </g>
   <g id="patch_21">
    <path d="M 151.481356 173.52 
L 157.202479 173.52 
L 157.202479 132.039043 
L 151.481356 132.039043 
z
" clip-path="url(#pd16e12fcfc)" style="fill: #1f77b4"/>
   </g>
   <g id="patch_22">
    <path d="M 157.202479 173.52 
L 162.989808 173.52 
L 162.989808 131.879457 
L 157.202479 131.879457 
z
" clip-path="url(#pd16e12fcfc)" style="fill: #1f77b4"/>
   </g>
   <g id="patch_23">
    <path d="M 162.989808 173.52 
L 168.844108 173.52 
L 168.844108 121.490144 
L 162.989808 121.490144 
z
" clip-path="url(#pd16e12fcfc)" style="fill: #1f77b4"/>
   </g>
   <g id="patch_24">
    <path d="M 168.844108 173.52 
L 174.766156 173.52 
L 174.766156 116.508105 
L 168.844108 116.508105 
z
" clip-path="url(#pd16e12fcfc)" style="fill: #1f77b4"/>
   </g>
   <g id="patch_25">
    <path d="M 174.766156 173.52 
L 180.756735 173.52 
L 180.756735 101.232572 
L 174.766156 101.232572 
z
" clip-path="url(#pd16e12fcfc)" style="fill: #1f77b4"/>
   </g>
   <g id="patch_26">
    <path d="M 180.756735 173.52 
L 186.816638 173.52 
L 186.816638 84.900939 
L 180.756735 84.900939 
z
" clip-path="url(#pd16e12fcfc)" style="fill: #1f77b4"/>
   </g>
   <g id="patch_27">
    <path d="M 186.816638 173.52 
L 192.946667 173.52 
L 192.946667 83.32049 
L 186.816638 83.32049 
z
" clip-path="url(#pd16e12fcfc)" style="fill: #1f77b4"/>
   </g>
   <g id="patch_28">
    <path d="M 192.946667 173.52 
L 199.147634 173.52 
L 199.147634 71.924122 
L 192.946667 71.924122 
z
" clip-path="url(#pd16e12fcfc)" style="fill: #1f77b4"/>
   </g>
   <g id="patch_29">
    <path d="M 199.147634 173.52 
L 205.420361 173.52 
L 205.420361 58.460101 
L 199.147634 58.460101 
z
" clip-path="url(#pd16e12fcfc)" style="fill: #1f77b4"/>
   </g>
   <g id="patch_30">
    <path d="M 205.420361 173.52 
L 211.765676 173.52 
L 211.765676 58.619649 
L 205.420361 58.619649 
z
" clip-path="url(#pd16e12fcfc)" style="fill: #1f77b4"/>
   </g>
   <g id="patch_31">
    <path d="M 211.765676 173.52 
L 218.18442 173.52 
L 218.18442 46.59346 
L 211.765676 46.59346 
z
" clip-path="url(#pd16e12fcfc)" style="fill: #1f77b4"/>
   </g>
   <g id="patch_32">
    <path d="M 218.18442 173.52 
L 224.677444 173.52 
L 224.677444 58.407486 
L 218.18442 58.407486 
z
" clip-path="url(#pd16e12fcfc)" style="fill: #1f77b4"/>
   </g>
   <g id="patch_33">
    <path d="M 224.677444 173.52 
L 231.245606 173.52 
L 231.245606 56.558187 
L 224.677444 56.558187 
z
" clip-path="url(#pd16e12fcfc)" style="fill: #1f77b4"/>
   </g>
   <g id="patch_34">
    <path d="M 231.245606 173.52 
L 237.889776 173.52 
L 237.889776 63.051409 
L 231.245606 63.051409 
z
" clip-path="url(#pd16e12fcfc)" style="fill: #1f77b4"/>
   </g>
   <g id="patch_35">
    <path d="M 237.889776 173.52 
L 244.610833 173.52 
L 244.610833 73.415553 
L 237.889776 73.415553 
z
" clip-path="url(#pd16e12fcfc)" style="fill: #1f77b4"/>
   </g>
   <g id="patch_36">
    <path d="M 244.610833 173.52 
L 251.409668 173.52 
L 251.409668 88.055175 
L 244.610833 88.055175 
z
" clip-path="url(#pd16e12fcfc)" style="fill: #1f77b4"/>
   </g>
   <g id="patch_37">
    <path d="M 251.409668 173.52 
L 258.287181 173.52 
L 258.287181 93.835302 
L 251.409668 93.835302 
z
" clip-path="url(#pd16e12fcfc)" style="fill: #1f77b4"/>
   </g>
   <g id="patch_38">
    <path d="M 258.287181 173.52 
L 265.244281 173.52 
L 265.244281 111.275169 
L 258.287181 111.275169 
z
" clip-path="url(#pd16e12fcfc)" style="fill: #1f77b4"/>
   </g>
   <g id="patch_39">
    <path d="M 265.244281 173.52 
L 272.28189 173.52 
L 272.28189 114.942201 
L 265.244281 114.942201 
z
" clip-path="url(#pd16e12fcfc)" style="fill: #1f77b4"/>
   </g>
   <g id="patch_40">
    <path d="M 272.28189 173.52 
L 279.40094 173.52 
L 279.40094 134.685769 
L 272.28189 134.685769 
z
" clip-path="url(#pd16e12fcfc)" style="fill: #1f77b4"/>
   </g>
   <g id="patch_41">
    <path d="M 279.40094 173.52 
L 286.602373 173.52 
L 286.602373 138.017767 
L 279.40094 138.017767 
z
" clip-path="url(#pd16e12fcfc)" style="fill: #1f77b4"/>
   </g>
   <g id="patch_42">
    <path d="M 286.602373 173.52 
L 293.887142 173.52 
L 293.887142 146.316329 
L 286.602373 146.316329 
z
" clip-path="url(#pd16e12fcfc)" style="fill: #1f77b4"/>
   </g>
   <g id="patch_43">
    <path d="M 293.887142 173.52 
L 301.256212 173.52 
L 301.256212 154.927678 
L 293.887142 154.927678 
z
" clip-path="url(#pd16e12fcfc)" style="fill: #1f77b4"/>
   </g>
   <g id="patch_44">
    <path d="M 301.256212 173.52 
L 308.710558 173.52 
L 308.710558 159.571174 
L 301.256212 159.571174 
z
" clip-path="url(#pd16e12fcfc)" style="fill: #1f77b4"/>
   </g>
   <g id="patch_45">
    <path d="M 308.710558 173.52 
L 316.251168 173.52 
L 316.251168 165.733127 
L 308.710558 165.733127 
z
" clip-path="url(#pd16e12fcfc)" style="fill: #1f77b4"/>
   </g>
   <g id="patch_46">
    <path d="M 316.251168 173.52 
L 323.879038 173.52 
L 323.879038 168.067397 
L 316.251168 168.067397 
z
" clip-path="url(#pd16e12fcfc)" style="fill: #1f77b4"/>
   </g>
   <g id="patch_47">
    <path d="M 323.879038 173.52 
L 331.59518 173.52 
L 331.59518 169.239526 
L 323.879038 169.239526 
z
" clip-path="url(#pd16e12fcfc)" style="fill: #1f77b4"/>
   </g>
   <g id="patch_48">
    <path d="M 331.59518 173.52 
L 339.400615 173.52 
L 339.400615 171.952776 
L 331.59518 171.952776 
z
" clip-path="url(#pd16e12fcfc)" style="fill: #1f77b4"/>
   </g>
   <g id="patch_49">
    <path d="M 339.400615 173.52 
L 347.296376 173.52 
L 347.296376 172.125634 
L 339.400615 172.125634 
z
" clip-path="url(#pd16e12fcfc)" style="fill: #1f77b4"/>
   </g>
   <g id="patch_50">
    <path d="M 347.296376 173.52 
L 355.283508 173.52 
L 355.283508 173.060528 
L 347.296376 173.060528 
z
" clip-path="url(#pd16e12fcfc)" style="fill: #1f77b4"/>
   </g>
   <g id="patch_51">
    <path d="M 355.283508 173.52 
L 363.363068 173.52 
L 363.363068 173.21719 
L 355.283508 173.21719 
z
" clip-path="url(#pd16e12fcfc)" style="fill: #1f77b4"/>
   </g>
   <g id="patch_52">
    <path d="M 75.145232 173.52 
L 79.247146 173.52 
L 79.247146 173.221777 
L 75.145232 173.221777 
z
" clip-path="url(#pd16e12fcfc)" style="fill: #ff7f0e"/>
   </g>
   <g id="patch_53">
    <path d="M 79.247146 173.52 
L 83.389308 173.52 
L 83.389308 173.52 
L 79.247146 173.52 
z
" clip-path="url(#pd16e12fcfc)" style="fill: #ff7f0e"/>
   </g>
   <g id="patch_54">
    <path d="M 83.389308 173.52 
L 87.572112 173.52 
L 87.572112 173.52 
L 83.389308 173.52 
z
" clip-path="url(#pd16e12fcfc)" style="fill: #ff7f0e"/>
   </g>
   <g id="patch_55">
    <path d="M 87.572112 173.52 
L 91.795959 173.52 
L 91.795959 173.52 
L 87.572112 173.52 
z
" clip-path="url(#pd16e12fcfc)" style="fill: #ff7f0e"/>
   </g>
   <g id="patch_56">
    <path d="M 91.795959 173.52 
L 96.06125 173.52 
L 96.06125 173.2332 
L 91.795959 173.2332 
z
" clip-path="url(#pd16e12fcfc)" style="fill: #ff7f0e"/>
   </g>
   <g id="patch_57">
    <path d="M 96.06125 173.52 
L 100.368392 173.52 
L 100.368392 173.52 
L 96.06125 173.52 
z
" clip-path="url(#pd16e12fcfc)" style="fill: #ff7f0e"/>
   </g>
   <g id="patch_58">
    <path d="M 100.368392 173.52 
L 104.717797 173.52 
L 104.717797 173.52 
L 100.368392 173.52 
z
" clip-path="url(#pd16e12fcfc)" style="fill: #ff7f0e"/>
   </g>
   <g id="patch_59">
    <path d="M 104.717797 173.52 
L 109.109877 173.52 
L 109.109877 172.684437 
L 104.717797 172.684437 
z
" clip-path="url(#pd16e12fcfc)" style="fill: #ff7f0e"/>
   </g>
   <g id="patch_60">
    <path d="M 109.109877 173.52 
L 113.545053 173.52 
L 113.545053 173.244185 
L 109.109877 173.244185 
z
" clip-path="url(#pd16e12fcfc)" style="fill: #ff7f0e"/>
   </g>
   <g id="patch_61">
    <path d="M 113.545053 173.52 
L 118.023747 173.52 
L 118.023747 172.427461 
L 113.545053 172.427461 
z
" clip-path="url(#pd16e12fcfc)" style="fill: #ff7f0e"/>
   </g>
   <g id="patch_62">
    <path d="M 118.023747 173.52 
L 122.546386 173.52 
L 122.546386 171.085673 
L 118.023747 171.085673 
z
" clip-path="url(#pd16e12fcfc)" style="fill: #ff7f0e"/>
   </g>
   <g id="patch_63">
    <path d="M 122.546386 173.52 
L 127.113401 173.52 
L 127.113401 170.573622 
L 122.546386 170.573622 
z
" clip-path="url(#pd16e12fcfc)" style="fill: #ff7f0e"/>
   </g>
   <g id="patch_64">
    <path d="M 127.113401 173.52 
L 131.725229 173.52 
L 131.725229 169.010751 
L 127.113401 169.010751 
z
" clip-path="url(#pd16e12fcfc)" style="fill: #ff7f0e"/>
   </g>
   <g id="patch_65">
    <path d="M 131.725229 173.52 
L 136.382307 173.52 
L 136.382307 168.266548 
L 131.725229 168.266548 
z
" clip-path="url(#pd16e12fcfc)" style="fill: #ff7f0e"/>
   </g>
   <g id="patch_66">
    <path d="M 136.382307 173.52 
L 141.085081 173.52 
L 141.085081 164.675911 
L 136.382307 164.675911 
z
" clip-path="url(#pd16e12fcfc)" style="fill: #ff7f0e"/>
   </g>
   <g id="patch_67">
    <path d="M 141.085081 173.52 
L 145.833999 173.52 
L 145.833999 165.019439 
L 141.085081 165.019439 
z
" clip-path="url(#pd16e12fcfc)" style="fill: #ff7f0e"/>
   </g>
   <g id="patch_68">
    <path d="M 145.833999 173.52 
L 150.629513 173.52 
L 150.629513 157.449342 
L 145.833999 157.449342 
z
" clip-path="url(#pd16e12fcfc)" style="fill: #ff7f0e"/>
   </g>
   <g id="patch_69">
    <path d="M 150.629513 173.52 
L 155.472081 173.52 
L 155.472081 148.511493 
L 150.629513 148.511493 
z
" clip-path="url(#pd16e12fcfc)" style="fill: #ff7f0e"/>
   </g>
   <g id="patch_70">
    <path d="M 155.472081 173.52 
L 160.362164 173.52 
L 160.362164 146.00277 
L 155.472081 146.00277 
z
" clip-path="url(#pd16e12fcfc)" style="fill: #ff7f0e"/>
   </g>
   <g id="patch_71">
    <path d="M 160.362164 173.52 
L 165.300229 173.52 
L 165.300229 143.792887 
L 160.362164 143.792887 
z
" clip-path="url(#pd16e12fcfc)" style="fill: #ff7f0e"/>
   </g>
   <g id="patch_72">
    <path d="M 165.300229 173.52 
L 170.286747 173.52 
L 170.286747 124.701546 
L 165.300229 124.701546 
z
" clip-path="url(#pd16e12fcfc)" style="fill: #ff7f0e"/>
   </g>
   <g id="patch_73">
    <path d="M 170.286747 173.52 
L 175.322193 173.52 
L 175.322193 114.486753 
L 170.286747 114.486753 
z
" clip-path="url(#pd16e12fcfc)" style="fill: #ff7f0e"/>
   </g>
   <g id="patch_74">
    <path d="M 175.322193 173.52 
L 180.407046 173.52 
L 180.407046 106.640248 
L 175.322193 106.640248 
z
" clip-path="url(#pd16e12fcfc)" style="fill: #ff7f0e"/>
   </g>
   <g id="patch_75">
    <path d="M 180.407046 173.52 
L 185.541792 173.52 
L 185.541792 87.278185 
L 180.407046 87.278185 
z
" clip-path="url(#pd16e12fcfc)" style="fill: #ff7f0e"/>
   </g>
   <g id="patch_76">
    <path d="M 185.541792 173.52 
L 190.726921 173.52 
L 190.726921 75.140451 
L 185.541792 75.140451 
z
" clip-path="url(#pd16e12fcfc)" style="fill: #ff7f0e"/>
   </g>
   <g id="patch_77">
    <path d="M 190.726921 173.52 
L 195.962926 173.52 
L 195.962926 60.676808 
L 190.726921 60.676808 
z
" clip-path="url(#pd16e12fcfc)" style="fill: #ff7f0e"/>
   </g>
   <g id="patch_78">
    <path d="M 195.962926 173.52 
L 201.250307 173.52 
L 201.250307 44.884014 
L 195.962926 44.884014 
z
" clip-path="url(#pd16e12fcfc)" style="fill: #ff7f0e"/>
   </g>
   <g id="patch_79">
    <path d="M 201.250307 173.52 
L 206.589568 173.52 
L 206.589568 38.344135 
L 201.250307 38.344135 
z
" clip-path="url(#pd16e12fcfc)" style="fill: #ff7f0e"/>
   </g>
   <g id="patch_80">
    <path d="M 206.589568 173.52 
L 211.981218 173.52 
L 211.981218 34.212347 
L 206.589568 34.212347 
z
" clip-path="url(#pd16e12fcfc)" style="fill: #ff7f0e"/>
   </g>
   <g id="patch_81">
    <path d="M 211.981218 173.52 
L 217.425771 173.52 
L 217.425771 15.12 
L 211.981218 15.12 
z
" clip-path="url(#pd16e12fcfc)" style="fill: #ff7f0e"/>
   </g>
   <g id="patch_82">
    <path d="M 217.425771 173.52 
L 222.923746 173.52 
L 222.923746 29.118995 
L 217.425771 29.118995 
z
" clip-path="url(#pd16e12fcfc)" style="fill: #ff7f0e"/>
   </g>
   <g id="patch_83">
    <path d="M 222.923746 173.52 
L 228.475668 173.52 
L 228.475668 23.251016 
L 222.923746 23.251016 
z
" clip-path="url(#pd16e12fcfc)" style="fill: #ff7f0e"/>
   </g>
   <g id="patch_84">
    <path d="M 228.475668 173.52 
L 234.082065 173.52 
L 234.082065 37.802823 
L 228.475668 37.802823 
z
" clip-path="url(#pd16e12fcfc)" style="fill: #ff7f0e"/>
   </g>
   <g id="patch_85">
    <path d="M 234.082065 173.52 
L 239.743473 173.52 
L 239.743473 50.789578 
L 234.082065 50.789578 
z
" clip-path="url(#pd16e12fcfc)" style="fill: #ff7f0e"/>
   </g>
   <g id="patch_86">
    <path d="M 239.743473 173.52 
L 245.46043 173.52 
L 245.46043 55.833665 
L 239.743473 55.833665 
z
" clip-path="url(#pd16e12fcfc)" style="fill: #ff7f0e"/>
   </g>
   <g id="patch_87">
    <path d="M 245.46043 173.52 
L 251.233482 173.52 
L 251.233482 78.16679 
L 245.46043 78.16679 
z
" clip-path="url(#pd16e12fcfc)" style="fill: #ff7f0e"/>
   </g>
   <g id="patch_88">
    <path d="M 251.233482 173.52 
L 257.06318 173.52 
L 257.06318 86.437606 
L 251.233482 86.437606 
z
" clip-path="url(#pd16e12fcfc)" style="fill: #ff7f0e"/>
   </g>
   <g id="patch_89">
    <path d="M 257.06318 173.52 
L 262.950079 173.52 
L 262.950079 112.635136 
L 257.06318 112.635136 
z
" clip-path="url(#pd16e12fcfc)" style="fill: #ff7f0e"/>
   </g>
   <g id="patch_90">
    <path d="M 262.950079 173.52 
L 268.89474 173.52 
L 268.89474 123.10413 
L 262.950079 123.10413 
z
" clip-path="url(#pd16e12fcfc)" style="fill: #ff7f0e"/>
   </g>
   <g id="patch_91">
    <path d="M 268.89474 173.52 
L 274.897731 173.52 
L 274.897731 137.043457 
L 268.89474 137.043457 
z
" clip-path="url(#pd16e12fcfc)" style="fill: #ff7f0e"/>
   </g>
   <g id="patch_92">
    <path d="M 274.897731 173.52 
L 280.959623 173.52 
L 280.959623 147.286065 
L 274.897731 147.286065 
z
" clip-path="url(#pd16e12fcfc)" style="fill: #ff7f0e"/>
   </g>
   <g id="patch_93">
    <path d="M 280.959623 173.52 
L 287.080995 173.52 
L 287.080995 155.534519 
L 280.959623 155.534519 
z
" clip-path="url(#pd16e12fcfc)" style="fill: #ff7f0e"/>
   </g>
   <g id="patch_94">
    <path d="M 287.080995 173.52 
L 293.262429 173.52 
L 293.262429 160.854598 
L 287.080995 160.854598 
z
" clip-path="url(#pd16e12fcfc)" style="fill: #ff7f0e"/>
   </g>
   <g id="patch_95">
    <path d="M 293.262429 173.52 
L 299.504517 173.52 
L 299.504517 165.877014 
L 293.262429 165.877014 
z
" clip-path="url(#pd16e12fcfc)" style="fill: #ff7f0e"/>
   </g>
   <g id="patch_96">
    <path d="M 299.504517 173.52 
L 305.807851 173.52 
L 305.807851 168.668255 
L 299.504517 168.668255 
z
" clip-path="url(#pd16e12fcfc)" style="fill: #ff7f0e"/>
   </g>
   <g id="patch_97">
    <path d="M 305.807851 173.52 
L 312.173035 173.52 
L 312.173035 171.021607 
L 305.807851 171.021607 
z
" clip-path="url(#pd16e12fcfc)" style="fill: #ff7f0e"/>
   </g>
   <g id="patch_98">
    <path d="M 312.173035 173.52 
L 318.600674 173.52 
L 318.600674 172.758733 
L 312.173035 172.758733 
z
" clip-path="url(#pd16e12fcfc)" style="fill: #ff7f0e"/>
   </g>
   <g id="patch_99">
    <path d="M 318.600674 173.52 
L 325.091381 173.52 
L 325.091381 172.200728 
L 318.600674 172.200728 
z
" clip-path="url(#pd16e12fcfc)" style="fill: #ff7f0e"/>
   </g>
   <g id="patch_100">
    <path d="M 325.091381 173.52 
L 331.645775 173.52 
L 331.645775 173.146728 
L 325.091381 173.146728 
z
" clip-path="url(#pd16e12fcfc)" style="fill: #ff7f0e"/>
   </g>
   <g id="matplotlib.axis_1">
    <g id="xtick_1">
     <g id="line2d_1">
      <defs>
       <path id="m2fbb5a52b2" d="M 0 0 
L 0 3.5 
" style="stroke: #000000; stroke-width: 0.8"/>
      </defs>
      <g>
       <use xlink:href="#m2fbb5a52b2" x="49.359155" y="173.52" style="stroke: #000000; stroke-width: 0.8"/>
      </g>
     </g>
     <g id="text_1">
      <!-- 1.4 -->
      <g transform="translate(41.407593 188.118438) scale(0.1 -0.1)">
       <defs>
        <path id="DejaVuSans-31" d="M 794 531 
L 1825 531 
L 1825 4091 
L 703 3866 
L 703 4441 
L 1819 4666 
L 2450 4666 
L 2450 531 
L 3481 531 
L 3481 0 
L 794 0 
L 794 531 
z
" transform="scale(0.015625)"/>
        <path id="DejaVuSans-2e" d="M 684 794 
L 1344 794 
L 1344 0 
L 684 0 
L 684 794 
z
" transform="scale(0.015625)"/>
        <path id="DejaVuSans-34" d="M 2419 4116 
L 825 1625 
L 2419 1625 
L 2419 4116 
z
M 2253 4666 
L 3047 4666 
L 3047 1625 
L 3713 1625 
L 3713 1100 
L 3047 1100 
L 3047 0 
L 2419 0 
L 2419 1100 
L 313 1100 
L 313 1709 
L 2253 4666 
z
" transform="scale(0.015625)"/>
       </defs>
       <use xlink:href="#DejaVuSans-31"/>
       <use xlink:href="#DejaVuSans-2e" transform="translate(63.623047 0)"/>
       <use xlink:href="#DejaVuSans-34" transform="translate(95.410156 0)"/>
      </g>
     </g>
    </g>
    <g id="xtick_2">
     <g id="line2d_2">
      <g>
       <use xlink:href="#m2fbb5a52b2" x="105.396745" y="173.52" style="stroke: #000000; stroke-width: 0.8"/>
      </g>
     </g>
     <g id="text_2">
      <!-- 1.6 -->
      <g transform="translate(97.445182 188.118438) scale(0.1 -0.1)">
       <defs>
        <path id="DejaVuSans-36" d="M 2113 2584 
Q 1688 2584 1439 2293 
Q 1191 2003 1191 1497 
Q 1191 994 1439 701 
Q 1688 409 2113 409 
Q 2538 409 2786 701 
Q 3034 994 3034 1497 
Q 3034 2003 2786 2293 
Q 2538 2584 2113 2584 
z
M 3366 4563 
L 3366 3988 
Q 3128 4100 2886 4159 
Q 2644 4219 2406 4219 
Q 1781 4219 1451 3797 
Q 1122 3375 1075 2522 
Q 1259 2794 1537 2939 
Q 1816 3084 2150 3084 
Q 2853 3084 3261 2657 
Q 3669 2231 3669 1497 
Q 3669 778 3244 343 
Q 2819 -91 2113 -91 
Q 1303 -91 875 529 
Q 447 1150 447 2328 
Q 447 3434 972 4092 
Q 1497 4750 2381 4750 
Q 2619 4750 2861 4703 
Q 3103 4656 3366 4563 
z
" transform="scale(0.015625)"/>
       </defs>
       <use xlink:href="#DejaVuSans-31"/>
       <use xlink:href="#DejaVuSans-2e" transform="translate(63.623047 0)"/>
       <use xlink:href="#DejaVuSans-36" transform="translate(95.410156 0)"/>
      </g>
     </g>
    </g>
    <g id="xtick_3">
     <g id="line2d_3">
      <g>
       <use xlink:href="#m2fbb5a52b2" x="161.434334" y="173.52" style="stroke: #000000; stroke-width: 0.8"/>
      </g>
     </g>
     <g id="text_3">
      <!-- 1.8 -->
      <g transform="translate(153.482771 188.118438) scale(0.1 -0.1)">
       <defs>
        <path id="DejaVuSans-38" d="M 2034 2216 
Q 1584 2216 1326 1975 
Q 1069 1734 1069 1313 
Q 1069 891 1326 650 
Q 1584 409 2034 409 
Q 2484 409 2743 651 
Q 3003 894 3003 1313 
Q 3003 1734 2745 1975 
Q 2488 2216 2034 2216 
z
M 1403 2484 
Q 997 2584 770 2862 
Q 544 3141 544 3541 
Q 544 4100 942 4425 
Q 1341 4750 2034 4750 
Q 2731 4750 3128 4425 
Q 3525 4100 3525 3541 
Q 3525 3141 3298 2862 
Q 3072 2584 2669 2484 
Q 3125 2378 3379 2068 
Q 3634 1759 3634 1313 
Q 3634 634 3220 271 
Q 2806 -91 2034 -91 
Q 1263 -91 848 271 
Q 434 634 434 1313 
Q 434 1759 690 2068 
Q 947 2378 1403 2484 
z
M 1172 3481 
Q 1172 3119 1398 2916 
Q 1625 2713 2034 2713 
Q 2441 2713 2670 2916 
Q 2900 3119 2900 3481 
Q 2900 3844 2670 4047 
Q 2441 4250 2034 4250 
Q 1625 4250 1398 4047 
Q 1172 3844 1172 3481 
z
" transform="scale(0.015625)"/>
       </defs>
       <use xlink:href="#DejaVuSans-31"/>
       <use xlink:href="#DejaVuSans-2e" transform="translate(63.623047 0)"/>
       <use xlink:href="#DejaVuSans-38" transform="translate(95.410156 0)"/>
      </g>
     </g>
    </g>
    <g id="xtick_4">
     <g id="line2d_4">
      <g>
       <use xlink:href="#m2fbb5a52b2" x="217.471923" y="173.52" style="stroke: #000000; stroke-width: 0.8"/>
      </g>
     </g>
     <g id="text_4">
      <!-- 2.0 -->
      <g transform="translate(209.520361 188.118438) scale(0.1 -0.1)">
       <defs>
        <path id="DejaVuSans-32" d="M 1228 531 
L 3431 531 
L 3431 0 
L 469 0 
L 469 531 
Q 828 903 1448 1529 
Q 2069 2156 2228 2338 
Q 2531 2678 2651 2914 
Q 2772 3150 2772 3378 
Q 2772 3750 2511 3984 
Q 2250 4219 1831 4219 
Q 1534 4219 1204 4116 
Q 875 4013 500 3803 
L 500 4441 
Q 881 4594 1212 4672 
Q 1544 4750 1819 4750 
Q 2544 4750 2975 4387 
Q 3406 4025 3406 3419 
Q 3406 3131 3298 2873 
Q 3191 2616 2906 2266 
Q 2828 2175 2409 1742 
Q 1991 1309 1228 531 
z
" transform="scale(0.015625)"/>
        <path id="DejaVuSans-30" d="M 2034 4250 
Q 1547 4250 1301 3770 
Q 1056 3291 1056 2328 
Q 1056 1369 1301 889 
Q 1547 409 2034 409 
Q 2525 409 2770 889 
Q 3016 1369 3016 2328 
Q 3016 3291 2770 3770 
Q 2525 4250 2034 4250 
z
M 2034 4750 
Q 2819 4750 3233 4129 
Q 3647 3509 3647 2328 
Q 3647 1150 3233 529 
Q 2819 -91 2034 -91 
Q 1250 -91 836 529 
Q 422 1150 422 2328 
Q 422 3509 836 4129 
Q 1250 4750 2034 4750 
z
" transform="scale(0.015625)"/>
       </defs>
       <use xlink:href="#DejaVuSans-32"/>
       <use xlink:href="#DejaVuSans-2e" transform="translate(63.623047 0)"/>
       <use xlink:href="#DejaVuSans-30" transform="translate(95.410156 0)"/>
      </g>
     </g>
    </g>
    <g id="xtick_5">
     <g id="line2d_5">
      <g>
       <use xlink:href="#m2fbb5a52b2" x="273.509513" y="173.52" style="stroke: #000000; stroke-width: 0.8"/>
      </g>
     </g>
     <g id="text_5">
      <!-- 2.2 -->
      <g transform="translate(265.55795 188.118438) scale(0.1 -0.1)">
       <use xlink:href="#DejaVuSans-32"/>
       <use xlink:href="#DejaVuSans-2e" transform="translate(63.623047 0)"/>
       <use xlink:href="#DejaVuSans-32" transform="translate(95.410156 0)"/>
      </g>
     </g>
    </g>
    <g id="xtick_6">
     <g id="line2d_6">
      <g>
       <use xlink:href="#m2fbb5a52b2" x="329.547102" y="173.52" style="stroke: #000000; stroke-width: 0.8"/>
      </g>
     </g>
     <g id="text_6">
      <!-- 2.4 -->
      <g transform="translate(321.595539 188.118438) scale(0.1 -0.1)">
       <use xlink:href="#DejaVuSans-32"/>
       <use xlink:href="#DejaVuSans-2e" transform="translate(63.623047 0)"/>
       <use xlink:href="#DejaVuSans-34" transform="translate(95.410156 0)"/>
      </g>
     </g>
    </g>
    <g id="text_7">
     <!-- $\hat{\beta}$ -->
     <g transform="translate(207.98125 205.598125) scale(0.1 -0.1)">
      <defs>
       <path id="DejaVuSans-302" d="M -1831 5119 
L -1369 5119 
L -603 3944 
L -1038 3944 
L -1600 4709 
L -2163 3944 
L -2597 3944 
L -1831 5119 
z
M -1600 3584 
L -1600 3584 
z
" transform="scale(0.015625)"/>
       <path id="DejaVuSans-Oblique-3b2" d="M 872 216 
L 572 -1331 
L -6 -1331 
L 928 3478 
Q 1206 4903 2538 4903 
Q 3888 4903 3659 3700 
Q 3503 2844 2894 2531 
Q 3713 2250 3553 1416 
Q 3272 -69 1759 -66 
Q 1097 -63 872 216 
z
M 1019 966 
Q 1259 422 1875 425 
Q 2775 425 2966 1406 
Q 3138 2288 1675 2219 
L 1778 2750 
Q 2909 2731 3106 3750 
Q 3241 4438 2509 4434 
Q 1691 4434 1503 3459 
L 1019 966 
z
" transform="scale(0.015625)"/>
      </defs>
      <use xlink:href="#DejaVuSans-302" transform="translate(64.532715 34.015625)"/>
      <use xlink:href="#DejaVuSans-Oblique-3b2" transform="translate(0 0.90625)"/>
     </g>
    </g>
   </g>
   <g id="matplotlib.axis_2">
    <g id="ytick_1">
     <g id="line2d_7">
      <defs>
       <path id="mfa6f69e974" d="M 0 0 
L -3.5 0 
" style="stroke: #000000; stroke-width: 0.8"/>
      </defs>
      <g>
       <use xlink:href="#mfa6f69e974" x="43.78125" y="173.52" style="stroke: #000000; stroke-width: 0.8"/>
      </g>
     </g>
     <g id="text_8">
      <!-- 0.0 -->
      <g transform="translate(20.878125 177.319219) scale(0.1 -0.1)">
       <use xlink:href="#DejaVuSans-30"/>
       <use xlink:href="#DejaVuSans-2e" transform="translate(63.623047 0)"/>
       <use xlink:href="#DejaVuSans-30" transform="translate(95.410156 0)"/>
      </g>
     </g>
    </g>
    <g id="ytick_2">
     <g id="line2d_8">
      <g>
       <use xlink:href="#mfa6f69e974" x="43.78125" y="151.690245" style="stroke: #000000; stroke-width: 0.8"/>
      </g>
     </g>
     <g id="text_9">
      <!-- 0.5 -->
      <g transform="translate(20.878125 155.489464) scale(0.1 -0.1)">
       <defs>
        <path id="DejaVuSans-35" d="M 691 4666 
L 3169 4666 
L 3169 4134 
L 1269 4134 
L 1269 2991 
Q 1406 3038 1543 3061 
Q 1681 3084 1819 3084 
Q 2600 3084 3056 2656 
Q 3513 2228 3513 1497 
Q 3513 744 3044 326 
Q 2575 -91 1722 -91 
Q 1428 -91 1123 -41 
Q 819 9 494 109 
L 494 744 
Q 775 591 1075 516 
Q 1375 441 1709 441 
Q 2250 441 2565 725 
Q 2881 1009 2881 1497 
Q 2881 1984 2565 2268 
Q 2250 2553 1709 2553 
Q 1456 2553 1204 2497 
Q 953 2441 691 2322 
L 691 4666 
z
" transform="scale(0.015625)"/>
       </defs>
       <use xlink:href="#DejaVuSans-30"/>
       <use xlink:href="#DejaVuSans-2e" transform="translate(63.623047 0)"/>
       <use xlink:href="#DejaVuSans-35" transform="translate(95.410156 0)"/>
      </g>
     </g>
    </g>
    <g id="ytick_3">
     <g id="line2d_9">
      <g>
       <use xlink:href="#mfa6f69e974" x="43.78125" y="129.860491" style="stroke: #000000; stroke-width: 0.8"/>
      </g>
     </g>
     <g id="text_10">
      <!-- 1.0 -->
      <g transform="translate(20.878125 133.65971) scale(0.1 -0.1)">
       <use xlink:href="#DejaVuSans-31"/>
       <use xlink:href="#DejaVuSans-2e" transform="translate(63.623047 0)"/>
       <use xlink:href="#DejaVuSans-30" transform="translate(95.410156 0)"/>
      </g>
     </g>
    </g>
    <g id="ytick_4">
     <g id="line2d_10">
      <g>
       <use xlink:href="#mfa6f69e974" x="43.78125" y="108.030736" style="stroke: #000000; stroke-width: 0.8"/>
      </g>
     </g>
     <g id="text_11">
      <!-- 1.5 -->
      <g transform="translate(20.878125 111.829955) scale(0.1 -0.1)">
       <use xlink:href="#DejaVuSans-31"/>
       <use xlink:href="#DejaVuSans-2e" transform="translate(63.623047 0)"/>
       <use xlink:href="#DejaVuSans-35" transform="translate(95.410156 0)"/>
      </g>
     </g>
    </g>
    <g id="ytick_5">
     <g id="line2d_11">
      <g>
       <use xlink:href="#mfa6f69e974" x="43.78125" y="86.200982" style="stroke: #000000; stroke-width: 0.8"/>
      </g>
     </g>
     <g id="text_12">
      <!-- 2.0 -->
      <g transform="translate(20.878125 90.0002) scale(0.1 -0.1)">
       <use xlink:href="#DejaVuSans-32"/>
       <use xlink:href="#DejaVuSans-2e" transform="translate(63.623047 0)"/>
       <use xlink:href="#DejaVuSans-30" transform="translate(95.410156 0)"/>
      </g>
     </g>
    </g>
    <g id="ytick_6">
     <g id="line2d_12">
      <g>
       <use xlink:href="#mfa6f69e974" x="43.78125" y="64.371227" style="stroke: #000000; stroke-width: 0.8"/>
      </g>
     </g>
     <g id="text_13">
      <!-- 2.5 -->
      <g transform="translate(20.878125 68.170446) scale(0.1 -0.1)">
       <use xlink:href="#DejaVuSans-32"/>
       <use xlink:href="#DejaVuSans-2e" transform="translate(63.623047 0)"/>
       <use xlink:href="#DejaVuSans-35" transform="translate(95.410156 0)"/>
      </g>
     </g>
    </g>
    <g id="ytick_7">
     <g id="line2d_13">
      <g>
       <use xlink:href="#mfa6f69e974" x="43.78125" y="42.541472" style="stroke: #000000; stroke-width: 0.8"/>
      </g>
     </g>
     <g id="text_14">
      <!-- 3.0 -->
      <g transform="translate(20.878125 46.340691) scale(0.1 -0.1)">
       <defs>
        <path id="DejaVuSans-33" d="M 2597 2516 
Q 3050 2419 3304 2112 
Q 3559 1806 3559 1356 
Q 3559 666 3084 287 
Q 2609 -91 1734 -91 
Q 1441 -91 1130 -33 
Q 819 25 488 141 
L 488 750 
Q 750 597 1062 519 
Q 1375 441 1716 441 
Q 2309 441 2620 675 
Q 2931 909 2931 1356 
Q 2931 1769 2642 2001 
Q 2353 2234 1838 2234 
L 1294 2234 
L 1294 2753 
L 1863 2753 
Q 2328 2753 2575 2939 
Q 2822 3125 2822 3475 
Q 2822 3834 2567 4026 
Q 2313 4219 1838 4219 
Q 1578 4219 1281 4162 
Q 984 4106 628 3988 
L 628 4550 
Q 988 4650 1302 4700 
Q 1616 4750 1894 4750 
Q 2613 4750 3031 4423 
Q 3450 4097 3450 3541 
Q 3450 3153 3228 2886 
Q 3006 2619 2597 2516 
z
" transform="scale(0.015625)"/>
       </defs>
       <use xlink:href="#DejaVuSans-33"/>
       <use xlink:href="#DejaVuSans-2e" transform="translate(63.623047 0)"/>
       <use xlink:href="#DejaVuSans-30" transform="translate(95.410156 0)"/>
      </g>
     </g>
    </g>
    <g id="ytick_8">
     <g id="line2d_14">
      <g>
       <use xlink:href="#mfa6f69e974" x="43.78125" y="20.711718" style="stroke: #000000; stroke-width: 0.8"/>
      </g>
     </g>
     <g id="text_15">
      <!-- 3.5 -->
      <g transform="translate(20.878125 24.510936) scale(0.1 -0.1)">
       <use xlink:href="#DejaVuSans-33"/>
       <use xlink:href="#DejaVuSans-2e" transform="translate(63.623047 0)"/>
       <use xlink:href="#DejaVuSans-35" transform="translate(95.410156 0)"/>
      </g>
     </g>
    </g>
    <g id="text_16">
     <!-- Density -->
     <g transform="translate(14.798438 109.368594) rotate(-90) scale(0.1 -0.1)">
      <defs>
       <path id="DejaVuSans-44" d="M 1259 4147 
L 1259 519 
L 2022 519 
Q 2988 519 3436 956 
Q 3884 1394 3884 2338 
Q 3884 3275 3436 3711 
Q 2988 4147 2022 4147 
L 1259 4147 
z
M 628 4666 
L 1925 4666 
Q 3281 4666 3915 4102 
Q 4550 3538 4550 2338 
Q 4550 1131 3912 565 
Q 3275 0 1925 0 
L 628 0 
L 628 4666 
z
" transform="scale(0.015625)"/>
       <path id="DejaVuSans-65" d="M 3597 1894 
L 3597 1613 
L 953 1613 
Q 991 1019 1311 708 
Q 1631 397 2203 397 
Q 2534 397 2845 478 
Q 3156 559 3463 722 
L 3463 178 
Q 3153 47 2828 -22 
Q 2503 -91 2169 -91 
Q 1331 -91 842 396 
Q 353 884 353 1716 
Q 353 2575 817 3079 
Q 1281 3584 2069 3584 
Q 2775 3584 3186 3129 
Q 3597 2675 3597 1894 
z
M 3022 2063 
Q 3016 2534 2758 2815 
Q 2500 3097 2075 3097 
Q 1594 3097 1305 2825 
Q 1016 2553 972 2059 
L 3022 2063 
z
" transform="scale(0.015625)"/>
       <path id="DejaVuSans-6e" d="M 3513 2113 
L 3513 0 
L 2938 0 
L 2938 2094 
Q 2938 2591 2744 2837 
Q 2550 3084 2163 3084 
Q 1697 3084 1428 2787 
Q 1159 2491 1159 1978 
L 1159 0 
L 581 0 
L 581 3500 
L 1159 3500 
L 1159 2956 
Q 1366 3272 1645 3428 
Q 1925 3584 2291 3584 
Q 2894 3584 3203 3211 
Q 3513 2838 3513 2113 
z
" transform="scale(0.015625)"/>
       <path id="DejaVuSans-73" d="M 2834 3397 
L 2834 2853 
Q 2591 2978 2328 3040 
Q 2066 3103 1784 3103 
Q 1356 3103 1142 2972 
Q 928 2841 928 2578 
Q 928 2378 1081 2264 
Q 1234 2150 1697 2047 
L 1894 2003 
Q 2506 1872 2764 1633 
Q 3022 1394 3022 966 
Q 3022 478 2636 193 
Q 2250 -91 1575 -91 
Q 1294 -91 989 -36 
Q 684 19 347 128 
L 347 722 
Q 666 556 975 473 
Q 1284 391 1588 391 
Q 1994 391 2212 530 
Q 2431 669 2431 922 
Q 2431 1156 2273 1281 
Q 2116 1406 1581 1522 
L 1381 1569 
Q 847 1681 609 1914 
Q 372 2147 372 2553 
Q 372 3047 722 3315 
Q 1072 3584 1716 3584 
Q 2034 3584 2315 3537 
Q 2597 3491 2834 3397 
z
" transform="scale(0.015625)"/>
       <path id="DejaVuSans-69" d="M 603 3500 
L 1178 3500 
L 1178 0 
L 603 0 
L 603 3500 
z
M 603 4863 
L 1178 4863 
L 1178 4134 
L 603 4134 
L 603 4863 
z
" transform="scale(0.015625)"/>
       <path id="DejaVuSans-74" d="M 1172 4494 
L 1172 3500 
L 2356 3500 
L 2356 3053 
L 1172 3053 
L 1172 1153 
Q 1172 725 1289 603 
Q 1406 481 1766 481 
L 2356 481 
L 2356 0 
L 1766 0 
Q 1100 0 847 248 
Q 594 497 594 1153 
L 594 3053 
L 172 3053 
L 172 3500 
L 594 3500 
L 594 4494 
L 1172 4494 
z
" transform="scale(0.015625)"/>
       <path id="DejaVuSans-79" d="M 2059 -325 
Q 1816 -950 1584 -1140 
Q 1353 -1331 966 -1331 
L 506 -1331 
L 506 -850 
L 844 -850 
Q 1081 -850 1212 -737 
Q 1344 -625 1503 -206 
L 1606 56 
L 191 3500 
L 800 3500 
L 1894 763 
L 2988 3500 
L 3597 3500 
L 2059 -325 
z
" transform="scale(0.015625)"/>
      </defs>
      <use xlink:href="#DejaVuSans-44"/>
      <use xlink:href="#DejaVuSans-65" transform="translate(77.001953 0)"/>
      <use xlink:href="#DejaVuSans-6e" transform="translate(138.525391 0)"/>
      <use xlink:href="#DejaVuSans-73" transform="translate(201.904297 0)"/>
      <use xlink:href="#DejaVuSans-69" transform="translate(254.003906 0)"/>
      <use xlink:href="#DejaVuSans-74" transform="translate(281.787109 0)"/>
      <use xlink:href="#DejaVuSans-79" transform="translate(320.996094 0)"/>
     </g>
    </g>
   </g>
   <g id="line2d_15">
    <path d="M 217.471923 173.52 
L 217.471923 7.2 
" clip-path="url(#pd16e12fcfc)" style="fill: none; stroke-dasharray: 5.55,2.4; stroke-dashoffset: 0; stroke: #ff0000; stroke-width: 1.5"/>
   </g>
   <g id="patch_101">
    <path d="M 43.78125 173.52 
L 43.78125 7.2 
" style="fill: none; stroke: #000000; stroke-width: 0.8; stroke-linejoin: miter; stroke-linecap: square"/>
   </g>
   <g id="patch_102">
    <path d="M 378.58125 173.52 
L 378.58125 7.2 
" style="fill: none; stroke: #000000; stroke-width: 0.8; stroke-linejoin: miter; stroke-linecap: square"/>
   </g>
   <g id="patch_103">
    <path d="M 43.78125 173.52 
L 378.58125 173.52 
" style="fill: none; stroke: #000000; stroke-width: 0.8; stroke-linejoin: miter; stroke-linecap: square"/>
   </g>
   <g id="patch_104">
    <path d="M 43.78125 7.2 
L 378.58125 7.2 
" style="fill: none; stroke: #000000; stroke-width: 0.8; stroke-linejoin: miter; stroke-linecap: square"/>
   </g>
   <g id="legend_1">
    <g id="patch_105">
     <path d="M 304.376563 59.234375 
L 371.58125 59.234375 
Q 373.58125 59.234375 373.58125 57.234375 
L 373.58125 14.2 
Q 373.58125 12.2 371.58125 12.2 
L 304.376563 12.2 
Q 302.376563 12.2 302.376563 14.2 
L 302.376563 57.234375 
Q 302.376563 59.234375 304.376563 59.234375 
z
" style="fill: #ffffff; opacity: 0.8; stroke: #cccccc; stroke-linejoin: miter"/>
    </g>
    <g id="patch_106">
     <path d="M 306.376563 23.798438 
L 326.376563 23.798438 
L 326.376563 16.798438 
L 306.376563 16.798438 
z
" style="fill: #1f77b4"/>
    </g>
    <g id="text_17">
     <!-- OLS fit -->
     <g transform="translate(334.376563 23.798438) scale(0.1 -0.1)">
      <defs>
       <path id="DejaVuSans-4f" d="M 2522 4238 
Q 1834 4238 1429 3725 
Q 1025 3213 1025 2328 
Q 1025 1447 1429 934 
Q 1834 422 2522 422 
Q 3209 422 3611 934 
Q 4013 1447 4013 2328 
Q 4013 3213 3611 3725 
Q 3209 4238 2522 4238 
z
M 2522 4750 
Q 3503 4750 4090 4092 
Q 4678 3434 4678 2328 
Q 4678 1225 4090 567 
Q 3503 -91 2522 -91 
Q 1538 -91 948 565 
Q 359 1222 359 2328 
Q 359 3434 948 4092 
Q 1538 4750 2522 4750 
z
" transform="scale(0.015625)"/>
       <path id="DejaVuSans-4c" d="M 628 4666 
L 1259 4666 
L 1259 531 
L 3531 531 
L 3531 0 
L 628 0 
L 628 4666 
z
" transform="scale(0.015625)"/>
       <path id="DejaVuSans-53" d="M 3425 4513 
L 3425 3897 
Q 3066 4069 2747 4153 
Q 2428 4238 2131 4238 
Q 1616 4238 1336 4038 
Q 1056 3838 1056 3469 
Q 1056 3159 1242 3001 
Q 1428 2844 1947 2747 
L 2328 2669 
Q 3034 2534 3370 2195 
Q 3706 1856 3706 1288 
Q 3706 609 3251 259 
Q 2797 -91 1919 -91 
Q 1588 -91 1214 -16 
Q 841 59 441 206 
L 441 856 
Q 825 641 1194 531 
Q 1563 422 1919 422 
Q 2459 422 2753 634 
Q 3047 847 3047 1241 
Q 3047 1584 2836 1778 
Q 2625 1972 2144 2069 
L 1759 2144 
Q 1053 2284 737 2584 
Q 422 2884 422 3419 
Q 422 4038 858 4394 
Q 1294 4750 2059 4750 
Q 2388 4750 2728 4690 
Q 3069 4631 3425 4513 
z
" transform="scale(0.015625)"/>
       <path id="DejaVuSans-20" transform="scale(0.015625)"/>
       <path id="DejaVuSans-66" d="M 2375 4863 
L 2375 4384 
L 1825 4384 
Q 1516 4384 1395 4259 
Q 1275 4134 1275 3809 
L 1275 3500 
L 2222 3500 
L 2222 3053 
L 1275 3053 
L 1275 0 
L 697 0 
L 697 3053 
L 147 3053 
L 147 3500 
L 697 3500 
L 697 3744 
Q 697 4328 969 4595 
Q 1241 4863 1831 4863 
L 2375 4863 
z
" transform="scale(0.015625)"/>
      </defs>
      <use xlink:href="#DejaVuSans-4f"/>
      <use xlink:href="#DejaVuSans-4c" transform="translate(78.710938 0)"/>
      <use xlink:href="#DejaVuSans-53" transform="translate(134.423828 0)"/>
      <use xlink:href="#DejaVuSans-20" transform="translate(197.900391 0)"/>
      <use xlink:href="#DejaVuSans-66" transform="translate(229.6875 0)"/>
      <use xlink:href="#DejaVuSans-69" transform="translate(264.892578 0)"/>
      <use xlink:href="#DejaVuSans-74" transform="translate(292.675781 0)"/>
     </g>
    </g>
    <g id="patch_107">
     <path d="M 306.376563 38.476563 
L 326.376563 38.476563 
L 326.376563 31.476563 
L 306.376563 31.476563 
z
" style="fill: #ff7f0e"/>
    </g>
    <g id="text_18">
     <!-- WLS fit -->
     <g transform="translate(334.376563 38.476563) scale(0.1 -0.1)">
      <defs>
       <path id="DejaVuSans-57" d="M 213 4666 
L 850 4666 
L 1831 722 
L 2809 4666 
L 3519 4666 
L 4500 722 
L 5478 4666 
L 6119 4666 
L 4947 0 
L 4153 0 
L 3169 4050 
L 2175 0 
L 1381 0 
L 213 4666 
z
" transform="scale(0.015625)"/>
      </defs>
      <use xlink:href="#DejaVuSans-57"/>
      <use xlink:href="#DejaVuSans-4c" transform="translate(98.876953 0)"/>
      <use xlink:href="#DejaVuSans-53" transform="translate(154.589844 0)"/>
      <use xlink:href="#DejaVuSans-20" transform="translate(218.066406 0)"/>
      <use xlink:href="#DejaVuSans-66" transform="translate(249.853516 0)"/>
      <use xlink:href="#DejaVuSans-69" transform="translate(285.058594 0)"/>
      <use xlink:href="#DejaVuSans-74" transform="translate(312.841797 0)"/>
     </g>
    </g>
    <g id="line2d_16">
     <path d="M 306.376563 49.654688 
L 316.376563 49.654688 
L 326.376563 49.654688 
" style="fill: none; stroke-dasharray: 5.55,2.4; stroke-dashoffset: 0; stroke: #ff0000; stroke-width: 1.5"/>
    </g>
    <g id="text_19">
     <!-- true -->
     <g transform="translate(334.376563 53.154688) scale(0.1 -0.1)">
      <defs>
       <path id="DejaVuSans-72" d="M 2631 2963 
Q 2534 3019 2420 3045 
Q 2306 3072 2169 3072 
Q 1681 3072 1420 2755 
Q 1159 2438 1159 1844 
L 1159 0 
L 581 0 
L 581 3500 
L 1159 3500 
L 1159 2956 
Q 1341 3275 1631 3429 
Q 1922 3584 2338 3584 
Q 2397 3584 2469 3576 
Q 2541 3569 2628 3553 
L 2631 2963 
z
" transform="scale(0.015625)"/>
       <path id="DejaVuSans-75" d="M 544 1381 
L 544 3500 
L 1119 3500 
L 1119 1403 
Q 1119 906 1312 657 
Q 1506 409 1894 409 
Q 2359 409 2629 706 
Q 2900 1003 2900 1516 
L 2900 3500 
L 3475 3500 
L 3475 0 
L 2900 0 
L 2900 538 
Q 2691 219 2414 64 
Q 2138 -91 1772 -91 
Q 1169 -91 856 284 
Q 544 659 544 1381 
z
M 1991 3584 
L 1991 3584 
z
" transform="scale(0.015625)"/>
      </defs>
      <use xlink:href="#DejaVuSans-74"/>
      <use xlink:href="#DejaVuSans-72" transform="translate(39.208984 0)"/>
      <use xlink:href="#DejaVuSans-75" transform="translate(80.322266 0)"/>
      <use xlink:href="#DejaVuSans-65" transform="translate(143.701172 0)"/>
     </g>
    </g>
   </g>
  </g>
 </g>
 <defs>
  <clipPath id="pd16e12fcfc">
   <rect x="43.78125" y="7.2" width="334.8" height="166.32"/>
  </clipPath>
 </defs>
</svg>
