<?xml version="1.0" encoding="utf-8" standalone="no"?>
<!DOCTYPE svg PUBLIC "-//W3C//DTD SVG 1.1//EN"
  "http://www.w3.org/Graphics/SVG/1.1/DTD/svg11.dtd">
<svg xmlns:xlink="http://www.w3.org/1999/xlink" width="415.472481pt" height="206.64pt" viewBox="0 0 415.472481 206.64" xmlns="http://www.w3.org/2000/svg" version="1.1">
 <metadata>
  <rdf:RDF xmlns:dc="http://purl.org/dc/elements/1.1/" xmlns:cc="http://creativecommons.org/ns#" xmlns:rdf="http://www.w3.org/1999/02/22-rdf-syntax-ns#">
   <cc:Work>
    <dc:type rdf:resource="http://purl.org/dc/dcmitype/StillImage"/>
    <dc:date>2025-02-21T18:20:56.283875</dc:date>
    <dc:format>image/svg+xml</dc:format>
    <dc:creator>
     <cc:Agent>
      <dc:title>Matplotlib v3.8.2, https://matplotlib.org/</dc:title>
     </cc:Agent>
    </dc:creator>
   </cc:Work>
  </rdf:RDF>
 </metadata>
 <defs>
  <style type="text/css">*{stroke-linejoin: round; stroke-linecap: butt}</style>
 </defs>
 <g id="figure_1">
  <g id="patch_1">
   <path d="M 0 206.64 
L 415.472481 206.64 
L 415.472481 0 
L 0 0 
z
" style="fill: #ffffff"/>
  </g>
  <g id="axes_1">
   <g id="patch_2">
    <path d="M 29.548932 170.836705 
L 206.100086 170.836705 
L 206.100086 20.810347 
L 29.548932 20.810347 
z
" style="fill: #ffffff"/>
   </g>
   <g id="matplotlib.axis_1">
    <g id="xtick_1">
     <g id="line2d_1">
      <defs>
       <path id="mc9f0d3fde3" d="M 0 0 
L 0 -4 
" style="stroke: #000000; stroke-width: 0.5"/>
      </defs>
      <g>
       <use xlink:href="#mc9f0d3fde3" x="69.761187" y="170.836705" style="stroke: #000000; stroke-width: 0.5"/>
      </g>
     </g>
     <g id="text_1">
      <!-- $\mathdefault{−1}$ -->
      <g transform="translate(63.873582 181.063355) scale(0.09 -0.09)">
       <defs>
        <path id="CMSY10-0" d="M 4218 1472 
C 4326 1472 4442 1472 4442 1600 
C 4442 1728 4326 1728 4218 1728 
L 755 1728 
C 646 1728 531 1728 531 1600 
C 531 1472 646 1472 755 1472 
L 4218 1472 
z
" transform="scale(0.015625)"/>
        <path id="CMR17-31" d="M 1702 4058 
C 1702 4192 1696 4192 1606 4192 
C 1357 3916 979 3827 621 3827 
C 602 3827 570 3827 563 3808 
C 557 3795 557 3782 557 3648 
C 755 3648 1088 3686 1344 3839 
L 1344 461 
C 1344 236 1331 160 781 160 
L 589 160 
L 589 0 
C 896 0 1216 0 1523 0 
C 1830 0 2150 0 2458 0 
L 2458 160 
L 2266 160 
C 1715 160 1702 230 1702 458 
L 1702 4058 
z
" transform="scale(0.015625)"/>
       </defs>
       <use xlink:href="#CMSY10-0" transform="scale(0.996264)"/>
       <use xlink:href="#CMR17-31" transform="translate(77.487468 0) scale(0.996264)"/>
      </g>
     </g>
    </g>
    <g id="xtick_2">
     <g id="line2d_2">
      <g>
       <use xlink:href="#mc9f0d3fde3" x="112.963242" y="170.836705" style="stroke: #000000; stroke-width: 0.5"/>
      </g>
     </g>
     <g id="text_2">
      <!-- $\mathdefault{0}$ -->
      <g transform="translate(110.659397 181.063355) scale(0.09 -0.09)">
       <defs>
        <path id="CMR17-30" d="M 2688 2025 
C 2688 2416 2682 3080 2413 3591 
C 2176 4039 1798 4198 1466 4198 
C 1158 4198 768 4058 525 3597 
C 269 3118 243 2524 243 2025 
C 243 1661 250 1106 448 619 
C 723 -39 1216 -128 1466 -128 
C 1760 -128 2208 -7 2470 600 
C 2662 1042 2688 1559 2688 2025 
z
M 1466 -26 
C 1056 -26 813 325 723 812 
C 653 1188 653 1738 653 2096 
C 653 2588 653 2997 736 3387 
C 858 3929 1216 4096 1466 4096 
C 1728 4096 2067 3923 2189 3400 
C 2272 3036 2278 2607 2278 2096 
C 2278 1680 2278 1169 2202 792 
C 2067 95 1690 -26 1466 -26 
z
" transform="scale(0.015625)"/>
       </defs>
       <use xlink:href="#CMR17-30" transform="scale(0.996264)"/>
      </g>
     </g>
    </g>
    <g id="xtick_3">
     <g id="line2d_3">
      <g>
       <use xlink:href="#mc9f0d3fde3" x="156.165298" y="170.836705" style="stroke: #000000; stroke-width: 0.5"/>
      </g>
     </g>
     <g id="text_3">
      <!-- $\mathdefault{1}$ -->
      <g transform="translate(153.861452 181.063355) scale(0.09 -0.09)">
       <use xlink:href="#CMR17-31" transform="scale(0.996264)"/>
      </g>
     </g>
    </g>
    <g id="xtick_4">
     <g id="line2d_4">
      <g>
       <use xlink:href="#mc9f0d3fde3" x="199.367353" y="170.836705" style="stroke: #000000; stroke-width: 0.5"/>
      </g>
     </g>
     <g id="text_4">
      <!-- $\mathdefault{2}$ -->
      <g transform="translate(197.063508 181.063355) scale(0.09 -0.09)">
       <defs>
        <path id="CMR17-32" d="M 2669 989 
L 2554 989 
C 2490 536 2438 459 2413 420 
C 2381 369 1920 369 1830 369 
L 602 369 
C 832 619 1280 1072 1824 1597 
C 2214 1967 2669 2402 2669 3035 
C 2669 3790 2067 4224 1395 4224 
C 691 4224 262 3604 262 3030 
C 262 2780 448 2748 525 2748 
C 589 2748 781 2787 781 3010 
C 781 3207 614 3264 525 3264 
C 486 3264 448 3258 422 3245 
C 544 3790 915 4058 1306 4058 
C 1862 4058 2227 3617 2227 3035 
C 2227 2479 1901 2000 1536 1584 
L 262 146 
L 262 0 
L 2515 0 
L 2669 989 
z
" transform="scale(0.015625)"/>
       </defs>
       <use xlink:href="#CMR17-32" transform="scale(0.996264)"/>
      </g>
     </g>
    </g>
    <g id="xtick_5">
     <g id="line2d_5">
      <defs>
       <path id="m7b31a9d1af" d="M 0 0 
L 0 -2 
" style="stroke: #000000; stroke-width: 0.3"/>
      </defs>
      <g>
       <use xlink:href="#m7b31a9d1af" x="35.199542" y="170.836705" style="stroke: #000000; stroke-width: 0.3"/>
      </g>
     </g>
    </g>
    <g id="xtick_6">
     <g id="line2d_6">
      <g>
       <use xlink:href="#m7b31a9d1af" x="43.839953" y="170.836705" style="stroke: #000000; stroke-width: 0.3"/>
      </g>
     </g>
    </g>
    <g id="xtick_7">
     <g id="line2d_7">
      <g>
       <use xlink:href="#m7b31a9d1af" x="52.480365" y="170.836705" style="stroke: #000000; stroke-width: 0.3"/>
      </g>
     </g>
    </g>
    <g id="xtick_8">
     <g id="line2d_8">
      <g>
       <use xlink:href="#m7b31a9d1af" x="61.120776" y="170.836705" style="stroke: #000000; stroke-width: 0.3"/>
      </g>
     </g>
    </g>
    <g id="xtick_9">
     <g id="line2d_9">
      <g>
       <use xlink:href="#m7b31a9d1af" x="78.401598" y="170.836705" style="stroke: #000000; stroke-width: 0.3"/>
      </g>
     </g>
    </g>
    <g id="xtick_10">
     <g id="line2d_10">
      <g>
       <use xlink:href="#m7b31a9d1af" x="87.042009" y="170.836705" style="stroke: #000000; stroke-width: 0.3"/>
      </g>
     </g>
    </g>
    <g id="xtick_11">
     <g id="line2d_11">
      <g>
       <use xlink:href="#m7b31a9d1af" x="95.68242" y="170.836705" style="stroke: #000000; stroke-width: 0.3"/>
      </g>
     </g>
    </g>
    <g id="xtick_12">
     <g id="line2d_12">
      <g>
       <use xlink:href="#m7b31a9d1af" x="104.322831" y="170.836705" style="stroke: #000000; stroke-width: 0.3"/>
      </g>
     </g>
    </g>
    <g id="xtick_13">
     <g id="line2d_13">
      <g>
       <use xlink:href="#m7b31a9d1af" x="121.603653" y="170.836705" style="stroke: #000000; stroke-width: 0.3"/>
      </g>
     </g>
    </g>
    <g id="xtick_14">
     <g id="line2d_14">
      <g>
       <use xlink:href="#m7b31a9d1af" x="130.244064" y="170.836705" style="stroke: #000000; stroke-width: 0.3"/>
      </g>
     </g>
    </g>
    <g id="xtick_15">
     <g id="line2d_15">
      <g>
       <use xlink:href="#m7b31a9d1af" x="138.884476" y="170.836705" style="stroke: #000000; stroke-width: 0.3"/>
      </g>
     </g>
    </g>
    <g id="xtick_16">
     <g id="line2d_16">
      <g>
       <use xlink:href="#m7b31a9d1af" x="147.524887" y="170.836705" style="stroke: #000000; stroke-width: 0.3"/>
      </g>
     </g>
    </g>
    <g id="xtick_17">
     <g id="line2d_17">
      <g>
       <use xlink:href="#m7b31a9d1af" x="164.805709" y="170.836705" style="stroke: #000000; stroke-width: 0.3"/>
      </g>
     </g>
    </g>
    <g id="xtick_18">
     <g id="line2d_18">
      <g>
       <use xlink:href="#m7b31a9d1af" x="173.44612" y="170.836705" style="stroke: #000000; stroke-width: 0.3"/>
      </g>
     </g>
    </g>
    <g id="xtick_19">
     <g id="line2d_19">
      <g>
       <use xlink:href="#m7b31a9d1af" x="182.086531" y="170.836705" style="stroke: #000000; stroke-width: 0.3"/>
      </g>
     </g>
    </g>
    <g id="xtick_20">
     <g id="line2d_20">
      <g>
       <use xlink:href="#m7b31a9d1af" x="190.726942" y="170.836705" style="stroke: #000000; stroke-width: 0.3"/>
      </g>
     </g>
    </g>
    <g id="text_5">
     <!-- OLS $\hat{\beta}$ -->
     <g transform="translate(101.746648 197.309105) scale(0.11 -0.11)">
      <defs>
       <path id="CMR17-4f" d="M 4307 2135 
C 4307 3437 3366 4416 2304 4416 
C 1216 4416 294 3424 294 2135 
C 294 845 1229 -128 2298 -128 
C 3392 -128 4307 864 4307 2135 
z
M 2304 -13 
C 1574 -13 781 711 781 2217 
C 781 3716 1651 4301 2298 4301 
C 2976 4301 3821 3698 3821 2217 
C 3821 686 3008 -13 2304 -13 
z
" transform="scale(0.015625)"/>
       <path id="CMR17-4c" d="M 3469 1615 
L 3354 1615 
C 3302 983 3219 166 2125 166 
L 1530 166 
C 1274 166 1261 197 1261 414 
L 1261 3898 
C 1261 4129 1274 4192 1760 4192 
L 1901 4192 
L 1901 4352 
C 1638 4352 1331 4352 1069 4352 
C 870 4352 512 4352 326 4352 
L 326 4192 
C 768 4192 838 4192 838 3905 
L 838 452 
C 838 166 768 166 326 166 
L 326 0 
L 3315 0 
L 3469 1615 
z
" transform="scale(0.015625)"/>
       <path id="CMR17-53" d="M 2803 4290 
C 2803 4404 2797 4411 2758 4411 
C 2720 4411 2707 4385 2682 4328 
L 2490 3907 
C 2246 4257 1875 4416 1472 4416 
C 819 4416 294 3901 294 3253 
C 294 3056 339 2776 557 2510 
C 794 2218 1018 2167 1530 2033 
C 1722 1982 2042 1899 2106 1874 
C 2470 1722 2662 1341 2662 985 
C 2662 527 2336 38 1779 38 
C 1094 38 454 419 410 1311 
C 403 1413 397 1419 352 1419 
C 301 1419 294 1413 294 1285 
L 294 -1 
C 294 -115 301 -122 339 -122 
C 384 -122 397 -90 486 108 
C 493 127 493 140 614 381 
C 934 -39 1472 -128 1779 -128 
C 2477 -128 2970 451 2970 1124 
C 2970 1454 2848 1708 2778 1823 
C 2509 2230 2221 2306 1914 2382 
C 1869 2402 1856 2402 1498 2490 
C 1152 2579 1005 2624 845 2796 
C 666 2992 602 3196 602 3399 
C 602 3812 934 4263 1478 4263 
C 2157 4263 2579 3786 2675 2993 
C 2694 2878 2701 2872 2746 2872 
C 2803 2872 2803 2891 2803 2999 
L 2803 4290 
z
" transform="scale(0.015625)"/>
       <path id="CMR17-5e" d="M 1466 4421 
L 678 3555 
L 755 3478 
L 1466 4166 
L 2176 3478 
L 2253 3555 
L 1466 4421 
z
" transform="scale(0.015625)"/>
       <path id="CMMI12-c" d="M 3622 3701 
C 3622 4081 3296 4480 2714 4480 
C 1888 4480 1363 3477 1197 2816 
L 186 -1172 
C 173 -1223 211 -1236 243 -1236 
C 288 -1236 320 -1230 326 -1198 
L 774 586 
C 838 229 1190 -64 1568 -64 
C 2483 -64 3347 650 3347 1599 
C 3347 1841 3290 2083 3155 2287 
C 3078 2408 2982 2497 2880 2574 
C 3341 2815 3622 3200 3622 3701 
z
M 2509 2580 
C 2406 2542 2304 2529 2182 2529 
C 2093 2529 2010 2523 1894 2561 
C 1958 2606 2054 2618 2189 2618 
C 2304 2618 2419 2606 2509 2580 
z
M 3290 3758 
C 3290 3410 3117 2903 2701 2669 
C 2579 2718 2413 2752 2272 2752 
C 2138 2752 1754 2752 1754 2555 
C 1754 2389 2106 2389 2214 2389 
C 2381 2389 2528 2432 2682 2484 
C 2886 2318 2976 2101 2976 1783 
C 2976 1413 2874 1115 2752 841 
C 2541 369 2042 64 1600 64 
C 1133 64 890 432 890 864 
C 890 922 890 1005 915 1099 
L 1331 2771 
C 1542 3603 2080 4353 2701 4353 
C 3162 4353 3290 4036 3290 3758 
z
" transform="scale(0.015625)"/>
      </defs>
      <use xlink:href="#CMR17-4f" transform="scale(0.996264)"/>
      <use xlink:href="#CMR17-4c" transform="translate(71.714788 0) scale(0.996264)"/>
      <use xlink:href="#CMR17-53" transform="translate(129.096196 0) scale(0.996264)"/>
      <use xlink:href="#CMR17-5e" transform="translate(225.648462 26.296621) scale(0.996264)"/>
      <use xlink:href="#CMMI12-c" transform="translate(210.067532 0) scale(0.996264)"/>
     </g>
    </g>
   </g>
   <g id="matplotlib.axis_2">
    <g id="ytick_1">
     <g id="line2d_21">
      <defs>
       <path id="me8bd69f7a5" d="M 0 0 
L 4 0 
" style="stroke: #000000; stroke-width: 0.3"/>
      </defs>
      <g>
       <use xlink:href="#me8bd69f7a5" x="29.548932" y="170.836705" style="stroke: #000000; stroke-width: 0.3"/>
      </g>
     </g>
     <g id="text_6">
      <!-- $\mathdefault{0}$ -->
      <g transform="translate(20.941241 173.95003) scale(0.09 -0.09)">
       <use xlink:href="#CMR17-30" transform="scale(0.996264)"/>
      </g>
     </g>
    </g>
    <g id="ytick_2">
     <g id="line2d_22">
      <g>
       <use xlink:href="#me8bd69f7a5" x="29.548932" y="133.432835" style="stroke: #000000; stroke-width: 0.3"/>
      </g>
     </g>
     <g id="text_7">
      <!-- $\mathdefault{1}$ -->
      <g transform="translate(20.941241 136.54616) scale(0.09 -0.09)">
       <use xlink:href="#CMR17-31" transform="scale(0.996264)"/>
      </g>
     </g>
    </g>
    <g id="ytick_3">
     <g id="line2d_23">
      <g>
       <use xlink:href="#me8bd69f7a5" x="29.548932" y="96.028965" style="stroke: #000000; stroke-width: 0.3"/>
      </g>
     </g>
     <g id="text_8">
      <!-- $\mathdefault{2}$ -->
      <g transform="translate(20.941241 99.14229) scale(0.09 -0.09)">
       <use xlink:href="#CMR17-32" transform="scale(0.996264)"/>
      </g>
     </g>
    </g>
    <g id="ytick_4">
     <g id="line2d_24">
      <g>
       <use xlink:href="#me8bd69f7a5" x="29.548932" y="58.625095" style="stroke: #000000; stroke-width: 0.3"/>
      </g>
     </g>
     <g id="text_9">
      <!-- $\mathdefault{3}$ -->
      <g transform="translate(20.941241 61.73842) scale(0.09 -0.09)">
       <defs>
        <path id="CMR17-33" d="M 1414 2157 
C 1984 2157 2234 1662 2234 1090 
C 2234 320 1824 25 1453 25 
C 1114 25 563 194 390 693 
C 422 680 454 680 486 680 
C 640 680 755 782 755 948 
C 755 1133 614 1216 486 1216 
C 378 1216 211 1165 211 926 
C 211 335 787 -128 1466 -128 
C 2176 -128 2720 430 2720 1085 
C 2720 1707 2208 2157 1600 2227 
C 2086 2328 2554 2756 2554 3329 
C 2554 3820 2048 4179 1472 4179 
C 890 4179 378 3829 378 3329 
C 378 3110 544 3072 627 3072 
C 762 3072 877 3155 877 3321 
C 877 3486 762 3569 627 3569 
C 602 3569 570 3569 544 3557 
C 730 3959 1235 4032 1459 4032 
C 1683 4032 2106 3925 2106 3320 
C 2106 3143 2080 2828 1862 2550 
C 1670 2304 1453 2304 1242 2284 
C 1210 2284 1062 2269 1037 2269 
C 992 2263 966 2257 966 2208 
C 966 2163 973 2157 1101 2157 
L 1414 2157 
z
" transform="scale(0.015625)"/>
       </defs>
       <use xlink:href="#CMR17-33" transform="scale(0.996264)"/>
      </g>
     </g>
    </g>
    <g id="ytick_5">
     <g id="line2d_25">
      <g>
       <use xlink:href="#me8bd69f7a5" x="29.548932" y="21.221225" style="stroke: #000000; stroke-width: 0.3"/>
      </g>
     </g>
     <g id="text_10">
      <!-- $\mathdefault{4}$ -->
      <g transform="translate(20.941241 24.33455) scale(0.09 -0.09)">
       <defs>
        <path id="CMR17-34" d="M 2150 4122 
C 2150 4256 2144 4256 2029 4256 
L 128 1254 
L 128 1088 
L 1779 1088 
L 1779 457 
C 1779 224 1766 160 1318 160 
L 1197 160 
L 1197 0 
C 1402 0 1747 0 1965 0 
C 2182 0 2528 0 2733 0 
L 2733 160 
L 2611 160 
C 2163 160 2150 224 2150 457 
L 2150 1088 
L 2803 1088 
L 2803 1254 
L 2150 1254 
L 2150 4122 
z
M 1798 3703 
L 1798 1254 
L 256 1254 
L 1798 3703 
z
" transform="scale(0.015625)"/>
       </defs>
       <use xlink:href="#CMR17-34" transform="scale(0.996264)"/>
      </g>
     </g>
    </g>
    <g id="ytick_6">
     <g id="line2d_26">
      <defs>
       <path id="mf576b64071" d="M 0 0 
L 2 0 
" style="stroke: #000000; stroke-width: 0.3"/>
      </defs>
      <g>
       <use xlink:href="#mf576b64071" x="29.548932" y="163.355931" style="stroke: #000000; stroke-width: 0.3"/>
      </g>
     </g>
    </g>
    <g id="ytick_7">
     <g id="line2d_27">
      <g>
       <use xlink:href="#mf576b64071" x="29.548932" y="155.875157" style="stroke: #000000; stroke-width: 0.3"/>
      </g>
     </g>
    </g>
    <g id="ytick_8">
     <g id="line2d_28">
      <g>
       <use xlink:href="#mf576b64071" x="29.548932" y="148.394383" style="stroke: #000000; stroke-width: 0.3"/>
      </g>
     </g>
    </g>
    <g id="ytick_9">
     <g id="line2d_29">
      <g>
       <use xlink:href="#mf576b64071" x="29.548932" y="140.913609" style="stroke: #000000; stroke-width: 0.3"/>
      </g>
     </g>
    </g>
    <g id="ytick_10">
     <g id="line2d_30">
      <g>
       <use xlink:href="#mf576b64071" x="29.548932" y="125.952061" style="stroke: #000000; stroke-width: 0.3"/>
      </g>
     </g>
    </g>
    <g id="ytick_11">
     <g id="line2d_31">
      <g>
       <use xlink:href="#mf576b64071" x="29.548932" y="118.471287" style="stroke: #000000; stroke-width: 0.3"/>
      </g>
     </g>
    </g>
    <g id="ytick_12">
     <g id="line2d_32">
      <g>
       <use xlink:href="#mf576b64071" x="29.548932" y="110.990513" style="stroke: #000000; stroke-width: 0.3"/>
      </g>
     </g>
    </g>
    <g id="ytick_13">
     <g id="line2d_33">
      <g>
       <use xlink:href="#mf576b64071" x="29.548932" y="103.509739" style="stroke: #000000; stroke-width: 0.3"/>
      </g>
     </g>
    </g>
    <g id="ytick_14">
     <g id="line2d_34">
      <g>
       <use xlink:href="#mf576b64071" x="29.548932" y="88.548191" style="stroke: #000000; stroke-width: 0.3"/>
      </g>
     </g>
    </g>
    <g id="ytick_15">
     <g id="line2d_35">
      <g>
       <use xlink:href="#mf576b64071" x="29.548932" y="81.067417" style="stroke: #000000; stroke-width: 0.3"/>
      </g>
     </g>
    </g>
    <g id="ytick_16">
     <g id="line2d_36">
      <g>
       <use xlink:href="#mf576b64071" x="29.548932" y="73.586643" style="stroke: #000000; stroke-width: 0.3"/>
      </g>
     </g>
    </g>
    <g id="ytick_17">
     <g id="line2d_37">
      <g>
       <use xlink:href="#mf576b64071" x="29.548932" y="66.105869" style="stroke: #000000; stroke-width: 0.3"/>
      </g>
     </g>
    </g>
    <g id="ytick_18">
     <g id="line2d_38">
      <g>
       <use xlink:href="#mf576b64071" x="29.548932" y="51.144321" style="stroke: #000000; stroke-width: 0.3"/>
      </g>
     </g>
    </g>
    <g id="ytick_19">
     <g id="line2d_39">
      <g>
       <use xlink:href="#mf576b64071" x="29.548932" y="43.663547" style="stroke: #000000; stroke-width: 0.3"/>
      </g>
     </g>
    </g>
    <g id="ytick_20">
     <g id="line2d_40">
      <g>
       <use xlink:href="#mf576b64071" x="29.548932" y="36.182773" style="stroke: #000000; stroke-width: 0.3"/>
      </g>
     </g>
    </g>
    <g id="ytick_21">
     <g id="line2d_41">
      <g>
       <use xlink:href="#mf576b64071" x="29.548932" y="28.701999" style="stroke: #000000; stroke-width: 0.3"/>
      </g>
     </g>
    </g>
    <g id="text_11">
     <!-- Density -->
     <g transform="translate(14.810347 114.04274) rotate(-90) scale(0.11 -0.11)">
      <defs>
       <path id="CMR17-44" d="M 333 4352 
L 333 4186 
C 774 4186 845 4186 845 3900 
L 845 452 
C 845 166 774 166 333 166 
L 333 0 
L 2368 0 
C 3398 0 4224 943 4224 2141 
C 4224 3346 3411 4352 2368 4352 
L 333 4352 
z
M 1523 166 
C 1267 166 1254 197 1254 414 
L 1254 3938 
C 1254 4155 1267 4186 1523 4186 
L 2240 4186 
C 2771 4186 3750 3874 3750 2141 
C 3750 1242 3488 879 3366 707 
C 3213 510 2848 166 2240 166 
L 1523 166 
z
" transform="scale(0.015625)"/>
       <path id="CMR17-65" d="M 2438 1472 
C 2464 1498 2464 1511 2464 1576 
C 2464 2238 2118 2816 1389 2816 
C 710 2816 173 2169 173 1383 
C 173 551 781 -64 1459 -64 
C 2176 -64 2458 607 2458 740 
C 2458 784 2419 784 2406 784 
C 2362 784 2355 771 2330 696 
C 2189 265 1837 51 1504 51 
C 1229 51 954 203 781 480 
C 582 803 582 1176 582 1472 
L 2438 1472 
z
M 589 1568 
C 634 2505 1126 2714 1382 2714 
C 1818 2714 2112 2297 2118 1568 
L 589 1568 
z
" transform="scale(0.015625)"/>
       <path id="CMR17-6e" d="M 2656 1933 
C 2656 2259 2592 2790 1837 2790 
C 1331 2790 1069 2400 973 2144 
L 966 2144 
L 966 2790 
L 211 2720 
L 211 2554 
C 589 2554 646 2515 646 2208 
L 646 428 
C 646 184 621 153 211 153 
L 211 -13 
C 365 0 646 0 813 0 
C 979 0 1267 0 1421 -13 
L 1421 153 
C 1011 153 986 178 986 428 
L 986 1658 
C 986 2247 1344 2688 1792 2688 
C 2266 2688 2317 2266 2317 1958 
L 2317 428 
C 2317 184 2291 153 1882 153 
L 1882 -13 
C 2035 0 2317 0 2483 0 
C 2650 0 2938 0 3091 -13 
L 3091 153 
C 2682 153 2656 178 2656 428 
L 2656 1933 
z
" transform="scale(0.015625)"/>
       <path id="CMR17-73" d="M 1978 2697 
C 1978 2813 1971 2819 1933 2819 
C 1907 2819 1901 2813 1824 2717 
C 1805 2691 1747 2626 1728 2601 
C 1523 2819 1235 2819 1126 2819 
C 416 2819 160 2447 160 2076 
C 160 1498 813 1365 998 1325 
C 1402 1243 1542 1217 1677 1101 
C 1760 1025 1901 884 1901 654 
C 1901 384 1747 38 1158 38 
C 602 38 403 460 288 1021 
C 269 1110 269 1117 218 1117 
C 166 1117 160 1110 160 983 
L 160 63 
C 160 -51 166 -58 205 -58 
C 237 -58 243 -51 275 0 
C 314 57 410 211 448 276 
C 576 103 800 -64 1158 -64 
C 1792 -64 2131 283 2131 784 
C 2131 1112 1958 1285 1875 1362 
C 1683 1561 1459 1606 1190 1657 
C 838 1735 390 1825 390 2217 
C 390 2383 480 2737 1126 2737 
C 1811 2737 1850 2094 1862 1888 
C 1869 1856 1901 1849 1920 1849 
C 1978 1849 1978 1869 1978 1978 
L 1978 2697 
z
" transform="scale(0.015625)"/>
       <path id="CMR17-69" d="M 992 3909 
C 992 4049 877 4170 730 4170 
C 589 4170 467 4056 467 3909 
C 467 3769 582 3648 730 3648 
C 870 3648 992 3763 992 3909 
z
M 243 2706 
L 243 2541 
C 602 2541 653 2502 653 2197 
L 653 427 
C 653 184 627 153 218 153 
L 218 -13 
C 371 0 646 0 806 0 
C 960 0 1222 0 1370 -13 
L 1370 153 
C 992 153 979 191 979 420 
L 979 2776 
L 243 2706 
z
" transform="scale(0.015625)"/>
       <path id="CMR17-74" d="M 966 2560 
L 1862 2560 
L 1862 2725 
L 966 2725 
L 966 3904 
L 851 3904 
C 838 3245 614 2668 70 2668 
L 70 2560 
L 627 2560 
L 627 771 
C 627 650 627 -64 1370 -64 
C 1747 -64 1965 306 1965 777 
L 1965 1140 
L 1850 1140 
L 1850 783 
C 1850 344 1677 51 1408 51 
C 1222 51 966 178 966 758 
L 966 2560 
z
" transform="scale(0.015625)"/>
       <path id="CMR17-79" d="M 2496 2197 
C 2656 2586 2944 2586 3034 2586 
L 3034 2752 
C 2912 2752 2752 2752 2630 2752 
C 2496 2752 2285 2752 2157 2758 
L 2157 2592 
C 2400 2573 2406 2394 2406 2343 
C 2406 2280 2394 2248 2362 2171 
L 1664 449 
L 902 2306 
C 870 2382 870 2426 870 2433 
C 870 2573 1018 2586 1171 2586 
L 1171 2758 
C 1018 2752 742 2752 582 2752 
C 410 2752 205 2752 64 2758 
L 64 2586 
C 410 2586 448 2554 531 2350 
L 1485 15 
C 1197 -738 1030 -1178 627 -1178 
C 557 -1178 397 -1159 282 -1044 
C 429 -1031 493 -942 493 -833 
C 493 -725 416 -629 288 -629 
C 147 -629 77 -725 77 -840 
C 77 -1095 339 -1280 627 -1280 
C 998 -1280 1229 -922 1357 -604 
L 2496 2197 
z
" transform="scale(0.015625)"/>
      </defs>
      <use xlink:href="#CMR17-44" transform="scale(0.996264)"/>
      <use xlink:href="#CMR17-65" transform="translate(70.393556 0) scale(0.996264)"/>
      <use xlink:href="#CMR17-6e" transform="translate(110.879216 0) scale(0.996264)"/>
      <use xlink:href="#CMR17-73" transform="translate(161.774586 0) scale(0.996264)"/>
      <use xlink:href="#CMR17-69" transform="translate(197.575924 0) scale(0.996264)"/>
      <use xlink:href="#CMR17-74" transform="translate(222.446982 0) scale(0.996264)"/>
      <use xlink:href="#CMR17-79" transform="translate(255.125296 0) scale(0.996264)"/>
     </g>
    </g>
   </g>
   <g id="patch_3">
    <path d="M 37.573984 170.836705 
L 37.573984 170.383645 
L 40.784005 170.383645 
L 40.784005 170.685685 
L 43.994026 170.685685 
L 43.994026 170.282965 
L 47.204047 170.282965 
L 47.204047 170.232625 
L 50.414068 170.232625 
L 50.414068 170.131945 
L 53.624089 170.131945 
L 53.624089 169.376846 
L 56.83411 169.376846 
L 56.83411 169.678885 
L 60.044131 169.678885 
L 60.044131 167.866646 
L 63.254152 167.866646 
L 63.254152 168.017666 
L 66.464173 168.017666 
L 66.464173 166.155087 
L 69.674194 166.155087 
L 69.674194 164.594547 
L 72.884215 164.594547 
L 72.884215 163.738767 
L 76.094236 163.738767 
L 76.094236 162.077548 
L 79.304257 162.077548 
L 79.304257 160.063948 
L 82.514278 160.063948 
L 82.514278 156.791849 
L 85.724299 156.791849 
L 85.724299 155.58369 
L 88.93432 155.58369 
L 88.93432 154.57689 
L 92.144341 154.57689 
L 92.144341 150.801391 
L 95.354362 150.801391 
L 95.354362 148.838132 
L 98.564383 148.838132 
L 98.564383 147.227252 
L 101.774404 147.227252 
L 101.774404 144.106173 
L 104.984425 144.106173 
L 104.984425 146.321133 
L 108.194446 146.321133 
L 108.194446 142.344274 
L 111.404467 142.344274 
L 111.404467 143.049034 
L 114.614488 143.049034 
L 114.614488 143.904813 
L 117.824509 143.904813 
L 117.824509 143.955153 
L 121.03453 143.955153 
L 121.03453 144.156513 
L 124.244551 144.156513 
L 124.244551 147.780992 
L 127.454572 147.780992 
L 127.454572 148.636772 
L 130.664593 148.636772 
L 130.664593 151.606831 
L 133.874614 151.606831 
L 133.874614 153.066691 
L 137.084635 153.066691 
L 137.084635 157.798649 
L 140.294656 157.798649 
L 140.294656 157.848989 
L 143.504677 157.848989 
L 143.504677 160.164628 
L 146.714698 160.164628 
L 146.714698 161.624488 
L 149.924719 161.624488 
L 149.924719 164.745567 
L 153.13474 164.745567 
L 153.13474 164.493867 
L 156.344761 164.493867 
L 156.344761 166.557806 
L 159.554782 166.557806 
L 159.554782 168.168686 
L 162.764803 168.168686 
L 162.764803 168.470726 
L 165.974824 168.470726 
L 165.974824 169.276166 
L 169.184845 169.276166 
L 169.184845 169.628545 
L 172.394866 169.628545 
L 172.394866 169.477526 
L 175.604887 169.477526 
L 175.604887 170.182285 
L 178.814908 170.182285 
L 178.814908 170.484325 
L 182.024929 170.484325 
L 182.024929 170.484325 
L 185.23495 170.484325 
L 185.23495 170.585005 
L 188.444971 170.585005 
L 188.444971 170.786365 
L 191.654992 170.786365 
L 191.654992 170.836705 
L 194.865012 170.836705 
L 194.865012 170.786365 
L 198.075033 170.786365 
L 198.075033 170.836705 
" clip-path="url(#p745fa97b06)" style="fill: none; stroke: #0000ff; stroke-linejoin: miter"/>
   </g>
   <g id="patch_4">
    <path d="M 66.041749 170.836705 
L 66.041749 170.746041 
L 67.824067 170.746041 
L 67.824067 170.836705 
L 69.606385 170.836705 
L 69.606385 170.836705 
L 71.388704 170.836705 
L 71.388704 170.836705 
L 73.171022 170.836705 
L 73.171022 170.746041 
L 74.953341 170.746041 
L 74.953341 170.746041 
L 76.735659 170.746041 
L 76.735659 170.746041 
L 78.517978 170.746041 
L 78.517978 170.474048 
L 80.300296 170.474048 
L 80.300296 170.474048 
L 82.082615 170.474048 
L 82.082615 169.386079 
L 83.864933 169.386079 
L 83.864933 169.386079 
L 85.647252 169.386079 
L 85.647252 167.935452 
L 87.42957 167.935452 
L 87.42957 168.298109 
L 89.211888 168.298109 
L 89.211888 165.306191 
L 90.994207 165.306191 
L 90.994207 162.042282 
L 92.776525 162.042282 
L 92.776525 161.226304 
L 94.558844 161.226304 
L 94.558844 154.698484 
L 96.341162 154.698484 
L 96.341162 150.981254 
L 98.123481 150.981254 
L 98.123481 147.717344 
L 99.905799 147.717344 
L 99.905799 140.282883 
L 101.688118 140.282883 
L 101.688118 131.035139 
L 103.470436 131.035139 
L 103.470436 129.221855 
L 105.252755 129.221855 
L 105.252755 123.328685 
L 107.035073 123.328685 
L 107.035073 114.171605 
L 108.817391 114.171605 
L 108.817391 113.174299 
L 110.59971 113.174299 
L 110.59971 111.905001 
L 112.382028 111.905001 
L 112.382028 102.74792 
L 114.164347 102.74792 
L 114.164347 111.179687 
L 115.946665 111.179687 
L 115.946665 111.361016 
L 117.728984 111.361016 
L 117.728984 114.443597 
L 119.511302 114.443597 
L 119.511302 121.243409 
L 121.293621 121.243409 
L 121.293621 130.037833 
L 123.075939 130.037833 
L 123.075939 135.387018 
L 124.858257 135.387018 
L 124.858257 141.824174 
L 126.640576 141.824174 
L 126.640576 150.165276 
L 128.422894 150.165276 
L 128.422894 153.701179 
L 130.205213 153.701179 
L 130.205213 158.415715 
L 131.987531 158.415715 
L 131.987531 160.682319 
L 133.76985 160.682319 
L 133.76985 163.31158 
L 135.552168 163.31158 
L 135.552168 165.668848 
L 137.334487 165.668848 
L 137.334487 167.482131 
L 139.116805 167.482131 
L 139.116805 168.479437 
L 140.899124 168.479437 
L 140.899124 169.476743 
L 142.681442 169.476743 
L 142.681442 169.567407 
L 144.46376 169.567407 
L 144.46376 170.111392 
L 146.246079 170.111392 
L 146.246079 170.564713 
L 148.028397 170.564713 
L 148.028397 170.655377 
L 149.810716 170.655377 
L 149.810716 170.564713 
L 151.593034 170.564713 
L 151.593034 170.836705 
L 153.375353 170.836705 
L 153.375353 170.746041 
L 155.157671 170.746041 
L 155.157671 170.836705 
" clip-path="url(#p745fa97b06)" style="fill: none; stroke: #ff0000; stroke-linejoin: miter"/>
   </g>
   <g id="line2d_42">
    <path d="M 48.160159 170.836705 
L 77.468086 170.741079 
L 80.724522 170.536664 
L 83.329672 170.144742 
L 85.283533 169.600175 
L 86.586108 169.055411 
L 87.888682 168.315394 
L 89.191257 167.330176 
L 90.493831 166.04502 
L 91.796406 164.40303 
L 93.098981 162.349008 
L 94.401555 159.834478 
L 95.70413 156.8237 
L 97.006704 153.300246 
L 98.309279 149.273541 
L 100.263141 142.38926 
L 102.86829 132.13375 
L 106.124726 119.326305 
L 107.4273 114.837075 
L 108.729875 111.01823 
L 110.03245 108.053212 
L 110.683737 106.938962 
L 111.335024 106.090315 
L 111.986311 105.518298 
L 112.637599 105.230398 
L 113.288886 105.230398 
L 113.940173 105.518298 
L 114.59146 106.090315 
L 115.242748 106.938962 
L 115.894035 108.053212 
L 117.19661 111.01823 
L 118.499184 114.837075 
L 119.801759 119.326305 
L 121.75562 126.868931 
L 125.663344 142.38926 
L 127.617206 149.273541 
L 129.571068 155.126147 
L 130.873642 158.392678 
L 132.176217 161.151914 
L 133.478791 163.430777 
L 134.781366 165.272172 
L 136.08394 166.728635 
L 137.386515 167.856769 
L 138.689089 168.712795 
L 139.991664 169.349314 
L 141.945526 169.993305 
L 143.899388 170.377029 
L 146.504537 170.644277 
L 150.41226 170.791028 
L 160.181569 170.836078 
L 177.766326 170.836705 
L 177.766326 170.836705 
" clip-path="url(#p745fa97b06)" style="fill: none; stroke-dasharray: 7.4,3.2; stroke-dashoffset: 0; stroke: #000000; stroke-width: 2"/>
   </g>
   <g id="patch_5">
    <path d="M 29.548932 170.836705 
L 29.548932 20.810347 
" style="fill: none; stroke: #000000; stroke-width: 0.3; stroke-linejoin: miter; stroke-linecap: square"/>
   </g>
   <g id="patch_6">
    <path d="M 206.100086 170.836705 
L 206.100086 20.810347 
" style="fill: none; stroke: #000000; stroke-width: 0.3; stroke-linejoin: miter; stroke-linecap: square"/>
   </g>
   <g id="patch_7">
    <path d="M 29.548932 170.836705 
L 206.100086 170.836705 
" style="fill: none; stroke: #000000; stroke-width: 0.3; stroke-linejoin: miter; stroke-linecap: square"/>
   </g>
   <g id="patch_8">
    <path d="M 29.548932 20.810347 
L 206.100086 20.810347 
" style="fill: none; stroke: #000000; stroke-width: 0.3; stroke-linejoin: miter; stroke-linecap: square"/>
   </g>
   <g id="text_12">
    <!-- $\rho = 0.7$ -->
    <g transform="translate(100.684127 14.810347) scale(0.11 -0.11)">
     <defs>
      <path id="CMMI12-1a" d="M 198 -1107 
C 192 -1139 179 -1177 179 -1216 
C 179 -1312 256 -1376 352 -1376 
C 448 -1376 538 -1312 576 -1222 
C 602 -1164 781 -397 986 390 
C 1114 70 1350 -64 1600 -64 
C 2323 -64 3142 830 3142 1795 
C 3142 2478 2726 2816 2285 2816 
C 1722 2816 1037 2235 826 1385 
L 198 -1107 
z
M 1594 64 
C 1158 64 1050 569 1050 645 
C 1050 684 1210 1295 1229 1391 
C 1555 2670 2182 2670 2278 2670 
C 2566 2670 2726 2410 2726 2036 
C 2726 1712 2554 1084 2445 819 
C 2253 381 1920 64 1594 64 
z
" transform="scale(0.015625)"/>
      <path id="CMR17-3d" d="M 4115 2017 
C 4211 2017 4307 2017 4307 2125 
C 4307 2240 4198 2240 4090 2240 
L 512 2240 
C 403 2240 294 2240 294 2125 
C 294 2017 390 2017 486 2017 
L 4115 2017 
z
M 4090 896 
C 4198 896 4307 896 4307 1011 
C 4307 1119 4211 1119 4115 1119 
L 486 1119 
C 390 1119 294 1119 294 1011 
C 294 896 403 896 512 896 
L 4090 896 
z
" transform="scale(0.015625)"/>
      <path id="CMMI12-3a" d="M 1178 307 
C 1178 492 1024 619 870 619 
C 685 619 557 466 557 313 
C 557 128 710 0 864 0 
C 1050 0 1178 153 1178 307 
z
" transform="scale(0.015625)"/>
      <path id="CMR17-37" d="M 2886 3941 
L 2886 4081 
L 1382 4081 
C 634 4081 621 4165 595 4288 
L 480 4288 
L 294 3094 
L 410 3094 
C 429 3215 474 3540 550 3661 
C 589 3712 1062 3712 1171 3712 
L 2579 3712 
L 1869 2661 
C 1395 1954 1069 999 1069 165 
C 1069 89 1069 -128 1299 -128 
C 1530 -128 1530 89 1530 171 
L 1530 465 
C 1530 1508 1709 2196 2003 2636 
L 2886 3941 
z
" transform="scale(0.015625)"/>
     </defs>
     <use xlink:href="#CMMI12-1a" transform="scale(0.996264)"/>
     <use xlink:href="#CMR17-3d" transform="translate(77.988382 0) scale(0.996264)"/>
     <use xlink:href="#CMR17-30" transform="translate(177.377179 0) scale(0.996264)"/>
     <use xlink:href="#CMMI12-3a" transform="translate(223.067656 0) scale(0.996264)"/>
     <use xlink:href="#CMR17-37" transform="translate(250.164833 0) scale(0.996264)"/>
    </g>
   </g>
   <g id="legend_1">
    <g id="patch_9">
     <path d="M 117.133057 66.563647 
L 199.800086 66.563647 
Q 201.600086 66.563647 201.600086 64.763647 
L 201.600086 27.110347 
Q 201.600086 25.310347 199.800086 25.310347 
L 117.133057 25.310347 
Q 115.333057 25.310347 115.333057 27.110347 
L 115.333057 64.763647 
Q 115.333057 66.563647 117.133057 66.563647 
z
" style="fill: #ffffff; opacity: 0.8; stroke: #cccccc; stroke-linejoin: miter"/>
    </g>
    <g id="patch_10">
     <path d="M 118.933057 35.635129 
L 136.933057 35.635129 
L 136.933057 29.335129 
L 118.933057 29.335129 
L 118.933057 35.635129 
z
" style="fill: none; stroke: #0000ff; stroke-linejoin: miter"/>
    </g>
    <g id="text_13">
     <!-- AR(1) Errors -->
     <g transform="translate(144.133057 35.635129) scale(0.09 -0.09)">
      <defs>
       <path id="CMR17-41" d="M 2323 4378 
C 2291 4461 2278 4480 2214 4480 
C 2150 4480 2138 4461 2106 4378 
L 749 566 
C 627 223 371 153 147 153 
L 147 -13 
C 262 0 518 0 640 0 
C 800 0 1056 0 1210 -13 
L 1210 153 
C 909 153 864 361 864 439 
C 864 497 877 530 890 569 
L 1229 1536 
L 2906 1536 
L 3290 442 
C 3322 365 3322 352 3322 327 
C 3322 153 3046 153 2925 153 
L 2925 0 
C 3110 0 3443 0 3642 0 
C 3808 0 4128 0 4282 -13 
L 4282 153 
C 3942 153 3827 153 3744 387 
L 2323 4378 
z
M 2067 3893 
L 2848 1702 
L 1286 1702 
L 2067 3893 
z
" transform="scale(0.015625)"/>
       <path id="CMR17-52" d="M 2509 2146 
C 3117 2268 3629 2676 3629 3186 
C 3629 3785 2950 4326 2054 4326 
L 333 4326 
L 333 4160 
C 774 4160 845 4160 845 3873 
L 845 415 
C 845 128 774 128 333 128 
L 333 -26 
C 518 -26 851 -26 1050 -26 
C 1248 -26 1581 -26 1766 -26 
L 1766 128 
C 1325 128 1254 128 1254 417 
L 1254 2112 
L 2003 2112 
C 2368 2112 2573 1964 2662 1881 
C 2918 1632 2918 1459 2918 1024 
C 2918 595 2918 377 3110 160 
C 3354 -102 3680 -128 3821 -128 
C 4294 -128 4365 396 4365 503 
C 4365 540 4365 585 4307 585 
C 4256 585 4250 547 4250 522 
C 4218 112 4032 -26 3834 -26 
C 3482 -26 3443 375 3405 764 
C 3386 898 3373 993 3360 1133 
C 3322 1452 3270 1917 2509 2146 
z
M 1984 2214 
L 1254 2214 
L 1254 3913 
C 1254 4129 1267 4160 1523 4160 
L 1990 4160 
C 2522 4160 3142 3977 3142 3190 
C 3142 2372 2464 2214 1984 2214 
z
" transform="scale(0.015625)"/>
       <path id="CMR17-28" d="M 1958 -1561 
C 1958 -1555 1958 -1542 1939 -1523 
C 1645 -1224 858 -407 858 1581 
C 858 3569 1632 4379 1946 4697 
C 1946 4704 1958 4717 1958 4736 
C 1958 4755 1939 4768 1914 4768 
C 1843 4768 1299 4296 986 3594 
C 666 2887 576 2199 576 1588 
C 576 1128 621 351 1005 -471 
C 1312 -1135 1837 -1600 1914 -1600 
C 1946 -1600 1958 -1587 1958 -1561 
z
" transform="scale(0.015625)"/>
       <path id="CMR17-29" d="M 1683 1581 
C 1683 2040 1638 2817 1254 3639 
C 947 4303 422 4768 346 4768 
C 326 4768 301 4761 301 4729 
C 301 4717 307 4710 314 4697 
C 621 4378 1402 3568 1402 1584 
C 1402 -407 627 -1217 314 -1537 
C 307 -1549 301 -1556 301 -1568 
C 301 -1600 326 -1600 346 -1600 
C 416 -1600 960 -1128 1274 -426 
C 1594 281 1683 969 1683 1581 
z
" transform="scale(0.015625)"/>
       <path id="CMR17-45" d="M 3885 1615 
L 3770 1615 
C 3629 676 3546 166 2419 166 
L 1530 166 
C 1274 166 1261 197 1261 414 
L 1261 2176 
L 1862 2176 
C 2464 2176 2522 1960 2522 1430 
L 2637 1430 
L 2637 3081 
L 2522 3081 
C 2522 2557 2464 2342 1862 2342 
L 1261 2342 
L 1261 3913 
C 1261 4128 1274 4160 1530 4160 
L 2406 4160 
C 3398 4160 3514 3769 3603 2929 
L 3718 2929 
L 3565 4325 
L 326 4325 
L 326 4160 
C 768 4160 838 4160 838 3874 
L 838 451 
C 838 166 768 166 326 166 
L 326 0 
L 3654 0 
L 3885 1615 
z
" transform="scale(0.015625)"/>
       <path id="CMR17-72" d="M 960 1497 
C 960 2112 1222 2688 1702 2688 
C 1747 2688 1792 2682 1837 2662 
C 1837 2662 1696 2617 1696 2452 
C 1696 2298 1818 2234 1914 2234 
C 1990 2234 2131 2279 2131 2458 
C 2131 2663 1926 2790 1709 2790 
C 1222 2790 1011 2317 947 2093 
L 941 2093 
L 941 2790 
L 198 2720 
L 198 2554 
C 576 2554 634 2515 634 2208 
L 634 428 
C 634 184 608 153 198 153 
L 198 -13 
C 352 0 646 0 813 0 
C 998 0 1325 0 1498 -13 
L 1498 153 
C 1037 153 960 153 960 440 
L 960 1497 
z
" transform="scale(0.015625)"/>
       <path id="CMR17-6f" d="M 2758 1356 
C 2758 2176 2163 2816 1466 2816 
C 768 2816 173 2176 173 1356 
C 173 551 768 -64 1466 -64 
C 2163 -64 2758 551 2758 1356 
z
M 1466 51 
C 1165 51 909 230 762 480 
C 602 767 582 1126 582 1408 
C 582 1677 595 2010 762 2298 
C 890 2509 1139 2714 1466 2714 
C 1754 2714 1997 2554 2150 2330 
C 2349 2029 2349 1607 2349 1408 
C 2349 1158 2336 775 2163 467 
C 1984 173 1709 51 1466 51 
z
" transform="scale(0.015625)"/>
      </defs>
      <use xlink:href="#CMR17-41" transform="scale(0.996264)"/>
      <use xlink:href="#CMR17-52" transform="translate(69.07243 0) scale(0.996264)"/>
      <use xlink:href="#CMR17-28" transform="translate(136.863532 0) scale(0.996264)"/>
      <use xlink:href="#CMR17-31" transform="translate(172.1443 0) scale(0.996264)"/>
      <use xlink:href="#CMR17-29" transform="translate(217.834777 0) scale(0.996264)"/>
      <use xlink:href="#CMR17-45" transform="translate(283.191511 0) scale(0.996264)"/>
      <use xlink:href="#CMR17-72" transform="translate(345.777811 0) scale(0.996264)"/>
      <use xlink:href="#CMR17-72" transform="translate(381.058579 0) scale(0.996264)"/>
      <use xlink:href="#CMR17-6f" transform="translate(416.339347 0) scale(0.996264)"/>
      <use xlink:href="#CMR17-72" transform="translate(462.029824 0) scale(0.996264)"/>
      <use xlink:href="#CMR17-73" transform="translate(497.310592 0) scale(0.996264)"/>
     </g>
    </g>
    <g id="patch_11">
     <path d="M 118.933057 48.676723 
L 136.933057 48.676723 
L 136.933057 42.376723 
L 118.933057 42.376723 
L 118.933057 48.676723 
z
" style="fill: none; stroke: #ff0000; stroke-linejoin: miter"/>
    </g>
    <g id="text_14">
     <!-- IID Errors -->
     <g transform="translate(144.133057 48.676723) scale(0.09 -0.09)">
      <defs>
       <path id="CMR17-49" d="M 1261 3905 
C 1261 4192 1338 4192 1798 4192 
L 1798 4352 
C 1594 4352 1267 4352 1050 4352 
C 832 4352 506 4352 301 4352 
L 301 4192 
C 762 4192 838 4192 838 3905 
L 838 447 
C 838 160 762 160 301 160 
L 301 0 
C 506 0 832 0 1050 0 
C 1267 0 1594 0 1798 0 
L 1798 160 
C 1338 160 1261 160 1261 447 
L 1261 3905 
z
" transform="scale(0.015625)"/>
      </defs>
      <use xlink:href="#CMR17-49" transform="scale(0.996264)"/>
      <use xlink:href="#CMR17-49" transform="translate(35.240848 0) scale(0.996264)"/>
      <use xlink:href="#CMR17-44" transform="translate(67.879257 0) scale(0.996264)"/>
      <use xlink:href="#CMR17-45" transform="translate(168.348779 0) scale(0.996264)"/>
      <use xlink:href="#CMR17-72" transform="translate(230.93508 0) scale(0.996264)"/>
      <use xlink:href="#CMR17-72" transform="translate(266.215848 0) scale(0.996264)"/>
      <use xlink:href="#CMR17-6f" transform="translate(301.496615 0) scale(0.996264)"/>
      <use xlink:href="#CMR17-72" transform="translate(347.187093 0) scale(0.996264)"/>
      <use xlink:href="#CMR17-73" transform="translate(382.46786 0) scale(0.996264)"/>
     </g>
    </g>
    <g id="line2d_43">
     <path d="M 118.933057 58.070185 
L 127.933057 58.070185 
L 136.933057 58.070185 
" style="fill: none; stroke-dasharray: 7.4,3.2; stroke-dashoffset: 0; stroke: #000000; stroke-width: 2"/>
    </g>
    <g id="text_15">
     <!-- Normal PDF -->
     <g transform="translate(144.133057 61.220185) scale(0.09 -0.09)">
      <defs>
       <path id="CMR17-4e" d="M 1312 4250 
C 1267 4320 1261 4320 1139 4320 
L 326 4320 
L 326 4160 
L 448 4160 
C 704 4160 819 4129 838 4122 
L 838 610 
C 838 451 838 153 326 153 
L 326 -13 
C 474 0 742 0 902 0 
C 1062 0 1331 0 1478 -13 
L 1478 153 
C 966 153 966 451 966 610 
L 966 4033 
C 1011 3995 1011 3982 1056 3919 
L 3430 76 
C 3475 0 3494 0 3526 0 
C 3590 0 3590 19 3590 139 
L 3590 3705 
C 3590 3863 3590 4160 4102 4160 
L 4102 4326 
C 3955 4320 3686 4320 3526 4320 
C 3366 4320 3098 4320 2950 4326 
L 2950 4160 
C 3462 4160 3462 3862 3462 3703 
L 3462 763 
L 1312 4250 
z
" transform="scale(0.015625)"/>
       <path id="CMR17-6d" d="M 4326 1933 
C 4326 2252 4269 2790 3507 2790 
C 3072 2790 2771 2496 2656 2151 
L 2650 2151 
C 2573 2676 2195 2790 1837 2790 
C 1331 2790 1069 2400 973 2144 
L 966 2144 
L 966 2790 
L 211 2720 
L 211 2554 
C 589 2554 646 2515 646 2208 
L 646 428 
C 646 184 621 153 211 153 
L 211 -13 
C 365 0 646 0 813 0 
C 979 0 1267 0 1421 -13 
L 1421 153 
C 1011 153 986 178 986 428 
L 986 1658 
C 986 2247 1344 2688 1792 2688 
C 2266 2688 2317 2266 2317 1958 
L 2317 428 
C 2317 184 2291 153 1882 153 
L 1882 -13 
C 2035 0 2317 0 2483 0 
C 2650 0 2938 0 3091 -13 
L 3091 153 
C 2682 153 2656 178 2656 428 
L 2656 1658 
C 2656 2247 3014 2688 3462 2688 
C 3936 2688 3987 2266 3987 1958 
L 3987 428 
C 3987 184 3962 153 3552 153 
L 3552 -13 
C 3706 0 3987 0 4154 0 
C 4320 0 4608 0 4762 -13 
L 4762 153 
C 4352 153 4326 178 4326 428 
L 4326 1933 
z
" transform="scale(0.015625)"/>
       <path id="CMR17-61" d="M 2304 1653 
C 2304 2072 2304 2294 2035 2543 
C 1798 2752 1523 2816 1306 2816 
C 800 2816 435 2407 435 1971 
C 435 1728 627 1728 666 1728 
C 749 1728 896 1778 896 1954 
C 896 2112 774 2181 666 2181 
C 640 2181 608 2174 589 2168 
C 723 2592 1069 2714 1293 2714 
C 1613 2714 1965 2429 1965 1885 
L 1965 1600 
C 1587 1600 1133 1549 774 1357 
C 371 1133 256 813 256 570 
C 256 77 832 -64 1171 -64 
C 1523 -64 1850 139 1990 511 
C 2003 233 2182 -18 2464 -18 
C 2598 -18 2938 70 2938 567 
L 2938 920 
L 2822 920 
L 2822 562 
C 2822 178 2650 128 2566 128 
C 2304 128 2304 458 2304 738 
L 2304 1653 
z
M 1965 870 
C 1965 317 1568 38 1216 38 
C 896 38 646 275 646 570 
C 646 761 730 1100 1101 1305 
C 1408 1478 1760 1504 1965 1504 
L 1965 870 
z
" transform="scale(0.015625)"/>
       <path id="CMR17-6c" d="M 979 4396 
L 218 4326 
L 218 4160 
C 595 4160 653 4122 653 3817 
L 653 426 
C 653 184 627 153 218 153 
L 218 -13 
C 371 0 653 0 813 0 
C 979 0 1261 0 1414 -13 
L 1414 153 
C 1005 153 979 178 979 426 
L 979 4396 
z
" transform="scale(0.015625)"/>
       <path id="CMR17-50" d="M 1267 2042 
L 2291 2042 
C 3117 2042 3718 2578 3718 3184 
C 3718 3791 3130 4352 2291 4352 
L 333 4352 
L 333 4186 
C 774 4186 845 4186 845 3899 
L 845 446 
C 845 160 774 160 333 160 
L 333 0 
C 518 0 858 0 1056 0 
C 1254 0 1594 0 1779 0 
L 1779 160 
C 1338 160 1267 160 1267 446 
L 1267 2042 
z
M 1254 2176 
L 1254 3938 
C 1254 4155 1267 4186 1523 4186 
L 2170 4186 
C 2995 4186 3232 3714 3232 3184 
C 3232 2604 2950 2176 2170 2176 
L 1254 2176 
z
" transform="scale(0.015625)"/>
       <path id="CMR17-46" d="M 3482 4325 
L 326 4325 
L 326 4160 
C 768 4160 838 4160 838 3874 
L 838 446 
C 838 160 768 160 326 160 
L 326 0 
C 512 0 870 0 1069 0 
C 1331 0 1638 0 1901 0 
L 1901 160 
L 1760 160 
C 1274 160 1261 223 1261 452 
L 1261 2075 
L 1837 2075 
C 2432 2075 2490 1865 2490 1332 
L 2605 1332 
L 2605 2987 
L 2490 2987 
C 2490 2450 2432 2240 1837 2240 
L 1261 2240 
L 1261 3911 
C 1261 4128 1274 4160 1530 4160 
L 2355 4160 
C 3322 4160 3430 3765 3520 2916 
L 3635 2916 
L 3482 4325 
z
" transform="scale(0.015625)"/>
      </defs>
      <use xlink:href="#CMR17-4e" transform="scale(0.996264)"/>
      <use xlink:href="#CMR17-6f" transform="translate(69.07243 0) scale(0.996264)"/>
      <use xlink:href="#CMR17-72" transform="translate(114.762907 0) scale(0.996264)"/>
      <use xlink:href="#CMR17-6d" transform="translate(150.043675 0) scale(0.996264)"/>
      <use xlink:href="#CMR17-61" transform="translate(226.963265 0) scale(0.996264)"/>
      <use xlink:href="#CMR17-6c" transform="translate(272.653742 0) scale(0.996264)"/>
      <use xlink:href="#CMR17-50" transform="translate(327.600767 0) scale(0.996264)"/>
      <use xlink:href="#CMR17-44" transform="translate(390.187067 0) scale(0.996264)"/>
      <use xlink:href="#CMR17-46" transform="translate(460.580623 0) scale(0.996264)"/>
     </g>
    </g>
   </g>
  </g>
  <g id="axes_2">
   <g id="patch_12">
    <path d="M 231.721327 170.836705 
L 408.272481 170.836705 
L 408.272481 20.810347 
L 231.721327 20.810347 
z
" style="fill: #ffffff"/>
   </g>
   <g id="matplotlib.axis_3">
    <g id="xtick_21">
     <g id="line2d_44">
      <g>
       <use xlink:href="#mc9f0d3fde3" x="266.496555" y="170.836705" style="stroke: #000000; stroke-width: 0.5"/>
      </g>
     </g>
     <g id="text_16">
      <!-- $\mathdefault{−1}$ -->
      <g transform="translate(260.60895 181.063355) scale(0.09 -0.09)">
       <use xlink:href="#CMSY10-0" transform="scale(0.996264)"/>
       <use xlink:href="#CMR17-31" transform="translate(77.487468 0) scale(0.996264)"/>
      </g>
     </g>
    </g>
    <g id="xtick_22">
     <g id="line2d_45">
      <g>
       <use xlink:href="#mc9f0d3fde3" x="319.996904" y="170.836705" style="stroke: #000000; stroke-width: 0.5"/>
      </g>
     </g>
     <g id="text_17">
      <!-- $\mathdefault{0}$ -->
      <g transform="translate(317.693059 181.063355) scale(0.09 -0.09)">
       <use xlink:href="#CMR17-30" transform="scale(0.996264)"/>
      </g>
     </g>
    </g>
    <g id="xtick_23">
     <g id="line2d_46">
      <g>
       <use xlink:href="#mc9f0d3fde3" x="373.497254" y="170.836705" style="stroke: #000000; stroke-width: 0.5"/>
      </g>
     </g>
     <g id="text_18">
      <!-- $\mathdefault{1}$ -->
      <g transform="translate(371.193409 181.063355) scale(0.09 -0.09)">
       <use xlink:href="#CMR17-31" transform="scale(0.996264)"/>
      </g>
     </g>
    </g>
    <g id="xtick_24">
     <g id="line2d_47">
      <g>
       <use xlink:href="#m7b31a9d1af" x="234.396345" y="170.836705" style="stroke: #000000; stroke-width: 0.3"/>
      </g>
     </g>
    </g>
    <g id="xtick_25">
     <g id="line2d_48">
      <g>
       <use xlink:href="#m7b31a9d1af" x="245.096415" y="170.836705" style="stroke: #000000; stroke-width: 0.3"/>
      </g>
     </g>
    </g>
    <g id="xtick_26">
     <g id="line2d_49">
      <g>
       <use xlink:href="#m7b31a9d1af" x="255.796485" y="170.836705" style="stroke: #000000; stroke-width: 0.3"/>
      </g>
     </g>
    </g>
    <g id="xtick_27">
     <g id="line2d_50">
      <g>
       <use xlink:href="#m7b31a9d1af" x="277.196625" y="170.836705" style="stroke: #000000; stroke-width: 0.3"/>
      </g>
     </g>
    </g>
    <g id="xtick_28">
     <g id="line2d_51">
      <g>
       <use xlink:href="#m7b31a9d1af" x="287.896694" y="170.836705" style="stroke: #000000; stroke-width: 0.3"/>
      </g>
     </g>
    </g>
    <g id="xtick_29">
     <g id="line2d_52">
      <g>
       <use xlink:href="#m7b31a9d1af" x="298.596764" y="170.836705" style="stroke: #000000; stroke-width: 0.3"/>
      </g>
     </g>
    </g>
    <g id="xtick_30">
     <g id="line2d_53">
      <g>
       <use xlink:href="#m7b31a9d1af" x="309.296834" y="170.836705" style="stroke: #000000; stroke-width: 0.3"/>
      </g>
     </g>
    </g>
    <g id="xtick_31">
     <g id="line2d_54">
      <g>
       <use xlink:href="#m7b31a9d1af" x="330.696974" y="170.836705" style="stroke: #000000; stroke-width: 0.3"/>
      </g>
     </g>
    </g>
    <g id="xtick_32">
     <g id="line2d_55">
      <g>
       <use xlink:href="#m7b31a9d1af" x="341.397044" y="170.836705" style="stroke: #000000; stroke-width: 0.3"/>
      </g>
     </g>
    </g>
    <g id="xtick_33">
     <g id="line2d_56">
      <g>
       <use xlink:href="#m7b31a9d1af" x="352.097114" y="170.836705" style="stroke: #000000; stroke-width: 0.3"/>
      </g>
     </g>
    </g>
    <g id="xtick_34">
     <g id="line2d_57">
      <g>
       <use xlink:href="#m7b31a9d1af" x="362.797184" y="170.836705" style="stroke: #000000; stroke-width: 0.3"/>
      </g>
     </g>
    </g>
    <g id="xtick_35">
     <g id="line2d_58">
      <g>
       <use xlink:href="#m7b31a9d1af" x="384.197324" y="170.836705" style="stroke: #000000; stroke-width: 0.3"/>
      </g>
     </g>
    </g>
    <g id="xtick_36">
     <g id="line2d_59">
      <g>
       <use xlink:href="#m7b31a9d1af" x="394.897394" y="170.836705" style="stroke: #000000; stroke-width: 0.3"/>
      </g>
     </g>
    </g>
    <g id="xtick_37">
     <g id="line2d_60">
      <g>
       <use xlink:href="#m7b31a9d1af" x="405.597464" y="170.836705" style="stroke: #000000; stroke-width: 0.3"/>
      </g>
     </g>
    </g>
    <g id="text_19">
     <!-- OLS $\hat{\beta}$ -->
     <g transform="translate(303.919043 197.309105) scale(0.11 -0.11)">
      <use xlink:href="#CMR17-4f" transform="scale(0.996264)"/>
      <use xlink:href="#CMR17-4c" transform="translate(71.714788 0) scale(0.996264)"/>
      <use xlink:href="#CMR17-53" transform="translate(129.096196 0) scale(0.996264)"/>
      <use xlink:href="#CMR17-5e" transform="translate(225.648462 26.296621) scale(0.996264)"/>
      <use xlink:href="#CMMI12-c" transform="translate(210.067532 0) scale(0.996264)"/>
     </g>
    </g>
   </g>
   <g id="matplotlib.axis_4">
    <g id="ytick_22">
     <g id="line2d_61">
      <g>
       <use xlink:href="#me8bd69f7a5" x="231.721327" y="170.836705" style="stroke: #000000; stroke-width: 0.3"/>
      </g>
     </g>
    </g>
    <g id="ytick_23">
     <g id="line2d_62">
      <g>
       <use xlink:href="#me8bd69f7a5" x="231.721327" y="133.432835" style="stroke: #000000; stroke-width: 0.3"/>
      </g>
     </g>
    </g>
    <g id="ytick_24">
     <g id="line2d_63">
      <g>
       <use xlink:href="#me8bd69f7a5" x="231.721327" y="96.028965" style="stroke: #000000; stroke-width: 0.3"/>
      </g>
     </g>
    </g>
    <g id="ytick_25">
     <g id="line2d_64">
      <g>
       <use xlink:href="#me8bd69f7a5" x="231.721327" y="58.625095" style="stroke: #000000; stroke-width: 0.3"/>
      </g>
     </g>
    </g>
    <g id="ytick_26">
     <g id="line2d_65">
      <g>
       <use xlink:href="#me8bd69f7a5" x="231.721327" y="21.221225" style="stroke: #000000; stroke-width: 0.3"/>
      </g>
     </g>
    </g>
    <g id="ytick_27">
     <g id="line2d_66">
      <g>
       <use xlink:href="#mf576b64071" x="231.721327" y="163.355931" style="stroke: #000000; stroke-width: 0.3"/>
      </g>
     </g>
    </g>
    <g id="ytick_28">
     <g id="line2d_67">
      <g>
       <use xlink:href="#mf576b64071" x="231.721327" y="155.875157" style="stroke: #000000; stroke-width: 0.3"/>
      </g>
     </g>
    </g>
    <g id="ytick_29">
     <g id="line2d_68">
      <g>
       <use xlink:href="#mf576b64071" x="231.721327" y="148.394383" style="stroke: #000000; stroke-width: 0.3"/>
      </g>
     </g>
    </g>
    <g id="ytick_30">
     <g id="line2d_69">
      <g>
       <use xlink:href="#mf576b64071" x="231.721327" y="140.913609" style="stroke: #000000; stroke-width: 0.3"/>
      </g>
     </g>
    </g>
    <g id="ytick_31">
     <g id="line2d_70">
      <g>
       <use xlink:href="#mf576b64071" x="231.721327" y="125.952061" style="stroke: #000000; stroke-width: 0.3"/>
      </g>
     </g>
    </g>
    <g id="ytick_32">
     <g id="line2d_71">
      <g>
       <use xlink:href="#mf576b64071" x="231.721327" y="118.471287" style="stroke: #000000; stroke-width: 0.3"/>
      </g>
     </g>
    </g>
    <g id="ytick_33">
     <g id="line2d_72">
      <g>
       <use xlink:href="#mf576b64071" x="231.721327" y="110.990513" style="stroke: #000000; stroke-width: 0.3"/>
      </g>
     </g>
    </g>
    <g id="ytick_34">
     <g id="line2d_73">
      <g>
       <use xlink:href="#mf576b64071" x="231.721327" y="103.509739" style="stroke: #000000; stroke-width: 0.3"/>
      </g>
     </g>
    </g>
    <g id="ytick_35">
     <g id="line2d_74">
      <g>
       <use xlink:href="#mf576b64071" x="231.721327" y="88.548191" style="stroke: #000000; stroke-width: 0.3"/>
      </g>
     </g>
    </g>
    <g id="ytick_36">
     <g id="line2d_75">
      <g>
       <use xlink:href="#mf576b64071" x="231.721327" y="81.067417" style="stroke: #000000; stroke-width: 0.3"/>
      </g>
     </g>
    </g>
    <g id="ytick_37">
     <g id="line2d_76">
      <g>
       <use xlink:href="#mf576b64071" x="231.721327" y="73.586643" style="stroke: #000000; stroke-width: 0.3"/>
      </g>
     </g>
    </g>
    <g id="ytick_38">
     <g id="line2d_77">
      <g>
       <use xlink:href="#mf576b64071" x="231.721327" y="66.105869" style="stroke: #000000; stroke-width: 0.3"/>
      </g>
     </g>
    </g>
    <g id="ytick_39">
     <g id="line2d_78">
      <g>
       <use xlink:href="#mf576b64071" x="231.721327" y="51.144321" style="stroke: #000000; stroke-width: 0.3"/>
      </g>
     </g>
    </g>
    <g id="ytick_40">
     <g id="line2d_79">
      <g>
       <use xlink:href="#mf576b64071" x="231.721327" y="43.663547" style="stroke: #000000; stroke-width: 0.3"/>
      </g>
     </g>
    </g>
    <g id="ytick_41">
     <g id="line2d_80">
      <g>
       <use xlink:href="#mf576b64071" x="231.721327" y="36.182773" style="stroke: #000000; stroke-width: 0.3"/>
      </g>
     </g>
    </g>
    <g id="ytick_42">
     <g id="line2d_81">
      <g>
       <use xlink:href="#mf576b64071" x="231.721327" y="28.701999" style="stroke: #000000; stroke-width: 0.3"/>
      </g>
     </g>
    </g>
    <g id="text_20">
     <!-- Density -->
     <g transform="translate(225.590433 114.04274) rotate(-90) scale(0.11 -0.11)">
      <use xlink:href="#CMR17-44" transform="scale(0.996264)"/>
      <use xlink:href="#CMR17-65" transform="translate(70.393556 0) scale(0.996264)"/>
      <use xlink:href="#CMR17-6e" transform="translate(110.879216 0) scale(0.996264)"/>
      <use xlink:href="#CMR17-73" transform="translate(161.774586 0) scale(0.996264)"/>
      <use xlink:href="#CMR17-69" transform="translate(197.575924 0) scale(0.996264)"/>
      <use xlink:href="#CMR17-74" transform="translate(222.446982 0) scale(0.996264)"/>
      <use xlink:href="#CMR17-79" transform="translate(255.125296 0) scale(0.996264)"/>
     </g>
    </g>
   </g>
   <g id="patch_13">
    <path d="M 299.566983 170.836705 
L 299.566983 170.107714 
L 300.390499 170.107714 
L 300.390499 170.593708 
L 301.214016 170.593708 
L 301.214016 170.350711 
L 302.037532 170.350711 
L 302.037532 170.107714 
L 302.861048 170.107714 
L 302.861048 168.406735 
L 303.684565 168.406735 
L 303.684565 169.378723 
L 304.508081 169.378723 
L 304.508081 167.434747 
L 305.331597 167.434747 
L 305.331597 165.004777 
L 306.155114 165.004777 
L 306.155114 163.303798 
L 306.97863 163.303798 
L 306.97863 161.359821 
L 307.802146 161.359821 
L 307.802146 156.742878 
L 308.625663 156.742878 
L 308.625663 152.611929 
L 309.449179 152.611929 
L 309.449179 143.864036 
L 310.272695 143.864036 
L 310.272695 132.92917 
L 311.096212 132.92917 
L 311.096212 122.237302 
L 311.919728 122.237302 
L 311.919728 112.760418 
L 312.743244 112.760418 
L 312.743244 101.096561 
L 313.56676 101.096561 
L 313.56676 80.684812 
L 314.390277 80.684812 
L 314.390277 80.198818 
L 315.213793 80.198818 
L 315.213793 64.647009 
L 316.037309 64.647009 
L 316.037309 45.936238 
L 316.860826 45.936238 
L 316.860826 40.590304 
L 317.684342 40.590304 
L 317.684342 36.459355 
L 318.507858 36.459355 
L 318.507858 35.973361 
L 319.331375 35.973361 
L 319.331375 27.954459 
L 320.154891 27.954459 
L 320.154891 32.814399 
L 320.978407 32.814399 
L 320.978407 32.571402 
L 321.801924 32.571402 
L 321.801924 32.814399 
L 322.62544 32.814399 
L 322.62544 43.263271 
L 323.448956 43.263271 
L 323.448956 57.114101 
L 324.272473 57.114101 
L 324.272473 71.936919 
L 325.095989 71.936919 
L 325.095989 88.217719 
L 325.919505 88.217719 
L 325.919505 100.36757 
L 326.743022 100.36757 
L 326.743022 109.35846 
L 327.566538 109.35846 
L 327.566538 124.667272 
L 328.390054 124.667272 
L 328.390054 128.798221 
L 329.213571 128.798221 
L 329.213571 134.144156 
L 330.037087 134.144156 
L 330.037087 147.994985 
L 330.860603 147.994985 
L 330.860603 154.798902 
L 331.68412 154.798902 
L 331.68412 160.387833 
L 332.507636 160.387833 
L 332.507636 160.63083 
L 333.331152 160.63083 
L 333.331152 165.976765 
L 334.154669 165.976765 
L 334.154669 167.19175 
L 334.978185 167.19175 
L 334.978185 168.649732 
L 335.801701 168.649732 
L 335.801701 169.378723 
L 336.625218 169.378723 
L 336.625218 169.135726 
L 337.448734 169.135726 
L 337.448734 169.864717 
L 338.27225 169.864717 
L 338.27225 169.864717 
L 339.095767 169.864717 
L 339.095767 170.836705 
L 339.919283 170.836705 
L 339.919283 170.350711 
L 340.742799 170.350711 
L 340.742799 170.836705 
" clip-path="url(#pfaeb9733c1)" style="fill: none; stroke: #0000ff; stroke-linejoin: miter"/>
   </g>
   <g id="patch_14">
    <path d="M 271.037874 170.836705 
L 271.037874 170.621533 
L 272.89789 170.621533 
L 272.89789 170.729119 
L 274.757906 170.729119 
L 274.757906 170.621533 
L 276.617921 170.621533 
L 276.617921 170.729119 
L 278.477937 170.729119 
L 278.477937 170.729119 
L 280.337952 170.729119 
L 280.337952 170.083602 
L 282.197968 170.083602 
L 282.197968 169.222912 
L 284.057984 169.222912 
L 284.057984 169.222912 
L 285.917999 169.222912 
L 285.917999 167.931878 
L 287.778015 167.931878 
L 287.778015 168.039464 
L 289.638031 168.039464 
L 289.638031 164.811878 
L 291.498046 164.811878 
L 291.498046 164.811878 
L 293.358062 164.811878 
L 293.358062 162.982913 
L 295.218077 162.982913 
L 295.218077 159.862913 
L 297.078093 159.862913 
L 297.078093 156.850499 
L 298.938109 156.850499 
L 298.938109 152.654637 
L 300.798124 152.654637 
L 300.798124 149.857396 
L 302.65814 149.857396 
L 302.65814 139.85188 
L 304.518156 139.85188 
L 304.518156 137.162225 
L 306.378171 137.162225 
L 306.378171 135.87119 
L 308.238187 135.87119 
L 308.238187 120.916708 
L 310.098202 120.916708 
L 310.098202 121.239467 
L 311.958218 121.239467 
L 311.958218 116.720847 
L 313.818234 116.720847 
L 313.818234 112.09464 
L 315.678249 112.09464 
L 315.678249 111.018778 
L 317.538265 111.018778 
L 317.538265 111.449123 
L 319.398281 111.449123 
L 319.398281 111.126364 
L 321.258296 111.126364 
L 321.258296 107.360847 
L 323.118312 107.360847 
L 323.118312 114.461537 
L 324.978327 114.461537 
L 324.978327 114.784295 
L 326.838343 114.784295 
L 326.838343 118.764984 
L 328.698359 118.764984 
L 328.698359 126.726363 
L 330.558374 126.726363 
L 330.558374 132.105673 
L 332.41839 132.105673 
L 332.41839 135.118087 
L 334.278405 135.118087 
L 334.278405 138.022914 
L 336.138421 138.022914 
L 336.138421 145.23119 
L 337.998437 145.23119 
L 337.998437 150.6105 
L 339.858452 150.6105 
L 339.858452 154.160844 
L 341.718468 154.160844 
L 341.718468 158.571878 
L 343.578484 158.571878 
L 343.578484 159.432568 
L 345.438499 159.432568 
L 345.438499 162.875326 
L 347.298515 162.875326 
L 347.298515 165.995326 
L 349.15853 165.995326 
L 349.15853 167.286361 
L 351.018546 167.286361 
L 351.018546 167.824292 
L 352.878562 167.824292 
L 352.878562 168.577395 
L 354.738577 168.577395 
L 354.738577 169.115326 
L 356.598593 169.115326 
L 356.598593 169.868429 
L 358.458609 169.868429 
L 358.458609 170.513947 
L 360.318624 170.513947 
L 360.318624 170.729119 
L 362.17864 170.729119 
L 362.17864 170.621533 
L 364.038655 170.621533 
L 364.038655 170.836705 
" clip-path="url(#pfaeb9733c1)" style="fill: none; stroke: #ff0000; stroke-linejoin: miter"/>
   </g>
   <g id="line2d_82">
    <path d="M 239.74638 170.836705 
L 273.620973 170.747833 
L 278.460201 170.511845 
L 281.686352 170.124584 
L 284.105966 169.606095 
L 285.719042 169.09934 
L 287.332118 168.422493 
L 288.945194 167.53473 
L 290.55827 166.391557 
L 292.171345 164.946741 
L 293.784421 163.155081 
L 295.397497 160.976011 
L 297.010573 158.377914 
L 298.623649 155.342891 
L 300.236725 151.87162 
L 301.849801 147.987808 
L 304.269415 141.506191 
L 312.334794 118.724793 
L 313.94787 115.092146 
L 315.560946 112.144291 
L 316.367484 110.969434 
L 317.174021 110.012637 
L 317.980559 109.285019 
L 318.787097 108.79511 
L 319.593635 108.548695 
L 320.400173 108.548695 
L 321.206711 108.79511 
L 322.013249 109.285019 
L 322.819787 110.012637 
L 323.626325 110.969434 
L 324.432863 112.144291 
L 326.045939 115.092146 
L 327.659015 118.724793 
L 329.27209 122.887046 
L 331.691704 129.755131 
L 336.530932 143.741672 
L 338.950546 149.978796 
L 340.563622 153.660891 
L 342.176697 156.915466 
L 343.789773 159.730839 
L 345.402849 162.116213 
L 347.015925 164.096958 
L 348.629001 165.709742 
L 350.242077 166.997947 
L 351.855153 168.00769 
L 353.468229 168.784627 
L 355.081304 169.371608 
L 357.500918 169.978751 
L 359.920532 170.351899 
L 363.146684 170.622446 
L 367.985911 170.780813 
L 378.470905 170.834842 
L 400.247429 170.836705 
L 400.247429 170.836705 
" clip-path="url(#pfaeb9733c1)" style="fill: none; stroke-dasharray: 7.4,3.2; stroke-dashoffset: 0; stroke: #000000; stroke-width: 2"/>
   </g>
   <g id="patch_15">
    <path d="M 231.721327 170.836705 
L 231.721327 20.810347 
" style="fill: none; stroke: #000000; stroke-width: 0.3; stroke-linejoin: miter; stroke-linecap: square"/>
   </g>
   <g id="patch_16">
    <path d="M 408.272481 170.836705 
L 408.272481 20.810347 
" style="fill: none; stroke: #000000; stroke-width: 0.3; stroke-linejoin: miter; stroke-linecap: square"/>
   </g>
   <g id="patch_17">
    <path d="M 231.721327 170.836705 
L 408.272481 170.836705 
" style="fill: none; stroke: #000000; stroke-width: 0.3; stroke-linejoin: miter; stroke-linecap: square"/>
   </g>
   <g id="patch_18">
    <path d="M 231.721327 20.810347 
L 408.272481 20.810347 
" style="fill: none; stroke: #000000; stroke-width: 0.3; stroke-linejoin: miter; stroke-linecap: square"/>
   </g>
   <g id="text_21">
    <!-- $\rho = -0.7$ -->
    <g transform="translate(298.594718 14.810347) scale(0.11 -0.11)">
     <use xlink:href="#CMMI12-1a" transform="scale(0.996264)"/>
     <use xlink:href="#CMR17-3d" transform="translate(77.988382 0) scale(0.996264)"/>
     <use xlink:href="#CMSY10-0" transform="translate(177.377179 0) scale(0.996264)"/>
     <use xlink:href="#CMR17-30" transform="translate(254.864646 0) scale(0.996264)"/>
     <use xlink:href="#CMMI12-3a" transform="translate(300.555123 0) scale(0.996264)"/>
     <use xlink:href="#CMR17-37" transform="translate(327.652301 0) scale(0.996264)"/>
    </g>
   </g>
  </g>
 </g>
 <defs>
  <clipPath id="p745fa97b06">
   <rect x="29.548932" y="20.810347" width="176.551154" height="150.026358"/>
  </clipPath>
  <clipPath id="pfaeb9733c1">
   <rect x="231.721327" y="20.810347" width="176.551154" height="150.026358"/>
  </clipPath>
 </defs>
</svg>
