<?xml version="1.0" encoding="utf-8" standalone="no"?>
<!DOCTYPE svg PUBLIC "-//W3C//DTD SVG 1.1//EN"
  "http://www.w3.org/Graphics/SVG/1.1/DTD/svg11.dtd">
<svg xmlns:xlink="http://www.w3.org/1999/xlink" width="435.695123pt" height="206.64pt" viewBox="0 0 435.695123 206.64" xmlns="http://www.w3.org/2000/svg" version="1.1">
 <metadata>
  <rdf:RDF xmlns:dc="http://purl.org/dc/elements/1.1/" xmlns:cc="http://creativecommons.org/ns#" xmlns:rdf="http://www.w3.org/1999/02/22-rdf-syntax-ns#">
   <cc:Work>
    <dc:type rdf:resource="http://purl.org/dc/dcmitype/StillImage"/>
    <dc:date>2025-02-22T21:35:17.735728</dc:date>
    <dc:format>image/svg+xml</dc:format>
    <dc:creator>
     <cc:Agent>
      <dc:title>Matplotlib v3.8.2, https://matplotlib.org/</dc:title>
     </cc:Agent>
    </dc:creator>
   </cc:Work>
  </rdf:RDF>
 </metadata>
 <defs>
  <style type="text/css">*{stroke-linejoin: round; stroke-linecap: butt}</style>
 </defs>
 <g id="figure_1">
  <g id="patch_1">
   <path d="M 0 206.64 
L 435.695123 206.64 
L 435.695123 0 
L 0 0 
z
" style="fill: #ffffff"/>
  </g>
  <g id="axes_1">
   <g id="patch_2">
    <path d="M 41.324141 170.836705 
L 226.02583 170.836705 
L 226.02583 20.810347 
L 41.324141 20.810347 
z
" style="fill: #ffffff"/>
   </g>
   <g id="matplotlib.axis_1">
    <g id="xtick_1">
     <g id="line2d_1">
      <defs>
       <path id="mfd52035b0a" d="M 0 0 
L 0 -4 
" style="stroke: #000000; stroke-width: 0.5"/>
      </defs>
      <g>
       <use xlink:href="#mfd52035b0a" x="41.324141" y="170.836705" style="stroke: #000000; stroke-width: 0.5"/>
      </g>
     </g>
     <g id="text_1">
      <!-- $\mathdefault{−1.5}$ -->
      <g transform="translate(31.852777 181.063355) scale(0.09 -0.09)">
       <defs>
        <path id="CMSY10-0" d="M 4218 1472 
C 4326 1472 4442 1472 4442 1600 
C 4442 1728 4326 1728 4218 1728 
L 755 1728 
C 646 1728 531 1728 531 1600 
C 531 1472 646 1472 755 1472 
L 4218 1472 
z
" transform="scale(0.015625)"/>
        <path id="CMR17-31" d="M 1702 4058 
C 1702 4192 1696 4192 1606 4192 
C 1357 3916 979 3827 621 3827 
C 602 3827 570 3827 563 3808 
C 557 3795 557 3782 557 3648 
C 755 3648 1088 3686 1344 3839 
L 1344 461 
C 1344 236 1331 160 781 160 
L 589 160 
L 589 0 
C 896 0 1216 0 1523 0 
C 1830 0 2150 0 2458 0 
L 2458 160 
L 2266 160 
C 1715 160 1702 230 1702 458 
L 1702 4058 
z
" transform="scale(0.015625)"/>
        <path id="CMMI12-3a" d="M 1178 307 
C 1178 492 1024 619 870 619 
C 685 619 557 466 557 313 
C 557 128 710 0 864 0 
C 1050 0 1178 153 1178 307 
z
" transform="scale(0.015625)"/>
        <path id="CMR17-35" d="M 730 3692 
C 794 3666 1056 3584 1325 3584 
C 1920 3584 2246 3911 2432 4100 
C 2432 4157 2432 4192 2394 4192 
C 2387 4192 2374 4192 2323 4163 
C 2099 4058 1837 3973 1517 3973 
C 1325 3973 1037 3999 723 4139 
C 653 4171 640 4171 634 4171 
C 602 4171 595 4164 595 4037 
L 595 2203 
C 595 2089 595 2057 659 2057 
C 691 2057 704 2070 736 2114 
C 941 2401 1222 2522 1542 2522 
C 1766 2522 2246 2382 2246 1289 
C 2246 1085 2246 715 2054 421 
C 1894 159 1645 25 1370 25 
C 947 25 518 320 403 814 
C 429 807 480 795 506 795 
C 589 795 749 840 749 1038 
C 749 1210 627 1280 506 1280 
C 358 1280 262 1190 262 1011 
C 262 454 704 -128 1382 -128 
C 2042 -128 2669 440 2669 1264 
C 2669 2030 2170 2624 1549 2624 
C 1222 2624 947 2503 730 2274 
L 730 3692 
z
" transform="scale(0.015625)"/>
       </defs>
       <use xlink:href="#CMSY10-0" transform="scale(0.996264)"/>
       <use xlink:href="#CMR17-31" transform="translate(77.487468 0) scale(0.996264)"/>
       <use xlink:href="#CMMI12-3a" transform="translate(123.177945 0) scale(0.996264)"/>
       <use xlink:href="#CMR17-35" transform="translate(150.275122 0) scale(0.996264)"/>
      </g>
     </g>
    </g>
    <g id="xtick_2">
     <g id="line2d_2">
      <g>
       <use xlink:href="#mfd52035b0a" x="72.107756" y="170.836705" style="stroke: #000000; stroke-width: 0.5"/>
      </g>
     </g>
     <g id="text_2">
      <!-- $\mathdefault{−1.0}$ -->
      <g transform="translate(62.636392 181.063355) scale(0.09 -0.09)">
       <defs>
        <path id="CMR17-30" d="M 2688 2025 
C 2688 2416 2682 3080 2413 3591 
C 2176 4039 1798 4198 1466 4198 
C 1158 4198 768 4058 525 3597 
C 269 3118 243 2524 243 2025 
C 243 1661 250 1106 448 619 
C 723 -39 1216 -128 1466 -128 
C 1760 -128 2208 -7 2470 600 
C 2662 1042 2688 1559 2688 2025 
z
M 1466 -26 
C 1056 -26 813 325 723 812 
C 653 1188 653 1738 653 2096 
C 653 2588 653 2997 736 3387 
C 858 3929 1216 4096 1466 4096 
C 1728 4096 2067 3923 2189 3400 
C 2272 3036 2278 2607 2278 2096 
C 2278 1680 2278 1169 2202 792 
C 2067 95 1690 -26 1466 -26 
z
" transform="scale(0.015625)"/>
       </defs>
       <use xlink:href="#CMSY10-0" transform="scale(0.996264)"/>
       <use xlink:href="#CMR17-31" transform="translate(77.487468 0) scale(0.996264)"/>
       <use xlink:href="#CMMI12-3a" transform="translate(123.177945 0) scale(0.996264)"/>
       <use xlink:href="#CMR17-30" transform="translate(150.275122 0) scale(0.996264)"/>
      </g>
     </g>
    </g>
    <g id="xtick_3">
     <g id="line2d_3">
      <g>
       <use xlink:href="#mfd52035b0a" x="102.891371" y="170.836705" style="stroke: #000000; stroke-width: 0.5"/>
      </g>
     </g>
     <g id="text_3">
      <!-- $\mathdefault{−0.5}$ -->
      <g transform="translate(93.420007 181.063355) scale(0.09 -0.09)">
       <use xlink:href="#CMSY10-0" transform="scale(0.996264)"/>
       <use xlink:href="#CMR17-30" transform="translate(77.487468 0) scale(0.996264)"/>
       <use xlink:href="#CMMI12-3a" transform="translate(123.177945 0) scale(0.996264)"/>
       <use xlink:href="#CMR17-35" transform="translate(150.275122 0) scale(0.996264)"/>
      </g>
     </g>
    </g>
    <g id="xtick_4">
     <g id="line2d_4">
      <g>
       <use xlink:href="#mfd52035b0a" x="133.674986" y="170.836705" style="stroke: #000000; stroke-width: 0.5"/>
      </g>
     </g>
     <g id="text_4">
      <!-- $\mathdefault{0.0}$ -->
      <g transform="translate(127.787381 181.063355) scale(0.09 -0.09)">
       <use xlink:href="#CMR17-30" transform="scale(0.996264)"/>
       <use xlink:href="#CMMI12-3a" transform="translate(45.690477 0) scale(0.996264)"/>
       <use xlink:href="#CMR17-30" transform="translate(72.787654 0) scale(0.996264)"/>
      </g>
     </g>
    </g>
    <g id="xtick_5">
     <g id="line2d_5">
      <g>
       <use xlink:href="#mfd52035b0a" x="164.458601" y="170.836705" style="stroke: #000000; stroke-width: 0.5"/>
      </g>
     </g>
     <g id="text_5">
      <!-- $\mathdefault{0.5}$ -->
      <g transform="translate(158.570996 181.063355) scale(0.09 -0.09)">
       <use xlink:href="#CMR17-30" transform="scale(0.996264)"/>
       <use xlink:href="#CMMI12-3a" transform="translate(45.690477 0) scale(0.996264)"/>
       <use xlink:href="#CMR17-35" transform="translate(72.787654 0) scale(0.996264)"/>
      </g>
     </g>
    </g>
    <g id="xtick_6">
     <g id="line2d_6">
      <g>
       <use xlink:href="#mfd52035b0a" x="195.242215" y="170.836705" style="stroke: #000000; stroke-width: 0.5"/>
      </g>
     </g>
     <g id="text_6">
      <!-- $\mathdefault{1.0}$ -->
      <g transform="translate(189.354611 181.063355) scale(0.09 -0.09)">
       <use xlink:href="#CMR17-31" transform="scale(0.996264)"/>
       <use xlink:href="#CMMI12-3a" transform="translate(45.690477 0) scale(0.996264)"/>
       <use xlink:href="#CMR17-30" transform="translate(72.787654 0) scale(0.996264)"/>
      </g>
     </g>
    </g>
    <g id="xtick_7">
     <g id="line2d_7">
      <g>
       <use xlink:href="#mfd52035b0a" x="226.02583" y="170.836705" style="stroke: #000000; stroke-width: 0.5"/>
      </g>
     </g>
     <g id="text_7">
      <!-- $\mathdefault{1.5}$ -->
      <g transform="translate(220.138225 181.063355) scale(0.09 -0.09)">
       <use xlink:href="#CMR17-31" transform="scale(0.996264)"/>
       <use xlink:href="#CMMI12-3a" transform="translate(45.690477 0) scale(0.996264)"/>
       <use xlink:href="#CMR17-35" transform="translate(72.787654 0) scale(0.996264)"/>
      </g>
     </g>
    </g>
    <g id="xtick_8">
     <g id="line2d_8">
      <defs>
       <path id="mbbb5ee57af" d="M 0 0 
L 0 -2 
" style="stroke: #000000; stroke-width: 0.3"/>
      </defs>
      <g>
       <use xlink:href="#mbbb5ee57af" x="47.480864" y="170.836705" style="stroke: #000000; stroke-width: 0.3"/>
      </g>
     </g>
    </g>
    <g id="xtick_9">
     <g id="line2d_9">
      <g>
       <use xlink:href="#mbbb5ee57af" x="53.637587" y="170.836705" style="stroke: #000000; stroke-width: 0.3"/>
      </g>
     </g>
    </g>
    <g id="xtick_10">
     <g id="line2d_10">
      <g>
       <use xlink:href="#mbbb5ee57af" x="59.79431" y="170.836705" style="stroke: #000000; stroke-width: 0.3"/>
      </g>
     </g>
    </g>
    <g id="xtick_11">
     <g id="line2d_11">
      <g>
       <use xlink:href="#mbbb5ee57af" x="65.951033" y="170.836705" style="stroke: #000000; stroke-width: 0.3"/>
      </g>
     </g>
    </g>
    <g id="xtick_12">
     <g id="line2d_12">
      <g>
       <use xlink:href="#mbbb5ee57af" x="78.264479" y="170.836705" style="stroke: #000000; stroke-width: 0.3"/>
      </g>
     </g>
    </g>
    <g id="xtick_13">
     <g id="line2d_13">
      <g>
       <use xlink:href="#mbbb5ee57af" x="84.421202" y="170.836705" style="stroke: #000000; stroke-width: 0.3"/>
      </g>
     </g>
    </g>
    <g id="xtick_14">
     <g id="line2d_14">
      <g>
       <use xlink:href="#mbbb5ee57af" x="90.577925" y="170.836705" style="stroke: #000000; stroke-width: 0.3"/>
      </g>
     </g>
    </g>
    <g id="xtick_15">
     <g id="line2d_15">
      <g>
       <use xlink:href="#mbbb5ee57af" x="96.734648" y="170.836705" style="stroke: #000000; stroke-width: 0.3"/>
      </g>
     </g>
    </g>
    <g id="xtick_16">
     <g id="line2d_16">
      <g>
       <use xlink:href="#mbbb5ee57af" x="109.048094" y="170.836705" style="stroke: #000000; stroke-width: 0.3"/>
      </g>
     </g>
    </g>
    <g id="xtick_17">
     <g id="line2d_17">
      <g>
       <use xlink:href="#mbbb5ee57af" x="115.204817" y="170.836705" style="stroke: #000000; stroke-width: 0.3"/>
      </g>
     </g>
    </g>
    <g id="xtick_18">
     <g id="line2d_18">
      <g>
       <use xlink:href="#mbbb5ee57af" x="121.36154" y="170.836705" style="stroke: #000000; stroke-width: 0.3"/>
      </g>
     </g>
    </g>
    <g id="xtick_19">
     <g id="line2d_19">
      <g>
       <use xlink:href="#mbbb5ee57af" x="127.518263" y="170.836705" style="stroke: #000000; stroke-width: 0.3"/>
      </g>
     </g>
    </g>
    <g id="xtick_20">
     <g id="line2d_20">
      <g>
       <use xlink:href="#mbbb5ee57af" x="139.831709" y="170.836705" style="stroke: #000000; stroke-width: 0.3"/>
      </g>
     </g>
    </g>
    <g id="xtick_21">
     <g id="line2d_21">
      <g>
       <use xlink:href="#mbbb5ee57af" x="145.988432" y="170.836705" style="stroke: #000000; stroke-width: 0.3"/>
      </g>
     </g>
    </g>
    <g id="xtick_22">
     <g id="line2d_22">
      <g>
       <use xlink:href="#mbbb5ee57af" x="152.145155" y="170.836705" style="stroke: #000000; stroke-width: 0.3"/>
      </g>
     </g>
    </g>
    <g id="xtick_23">
     <g id="line2d_23">
      <g>
       <use xlink:href="#mbbb5ee57af" x="158.301878" y="170.836705" style="stroke: #000000; stroke-width: 0.3"/>
      </g>
     </g>
    </g>
    <g id="xtick_24">
     <g id="line2d_24">
      <g>
       <use xlink:href="#mbbb5ee57af" x="170.615323" y="170.836705" style="stroke: #000000; stroke-width: 0.3"/>
      </g>
     </g>
    </g>
    <g id="xtick_25">
     <g id="line2d_25">
      <g>
       <use xlink:href="#mbbb5ee57af" x="176.772046" y="170.836705" style="stroke: #000000; stroke-width: 0.3"/>
      </g>
     </g>
    </g>
    <g id="xtick_26">
     <g id="line2d_26">
      <g>
       <use xlink:href="#mbbb5ee57af" x="182.928769" y="170.836705" style="stroke: #000000; stroke-width: 0.3"/>
      </g>
     </g>
    </g>
    <g id="xtick_27">
     <g id="line2d_27">
      <g>
       <use xlink:href="#mbbb5ee57af" x="189.085492" y="170.836705" style="stroke: #000000; stroke-width: 0.3"/>
      </g>
     </g>
    </g>
    <g id="xtick_28">
     <g id="line2d_28">
      <g>
       <use xlink:href="#mbbb5ee57af" x="201.398938" y="170.836705" style="stroke: #000000; stroke-width: 0.3"/>
      </g>
     </g>
    </g>
    <g id="xtick_29">
     <g id="line2d_29">
      <g>
       <use xlink:href="#mbbb5ee57af" x="207.555661" y="170.836705" style="stroke: #000000; stroke-width: 0.3"/>
      </g>
     </g>
    </g>
    <g id="xtick_30">
     <g id="line2d_30">
      <g>
       <use xlink:href="#mbbb5ee57af" x="213.712384" y="170.836705" style="stroke: #000000; stroke-width: 0.3"/>
      </g>
     </g>
    </g>
    <g id="xtick_31">
     <g id="line2d_31">
      <g>
       <use xlink:href="#mbbb5ee57af" x="219.869107" y="170.836705" style="stroke: #000000; stroke-width: 0.3"/>
      </g>
     </g>
    </g>
    <g id="text_8">
     <!-- OLS $\hat{\beta}$ -->
     <g transform="translate(117.597125 197.309105) scale(0.11 -0.11)">
      <defs>
       <path id="CMR17-4f" d="M 4307 2135 
C 4307 3437 3366 4416 2304 4416 
C 1216 4416 294 3424 294 2135 
C 294 845 1229 -128 2298 -128 
C 3392 -128 4307 864 4307 2135 
z
M 2304 -13 
C 1574 -13 781 711 781 2217 
C 781 3716 1651 4301 2298 4301 
C 2976 4301 3821 3698 3821 2217 
C 3821 686 3008 -13 2304 -13 
z
" transform="scale(0.015625)"/>
       <path id="CMR17-4c" d="M 3469 1615 
L 3354 1615 
C 3302 983 3219 166 2125 166 
L 1530 166 
C 1274 166 1261 197 1261 414 
L 1261 3898 
C 1261 4129 1274 4192 1760 4192 
L 1901 4192 
L 1901 4352 
C 1638 4352 1331 4352 1069 4352 
C 870 4352 512 4352 326 4352 
L 326 4192 
C 768 4192 838 4192 838 3905 
L 838 452 
C 838 166 768 166 326 166 
L 326 0 
L 3315 0 
L 3469 1615 
z
" transform="scale(0.015625)"/>
       <path id="CMR17-53" d="M 2803 4290 
C 2803 4404 2797 4411 2758 4411 
C 2720 4411 2707 4385 2682 4328 
L 2490 3907 
C 2246 4257 1875 4416 1472 4416 
C 819 4416 294 3901 294 3253 
C 294 3056 339 2776 557 2510 
C 794 2218 1018 2167 1530 2033 
C 1722 1982 2042 1899 2106 1874 
C 2470 1722 2662 1341 2662 985 
C 2662 527 2336 38 1779 38 
C 1094 38 454 419 410 1311 
C 403 1413 397 1419 352 1419 
C 301 1419 294 1413 294 1285 
L 294 -1 
C 294 -115 301 -122 339 -122 
C 384 -122 397 -90 486 108 
C 493 127 493 140 614 381 
C 934 -39 1472 -128 1779 -128 
C 2477 -128 2970 451 2970 1124 
C 2970 1454 2848 1708 2778 1823 
C 2509 2230 2221 2306 1914 2382 
C 1869 2402 1856 2402 1498 2490 
C 1152 2579 1005 2624 845 2796 
C 666 2992 602 3196 602 3399 
C 602 3812 934 4263 1478 4263 
C 2157 4263 2579 3786 2675 2993 
C 2694 2878 2701 2872 2746 2872 
C 2803 2872 2803 2891 2803 2999 
L 2803 4290 
z
" transform="scale(0.015625)"/>
       <path id="CMR17-5e" d="M 1466 4421 
L 678 3555 
L 755 3478 
L 1466 4166 
L 2176 3478 
L 2253 3555 
L 1466 4421 
z
" transform="scale(0.015625)"/>
       <path id="CMMI12-c" d="M 3622 3701 
C 3622 4081 3296 4480 2714 4480 
C 1888 4480 1363 3477 1197 2816 
L 186 -1172 
C 173 -1223 211 -1236 243 -1236 
C 288 -1236 320 -1230 326 -1198 
L 774 586 
C 838 229 1190 -64 1568 -64 
C 2483 -64 3347 650 3347 1599 
C 3347 1841 3290 2083 3155 2287 
C 3078 2408 2982 2497 2880 2574 
C 3341 2815 3622 3200 3622 3701 
z
M 2509 2580 
C 2406 2542 2304 2529 2182 2529 
C 2093 2529 2010 2523 1894 2561 
C 1958 2606 2054 2618 2189 2618 
C 2304 2618 2419 2606 2509 2580 
z
M 3290 3758 
C 3290 3410 3117 2903 2701 2669 
C 2579 2718 2413 2752 2272 2752 
C 2138 2752 1754 2752 1754 2555 
C 1754 2389 2106 2389 2214 2389 
C 2381 2389 2528 2432 2682 2484 
C 2886 2318 2976 2101 2976 1783 
C 2976 1413 2874 1115 2752 841 
C 2541 369 2042 64 1600 64 
C 1133 64 890 432 890 864 
C 890 922 890 1005 915 1099 
L 1331 2771 
C 1542 3603 2080 4353 2701 4353 
C 3162 4353 3290 4036 3290 3758 
z
" transform="scale(0.015625)"/>
      </defs>
      <use xlink:href="#CMR17-4f" transform="scale(0.996264)"/>
      <use xlink:href="#CMR17-4c" transform="translate(71.714788 0) scale(0.996264)"/>
      <use xlink:href="#CMR17-53" transform="translate(129.096196 0) scale(0.996264)"/>
      <use xlink:href="#CMR17-5e" transform="translate(225.648462 26.296621) scale(0.996264)"/>
      <use xlink:href="#CMMI12-c" transform="translate(210.067532 0) scale(0.996264)"/>
     </g>
    </g>
   </g>
   <g id="matplotlib.axis_2">
    <g id="ytick_1">
     <g id="line2d_32">
      <defs>
       <path id="m6570dd18ed" d="M 0 0 
L 4 0 
" style="stroke: #000000; stroke-width: 0.3"/>
      </defs>
      <g>
       <use xlink:href="#m6570dd18ed" x="41.324141" y="170.836705" style="stroke: #000000; stroke-width: 0.3"/>
      </g>
     </g>
     <g id="text_9">
      <!-- $\mathdefault{0.0}$ -->
      <g transform="translate(25.548932 173.95003) scale(0.09 -0.09)">
       <use xlink:href="#CMR17-30" transform="scale(0.996264)"/>
       <use xlink:href="#CMMI12-3a" transform="translate(45.690477 0) scale(0.996264)"/>
       <use xlink:href="#CMR17-30" transform="translate(72.787654 0) scale(0.996264)"/>
      </g>
     </g>
    </g>
    <g id="ytick_2">
     <g id="line2d_33">
      <g>
       <use xlink:href="#m6570dd18ed" x="41.324141" y="149.636071" style="stroke: #000000; stroke-width: 0.3"/>
      </g>
     </g>
     <g id="text_10">
      <!-- $\mathdefault{2.5}$ -->
      <g transform="translate(25.548932 152.749397) scale(0.09 -0.09)">
       <defs>
        <path id="CMR17-32" d="M 2669 989 
L 2554 989 
C 2490 536 2438 459 2413 420 
C 2381 369 1920 369 1830 369 
L 602 369 
C 832 619 1280 1072 1824 1597 
C 2214 1967 2669 2402 2669 3035 
C 2669 3790 2067 4224 1395 4224 
C 691 4224 262 3604 262 3030 
C 262 2780 448 2748 525 2748 
C 589 2748 781 2787 781 3010 
C 781 3207 614 3264 525 3264 
C 486 3264 448 3258 422 3245 
C 544 3790 915 4058 1306 4058 
C 1862 4058 2227 3617 2227 3035 
C 2227 2479 1901 2000 1536 1584 
L 262 146 
L 262 0 
L 2515 0 
L 2669 989 
z
" transform="scale(0.015625)"/>
       </defs>
       <use xlink:href="#CMR17-32" transform="scale(0.996264)"/>
       <use xlink:href="#CMMI12-3a" transform="translate(45.690477 0) scale(0.996264)"/>
       <use xlink:href="#CMR17-35" transform="translate(72.787654 0) scale(0.996264)"/>
      </g>
     </g>
    </g>
    <g id="ytick_3">
     <g id="line2d_34">
      <g>
       <use xlink:href="#m6570dd18ed" x="41.324141" y="128.435438" style="stroke: #000000; stroke-width: 0.3"/>
      </g>
     </g>
     <g id="text_11">
      <!-- $\mathdefault{5.0}$ -->
      <g transform="translate(25.548932 131.548763) scale(0.09 -0.09)">
       <use xlink:href="#CMR17-35" transform="scale(0.996264)"/>
       <use xlink:href="#CMMI12-3a" transform="translate(45.690477 0) scale(0.996264)"/>
       <use xlink:href="#CMR17-30" transform="translate(72.787654 0) scale(0.996264)"/>
      </g>
     </g>
    </g>
    <g id="ytick_4">
     <g id="line2d_35">
      <g>
       <use xlink:href="#m6570dd18ed" x="41.324141" y="107.234804" style="stroke: #000000; stroke-width: 0.3"/>
      </g>
     </g>
     <g id="text_12">
      <!-- $\mathdefault{7.5}$ -->
      <g transform="translate(25.548932 110.348129) scale(0.09 -0.09)">
       <defs>
        <path id="CMR17-37" d="M 2886 3941 
L 2886 4081 
L 1382 4081 
C 634 4081 621 4165 595 4288 
L 480 4288 
L 294 3094 
L 410 3094 
C 429 3215 474 3540 550 3661 
C 589 3712 1062 3712 1171 3712 
L 2579 3712 
L 1869 2661 
C 1395 1954 1069 999 1069 165 
C 1069 89 1069 -128 1299 -128 
C 1530 -128 1530 89 1530 171 
L 1530 465 
C 1530 1508 1709 2196 2003 2636 
L 2886 3941 
z
" transform="scale(0.015625)"/>
       </defs>
       <use xlink:href="#CMR17-37" transform="scale(0.996264)"/>
       <use xlink:href="#CMMI12-3a" transform="translate(45.690477 0) scale(0.996264)"/>
       <use xlink:href="#CMR17-35" transform="translate(72.787654 0) scale(0.996264)"/>
      </g>
     </g>
    </g>
    <g id="ytick_5">
     <g id="line2d_36">
      <g>
       <use xlink:href="#m6570dd18ed" x="41.324141" y="86.034171" style="stroke: #000000; stroke-width: 0.3"/>
      </g>
     </g>
     <g id="text_13">
      <!-- $\mathdefault{10.0}$ -->
      <g transform="translate(20.941241 89.147496) scale(0.09 -0.09)">
       <use xlink:href="#CMR17-31" transform="scale(0.996264)"/>
       <use xlink:href="#CMR17-30" transform="translate(45.690477 0) scale(0.996264)"/>
       <use xlink:href="#CMMI12-3a" transform="translate(91.380954 0) scale(0.996264)"/>
       <use xlink:href="#CMR17-30" transform="translate(118.478131 0) scale(0.996264)"/>
      </g>
     </g>
    </g>
    <g id="ytick_6">
     <g id="line2d_37">
      <g>
       <use xlink:href="#m6570dd18ed" x="41.324141" y="64.833537" style="stroke: #000000; stroke-width: 0.3"/>
      </g>
     </g>
     <g id="text_14">
      <!-- $\mathdefault{12.5}$ -->
      <g transform="translate(20.941241 67.946862) scale(0.09 -0.09)">
       <use xlink:href="#CMR17-31" transform="scale(0.996264)"/>
       <use xlink:href="#CMR17-32" transform="translate(45.690477 0) scale(0.996264)"/>
       <use xlink:href="#CMMI12-3a" transform="translate(91.380954 0) scale(0.996264)"/>
       <use xlink:href="#CMR17-35" transform="translate(118.478131 0) scale(0.996264)"/>
      </g>
     </g>
    </g>
    <g id="ytick_7">
     <g id="line2d_38">
      <g>
       <use xlink:href="#m6570dd18ed" x="41.324141" y="43.632903" style="stroke: #000000; stroke-width: 0.3"/>
      </g>
     </g>
     <g id="text_15">
      <!-- $\mathdefault{15.0}$ -->
      <g transform="translate(20.941241 46.746228) scale(0.09 -0.09)">
       <use xlink:href="#CMR17-31" transform="scale(0.996264)"/>
       <use xlink:href="#CMR17-35" transform="translate(45.690477 0) scale(0.996264)"/>
       <use xlink:href="#CMMI12-3a" transform="translate(91.380954 0) scale(0.996264)"/>
       <use xlink:href="#CMR17-30" transform="translate(118.478131 0) scale(0.996264)"/>
      </g>
     </g>
    </g>
    <g id="ytick_8">
     <g id="line2d_39">
      <g>
       <use xlink:href="#m6570dd18ed" x="41.324141" y="22.43227" style="stroke: #000000; stroke-width: 0.3"/>
      </g>
     </g>
     <g id="text_16">
      <!-- $\mathdefault{17.5}$ -->
      <g transform="translate(20.941241 25.545595) scale(0.09 -0.09)">
       <use xlink:href="#CMR17-31" transform="scale(0.996264)"/>
       <use xlink:href="#CMR17-37" transform="translate(45.690477 0) scale(0.996264)"/>
       <use xlink:href="#CMMI12-3a" transform="translate(91.380954 0) scale(0.996264)"/>
       <use xlink:href="#CMR17-35" transform="translate(118.478131 0) scale(0.996264)"/>
      </g>
     </g>
    </g>
    <g id="ytick_9">
     <g id="line2d_40">
      <defs>
       <path id="m494c410fc7" d="M 0 0 
L 2 0 
" style="stroke: #000000; stroke-width: 0.3"/>
      </defs>
      <g>
       <use xlink:href="#m494c410fc7" x="41.324141" y="166.596578" style="stroke: #000000; stroke-width: 0.3"/>
      </g>
     </g>
    </g>
    <g id="ytick_10">
     <g id="line2d_41">
      <g>
       <use xlink:href="#m494c410fc7" x="41.324141" y="162.356452" style="stroke: #000000; stroke-width: 0.3"/>
      </g>
     </g>
    </g>
    <g id="ytick_11">
     <g id="line2d_42">
      <g>
       <use xlink:href="#m494c410fc7" x="41.324141" y="158.116325" style="stroke: #000000; stroke-width: 0.3"/>
      </g>
     </g>
    </g>
    <g id="ytick_12">
     <g id="line2d_43">
      <g>
       <use xlink:href="#m494c410fc7" x="41.324141" y="153.876198" style="stroke: #000000; stroke-width: 0.3"/>
      </g>
     </g>
    </g>
    <g id="ytick_13">
     <g id="line2d_44">
      <g>
       <use xlink:href="#m494c410fc7" x="41.324141" y="145.395945" style="stroke: #000000; stroke-width: 0.3"/>
      </g>
     </g>
    </g>
    <g id="ytick_14">
     <g id="line2d_45">
      <g>
       <use xlink:href="#m494c410fc7" x="41.324141" y="141.155818" style="stroke: #000000; stroke-width: 0.3"/>
      </g>
     </g>
    </g>
    <g id="ytick_15">
     <g id="line2d_46">
      <g>
       <use xlink:href="#m494c410fc7" x="41.324141" y="136.915691" style="stroke: #000000; stroke-width: 0.3"/>
      </g>
     </g>
    </g>
    <g id="ytick_16">
     <g id="line2d_47">
      <g>
       <use xlink:href="#m494c410fc7" x="41.324141" y="132.675565" style="stroke: #000000; stroke-width: 0.3"/>
      </g>
     </g>
    </g>
    <g id="ytick_17">
     <g id="line2d_48">
      <g>
       <use xlink:href="#m494c410fc7" x="41.324141" y="124.195311" style="stroke: #000000; stroke-width: 0.3"/>
      </g>
     </g>
    </g>
    <g id="ytick_18">
     <g id="line2d_49">
      <g>
       <use xlink:href="#m494c410fc7" x="41.324141" y="119.955184" style="stroke: #000000; stroke-width: 0.3"/>
      </g>
     </g>
    </g>
    <g id="ytick_19">
     <g id="line2d_50">
      <g>
       <use xlink:href="#m494c410fc7" x="41.324141" y="115.715058" style="stroke: #000000; stroke-width: 0.3"/>
      </g>
     </g>
    </g>
    <g id="ytick_20">
     <g id="line2d_51">
      <g>
       <use xlink:href="#m494c410fc7" x="41.324141" y="111.474931" style="stroke: #000000; stroke-width: 0.3"/>
      </g>
     </g>
    </g>
    <g id="ytick_21">
     <g id="line2d_52">
      <g>
       <use xlink:href="#m494c410fc7" x="41.324141" y="102.994678" style="stroke: #000000; stroke-width: 0.3"/>
      </g>
     </g>
    </g>
    <g id="ytick_22">
     <g id="line2d_53">
      <g>
       <use xlink:href="#m494c410fc7" x="41.324141" y="98.754551" style="stroke: #000000; stroke-width: 0.3"/>
      </g>
     </g>
    </g>
    <g id="ytick_23">
     <g id="line2d_54">
      <g>
       <use xlink:href="#m494c410fc7" x="41.324141" y="94.514424" style="stroke: #000000; stroke-width: 0.3"/>
      </g>
     </g>
    </g>
    <g id="ytick_24">
     <g id="line2d_55">
      <g>
       <use xlink:href="#m494c410fc7" x="41.324141" y="90.274297" style="stroke: #000000; stroke-width: 0.3"/>
      </g>
     </g>
    </g>
    <g id="ytick_25">
     <g id="line2d_56">
      <g>
       <use xlink:href="#m494c410fc7" x="41.324141" y="81.794044" style="stroke: #000000; stroke-width: 0.3"/>
      </g>
     </g>
    </g>
    <g id="ytick_26">
     <g id="line2d_57">
      <g>
       <use xlink:href="#m494c410fc7" x="41.324141" y="77.553917" style="stroke: #000000; stroke-width: 0.3"/>
      </g>
     </g>
    </g>
    <g id="ytick_27">
     <g id="line2d_58">
      <g>
       <use xlink:href="#m494c410fc7" x="41.324141" y="73.31379" style="stroke: #000000; stroke-width: 0.3"/>
      </g>
     </g>
    </g>
    <g id="ytick_28">
     <g id="line2d_59">
      <g>
       <use xlink:href="#m494c410fc7" x="41.324141" y="69.073664" style="stroke: #000000; stroke-width: 0.3"/>
      </g>
     </g>
    </g>
    <g id="ytick_29">
     <g id="line2d_60">
      <g>
       <use xlink:href="#m494c410fc7" x="41.324141" y="60.59341" style="stroke: #000000; stroke-width: 0.3"/>
      </g>
     </g>
    </g>
    <g id="ytick_30">
     <g id="line2d_61">
      <g>
       <use xlink:href="#m494c410fc7" x="41.324141" y="56.353284" style="stroke: #000000; stroke-width: 0.3"/>
      </g>
     </g>
    </g>
    <g id="ytick_31">
     <g id="line2d_62">
      <g>
       <use xlink:href="#m494c410fc7" x="41.324141" y="52.113157" style="stroke: #000000; stroke-width: 0.3"/>
      </g>
     </g>
    </g>
    <g id="ytick_32">
     <g id="line2d_63">
      <g>
       <use xlink:href="#m494c410fc7" x="41.324141" y="47.87303" style="stroke: #000000; stroke-width: 0.3"/>
      </g>
     </g>
    </g>
    <g id="ytick_33">
     <g id="line2d_64">
      <g>
       <use xlink:href="#m494c410fc7" x="41.324141" y="39.392777" style="stroke: #000000; stroke-width: 0.3"/>
      </g>
     </g>
    </g>
    <g id="ytick_34">
     <g id="line2d_65">
      <g>
       <use xlink:href="#m494c410fc7" x="41.324141" y="35.15265" style="stroke: #000000; stroke-width: 0.3"/>
      </g>
     </g>
    </g>
    <g id="ytick_35">
     <g id="line2d_66">
      <g>
       <use xlink:href="#m494c410fc7" x="41.324141" y="30.912523" style="stroke: #000000; stroke-width: 0.3"/>
      </g>
     </g>
    </g>
    <g id="ytick_36">
     <g id="line2d_67">
      <g>
       <use xlink:href="#m494c410fc7" x="41.324141" y="26.672396" style="stroke: #000000; stroke-width: 0.3"/>
      </g>
     </g>
    </g>
    <g id="text_17">
     <!-- Density -->
     <g transform="translate(14.810347 114.04274) rotate(-90) scale(0.11 -0.11)">
      <defs>
       <path id="CMR17-44" d="M 333 4352 
L 333 4186 
C 774 4186 845 4186 845 3900 
L 845 452 
C 845 166 774 166 333 166 
L 333 0 
L 2368 0 
C 3398 0 4224 943 4224 2141 
C 4224 3346 3411 4352 2368 4352 
L 333 4352 
z
M 1523 166 
C 1267 166 1254 197 1254 414 
L 1254 3938 
C 1254 4155 1267 4186 1523 4186 
L 2240 4186 
C 2771 4186 3750 3874 3750 2141 
C 3750 1242 3488 879 3366 707 
C 3213 510 2848 166 2240 166 
L 1523 166 
z
" transform="scale(0.015625)"/>
       <path id="CMR17-65" d="M 2438 1472 
C 2464 1498 2464 1511 2464 1576 
C 2464 2238 2118 2816 1389 2816 
C 710 2816 173 2169 173 1383 
C 173 551 781 -64 1459 -64 
C 2176 -64 2458 607 2458 740 
C 2458 784 2419 784 2406 784 
C 2362 784 2355 771 2330 696 
C 2189 265 1837 51 1504 51 
C 1229 51 954 203 781 480 
C 582 803 582 1176 582 1472 
L 2438 1472 
z
M 589 1568 
C 634 2505 1126 2714 1382 2714 
C 1818 2714 2112 2297 2118 1568 
L 589 1568 
z
" transform="scale(0.015625)"/>
       <path id="CMR17-6e" d="M 2656 1933 
C 2656 2259 2592 2790 1837 2790 
C 1331 2790 1069 2400 973 2144 
L 966 2144 
L 966 2790 
L 211 2720 
L 211 2554 
C 589 2554 646 2515 646 2208 
L 646 428 
C 646 184 621 153 211 153 
L 211 -13 
C 365 0 646 0 813 0 
C 979 0 1267 0 1421 -13 
L 1421 153 
C 1011 153 986 178 986 428 
L 986 1658 
C 986 2247 1344 2688 1792 2688 
C 2266 2688 2317 2266 2317 1958 
L 2317 428 
C 2317 184 2291 153 1882 153 
L 1882 -13 
C 2035 0 2317 0 2483 0 
C 2650 0 2938 0 3091 -13 
L 3091 153 
C 2682 153 2656 178 2656 428 
L 2656 1933 
z
" transform="scale(0.015625)"/>
       <path id="CMR17-73" d="M 1978 2697 
C 1978 2813 1971 2819 1933 2819 
C 1907 2819 1901 2813 1824 2717 
C 1805 2691 1747 2626 1728 2601 
C 1523 2819 1235 2819 1126 2819 
C 416 2819 160 2447 160 2076 
C 160 1498 813 1365 998 1325 
C 1402 1243 1542 1217 1677 1101 
C 1760 1025 1901 884 1901 654 
C 1901 384 1747 38 1158 38 
C 602 38 403 460 288 1021 
C 269 1110 269 1117 218 1117 
C 166 1117 160 1110 160 983 
L 160 63 
C 160 -51 166 -58 205 -58 
C 237 -58 243 -51 275 0 
C 314 57 410 211 448 276 
C 576 103 800 -64 1158 -64 
C 1792 -64 2131 283 2131 784 
C 2131 1112 1958 1285 1875 1362 
C 1683 1561 1459 1606 1190 1657 
C 838 1735 390 1825 390 2217 
C 390 2383 480 2737 1126 2737 
C 1811 2737 1850 2094 1862 1888 
C 1869 1856 1901 1849 1920 1849 
C 1978 1849 1978 1869 1978 1978 
L 1978 2697 
z
" transform="scale(0.015625)"/>
       <path id="CMR17-69" d="M 992 3909 
C 992 4049 877 4170 730 4170 
C 589 4170 467 4056 467 3909 
C 467 3769 582 3648 730 3648 
C 870 3648 992 3763 992 3909 
z
M 243 2706 
L 243 2541 
C 602 2541 653 2502 653 2197 
L 653 427 
C 653 184 627 153 218 153 
L 218 -13 
C 371 0 646 0 806 0 
C 960 0 1222 0 1370 -13 
L 1370 153 
C 992 153 979 191 979 420 
L 979 2776 
L 243 2706 
z
" transform="scale(0.015625)"/>
       <path id="CMR17-74" d="M 966 2560 
L 1862 2560 
L 1862 2725 
L 966 2725 
L 966 3904 
L 851 3904 
C 838 3245 614 2668 70 2668 
L 70 2560 
L 627 2560 
L 627 771 
C 627 650 627 -64 1370 -64 
C 1747 -64 1965 306 1965 777 
L 1965 1140 
L 1850 1140 
L 1850 783 
C 1850 344 1677 51 1408 51 
C 1222 51 966 178 966 758 
L 966 2560 
z
" transform="scale(0.015625)"/>
       <path id="CMR17-79" d="M 2496 2197 
C 2656 2586 2944 2586 3034 2586 
L 3034 2752 
C 2912 2752 2752 2752 2630 2752 
C 2496 2752 2285 2752 2157 2758 
L 2157 2592 
C 2400 2573 2406 2394 2406 2343 
C 2406 2280 2394 2248 2362 2171 
L 1664 449 
L 902 2306 
C 870 2382 870 2426 870 2433 
C 870 2573 1018 2586 1171 2586 
L 1171 2758 
C 1018 2752 742 2752 582 2752 
C 410 2752 205 2752 64 2758 
L 64 2586 
C 410 2586 448 2554 531 2350 
L 1485 15 
C 1197 -738 1030 -1178 627 -1178 
C 557 -1178 397 -1159 282 -1044 
C 429 -1031 493 -942 493 -833 
C 493 -725 416 -629 288 -629 
C 147 -629 77 -725 77 -840 
C 77 -1095 339 -1280 627 -1280 
C 998 -1280 1229 -922 1357 -604 
L 2496 2197 
z
" transform="scale(0.015625)"/>
      </defs>
      <use xlink:href="#CMR17-44" transform="scale(0.996264)"/>
      <use xlink:href="#CMR17-65" transform="translate(70.393556 0) scale(0.996264)"/>
      <use xlink:href="#CMR17-6e" transform="translate(110.879216 0) scale(0.996264)"/>
      <use xlink:href="#CMR17-73" transform="translate(161.774586 0) scale(0.996264)"/>
      <use xlink:href="#CMR17-69" transform="translate(197.575924 0) scale(0.996264)"/>
      <use xlink:href="#CMR17-74" transform="translate(222.446982 0) scale(0.996264)"/>
      <use xlink:href="#CMR17-79" transform="translate(255.125296 0) scale(0.996264)"/>
     </g>
    </g>
   </g>
   <g id="patch_3">
    <path d="M 16.529725 170.836705 
L 16.529725 170.815392 
L 21.429141 170.815392 
L 21.429141 170.815392 
L 26.328557 170.815392 
L 26.328557 170.804736 
L 31.227973 170.804736 
L 31.227973 170.783423 
L 36.127389 170.783423 
L 36.127389 170.783423 
L 41.026805 170.783423 
L 41.026805 170.698171 
L 45.926221 170.698171 
L 45.926221 170.634232 
L 50.825637 170.634232 
L 50.825637 170.570293 
L 55.725053 170.570293 
L 55.725053 170.282568 
L 60.624469 170.282568 
L 60.624469 170.048125 
L 65.523885 170.048125 
L 65.523885 169.930904 
L 70.423301 169.930904 
L 70.423301 169.621865 
L 75.322717 169.621865 
L 75.322717 169.355453 
L 80.222133 169.355453 
L 80.222133 169.025102 
L 85.121549 169.025102 
L 85.121549 168.460308 
L 90.020965 168.460308 
L 90.020965 167.703697 
L 94.920381 167.703697 
L 94.920381 167.320064 
L 99.819797 167.320064 
L 99.819797 166.510171 
L 104.719213 166.510171 
L 104.719213 166.584766 
L 109.618629 166.584766 
L 109.618629 165.796186 
L 114.518045 165.796186 
L 114.518045 164.869071 
L 119.417461 164.869071 
L 119.417461 165.263362 
L 124.316877 165.263362 
L 124.316877 164.282965 
L 129.216293 164.282965 
L 129.216293 164.719881 
L 134.115709 164.719881 
L 134.115709 164.996949 
L 139.015124 164.996949 
L 139.015124 164.581346 
L 143.91454 164.581346 
L 143.91454 165.3273 
L 148.813956 165.3273 
L 148.813956 165.231392 
L 153.713372 165.231392 
L 153.713372 165.764216 
L 158.612788 165.764216 
L 158.612788 166.297041 
L 163.512204 166.297041 
L 163.512204 167.032339 
L 168.41162 167.032339 
L 168.41162 167.852888 
L 173.311036 167.852888 
L 173.311036 168.097988 
L 178.210452 168.097988 
L 178.210452 168.385713 
L 183.109868 168.385713 
L 183.109868 169.078384 
L 188.009284 169.078384 
L 188.009284 169.408736 
L 192.9087 169.408736 
L 192.9087 169.611209 
L 197.808116 169.611209 
L 197.808116 170.016155 
L 202.707532 170.016155 
L 202.707532 170.207972 
L 207.606948 170.207972 
L 207.606948 170.303881 
L 212.506364 170.303881 
L 212.506364 170.474384 
L 217.40578 170.474384 
L 217.40578 170.666201 
L 222.305196 170.666201 
L 222.305196 170.655545 
L 227.204612 170.655545 
L 227.204612 170.698171 
L 232.104028 170.698171 
L 232.104028 170.804736 
L 237.003444 170.804736 
L 237.003444 170.826049 
L 241.90286 170.826049 
L 241.90286 170.794079 
L 246.802276 170.794079 
L 246.802276 170.815392 
L 251.701692 170.815392 
L 251.701692 170.836705 
L 256.601108 170.836705 
L 256.601108 170.826049 
L 261.500524 170.826049 
L 261.500524 170.836705 
" clip-path="url(#pf0b6a8c853)" style="fill: none; stroke: #0000ff; stroke-linejoin: miter"/>
   </g>
   <g id="patch_4">
    <path d="M 102.13026 170.836705 
L 102.13026 170.756346 
L 103.429685 170.756346 
L 103.429685 170.756346 
L 104.729109 170.756346 
L 104.729109 170.796525 
L 106.028533 170.796525 
L 106.028533 170.675986 
L 107.327958 170.675986 
L 107.327958 170.555447 
L 108.627382 170.555447 
L 108.627382 170.555447 
L 109.926807 170.555447 
L 109.926807 170.475087 
L 111.226231 170.475087 
L 111.226231 169.95275 
L 112.525656 169.95275 
L 112.525656 169.591132 
L 113.82508 169.591132 
L 113.82508 169.229514 
L 115.124505 169.229514 
L 115.124505 167.501784 
L 116.423929 167.501784 
L 116.423929 167.421425 
L 117.723353 167.421425 
L 117.723353 165.693695 
L 119.022778 165.693695 
L 119.022778 164.8901 
L 120.322202 164.8901 
L 120.322202 163.403448 
L 121.621627 163.403448 
L 121.621627 160.631044 
L 122.921051 160.631044 
L 122.921051 158.501517 
L 124.220476 158.501517 
L 124.220476 157.778281 
L 125.5199 157.778281 
L 125.5199 154.724619 
L 126.819324 154.724619 
L 126.819324 151.711136 
L 128.118749 151.711136 
L 128.118749 149.621788 
L 129.418173 149.621788 
L 129.418173 147.853878 
L 130.717598 147.853878 
L 130.717598 146.648485 
L 132.017022 146.648485 
L 132.017022 146.487766 
L 133.316447 146.487766 
L 133.316447 147.6128 
L 134.615871 147.6128 
L 134.615871 146.045789 
L 135.915296 146.045789 
L 135.915296 148.135137 
L 137.21472 148.135137 
L 137.21472 148.094957 
L 138.514144 148.094957 
L 138.514144 150.9879 
L 139.813569 150.9879 
L 139.813569 152.67545 
L 141.112993 152.67545 
L 141.112993 155.528214 
L 142.412418 155.528214 
L 142.412418 158.019359 
L 143.711842 158.019359 
L 143.711842 158.702415 
L 145.011267 158.702415 
L 145.011267 161.675718 
L 146.310691 161.675718 
L 146.310691 163.684707 
L 147.610115 163.684707 
L 147.610115 164.84992 
L 148.90954 164.84992 
L 148.90954 167.220526 
L 150.208964 167.220526 
L 150.208964 167.823223 
L 151.508389 167.823223 
L 151.508389 168.546458 
L 152.807813 168.546458 
L 152.807813 169.309874 
L 154.107238 169.309874 
L 154.107238 169.792031 
L 155.406662 169.792031 
L 155.406662 170.153649 
L 156.706087 170.153649 
L 156.706087 170.314368 
L 158.005511 170.314368 
L 158.005511 170.234009 
L 159.304935 170.234009 
L 159.304935 170.595627 
L 160.60436 170.595627 
L 160.60436 170.716166 
L 161.903784 170.716166 
L 161.903784 170.675986 
L 163.203209 170.675986 
L 163.203209 170.836705 
L 164.502633 170.836705 
L 164.502633 170.796525 
L 165.802058 170.796525 
L 165.802058 170.796525 
L 167.101482 170.796525 
L 167.101482 170.836705 
" clip-path="url(#pf0b6a8c853)" style="fill: none; stroke: #ff0000; stroke-linejoin: miter"/>
   </g>
   <g id="line2d_68">
    <path d="M 41.324141 170.836705 
L 113.719778 170.726183 
L 115.576077 170.529059 
L 117.432375 170.06175 
L 118.360524 169.651965 
L 119.288673 169.070156 
L 120.216823 168.267584 
L 121.144972 167.192528 
L 122.073121 165.795081 
L 123.00127 164.033752 
L 123.929419 161.883457 
L 124.857568 159.344065 
L 126.713867 153.266919 
L 129.498314 143.297143 
L 130.426464 140.40455 
L 131.354613 138.037413 
L 132.282762 136.357892 
L 133.210911 135.48615 
L 134.13906 135.48615 
L 135.06721 136.357892 
L 135.995359 138.037413 
L 136.923508 140.40455 
L 138.779806 146.529366 
L 141.564254 156.448219 
L 143.420552 161.883457 
L 144.348701 164.033752 
L 145.276851 165.795081 
L 146.205 167.192528 
L 147.133149 168.267584 
L 148.061298 169.070156 
L 148.989447 169.651965 
L 149.917597 170.06175 
L 151.773895 170.529059 
L 153.630193 170.726183 
L 157.34279 170.826134 
L 179.618371 170.836705 
L 226.02583 170.836705 
L 226.02583 170.836705 
" clip-path="url(#pf0b6a8c853)" style="fill: none; stroke-dasharray: 7.4,3.2; stroke-dashoffset: 0; stroke: #000000; stroke-width: 2"/>
   </g>
   <g id="patch_5">
    <path d="M 41.324141 170.836705 
L 41.324141 20.810347 
" style="fill: none; stroke: #000000; stroke-width: 0.3; stroke-linejoin: miter; stroke-linecap: square"/>
   </g>
   <g id="patch_6">
    <path d="M 226.02583 170.836705 
L 226.02583 20.810347 
" style="fill: none; stroke: #000000; stroke-width: 0.3; stroke-linejoin: miter; stroke-linecap: square"/>
   </g>
   <g id="patch_7">
    <path d="M 41.324141 170.836705 
L 226.02583 170.836705 
" style="fill: none; stroke: #000000; stroke-width: 0.3; stroke-linejoin: miter; stroke-linecap: square"/>
   </g>
   <g id="patch_8">
    <path d="M 41.324141 20.810347 
L 226.02583 20.810347 
" style="fill: none; stroke: #000000; stroke-width: 0.3; stroke-linejoin: miter; stroke-linecap: square"/>
   </g>
   <g id="text_18">
    <!-- $\rho = 0.95$ -->
    <g transform="translate(113.79487 14.810347) scale(0.11 -0.11)">
     <defs>
      <path id="CMMI12-1a" d="M 198 -1107 
C 192 -1139 179 -1177 179 -1216 
C 179 -1312 256 -1376 352 -1376 
C 448 -1376 538 -1312 576 -1222 
C 602 -1164 781 -397 986 390 
C 1114 70 1350 -64 1600 -64 
C 2323 -64 3142 830 3142 1795 
C 3142 2478 2726 2816 2285 2816 
C 1722 2816 1037 2235 826 1385 
L 198 -1107 
z
M 1594 64 
C 1158 64 1050 569 1050 645 
C 1050 684 1210 1295 1229 1391 
C 1555 2670 2182 2670 2278 2670 
C 2566 2670 2726 2410 2726 2036 
C 2726 1712 2554 1084 2445 819 
C 2253 381 1920 64 1594 64 
z
" transform="scale(0.015625)"/>
      <path id="CMR17-3d" d="M 4115 2017 
C 4211 2017 4307 2017 4307 2125 
C 4307 2240 4198 2240 4090 2240 
L 512 2240 
C 403 2240 294 2240 294 2125 
C 294 2017 390 2017 486 2017 
L 4115 2017 
z
M 4090 896 
C 4198 896 4307 896 4307 1011 
C 4307 1119 4211 1119 4115 1119 
L 486 1119 
C 390 1119 294 1119 294 1011 
C 294 896 403 896 512 896 
L 4090 896 
z
" transform="scale(0.015625)"/>
      <path id="CMR17-39" d="M 2253 1864 
C 2253 464 1670 31 1190 31 
C 1043 31 685 31 538 294 
C 704 268 826 357 826 518 
C 826 692 685 749 595 749 
C 538 749 365 723 365 506 
C 365 71 742 -128 1203 -128 
C 1939 -128 2688 674 2688 2073 
C 2688 3817 1971 4179 1485 4179 
C 851 4179 243 3628 243 2778 
C 243 1991 762 1408 1414 1408 
C 1952 1408 2189 1903 2253 2112 
L 2253 1864 
z
M 1427 1510 
C 1254 1510 1011 1542 813 1922 
C 678 2169 678 2461 678 2771 
C 678 3146 678 3405 858 3684 
C 947 3817 1114 4032 1485 4032 
C 2240 4032 2240 2885 2240 2632 
C 2240 2182 2035 1510 1427 1510 
z
" transform="scale(0.015625)"/>
     </defs>
     <use xlink:href="#CMMI12-1a" transform="scale(0.996264)"/>
     <use xlink:href="#CMR17-3d" transform="translate(77.988382 0) scale(0.996264)"/>
     <use xlink:href="#CMR17-30" transform="translate(177.377179 0) scale(0.996264)"/>
     <use xlink:href="#CMMI12-3a" transform="translate(223.067656 0) scale(0.996264)"/>
     <use xlink:href="#CMR17-39" transform="translate(250.164833 0) scale(0.996264)"/>
     <use xlink:href="#CMR17-35" transform="translate(295.85531 0) scale(0.996264)"/>
    </g>
   </g>
   <g id="legend_1">
    <g id="patch_9">
     <path d="M 137.058801 66.563647 
L 219.72583 66.563647 
Q 221.52583 66.563647 221.52583 64.763647 
L 221.52583 27.110347 
Q 221.52583 25.310347 219.72583 25.310347 
L 137.058801 25.310347 
Q 135.258801 25.310347 135.258801 27.110347 
L 135.258801 64.763647 
Q 135.258801 66.563647 137.058801 66.563647 
z
" style="fill: #ffffff; opacity: 0.8; stroke: #cccccc; stroke-linejoin: miter"/>
    </g>
    <g id="patch_10">
     <path d="M 138.858801 35.635129 
L 156.858801 35.635129 
L 156.858801 29.335129 
L 138.858801 29.335129 
L 138.858801 35.635129 
z
" style="fill: none; stroke: #0000ff; stroke-linejoin: miter"/>
    </g>
    <g id="text_19">
     <!-- AR(1) Errors -->
     <g transform="translate(164.058801 35.635129) scale(0.09 -0.09)">
      <defs>
       <path id="CMR17-41" d="M 2323 4378 
C 2291 4461 2278 4480 2214 4480 
C 2150 4480 2138 4461 2106 4378 
L 749 566 
C 627 223 371 153 147 153 
L 147 -13 
C 262 0 518 0 640 0 
C 800 0 1056 0 1210 -13 
L 1210 153 
C 909 153 864 361 864 439 
C 864 497 877 530 890 569 
L 1229 1536 
L 2906 1536 
L 3290 442 
C 3322 365 3322 352 3322 327 
C 3322 153 3046 153 2925 153 
L 2925 0 
C 3110 0 3443 0 3642 0 
C 3808 0 4128 0 4282 -13 
L 4282 153 
C 3942 153 3827 153 3744 387 
L 2323 4378 
z
M 2067 3893 
L 2848 1702 
L 1286 1702 
L 2067 3893 
z
" transform="scale(0.015625)"/>
       <path id="CMR17-52" d="M 2509 2146 
C 3117 2268 3629 2676 3629 3186 
C 3629 3785 2950 4326 2054 4326 
L 333 4326 
L 333 4160 
C 774 4160 845 4160 845 3873 
L 845 415 
C 845 128 774 128 333 128 
L 333 -26 
C 518 -26 851 -26 1050 -26 
C 1248 -26 1581 -26 1766 -26 
L 1766 128 
C 1325 128 1254 128 1254 417 
L 1254 2112 
L 2003 2112 
C 2368 2112 2573 1964 2662 1881 
C 2918 1632 2918 1459 2918 1024 
C 2918 595 2918 377 3110 160 
C 3354 -102 3680 -128 3821 -128 
C 4294 -128 4365 396 4365 503 
C 4365 540 4365 585 4307 585 
C 4256 585 4250 547 4250 522 
C 4218 112 4032 -26 3834 -26 
C 3482 -26 3443 375 3405 764 
C 3386 898 3373 993 3360 1133 
C 3322 1452 3270 1917 2509 2146 
z
M 1984 2214 
L 1254 2214 
L 1254 3913 
C 1254 4129 1267 4160 1523 4160 
L 1990 4160 
C 2522 4160 3142 3977 3142 3190 
C 3142 2372 2464 2214 1984 2214 
z
" transform="scale(0.015625)"/>
       <path id="CMR17-28" d="M 1958 -1561 
C 1958 -1555 1958 -1542 1939 -1523 
C 1645 -1224 858 -407 858 1581 
C 858 3569 1632 4379 1946 4697 
C 1946 4704 1958 4717 1958 4736 
C 1958 4755 1939 4768 1914 4768 
C 1843 4768 1299 4296 986 3594 
C 666 2887 576 2199 576 1588 
C 576 1128 621 351 1005 -471 
C 1312 -1135 1837 -1600 1914 -1600 
C 1946 -1600 1958 -1587 1958 -1561 
z
" transform="scale(0.015625)"/>
       <path id="CMR17-29" d="M 1683 1581 
C 1683 2040 1638 2817 1254 3639 
C 947 4303 422 4768 346 4768 
C 326 4768 301 4761 301 4729 
C 301 4717 307 4710 314 4697 
C 621 4378 1402 3568 1402 1584 
C 1402 -407 627 -1217 314 -1537 
C 307 -1549 301 -1556 301 -1568 
C 301 -1600 326 -1600 346 -1600 
C 416 -1600 960 -1128 1274 -426 
C 1594 281 1683 969 1683 1581 
z
" transform="scale(0.015625)"/>
       <path id="CMR17-45" d="M 3885 1615 
L 3770 1615 
C 3629 676 3546 166 2419 166 
L 1530 166 
C 1274 166 1261 197 1261 414 
L 1261 2176 
L 1862 2176 
C 2464 2176 2522 1960 2522 1430 
L 2637 1430 
L 2637 3081 
L 2522 3081 
C 2522 2557 2464 2342 1862 2342 
L 1261 2342 
L 1261 3913 
C 1261 4128 1274 4160 1530 4160 
L 2406 4160 
C 3398 4160 3514 3769 3603 2929 
L 3718 2929 
L 3565 4325 
L 326 4325 
L 326 4160 
C 768 4160 838 4160 838 3874 
L 838 451 
C 838 166 768 166 326 166 
L 326 0 
L 3654 0 
L 3885 1615 
z
" transform="scale(0.015625)"/>
       <path id="CMR17-72" d="M 960 1497 
C 960 2112 1222 2688 1702 2688 
C 1747 2688 1792 2682 1837 2662 
C 1837 2662 1696 2617 1696 2452 
C 1696 2298 1818 2234 1914 2234 
C 1990 2234 2131 2279 2131 2458 
C 2131 2663 1926 2790 1709 2790 
C 1222 2790 1011 2317 947 2093 
L 941 2093 
L 941 2790 
L 198 2720 
L 198 2554 
C 576 2554 634 2515 634 2208 
L 634 428 
C 634 184 608 153 198 153 
L 198 -13 
C 352 0 646 0 813 0 
C 998 0 1325 0 1498 -13 
L 1498 153 
C 1037 153 960 153 960 440 
L 960 1497 
z
" transform="scale(0.015625)"/>
       <path id="CMR17-6f" d="M 2758 1356 
C 2758 2176 2163 2816 1466 2816 
C 768 2816 173 2176 173 1356 
C 173 551 768 -64 1466 -64 
C 2163 -64 2758 551 2758 1356 
z
M 1466 51 
C 1165 51 909 230 762 480 
C 602 767 582 1126 582 1408 
C 582 1677 595 2010 762 2298 
C 890 2509 1139 2714 1466 2714 
C 1754 2714 1997 2554 2150 2330 
C 2349 2029 2349 1607 2349 1408 
C 2349 1158 2336 775 2163 467 
C 1984 173 1709 51 1466 51 
z
" transform="scale(0.015625)"/>
      </defs>
      <use xlink:href="#CMR17-41" transform="scale(0.996264)"/>
      <use xlink:href="#CMR17-52" transform="translate(69.07243 0) scale(0.996264)"/>
      <use xlink:href="#CMR17-28" transform="translate(136.863532 0) scale(0.996264)"/>
      <use xlink:href="#CMR17-31" transform="translate(172.1443 0) scale(0.996264)"/>
      <use xlink:href="#CMR17-29" transform="translate(217.834777 0) scale(0.996264)"/>
      <use xlink:href="#CMR17-45" transform="translate(283.191511 0) scale(0.996264)"/>
      <use xlink:href="#CMR17-72" transform="translate(345.777811 0) scale(0.996264)"/>
      <use xlink:href="#CMR17-72" transform="translate(381.058579 0) scale(0.996264)"/>
      <use xlink:href="#CMR17-6f" transform="translate(416.339347 0) scale(0.996264)"/>
      <use xlink:href="#CMR17-72" transform="translate(462.029824 0) scale(0.996264)"/>
      <use xlink:href="#CMR17-73" transform="translate(497.310592 0) scale(0.996264)"/>
     </g>
    </g>
    <g id="patch_11">
     <path d="M 138.858801 48.676723 
L 156.858801 48.676723 
L 156.858801 42.376723 
L 138.858801 42.376723 
L 138.858801 48.676723 
z
" style="fill: none; stroke: #ff0000; stroke-linejoin: miter"/>
    </g>
    <g id="text_20">
     <!-- IID Errors -->
     <g transform="translate(164.058801 48.676723) scale(0.09 -0.09)">
      <defs>
       <path id="CMR17-49" d="M 1261 3905 
C 1261 4192 1338 4192 1798 4192 
L 1798 4352 
C 1594 4352 1267 4352 1050 4352 
C 832 4352 506 4352 301 4352 
L 301 4192 
C 762 4192 838 4192 838 3905 
L 838 447 
C 838 160 762 160 301 160 
L 301 0 
C 506 0 832 0 1050 0 
C 1267 0 1594 0 1798 0 
L 1798 160 
C 1338 160 1261 160 1261 447 
L 1261 3905 
z
" transform="scale(0.015625)"/>
      </defs>
      <use xlink:href="#CMR17-49" transform="scale(0.996264)"/>
      <use xlink:href="#CMR17-49" transform="translate(35.240848 0) scale(0.996264)"/>
      <use xlink:href="#CMR17-44" transform="translate(67.879257 0) scale(0.996264)"/>
      <use xlink:href="#CMR17-45" transform="translate(168.348779 0) scale(0.996264)"/>
      <use xlink:href="#CMR17-72" transform="translate(230.93508 0) scale(0.996264)"/>
      <use xlink:href="#CMR17-72" transform="translate(266.215848 0) scale(0.996264)"/>
      <use xlink:href="#CMR17-6f" transform="translate(301.496615 0) scale(0.996264)"/>
      <use xlink:href="#CMR17-72" transform="translate(347.187093 0) scale(0.996264)"/>
      <use xlink:href="#CMR17-73" transform="translate(382.46786 0) scale(0.996264)"/>
     </g>
    </g>
    <g id="line2d_69">
     <path d="M 138.858801 58.070185 
L 147.858801 58.070185 
L 156.858801 58.070185 
" style="fill: none; stroke-dasharray: 7.4,3.2; stroke-dashoffset: 0; stroke: #000000; stroke-width: 2"/>
    </g>
    <g id="text_21">
     <!-- Normal PDF -->
     <g transform="translate(164.058801 61.220185) scale(0.09 -0.09)">
      <defs>
       <path id="CMR17-4e" d="M 1312 4250 
C 1267 4320 1261 4320 1139 4320 
L 326 4320 
L 326 4160 
L 448 4160 
C 704 4160 819 4129 838 4122 
L 838 610 
C 838 451 838 153 326 153 
L 326 -13 
C 474 0 742 0 902 0 
C 1062 0 1331 0 1478 -13 
L 1478 153 
C 966 153 966 451 966 610 
L 966 4033 
C 1011 3995 1011 3982 1056 3919 
L 3430 76 
C 3475 0 3494 0 3526 0 
C 3590 0 3590 19 3590 139 
L 3590 3705 
C 3590 3863 3590 4160 4102 4160 
L 4102 4326 
C 3955 4320 3686 4320 3526 4320 
C 3366 4320 3098 4320 2950 4326 
L 2950 4160 
C 3462 4160 3462 3862 3462 3703 
L 3462 763 
L 1312 4250 
z
" transform="scale(0.015625)"/>
       <path id="CMR17-6d" d="M 4326 1933 
C 4326 2252 4269 2790 3507 2790 
C 3072 2790 2771 2496 2656 2151 
L 2650 2151 
C 2573 2676 2195 2790 1837 2790 
C 1331 2790 1069 2400 973 2144 
L 966 2144 
L 966 2790 
L 211 2720 
L 211 2554 
C 589 2554 646 2515 646 2208 
L 646 428 
C 646 184 621 153 211 153 
L 211 -13 
C 365 0 646 0 813 0 
C 979 0 1267 0 1421 -13 
L 1421 153 
C 1011 153 986 178 986 428 
L 986 1658 
C 986 2247 1344 2688 1792 2688 
C 2266 2688 2317 2266 2317 1958 
L 2317 428 
C 2317 184 2291 153 1882 153 
L 1882 -13 
C 2035 0 2317 0 2483 0 
C 2650 0 2938 0 3091 -13 
L 3091 153 
C 2682 153 2656 178 2656 428 
L 2656 1658 
C 2656 2247 3014 2688 3462 2688 
C 3936 2688 3987 2266 3987 1958 
L 3987 428 
C 3987 184 3962 153 3552 153 
L 3552 -13 
C 3706 0 3987 0 4154 0 
C 4320 0 4608 0 4762 -13 
L 4762 153 
C 4352 153 4326 178 4326 428 
L 4326 1933 
z
" transform="scale(0.015625)"/>
       <path id="CMR17-61" d="M 2304 1653 
C 2304 2072 2304 2294 2035 2543 
C 1798 2752 1523 2816 1306 2816 
C 800 2816 435 2407 435 1971 
C 435 1728 627 1728 666 1728 
C 749 1728 896 1778 896 1954 
C 896 2112 774 2181 666 2181 
C 640 2181 608 2174 589 2168 
C 723 2592 1069 2714 1293 2714 
C 1613 2714 1965 2429 1965 1885 
L 1965 1600 
C 1587 1600 1133 1549 774 1357 
C 371 1133 256 813 256 570 
C 256 77 832 -64 1171 -64 
C 1523 -64 1850 139 1990 511 
C 2003 233 2182 -18 2464 -18 
C 2598 -18 2938 70 2938 567 
L 2938 920 
L 2822 920 
L 2822 562 
C 2822 178 2650 128 2566 128 
C 2304 128 2304 458 2304 738 
L 2304 1653 
z
M 1965 870 
C 1965 317 1568 38 1216 38 
C 896 38 646 275 646 570 
C 646 761 730 1100 1101 1305 
C 1408 1478 1760 1504 1965 1504 
L 1965 870 
z
" transform="scale(0.015625)"/>
       <path id="CMR17-6c" d="M 979 4396 
L 218 4326 
L 218 4160 
C 595 4160 653 4122 653 3817 
L 653 426 
C 653 184 627 153 218 153 
L 218 -13 
C 371 0 653 0 813 0 
C 979 0 1261 0 1414 -13 
L 1414 153 
C 1005 153 979 178 979 426 
L 979 4396 
z
" transform="scale(0.015625)"/>
       <path id="CMR17-50" d="M 1267 2042 
L 2291 2042 
C 3117 2042 3718 2578 3718 3184 
C 3718 3791 3130 4352 2291 4352 
L 333 4352 
L 333 4186 
C 774 4186 845 4186 845 3899 
L 845 446 
C 845 160 774 160 333 160 
L 333 0 
C 518 0 858 0 1056 0 
C 1254 0 1594 0 1779 0 
L 1779 160 
C 1338 160 1267 160 1267 446 
L 1267 2042 
z
M 1254 2176 
L 1254 3938 
C 1254 4155 1267 4186 1523 4186 
L 2170 4186 
C 2995 4186 3232 3714 3232 3184 
C 3232 2604 2950 2176 2170 2176 
L 1254 2176 
z
" transform="scale(0.015625)"/>
       <path id="CMR17-46" d="M 3482 4325 
L 326 4325 
L 326 4160 
C 768 4160 838 4160 838 3874 
L 838 446 
C 838 160 768 160 326 160 
L 326 0 
C 512 0 870 0 1069 0 
C 1331 0 1638 0 1901 0 
L 1901 160 
L 1760 160 
C 1274 160 1261 223 1261 452 
L 1261 2075 
L 1837 2075 
C 2432 2075 2490 1865 2490 1332 
L 2605 1332 
L 2605 2987 
L 2490 2987 
C 2490 2450 2432 2240 1837 2240 
L 1261 2240 
L 1261 3911 
C 1261 4128 1274 4160 1530 4160 
L 2355 4160 
C 3322 4160 3430 3765 3520 2916 
L 3635 2916 
L 3482 4325 
z
" transform="scale(0.015625)"/>
      </defs>
      <use xlink:href="#CMR17-4e" transform="scale(0.996264)"/>
      <use xlink:href="#CMR17-6f" transform="translate(69.07243 0) scale(0.996264)"/>
      <use xlink:href="#CMR17-72" transform="translate(114.762907 0) scale(0.996264)"/>
      <use xlink:href="#CMR17-6d" transform="translate(150.043675 0) scale(0.996264)"/>
      <use xlink:href="#CMR17-61" transform="translate(226.963265 0) scale(0.996264)"/>
      <use xlink:href="#CMR17-6c" transform="translate(272.653742 0) scale(0.996264)"/>
      <use xlink:href="#CMR17-50" transform="translate(327.600767 0) scale(0.996264)"/>
      <use xlink:href="#CMR17-44" transform="translate(390.187067 0) scale(0.996264)"/>
      <use xlink:href="#CMR17-46" transform="translate(460.580623 0) scale(0.996264)"/>
     </g>
    </g>
   </g>
  </g>
  <g id="axes_2">
   <g id="patch_12">
    <path d="M 237.90583 170.836705 
L 422.607519 170.836705 
L 422.607519 20.810347 
L 237.90583 20.810347 
z
" style="fill: #ffffff"/>
   </g>
   <g id="matplotlib.axis_3">
    <g id="xtick_32">
     <g id="line2d_70">
      <g>
       <use xlink:href="#mfd52035b0a" x="237.90583" y="170.836705" style="stroke: #000000; stroke-width: 0.5"/>
      </g>
     </g>
     <g id="text_22">
      <!-- $\mathdefault{−1.5}$ -->
      <g transform="translate(228.434466 181.063355) scale(0.09 -0.09)">
       <use xlink:href="#CMSY10-0" transform="scale(0.996264)"/>
       <use xlink:href="#CMR17-31" transform="translate(77.487468 0) scale(0.996264)"/>
       <use xlink:href="#CMMI12-3a" transform="translate(123.177945 0) scale(0.996264)"/>
       <use xlink:href="#CMR17-35" transform="translate(150.275122 0) scale(0.996264)"/>
      </g>
     </g>
    </g>
    <g id="xtick_33">
     <g id="line2d_71">
      <g>
       <use xlink:href="#mfd52035b0a" x="268.689445" y="170.836705" style="stroke: #000000; stroke-width: 0.5"/>
      </g>
     </g>
     <g id="text_23">
      <!-- $\mathdefault{−1.0}$ -->
      <g transform="translate(259.218081 181.063355) scale(0.09 -0.09)">
       <use xlink:href="#CMSY10-0" transform="scale(0.996264)"/>
       <use xlink:href="#CMR17-31" transform="translate(77.487468 0) scale(0.996264)"/>
       <use xlink:href="#CMMI12-3a" transform="translate(123.177945 0) scale(0.996264)"/>
       <use xlink:href="#CMR17-30" transform="translate(150.275122 0) scale(0.996264)"/>
      </g>
     </g>
    </g>
    <g id="xtick_34">
     <g id="line2d_72">
      <g>
       <use xlink:href="#mfd52035b0a" x="299.47306" y="170.836705" style="stroke: #000000; stroke-width: 0.5"/>
      </g>
     </g>
     <g id="text_24">
      <!-- $\mathdefault{−0.5}$ -->
      <g transform="translate(290.001696 181.063355) scale(0.09 -0.09)">
       <use xlink:href="#CMSY10-0" transform="scale(0.996264)"/>
       <use xlink:href="#CMR17-30" transform="translate(77.487468 0) scale(0.996264)"/>
       <use xlink:href="#CMMI12-3a" transform="translate(123.177945 0) scale(0.996264)"/>
       <use xlink:href="#CMR17-35" transform="translate(150.275122 0) scale(0.996264)"/>
      </g>
     </g>
    </g>
    <g id="xtick_35">
     <g id="line2d_73">
      <g>
       <use xlink:href="#mfd52035b0a" x="330.256674" y="170.836705" style="stroke: #000000; stroke-width: 0.5"/>
      </g>
     </g>
     <g id="text_25">
      <!-- $\mathdefault{0.0}$ -->
      <g transform="translate(324.36907 181.063355) scale(0.09 -0.09)">
       <use xlink:href="#CMR17-30" transform="scale(0.996264)"/>
       <use xlink:href="#CMMI12-3a" transform="translate(45.690477 0) scale(0.996264)"/>
       <use xlink:href="#CMR17-30" transform="translate(72.787654 0) scale(0.996264)"/>
      </g>
     </g>
    </g>
    <g id="xtick_36">
     <g id="line2d_74">
      <g>
       <use xlink:href="#mfd52035b0a" x="361.040289" y="170.836705" style="stroke: #000000; stroke-width: 0.5"/>
      </g>
     </g>
     <g id="text_26">
      <!-- $\mathdefault{0.5}$ -->
      <g transform="translate(355.152685 181.063355) scale(0.09 -0.09)">
       <use xlink:href="#CMR17-30" transform="scale(0.996264)"/>
       <use xlink:href="#CMMI12-3a" transform="translate(45.690477 0) scale(0.996264)"/>
       <use xlink:href="#CMR17-35" transform="translate(72.787654 0) scale(0.996264)"/>
      </g>
     </g>
    </g>
    <g id="xtick_37">
     <g id="line2d_75">
      <g>
       <use xlink:href="#mfd52035b0a" x="391.823904" y="170.836705" style="stroke: #000000; stroke-width: 0.5"/>
      </g>
     </g>
     <g id="text_27">
      <!-- $\mathdefault{1.0}$ -->
      <g transform="translate(385.936299 181.063355) scale(0.09 -0.09)">
       <use xlink:href="#CMR17-31" transform="scale(0.996264)"/>
       <use xlink:href="#CMMI12-3a" transform="translate(45.690477 0) scale(0.996264)"/>
       <use xlink:href="#CMR17-30" transform="translate(72.787654 0) scale(0.996264)"/>
      </g>
     </g>
    </g>
    <g id="xtick_38">
     <g id="line2d_76">
      <g>
       <use xlink:href="#mfd52035b0a" x="422.607519" y="170.836705" style="stroke: #000000; stroke-width: 0.5"/>
      </g>
     </g>
     <g id="text_28">
      <!-- $\mathdefault{1.5}$ -->
      <g transform="translate(416.719914 181.063355) scale(0.09 -0.09)">
       <use xlink:href="#CMR17-31" transform="scale(0.996264)"/>
       <use xlink:href="#CMMI12-3a" transform="translate(45.690477 0) scale(0.996264)"/>
       <use xlink:href="#CMR17-35" transform="translate(72.787654 0) scale(0.996264)"/>
      </g>
     </g>
    </g>
    <g id="xtick_39">
     <g id="line2d_77">
      <g>
       <use xlink:href="#mbbb5ee57af" x="244.062553" y="170.836705" style="stroke: #000000; stroke-width: 0.3"/>
      </g>
     </g>
    </g>
    <g id="xtick_40">
     <g id="line2d_78">
      <g>
       <use xlink:href="#mbbb5ee57af" x="250.219276" y="170.836705" style="stroke: #000000; stroke-width: 0.3"/>
      </g>
     </g>
    </g>
    <g id="xtick_41">
     <g id="line2d_79">
      <g>
       <use xlink:href="#mbbb5ee57af" x="256.375999" y="170.836705" style="stroke: #000000; stroke-width: 0.3"/>
      </g>
     </g>
    </g>
    <g id="xtick_42">
     <g id="line2d_80">
      <g>
       <use xlink:href="#mbbb5ee57af" x="262.532722" y="170.836705" style="stroke: #000000; stroke-width: 0.3"/>
      </g>
     </g>
    </g>
    <g id="xtick_43">
     <g id="line2d_81">
      <g>
       <use xlink:href="#mbbb5ee57af" x="274.846168" y="170.836705" style="stroke: #000000; stroke-width: 0.3"/>
      </g>
     </g>
    </g>
    <g id="xtick_44">
     <g id="line2d_82">
      <g>
       <use xlink:href="#mbbb5ee57af" x="281.002891" y="170.836705" style="stroke: #000000; stroke-width: 0.3"/>
      </g>
     </g>
    </g>
    <g id="xtick_45">
     <g id="line2d_83">
      <g>
       <use xlink:href="#mbbb5ee57af" x="287.159614" y="170.836705" style="stroke: #000000; stroke-width: 0.3"/>
      </g>
     </g>
    </g>
    <g id="xtick_46">
     <g id="line2d_84">
      <g>
       <use xlink:href="#mbbb5ee57af" x="293.316337" y="170.836705" style="stroke: #000000; stroke-width: 0.3"/>
      </g>
     </g>
    </g>
    <g id="xtick_47">
     <g id="line2d_85">
      <g>
       <use xlink:href="#mbbb5ee57af" x="305.629783" y="170.836705" style="stroke: #000000; stroke-width: 0.3"/>
      </g>
     </g>
    </g>
    <g id="xtick_48">
     <g id="line2d_86">
      <g>
       <use xlink:href="#mbbb5ee57af" x="311.786506" y="170.836705" style="stroke: #000000; stroke-width: 0.3"/>
      </g>
     </g>
    </g>
    <g id="xtick_49">
     <g id="line2d_87">
      <g>
       <use xlink:href="#mbbb5ee57af" x="317.943229" y="170.836705" style="stroke: #000000; stroke-width: 0.3"/>
      </g>
     </g>
    </g>
    <g id="xtick_50">
     <g id="line2d_88">
      <g>
       <use xlink:href="#mbbb5ee57af" x="324.099951" y="170.836705" style="stroke: #000000; stroke-width: 0.3"/>
      </g>
     </g>
    </g>
    <g id="xtick_51">
     <g id="line2d_89">
      <g>
       <use xlink:href="#mbbb5ee57af" x="336.413397" y="170.836705" style="stroke: #000000; stroke-width: 0.3"/>
      </g>
     </g>
    </g>
    <g id="xtick_52">
     <g id="line2d_90">
      <g>
       <use xlink:href="#mbbb5ee57af" x="342.57012" y="170.836705" style="stroke: #000000; stroke-width: 0.3"/>
      </g>
     </g>
    </g>
    <g id="xtick_53">
     <g id="line2d_91">
      <g>
       <use xlink:href="#mbbb5ee57af" x="348.726843" y="170.836705" style="stroke: #000000; stroke-width: 0.3"/>
      </g>
     </g>
    </g>
    <g id="xtick_54">
     <g id="line2d_92">
      <g>
       <use xlink:href="#mbbb5ee57af" x="354.883566" y="170.836705" style="stroke: #000000; stroke-width: 0.3"/>
      </g>
     </g>
    </g>
    <g id="xtick_55">
     <g id="line2d_93">
      <g>
       <use xlink:href="#mbbb5ee57af" x="367.197012" y="170.836705" style="stroke: #000000; stroke-width: 0.3"/>
      </g>
     </g>
    </g>
    <g id="xtick_56">
     <g id="line2d_94">
      <g>
       <use xlink:href="#mbbb5ee57af" x="373.353735" y="170.836705" style="stroke: #000000; stroke-width: 0.3"/>
      </g>
     </g>
    </g>
    <g id="xtick_57">
     <g id="line2d_95">
      <g>
       <use xlink:href="#mbbb5ee57af" x="379.510458" y="170.836705" style="stroke: #000000; stroke-width: 0.3"/>
      </g>
     </g>
    </g>
    <g id="xtick_58">
     <g id="line2d_96">
      <g>
       <use xlink:href="#mbbb5ee57af" x="385.667181" y="170.836705" style="stroke: #000000; stroke-width: 0.3"/>
      </g>
     </g>
    </g>
    <g id="xtick_59">
     <g id="line2d_97">
      <g>
       <use xlink:href="#mbbb5ee57af" x="397.980627" y="170.836705" style="stroke: #000000; stroke-width: 0.3"/>
      </g>
     </g>
    </g>
    <g id="xtick_60">
     <g id="line2d_98">
      <g>
       <use xlink:href="#mbbb5ee57af" x="404.13735" y="170.836705" style="stroke: #000000; stroke-width: 0.3"/>
      </g>
     </g>
    </g>
    <g id="xtick_61">
     <g id="line2d_99">
      <g>
       <use xlink:href="#mbbb5ee57af" x="410.294073" y="170.836705" style="stroke: #000000; stroke-width: 0.3"/>
      </g>
     </g>
    </g>
    <g id="xtick_62">
     <g id="line2d_100">
      <g>
       <use xlink:href="#mbbb5ee57af" x="416.450796" y="170.836705" style="stroke: #000000; stroke-width: 0.3"/>
      </g>
     </g>
    </g>
    <g id="text_29">
     <!-- OLS $\hat{\beta}$ -->
     <g transform="translate(314.178813 197.309105) scale(0.11 -0.11)">
      <use xlink:href="#CMR17-4f" transform="scale(0.996264)"/>
      <use xlink:href="#CMR17-4c" transform="translate(71.714788 0) scale(0.996264)"/>
      <use xlink:href="#CMR17-53" transform="translate(129.096196 0) scale(0.996264)"/>
      <use xlink:href="#CMR17-5e" transform="translate(225.648462 26.296621) scale(0.996264)"/>
      <use xlink:href="#CMMI12-c" transform="translate(210.067532 0) scale(0.996264)"/>
     </g>
    </g>
   </g>
   <g id="matplotlib.axis_4">
    <g id="ytick_37">
     <g id="line2d_101">
      <g>
       <use xlink:href="#m6570dd18ed" x="237.90583" y="170.836705" style="stroke: #000000; stroke-width: 0.3"/>
      </g>
     </g>
    </g>
    <g id="ytick_38">
     <g id="line2d_102">
      <g>
       <use xlink:href="#m6570dd18ed" x="237.90583" y="149.636071" style="stroke: #000000; stroke-width: 0.3"/>
      </g>
     </g>
    </g>
    <g id="ytick_39">
     <g id="line2d_103">
      <g>
       <use xlink:href="#m6570dd18ed" x="237.90583" y="128.435438" style="stroke: #000000; stroke-width: 0.3"/>
      </g>
     </g>
    </g>
    <g id="ytick_40">
     <g id="line2d_104">
      <g>
       <use xlink:href="#m6570dd18ed" x="237.90583" y="107.234804" style="stroke: #000000; stroke-width: 0.3"/>
      </g>
     </g>
    </g>
    <g id="ytick_41">
     <g id="line2d_105">
      <g>
       <use xlink:href="#m6570dd18ed" x="237.90583" y="86.034171" style="stroke: #000000; stroke-width: 0.3"/>
      </g>
     </g>
    </g>
    <g id="ytick_42">
     <g id="line2d_106">
      <g>
       <use xlink:href="#m6570dd18ed" x="237.90583" y="64.833537" style="stroke: #000000; stroke-width: 0.3"/>
      </g>
     </g>
    </g>
    <g id="ytick_43">
     <g id="line2d_107">
      <g>
       <use xlink:href="#m6570dd18ed" x="237.90583" y="43.632903" style="stroke: #000000; stroke-width: 0.3"/>
      </g>
     </g>
    </g>
    <g id="ytick_44">
     <g id="line2d_108">
      <g>
       <use xlink:href="#m6570dd18ed" x="237.90583" y="22.43227" style="stroke: #000000; stroke-width: 0.3"/>
      </g>
     </g>
    </g>
    <g id="ytick_45">
     <g id="line2d_109">
      <g>
       <use xlink:href="#m494c410fc7" x="237.90583" y="166.596578" style="stroke: #000000; stroke-width: 0.3"/>
      </g>
     </g>
    </g>
    <g id="ytick_46">
     <g id="line2d_110">
      <g>
       <use xlink:href="#m494c410fc7" x="237.90583" y="162.356452" style="stroke: #000000; stroke-width: 0.3"/>
      </g>
     </g>
    </g>
    <g id="ytick_47">
     <g id="line2d_111">
      <g>
       <use xlink:href="#m494c410fc7" x="237.90583" y="158.116325" style="stroke: #000000; stroke-width: 0.3"/>
      </g>
     </g>
    </g>
    <g id="ytick_48">
     <g id="line2d_112">
      <g>
       <use xlink:href="#m494c410fc7" x="237.90583" y="153.876198" style="stroke: #000000; stroke-width: 0.3"/>
      </g>
     </g>
    </g>
    <g id="ytick_49">
     <g id="line2d_113">
      <g>
       <use xlink:href="#m494c410fc7" x="237.90583" y="145.395945" style="stroke: #000000; stroke-width: 0.3"/>
      </g>
     </g>
    </g>
    <g id="ytick_50">
     <g id="line2d_114">
      <g>
       <use xlink:href="#m494c410fc7" x="237.90583" y="141.155818" style="stroke: #000000; stroke-width: 0.3"/>
      </g>
     </g>
    </g>
    <g id="ytick_51">
     <g id="line2d_115">
      <g>
       <use xlink:href="#m494c410fc7" x="237.90583" y="136.915691" style="stroke: #000000; stroke-width: 0.3"/>
      </g>
     </g>
    </g>
    <g id="ytick_52">
     <g id="line2d_116">
      <g>
       <use xlink:href="#m494c410fc7" x="237.90583" y="132.675565" style="stroke: #000000; stroke-width: 0.3"/>
      </g>
     </g>
    </g>
    <g id="ytick_53">
     <g id="line2d_117">
      <g>
       <use xlink:href="#m494c410fc7" x="237.90583" y="124.195311" style="stroke: #000000; stroke-width: 0.3"/>
      </g>
     </g>
    </g>
    <g id="ytick_54">
     <g id="line2d_118">
      <g>
       <use xlink:href="#m494c410fc7" x="237.90583" y="119.955184" style="stroke: #000000; stroke-width: 0.3"/>
      </g>
     </g>
    </g>
    <g id="ytick_55">
     <g id="line2d_119">
      <g>
       <use xlink:href="#m494c410fc7" x="237.90583" y="115.715058" style="stroke: #000000; stroke-width: 0.3"/>
      </g>
     </g>
    </g>
    <g id="ytick_56">
     <g id="line2d_120">
      <g>
       <use xlink:href="#m494c410fc7" x="237.90583" y="111.474931" style="stroke: #000000; stroke-width: 0.3"/>
      </g>
     </g>
    </g>
    <g id="ytick_57">
     <g id="line2d_121">
      <g>
       <use xlink:href="#m494c410fc7" x="237.90583" y="102.994678" style="stroke: #000000; stroke-width: 0.3"/>
      </g>
     </g>
    </g>
    <g id="ytick_58">
     <g id="line2d_122">
      <g>
       <use xlink:href="#m494c410fc7" x="237.90583" y="98.754551" style="stroke: #000000; stroke-width: 0.3"/>
      </g>
     </g>
    </g>
    <g id="ytick_59">
     <g id="line2d_123">
      <g>
       <use xlink:href="#m494c410fc7" x="237.90583" y="94.514424" style="stroke: #000000; stroke-width: 0.3"/>
      </g>
     </g>
    </g>
    <g id="ytick_60">
     <g id="line2d_124">
      <g>
       <use xlink:href="#m494c410fc7" x="237.90583" y="90.274297" style="stroke: #000000; stroke-width: 0.3"/>
      </g>
     </g>
    </g>
    <g id="ytick_61">
     <g id="line2d_125">
      <g>
       <use xlink:href="#m494c410fc7" x="237.90583" y="81.794044" style="stroke: #000000; stroke-width: 0.3"/>
      </g>
     </g>
    </g>
    <g id="ytick_62">
     <g id="line2d_126">
      <g>
       <use xlink:href="#m494c410fc7" x="237.90583" y="77.553917" style="stroke: #000000; stroke-width: 0.3"/>
      </g>
     </g>
    </g>
    <g id="ytick_63">
     <g id="line2d_127">
      <g>
       <use xlink:href="#m494c410fc7" x="237.90583" y="73.31379" style="stroke: #000000; stroke-width: 0.3"/>
      </g>
     </g>
    </g>
    <g id="ytick_64">
     <g id="line2d_128">
      <g>
       <use xlink:href="#m494c410fc7" x="237.90583" y="69.073664" style="stroke: #000000; stroke-width: 0.3"/>
      </g>
     </g>
    </g>
    <g id="ytick_65">
     <g id="line2d_129">
      <g>
       <use xlink:href="#m494c410fc7" x="237.90583" y="60.59341" style="stroke: #000000; stroke-width: 0.3"/>
      </g>
     </g>
    </g>
    <g id="ytick_66">
     <g id="line2d_130">
      <g>
       <use xlink:href="#m494c410fc7" x="237.90583" y="56.353284" style="stroke: #000000; stroke-width: 0.3"/>
      </g>
     </g>
    </g>
    <g id="ytick_67">
     <g id="line2d_131">
      <g>
       <use xlink:href="#m494c410fc7" x="237.90583" y="52.113157" style="stroke: #000000; stroke-width: 0.3"/>
      </g>
     </g>
    </g>
    <g id="ytick_68">
     <g id="line2d_132">
      <g>
       <use xlink:href="#m494c410fc7" x="237.90583" y="47.87303" style="stroke: #000000; stroke-width: 0.3"/>
      </g>
     </g>
    </g>
    <g id="ytick_69">
     <g id="line2d_133">
      <g>
       <use xlink:href="#m494c410fc7" x="237.90583" y="39.392777" style="stroke: #000000; stroke-width: 0.3"/>
      </g>
     </g>
    </g>
    <g id="ytick_70">
     <g id="line2d_134">
      <g>
       <use xlink:href="#m494c410fc7" x="237.90583" y="35.15265" style="stroke: #000000; stroke-width: 0.3"/>
      </g>
     </g>
    </g>
    <g id="ytick_71">
     <g id="line2d_135">
      <g>
       <use xlink:href="#m494c410fc7" x="237.90583" y="30.912523" style="stroke: #000000; stroke-width: 0.3"/>
      </g>
     </g>
    </g>
    <g id="ytick_72">
     <g id="line2d_136">
      <g>
       <use xlink:href="#m494c410fc7" x="237.90583" y="26.672396" style="stroke: #000000; stroke-width: 0.3"/>
      </g>
     </g>
    </g>
   </g>
   <g id="patch_13">
    <path d="M 323.779963 170.836705 
L 323.779963 170.631119 
L 324.033923 170.631119 
L 324.033923 170.836705 
L 324.287883 170.836705 
L 324.287883 170.836705 
L 324.541843 170.836705 
L 324.541843 170.836705 
L 324.795802 170.836705 
L 324.795802 170.219947 
L 325.049762 170.219947 
L 325.049762 170.425533 
L 325.303722 170.425533 
L 325.303722 170.014361 
L 325.557682 170.014361 
L 325.557682 169.397603 
L 325.811642 169.397603 
L 325.811642 167.341744 
L 326.065602 167.341744 
L 326.065602 165.49147 
L 326.319561 165.49147 
L 326.319561 164.874712 
L 326.573521 164.874712 
L 326.573521 163.43561 
L 326.827481 163.43561 
L 326.827481 158.295961 
L 327.081441 158.295961 
L 327.081441 153.361898 
L 327.335401 153.361898 
L 327.335401 144.316116 
L 327.58936 144.316116 
L 327.58936 136.503849 
L 327.84332 136.503849 
L 327.84332 128.28041 
L 328.09728 128.28041 
L 328.09728 112.244705 
L 328.35124 112.244705 
L 328.35124 102.993336 
L 328.6052 102.993336 
L 328.6052 82.640326 
L 328.859159 82.640326 
L 328.859159 70.305168 
L 329.113119 70.305168 
L 329.113119 67.63255 
L 329.367079 67.63255 
L 329.367079 45.634852 
L 329.621039 45.634852 
L 329.621039 38.233757 
L 329.874999 38.233757 
L 329.874999 35.56114 
L 330.128958 35.56114 
L 330.128958 37.616999 
L 330.382918 37.616999 
L 330.382918 27.954459 
L 330.636878 27.954459 
L 330.636878 47.485126 
L 330.890838 47.485126 
L 330.890838 63.932003 
L 331.144798 63.932003 
L 331.144798 61.876143 
L 331.398757 61.876143 
L 331.398757 71.538684 
L 331.652717 71.538684 
L 331.652717 87.779975 
L 331.906677 87.779975 
L 331.906677 100.320719 
L 332.160637 100.320719 
L 332.160637 117.178768 
L 332.414597 117.178768 
L 332.414597 125.402207 
L 332.668556 125.402207 
L 332.668556 136.092677 
L 332.922516 136.092677 
L 332.922516 146.988733 
L 333.176476 146.988733 
L 333.176476 149.661351 
L 333.430436 149.661351 
L 333.430436 160.968579 
L 333.684396 160.968579 
L 333.684396 160.146235 
L 333.938355 160.146235 
L 333.938355 165.902642 
L 334.192315 165.902642 
L 334.192315 166.5194 
L 334.446275 166.5194 
L 334.446275 167.54733 
L 334.700235 167.54733 
L 334.700235 168.986431 
L 334.954195 168.986431 
L 334.954195 169.397603 
L 335.208154 169.397603 
L 335.208154 170.631119 
L 335.462114 170.631119 
L 335.462114 170.425533 
L 335.716074 170.425533 
L 335.716074 169.808775 
L 335.970034 169.808775 
L 335.970034 170.836705 
L 336.223994 170.836705 
L 336.223994 170.631119 
L 336.477953 170.631119 
L 336.477953 170.836705 
" clip-path="url(#p892500a84d)" style="fill: none; stroke: #0000ff; stroke-linejoin: miter"/>
   </g>
   <g id="patch_14">
    <path d="M 294.919147 170.836705 
L 294.919147 170.796849 
L 296.229127 170.796849 
L 296.229127 170.836705 
L 297.539108 170.836705 
L 297.539108 170.836705 
L 298.849088 170.836705 
L 298.849088 170.796849 
L 300.159068 170.796849 
L 300.159068 170.796849 
L 301.469049 170.796849 
L 301.469049 170.677281 
L 302.779029 170.677281 
L 302.779029 170.756993 
L 304.089009 170.756993 
L 304.089009 170.637425 
L 305.39899 170.637425 
L 305.39899 170.478001 
L 306.70897 170.478001 
L 306.70897 170.039585 
L 308.01895 170.039585 
L 308.01895 169.720737 
L 309.328931 169.720737 
L 309.328931 169.043185 
L 310.638911 169.043185 
L 310.638911 168.883761 
L 311.948891 168.883761 
L 311.948891 167.847505 
L 313.258872 167.847505 
L 313.258872 166.81125 
L 314.568852 166.81125 
L 314.568852 165.894562 
L 315.878832 165.894562 
L 315.878832 164.22061 
L 317.188813 164.22061 
L 317.188813 162.187954 
L 318.498793 162.187954 
L 318.498793 160.195154 
L 319.808773 160.195154 
L 319.808773 157.166098 
L 321.118754 157.166098 
L 321.118754 157.04653 
L 322.428734 157.04653 
L 322.428734 154.176899 
L 323.738714 154.176899 
L 323.738714 151.107987 
L 325.048695 151.107987 
L 325.048695 151.626115 
L 326.358675 151.626115 
L 326.358675 147.560803 
L 327.668655 147.560803 
L 327.668655 146.484692 
L 328.978636 146.484692 
L 328.978636 145.966564 
L 330.288616 145.966564 
L 330.288616 146.763683 
L 331.598596 146.763683 
L 331.598596 145.568004 
L 332.908577 145.568004 
L 332.908577 148.039075 
L 334.218557 148.039075 
L 334.218557 148.756483 
L 335.528537 148.756483 
L 335.528537 150.828995 
L 336.838518 150.828995 
L 336.838518 154.535603 
L 338.148498 154.535603 
L 338.148498 157.126242 
L 339.458478 157.126242 
L 339.458478 158.401634 
L 340.768459 158.401634 
L 340.768459 160.474146 
L 342.078439 160.474146 
L 342.078439 162.068386 
L 343.388419 162.068386 
L 343.388419 164.02133 
L 344.6984 164.02133 
L 344.6984 166.293122 
L 346.00838 166.293122 
L 346.00838 167.767793 
L 347.31836 167.767793 
L 347.31836 168.564913 
L 348.628341 168.564913 
L 348.628341 168.883761 
L 349.938321 168.883761 
L 349.938321 169.601169 
L 351.248301 169.601169 
L 351.248301 169.920017 
L 352.558282 169.920017 
L 352.558282 170.039585 
L 353.868262 170.039585 
L 353.868262 170.478001 
L 355.178242 170.478001 
L 355.178242 170.318577 
L 356.488223 170.318577 
L 356.488223 170.796849 
L 357.798203 170.796849 
L 357.798203 170.717137 
L 359.108183 170.717137 
L 359.108183 170.717137 
L 360.418164 170.717137 
L 360.418164 170.836705 
" clip-path="url(#p892500a84d)" style="fill: none; stroke: #ff0000; stroke-linejoin: miter"/>
   </g>
   <g id="line2d_137">
    <path d="M 237.90583 170.836705 
L 302.876273 170.750621 
L 305.660721 170.578089 
L 307.517019 170.332383 
L 309.373318 169.903426 
L 311.229616 169.197754 
L 313.085914 168.105394 
L 314.942213 166.51727 
L 316.798511 164.354339 
L 318.65481 161.604808 
L 320.511108 158.360025 
L 325.151854 149.770251 
L 326.080003 148.344709 
L 327.008152 147.135129 
L 327.936301 146.185443 
L 328.864451 145.531272 
L 329.7926 145.197705 
L 330.720749 145.197705 
L 331.648898 145.531272 
L 332.577047 146.185443 
L 333.505197 147.135129 
L 334.433346 148.344709 
L 336.289644 151.362148 
L 341.858539 161.604808 
L 343.714838 164.354339 
L 345.571136 166.51727 
L 347.427434 168.105394 
L 349.283733 169.197754 
L 351.140031 169.903426 
L 352.99633 170.332383 
L 355.780777 170.655113 
L 359.493374 170.79798 
L 369.703015 170.836517 
L 422.607519 170.836705 
L 422.607519 170.836705 
" clip-path="url(#p892500a84d)" style="fill: none; stroke-dasharray: 7.4,3.2; stroke-dashoffset: 0; stroke: #000000; stroke-width: 2"/>
   </g>
   <g id="patch_15">
    <path d="M 237.90583 170.836705 
L 237.90583 20.810347 
" style="fill: none; stroke: #000000; stroke-width: 0.3; stroke-linejoin: miter; stroke-linecap: square"/>
   </g>
   <g id="patch_16">
    <path d="M 422.607519 170.836705 
L 422.607519 20.810347 
" style="fill: none; stroke: #000000; stroke-width: 0.3; stroke-linejoin: miter; stroke-linecap: square"/>
   </g>
   <g id="patch_17">
    <path d="M 237.90583 170.836705 
L 422.607519 170.836705 
" style="fill: none; stroke: #000000; stroke-width: 0.3; stroke-linejoin: miter; stroke-linecap: square"/>
   </g>
   <g id="patch_18">
    <path d="M 237.90583 20.810347 
L 422.607519 20.810347 
" style="fill: none; stroke: #000000; stroke-width: 0.3; stroke-linejoin: miter; stroke-linecap: square"/>
   </g>
   <g id="text_30">
    <!-- $\rho = -0.95$ -->
    <g transform="translate(306.114754 14.810347) scale(0.11 -0.11)">
     <use xlink:href="#CMMI12-1a" transform="scale(0.996264)"/>
     <use xlink:href="#CMR17-3d" transform="translate(77.988382 0) scale(0.996264)"/>
     <use xlink:href="#CMSY10-0" transform="translate(177.377179 0) scale(0.996264)"/>
     <use xlink:href="#CMR17-30" transform="translate(254.864646 0) scale(0.996264)"/>
     <use xlink:href="#CMMI12-3a" transform="translate(300.555123 0) scale(0.996264)"/>
     <use xlink:href="#CMR17-39" transform="translate(327.652301 0) scale(0.996264)"/>
     <use xlink:href="#CMR17-35" transform="translate(373.342778 0) scale(0.996264)"/>
    </g>
   </g>
  </g>
 </g>
 <defs>
  <clipPath id="pf0b6a8c853">
   <rect x="41.324141" y="20.810347" width="184.701689" height="150.026358"/>
  </clipPath>
  <clipPath id="p892500a84d">
   <rect x="237.90583" y="20.810347" width="184.701689" height="150.026358"/>
  </clipPath>
 </defs>
</svg>
