<?xml version="1.0" encoding="utf-8" standalone="no"?>
<!DOCTYPE svg PUBLIC "-//W3C//DTD SVG 1.1//EN"
  "http://www.w3.org/Graphics/SVG/1.1/DTD/svg11.dtd">
<svg xmlns:xlink="http://www.w3.org/1999/xlink" width="382.044227pt" height="141.083838pt" viewBox="0 0 382.044227 141.083838" xmlns="http://www.w3.org/2000/svg" version="1.1">
 <metadata>
  <rdf:RDF xmlns:dc="http://purl.org/dc/elements/1.1/" xmlns:cc="http://creativecommons.org/ns#" xmlns:rdf="http://www.w3.org/1999/02/22-rdf-syntax-ns#">
   <cc:Work>
    <dc:type rdf:resource="http://purl.org/dc/dcmitype/StillImage"/>
    <dc:date>2025-02-23T18:03:39.508247</dc:date>
    <dc:format>image/svg+xml</dc:format>
    <dc:creator>
     <cc:Agent>
      <dc:title>Matplotlib v3.10.0, https://matplotlib.org/</dc:title>
     </cc:Agent>
    </dc:creator>
   </cc:Work>
  </rdf:RDF>
 </metadata>
 <defs>
  <style type="text/css">*{stroke-linejoin: round; stroke-linecap: butt}</style>
 </defs>
 <g id="figure_1">
  <g id="patch_1">
   <path d="M 0 141.083838 
L 382.044227 141.083838 
L 382.044227 0 
L 0 0 
z
" style="fill: #ffffff"/>
  </g>
  <g id="axes_1">
   <g id="patch_2">
    <path d="M 34.156623 105.280543 
L 132.627211 105.280543 
L 132.627211 22.120543 
L 34.156623 22.120543 
z
" style="fill: #ffffff"/>
   </g>
   <g id="patch_3">
    <path d="M 56.057516 105.280543 
L 57.180857 105.280543 
L 57.180857 105.179143 
L 56.057516 105.179143 
z
" clip-path="url(#p21316a2ac4)" style="fill: #335791"/>
   </g>
   <g id="patch_4">
    <path d="M 57.180857 105.280543 
L 58.304197 105.280543 
L 58.304197 105.229843 
L 57.180857 105.229843 
z
" clip-path="url(#p21316a2ac4)" style="fill: #335791"/>
   </g>
   <g id="patch_5">
    <path d="M 58.304197 105.280543 
L 59.427538 105.280543 
L 59.427538 105.128443 
L 58.304197 105.128443 
z
" clip-path="url(#p21316a2ac4)" style="fill: #335791"/>
   </g>
   <g id="patch_6">
    <path d="M 59.427538 105.280543 
L 60.550879 105.280543 
L 60.550879 105.077742 
L 59.427538 105.077742 
z
" clip-path="url(#p21316a2ac4)" style="fill: #335791"/>
   </g>
   <g id="patch_7">
    <path d="M 60.550879 105.280543 
L 61.67422 105.280543 
L 61.67422 105.128443 
L 60.550879 105.128443 
z
" clip-path="url(#p21316a2ac4)" style="fill: #335791"/>
   </g>
   <g id="patch_8">
    <path d="M 61.67422 105.280543 
L 62.797561 105.280543 
L 62.797561 104.824242 
L 61.67422 104.824242 
z
" clip-path="url(#p21316a2ac4)" style="fill: #335791"/>
   </g>
   <g id="patch_9">
    <path d="M 62.797561 105.280543 
L 63.920902 105.280543 
L 63.920902 105.027042 
L 62.797561 105.027042 
z
" clip-path="url(#p21316a2ac4)" style="fill: #335791"/>
   </g>
   <g id="patch_10">
    <path d="M 63.920902 105.280543 
L 65.044242 105.280543 
L 65.044242 104.520042 
L 63.920902 104.520042 
z
" clip-path="url(#p21316a2ac4)" style="fill: #335791"/>
   </g>
   <g id="patch_11">
    <path d="M 65.044242 105.280543 
L 66.167583 105.280543 
L 66.167583 103.708841 
L 65.044242 103.708841 
z
" clip-path="url(#p21316a2ac4)" style="fill: #335791"/>
   </g>
   <g id="patch_12">
    <path d="M 66.167583 105.280543 
L 67.290924 105.280543 
L 67.290924 102.390639 
L 66.167583 102.390639 
z
" clip-path="url(#p21316a2ac4)" style="fill: #335791"/>
   </g>
   <g id="patch_13">
    <path d="M 67.290924 105.280543 
L 68.414265 105.280543 
L 68.414265 102.441339 
L 67.290924 102.441339 
z
" clip-path="url(#p21316a2ac4)" style="fill: #335791"/>
   </g>
   <g id="patch_14">
    <path d="M 68.414265 105.280543 
L 69.537606 105.280543 
L 69.537606 100.616137 
L 68.414265 100.616137 
z
" clip-path="url(#p21316a2ac4)" style="fill: #335791"/>
   </g>
   <g id="patch_15">
    <path d="M 69.537606 105.280543 
L 70.660946 105.280543 
L 70.660946 100.109137 
L 69.537606 100.109137 
z
" clip-path="url(#p21316a2ac4)" style="fill: #335791"/>
   </g>
   <g id="patch_16">
    <path d="M 70.660946 105.280543 
L 71.784287 105.280543 
L 71.784287 97.929034 
L 70.660946 97.929034 
z
" clip-path="url(#p21316a2ac4)" style="fill: #335791"/>
   </g>
   <g id="patch_17">
    <path d="M 71.784287 105.280543 
L 72.907628 105.280543 
L 72.907628 95.241931 
L 71.784287 95.241931 
z
" clip-path="url(#p21316a2ac4)" style="fill: #335791"/>
   </g>
   <g id="patch_18">
    <path d="M 72.907628 105.280543 
L 74.030969 105.280543 
L 74.030969 92.199928 
L 72.907628 92.199928 
z
" clip-path="url(#p21316a2ac4)" style="fill: #335791"/>
   </g>
   <g id="patch_19">
    <path d="M 74.030969 105.280543 
L 75.15431 105.280543 
L 75.15431 89.969125 
L 74.030969 89.969125 
z
" clip-path="url(#p21316a2ac4)" style="fill: #335791"/>
   </g>
   <g id="patch_20">
    <path d="M 75.15431 105.280543 
L 76.277651 105.280543 
L 76.277651 86.166621 
L 75.15431 86.166621 
z
" clip-path="url(#p21316a2ac4)" style="fill: #335791"/>
   </g>
   <g id="patch_21">
    <path d="M 76.277651 105.280543 
L 77.400991 105.280543 
L 77.400991 84.493519 
L 76.277651 84.493519 
z
" clip-path="url(#p21316a2ac4)" style="fill: #335791"/>
   </g>
   <g id="patch_22">
    <path d="M 77.400991 105.280543 
L 78.524332 105.280543 
L 78.524332 81.451515 
L 77.400991 81.451515 
z
" clip-path="url(#p21316a2ac4)" style="fill: #335791"/>
   </g>
   <g id="patch_23">
    <path d="M 78.524332 105.280543 
L 79.647673 105.280543 
L 79.647673 78.865812 
L 78.524332 78.865812 
z
" clip-path="url(#p21316a2ac4)" style="fill: #335791"/>
   </g>
   <g id="patch_24">
    <path d="M 79.647673 105.280543 
L 80.771014 105.280543 
L 80.771014 75.925209 
L 79.647673 75.925209 
z
" clip-path="url(#p21316a2ac4)" style="fill: #335791"/>
   </g>
   <g id="patch_25">
    <path d="M 80.771014 105.280543 
L 81.894355 105.280543 
L 81.894355 74.505607 
L 80.771014 74.505607 
z
" clip-path="url(#p21316a2ac4)" style="fill: #335791"/>
   </g>
   <g id="patch_26">
    <path d="M 81.894355 105.280543 
L 83.017695 105.280543 
L 83.017695 74.759107 
L 81.894355 74.759107 
z
" clip-path="url(#p21316a2ac4)" style="fill: #335791"/>
   </g>
   <g id="patch_27">
    <path d="M 83.017695 105.280543 
L 84.141036 105.280543 
L 84.141036 71.615704 
L 83.017695 71.615704 
z
" clip-path="url(#p21316a2ac4)" style="fill: #335791"/>
   </g>
   <g id="patch_28">
    <path d="M 84.141036 105.280543 
L 85.264377 105.280543 
L 85.264377 74.657707 
L 84.141036 74.657707 
z
" clip-path="url(#p21316a2ac4)" style="fill: #335791"/>
   </g>
   <g id="patch_29">
    <path d="M 85.264377 105.280543 
L 86.387718 105.280543 
L 86.387718 76.280109 
L 85.264377 76.280109 
z
" clip-path="url(#p21316a2ac4)" style="fill: #335791"/>
   </g>
   <g id="patch_30">
    <path d="M 86.387718 105.280543 
L 87.511059 105.280543 
L 87.511059 77.598311 
L 86.387718 77.598311 
z
" clip-path="url(#p21316a2ac4)" style="fill: #335791"/>
   </g>
   <g id="patch_31">
    <path d="M 87.511059 105.280543 
L 88.634399 105.280543 
L 88.634399 79.677013 
L 87.511059 79.677013 
z
" clip-path="url(#p21316a2ac4)" style="fill: #335791"/>
   </g>
   <g id="patch_32">
    <path d="M 88.634399 105.280543 
L 89.75774 105.280543 
L 89.75774 82.313416 
L 88.634399 82.313416 
z
" clip-path="url(#p21316a2ac4)" style="fill: #335791"/>
   </g>
   <g id="patch_33">
    <path d="M 89.75774 105.280543 
L 90.881081 105.280543 
L 90.881081 85.30472 
L 89.75774 85.30472 
z
" clip-path="url(#p21316a2ac4)" style="fill: #335791"/>
   </g>
   <g id="patch_34">
    <path d="M 90.881081 105.280543 
L 92.004422 105.280543 
L 92.004422 90.273325 
L 90.881081 90.273325 
z
" clip-path="url(#p21316a2ac4)" style="fill: #335791"/>
   </g>
   <g id="patch_35">
    <path d="M 92.004422 105.280543 
L 93.127763 105.280543 
L 93.127763 90.932426 
L 92.004422 90.932426 
z
" clip-path="url(#p21316a2ac4)" style="fill: #335791"/>
   </g>
   <g id="patch_36">
    <path d="M 93.127763 105.280543 
L 94.251104 105.280543 
L 94.251104 95.191231 
L 93.127763 95.191231 
z
" clip-path="url(#p21316a2ac4)" style="fill: #335791"/>
   </g>
   <g id="patch_37">
    <path d="M 94.251104 105.280543 
L 95.374444 105.280543 
L 95.374444 96.762933 
L 94.251104 96.762933 
z
" clip-path="url(#p21316a2ac4)" style="fill: #335791"/>
   </g>
   <g id="patch_38">
    <path d="M 95.374444 105.280543 
L 96.497785 105.280543 
L 96.497785 98.588135 
L 95.374444 98.588135 
z
" clip-path="url(#p21316a2ac4)" style="fill: #335791"/>
   </g>
   <g id="patch_39">
    <path d="M 96.497785 105.280543 
L 97.621126 105.280543 
L 97.621126 100.058437 
L 96.497785 100.058437 
z
" clip-path="url(#p21316a2ac4)" style="fill: #335791"/>
   </g>
   <g id="patch_40">
    <path d="M 97.621126 105.280543 
L 98.744467 105.280543 
L 98.744467 101.630139 
L 97.621126 101.630139 
z
" clip-path="url(#p21316a2ac4)" style="fill: #335791"/>
   </g>
   <g id="patch_41">
    <path d="M 98.744467 105.280543 
L 99.867808 105.280543 
L 99.867808 102.59344 
L 98.744467 102.59344 
z
" clip-path="url(#p21316a2ac4)" style="fill: #335791"/>
   </g>
   <g id="patch_42">
    <path d="M 99.867808 105.280543 
L 100.991148 105.280543 
L 100.991148 103.404641 
L 99.867808 103.404641 
z
" clip-path="url(#p21316a2ac4)" style="fill: #335791"/>
   </g>
   <g id="patch_43">
    <path d="M 100.991148 105.280543 
L 102.114489 105.280543 
L 102.114489 103.708841 
L 100.991148 103.708841 
z
" clip-path="url(#p21316a2ac4)" style="fill: #335791"/>
   </g>
   <g id="patch_44">
    <path d="M 102.114489 105.280543 
L 103.23783 105.280543 
L 103.23783 104.570742 
L 102.114489 104.570742 
z
" clip-path="url(#p21316a2ac4)" style="fill: #335791"/>
   </g>
   <g id="patch_45">
    <path d="M 103.23783 105.280543 
L 104.361171 105.280543 
L 104.361171 104.773542 
L 103.23783 104.773542 
z
" clip-path="url(#p21316a2ac4)" style="fill: #335791"/>
   </g>
   <g id="patch_46">
    <path d="M 104.361171 105.280543 
L 105.484512 105.280543 
L 105.484512 104.976342 
L 104.361171 104.976342 
z
" clip-path="url(#p21316a2ac4)" style="fill: #335791"/>
   </g>
   <g id="patch_47">
    <path d="M 105.484512 105.280543 
L 106.607853 105.280543 
L 106.607853 105.229843 
L 105.484512 105.229843 
z
" clip-path="url(#p21316a2ac4)" style="fill: #335791"/>
   </g>
   <g id="patch_48">
    <path d="M 106.607853 105.280543 
L 107.731193 105.280543 
L 107.731193 105.077742 
L 106.607853 105.077742 
z
" clip-path="url(#p21316a2ac4)" style="fill: #335791"/>
   </g>
   <g id="patch_49">
    <path d="M 107.731193 105.280543 
L 108.854534 105.280543 
L 108.854534 105.229843 
L 107.731193 105.229843 
z
" clip-path="url(#p21316a2ac4)" style="fill: #335791"/>
   </g>
   <g id="patch_50">
    <path d="M 108.854534 105.280543 
L 109.977875 105.280543 
L 109.977875 105.179143 
L 108.854534 105.179143 
z
" clip-path="url(#p21316a2ac4)" style="fill: #335791"/>
   </g>
   <g id="patch_51">
    <path d="M 109.977875 105.280543 
L 111.101216 105.280543 
L 111.101216 105.280543 
L 109.977875 105.280543 
z
" clip-path="url(#p21316a2ac4)" style="fill: #335791"/>
   </g>
   <g id="patch_52">
    <path d="M 111.101216 105.280543 
L 112.224557 105.280543 
L 112.224557 105.229843 
L 111.101216 105.229843 
z
" clip-path="url(#p21316a2ac4)" style="fill: #335791"/>
   </g>
   <g id="matplotlib.axis_1">
    <g id="xtick_1">
     <g id="line2d_1">
      <defs>
       <path id="m4e73fa4ed6" d="M 0 0 
L 0 -4 
" style="stroke: #000000; stroke-width: 0.5"/>
      </defs>
      <g>
       <use xlink:href="#m4e73fa4ed6" x="34.156623" y="105.280543" style="stroke: #000000; stroke-width: 0.5"/>
      </g>
     </g>
     <g id="text_1">
      <!-- $\mathdefault{−0.5}$ -->
      <g transform="translate(24.685259 115.507193) scale(0.09 -0.09)">
       <defs>
        <path id="CMSY10-0" d="M 4218 1472 
C 4326 1472 4442 1472 4442 1600 
C 4442 1728 4326 1728 4218 1728 
L 755 1728 
C 646 1728 531 1728 531 1600 
C 531 1472 646 1472 755 1472 
L 4218 1472 
z
" transform="scale(0.015625)"/>
        <path id="CMR17-30" d="M 2688 2038 
C 2688 2430 2682 3099 2413 3613 
C 2176 4063 1798 4224 1466 4224 
C 1158 4224 768 4082 525 3620 
C 269 3137 243 2539 243 2038 
C 243 1671 250 1112 448 623 
C 723 -39 1216 -128 1466 -128 
C 1760 -128 2208 -7 2470 604 
C 2662 1048 2688 1568 2688 2038 
z
M 1466 -26 
C 1056 -26 813 328 723 816 
C 653 1196 653 1749 653 2109 
C 653 2604 653 3015 736 3407 
C 858 3954 1216 4121 1466 4121 
C 1728 4121 2067 3947 2189 3420 
C 2272 3054 2278 2623 2278 2109 
C 2278 1691 2278 1176 2202 797 
C 2067 96 1690 -26 1466 -26 
z
" transform="scale(0.015625)"/>
        <path id="CMMI12-3a" d="M 1178 307 
C 1178 492 1024 620 870 620 
C 685 620 557 467 557 313 
C 557 128 710 0 864 0 
C 1050 0 1178 153 1178 307 
z
" transform="scale(0.015625)"/>
        <path id="CMR17-35" d="M 730 3750 
C 794 3724 1056 3641 1325 3641 
C 1920 3641 2246 3961 2432 4140 
C 2432 4191 2432 4224 2394 4224 
C 2387 4224 2374 4224 2323 4198 
C 2099 4102 1837 4032 1517 4032 
C 1325 4032 1037 4055 723 4191 
C 653 4224 640 4224 634 4224 
C 602 4224 595 4217 595 4090 
L 595 2231 
C 595 2113 595 2080 659 2080 
C 691 2080 704 2093 736 2139 
C 941 2435 1222 2560 1542 2560 
C 1766 2560 2246 2415 2246 1293 
C 2246 1087 2246 716 2054 422 
C 1894 159 1645 25 1370 25 
C 947 25 518 319 403 812 
C 429 806 480 793 506 793 
C 589 793 749 838 749 1036 
C 749 1209 627 1280 506 1280 
C 358 1280 262 1190 262 1011 
C 262 454 704 -128 1382 -128 
C 2042 -128 2669 441 2669 1267 
C 2669 2054 2170 2662 1549 2662 
C 1222 2662 947 2540 730 2304 
L 730 3750 
z
" transform="scale(0.015625)"/>
       </defs>
       <use xlink:href="#CMSY10-0" transform="scale(0.996264)"/>
       <use xlink:href="#CMR17-30" transform="translate(77.487468 0) scale(0.996264)"/>
       <use xlink:href="#CMMI12-3a" transform="translate(123.177945 0) scale(0.996264)"/>
       <use xlink:href="#CMR17-35" transform="translate(150.275122 0) scale(0.996264)"/>
      </g>
     </g>
    </g>
    <g id="xtick_2">
     <g id="line2d_2">
      <g>
       <use xlink:href="#m4e73fa4ed6" x="83.391917" y="105.280543" style="stroke: #000000; stroke-width: 0.5"/>
      </g>
     </g>
     <g id="text_2">
      <!-- $\mathdefault{0.0}$ -->
      <g transform="translate(77.504312 115.507193) scale(0.09 -0.09)">
       <use xlink:href="#CMR17-30" transform="scale(0.996264)"/>
       <use xlink:href="#CMMI12-3a" transform="translate(45.690477 0) scale(0.996264)"/>
       <use xlink:href="#CMR17-30" transform="translate(72.787654 0) scale(0.996264)"/>
      </g>
     </g>
    </g>
    <g id="xtick_3">
     <g id="line2d_3">
      <g>
       <use xlink:href="#m4e73fa4ed6" x="132.627211" y="105.280543" style="stroke: #000000; stroke-width: 0.5"/>
      </g>
     </g>
     <g id="text_3">
      <!-- $\mathdefault{0.5}$ -->
      <g transform="translate(126.739606 115.507193) scale(0.09 -0.09)">
       <use xlink:href="#CMR17-30" transform="scale(0.996264)"/>
       <use xlink:href="#CMMI12-3a" transform="translate(45.690477 0) scale(0.996264)"/>
       <use xlink:href="#CMR17-35" transform="translate(72.787654 0) scale(0.996264)"/>
      </g>
     </g>
    </g>
    <g id="xtick_4">
     <g id="line2d_4">
      <defs>
       <path id="m8b841d7232" d="M 0 0 
L 0 -2 
" style="stroke: #000000; stroke-width: 0.3"/>
      </defs>
      <g>
       <use xlink:href="#m8b841d7232" x="44.003681" y="105.280543" style="stroke: #000000; stroke-width: 0.3"/>
      </g>
     </g>
    </g>
    <g id="xtick_5">
     <g id="line2d_5">
      <g>
       <use xlink:href="#m8b841d7232" x="53.85074" y="105.280543" style="stroke: #000000; stroke-width: 0.3"/>
      </g>
     </g>
    </g>
    <g id="xtick_6">
     <g id="line2d_6">
      <g>
       <use xlink:href="#m8b841d7232" x="63.697799" y="105.280543" style="stroke: #000000; stroke-width: 0.3"/>
      </g>
     </g>
    </g>
    <g id="xtick_7">
     <g id="line2d_7">
      <g>
       <use xlink:href="#m8b841d7232" x="73.544858" y="105.280543" style="stroke: #000000; stroke-width: 0.3"/>
      </g>
     </g>
    </g>
    <g id="xtick_8">
     <g id="line2d_8">
      <g>
       <use xlink:href="#m8b841d7232" x="93.238976" y="105.280543" style="stroke: #000000; stroke-width: 0.3"/>
      </g>
     </g>
    </g>
    <g id="xtick_9">
     <g id="line2d_9">
      <g>
       <use xlink:href="#m8b841d7232" x="103.086034" y="105.280543" style="stroke: #000000; stroke-width: 0.3"/>
      </g>
     </g>
    </g>
    <g id="xtick_10">
     <g id="line2d_10">
      <g>
       <use xlink:href="#m8b841d7232" x="112.933093" y="105.280543" style="stroke: #000000; stroke-width: 0.3"/>
      </g>
     </g>
    </g>
    <g id="xtick_11">
     <g id="line2d_11">
      <g>
       <use xlink:href="#m8b841d7232" x="122.780152" y="105.280543" style="stroke: #000000; stroke-width: 0.3"/>
      </g>
     </g>
    </g>
    <g id="text_4">
     <!-- $\hat{\beta}_\mathrm{OLS}$ -->
     <g transform="translate(71.799448 131.752943) scale(0.11 -0.11)">
      <defs>
       <path id="CMR17-5e" d="M 1466 4416 
L 678 3532 
L 755 3456 
L 1466 4159 
L 2176 3456 
L 2253 3532 
L 1466 4416 
z
" transform="scale(0.015625)"/>
       <path id="CMMI12-c" d="M 3622 3739 
C 3622 4131 3296 4544 2714 4544 
C 1888 4544 1363 3510 1197 2830 
L 186 -1152 
C 173 -1204 211 -1216 243 -1216 
C 288 -1216 320 -1210 326 -1178 
L 774 592 
C 838 231 1190 -64 1568 -64 
C 2483 -64 3347 657 3347 1618 
C 3347 1863 3290 2108 3155 2314 
C 3078 2437 2982 2527 2880 2599 
C 3341 2823 3622 3222 3622 3739 
z
M 2509 2605 
C 2406 2571 2304 2560 2182 2560 
C 2093 2560 2010 2553 1894 2588 
C 1958 2627 2054 2639 2189 2639 
C 2304 2639 2419 2627 2509 2605 
z
M 3290 3798 
C 3290 3438 3117 2915 2701 2684 
C 2579 2723 2413 2752 2272 2752 
C 2138 2752 1754 2765 1754 2582 
C 1754 2411 2106 2430 2214 2430 
C 2381 2430 2528 2469 2682 2514 
C 2886 2347 2976 2127 2976 1805 
C 2976 1431 2874 1128 2752 850 
C 2541 373 2042 64 1600 64 
C 1133 64 890 438 890 876 
C 890 934 890 1018 915 1115 
L 1331 2784 
C 1542 3641 2080 4413 2701 4413 
C 3162 4413 3290 4086 3290 3798 
z
" transform="scale(0.015625)"/>
       <path id="CMR17-4f" d="M 4307 2166 
C 4307 3488 3366 4480 2304 4480 
C 1216 4480 294 3475 294 2166 
C 294 857 1229 -128 2298 -128 
C 3392 -128 4307 876 4307 2166 
z
M 2304 -13 
C 1574 -13 781 722 781 2250 
C 781 3771 1651 4364 2298 4364 
C 2976 4364 3821 3752 3821 2250 
C 3821 696 3008 -13 2304 -13 
z
" transform="scale(0.015625)"/>
       <path id="CMR17-4c" d="M 3469 1612 
L 3354 1612 
C 3302 981 3219 166 2125 166 
L 1530 166 
C 1274 166 1261 198 1261 414 
L 1261 3892 
C 1261 4121 1274 4185 1760 4185 
L 1901 4185 
L 1901 4352 
C 1638 4339 1331 4339 1069 4339 
C 870 4339 512 4339 326 4352 
L 326 4185 
C 768 4185 838 4185 838 3898 
L 838 453 
C 838 166 768 166 326 166 
L 326 0 
L 3315 0 
L 3469 1612 
z
" transform="scale(0.015625)"/>
       <path id="CMR17-53" d="M 2803 4351 
C 2803 4467 2797 4473 2758 4473 
C 2720 4473 2707 4447 2682 4390 
L 2490 3965 
C 2246 4320 1875 4480 1472 4480 
C 819 4480 294 3958 294 3301 
C 294 3101 339 2817 557 2546 
C 794 2250 1018 2198 1530 2063 
C 1722 2011 2042 1927 2106 1901 
C 2470 1747 2662 1360 2662 999 
C 2662 534 2336 38 1779 38 
C 1094 38 454 425 410 1328 
C 403 1431 397 1437 352 1437 
C 301 1437 294 1431 294 1302 
L 294 0 
C 294 -116 301 -122 339 -122 
C 384 -122 397 -90 486 109 
C 493 128 493 141 614 386 
C 934 -39 1472 -128 1779 -128 
C 2477 -128 2970 457 2970 1141 
C 2970 1476 2848 1734 2778 1850 
C 2509 2263 2221 2340 1914 2417 
C 1869 2437 1856 2437 1498 2527 
C 1152 2617 1005 2662 845 2836 
C 666 3036 602 3243 602 3449 
C 602 3868 934 4326 1478 4326 
C 2157 4326 2579 3842 2675 3036 
C 2694 2920 2701 2914 2746 2914 
C 2803 2914 2803 2933 2803 3043 
L 2803 4351 
z
" transform="scale(0.015625)"/>
      </defs>
      <use xlink:href="#CMR17-5e" transform="translate(15.58093 26.296621) scale(0.996264)"/>
      <use xlink:href="#CMMI12-c" transform="scale(0.996264)"/>
      <use xlink:href="#CMR17-4f" transform="translate(55.070737 -14.943915) scale(0.697382)"/>
      <use xlink:href="#CMR17-4c" transform="translate(105.270868 -14.943915) scale(0.697382)"/>
      <use xlink:href="#CMR17-53" transform="translate(145.437671 -14.943915) scale(0.697382)"/>
     </g>
    </g>
   </g>
   <g id="matplotlib.axis_2">
    <g id="ytick_1">
     <g id="line2d_12">
      <defs>
       <path id="m5fb0660633" d="M 0 0 
L 4 0 
" style="stroke: #000000; stroke-width: 0.3"/>
      </defs>
      <g>
       <use xlink:href="#m5fb0660633" x="34.156623" y="105.280543" style="stroke: #000000; stroke-width: 0.3"/>
      </g>
     </g>
     <g id="text_5">
      <!-- $\mathdefault{0}$ -->
      <g transform="translate(25.548932 108.393868) scale(0.09 -0.09)">
       <use xlink:href="#CMR17-30" transform="scale(0.996264)"/>
      </g>
     </g>
    </g>
    <g id="ytick_2">
     <g id="line2d_13">
      <g>
       <use xlink:href="#m5fb0660633" x="34.156623" y="76.361529" style="stroke: #000000; stroke-width: 0.3"/>
      </g>
     </g>
     <g id="text_6">
      <!-- $\mathdefault{5}$ -->
      <g transform="translate(25.548932 79.474854) scale(0.09 -0.09)">
       <use xlink:href="#CMR17-35" transform="scale(0.996264)"/>
      </g>
     </g>
    </g>
    <g id="ytick_3">
     <g id="line2d_14">
      <g>
       <use xlink:href="#m5fb0660633" x="34.156623" y="47.442516" style="stroke: #000000; stroke-width: 0.3"/>
      </g>
     </g>
     <g id="text_7">
      <!-- $\mathdefault{10}$ -->
      <g transform="translate(20.941241 50.555841) scale(0.09 -0.09)">
       <defs>
        <path id="CMR17-31" d="M 1702 4083 
C 1702 4217 1696 4224 1606 4224 
C 1357 3927 979 3833 621 3820 
C 602 3820 570 3820 563 3808 
C 557 3795 557 3782 557 3648 
C 755 3648 1088 3686 1344 3839 
L 1344 467 
C 1344 243 1331 166 781 166 
L 589 166 
L 589 0 
C 896 6 1216 12 1523 12 
C 1830 12 2150 6 2458 0 
L 2458 166 
L 2266 166 
C 1715 166 1702 236 1702 467 
L 1702 4083 
z
" transform="scale(0.015625)"/>
       </defs>
       <use xlink:href="#CMR17-31" transform="scale(0.996264)"/>
       <use xlink:href="#CMR17-30" transform="translate(45.690477 0) scale(0.996264)"/>
      </g>
     </g>
    </g>
    <g id="ytick_4">
     <g id="line2d_15">
      <defs>
       <path id="m2e149239b9" d="M 0 0 
L 2 0 
" style="stroke: #000000; stroke-width: 0.3"/>
      </defs>
      <g>
       <use xlink:href="#m2e149239b9" x="34.156623" y="99.49674" style="stroke: #000000; stroke-width: 0.3"/>
      </g>
     </g>
    </g>
    <g id="ytick_5">
     <g id="line2d_16">
      <g>
       <use xlink:href="#m2e149239b9" x="34.156623" y="93.712937" style="stroke: #000000; stroke-width: 0.3"/>
      </g>
     </g>
    </g>
    <g id="ytick_6">
     <g id="line2d_17">
      <g>
       <use xlink:href="#m2e149239b9" x="34.156623" y="87.929135" style="stroke: #000000; stroke-width: 0.3"/>
      </g>
     </g>
    </g>
    <g id="ytick_7">
     <g id="line2d_18">
      <g>
       <use xlink:href="#m2e149239b9" x="34.156623" y="82.145332" style="stroke: #000000; stroke-width: 0.3"/>
      </g>
     </g>
    </g>
    <g id="ytick_8">
     <g id="line2d_19">
      <g>
       <use xlink:href="#m2e149239b9" x="34.156623" y="70.577727" style="stroke: #000000; stroke-width: 0.3"/>
      </g>
     </g>
    </g>
    <g id="ytick_9">
     <g id="line2d_20">
      <g>
       <use xlink:href="#m2e149239b9" x="34.156623" y="64.793924" style="stroke: #000000; stroke-width: 0.3"/>
      </g>
     </g>
    </g>
    <g id="ytick_10">
     <g id="line2d_21">
      <g>
       <use xlink:href="#m2e149239b9" x="34.156623" y="59.010121" style="stroke: #000000; stroke-width: 0.3"/>
      </g>
     </g>
    </g>
    <g id="ytick_11">
     <g id="line2d_22">
      <g>
       <use xlink:href="#m2e149239b9" x="34.156623" y="53.226319" style="stroke: #000000; stroke-width: 0.3"/>
      </g>
     </g>
    </g>
    <g id="ytick_12">
     <g id="line2d_23">
      <g>
       <use xlink:href="#m2e149239b9" x="34.156623" y="41.658713" style="stroke: #000000; stroke-width: 0.3"/>
      </g>
     </g>
    </g>
    <g id="ytick_13">
     <g id="line2d_24">
      <g>
       <use xlink:href="#m2e149239b9" x="34.156623" y="35.874911" style="stroke: #000000; stroke-width: 0.3"/>
      </g>
     </g>
    </g>
    <g id="ytick_14">
     <g id="line2d_25">
      <g>
       <use xlink:href="#m2e149239b9" x="34.156623" y="30.091108" style="stroke: #000000; stroke-width: 0.3"/>
      </g>
     </g>
    </g>
    <g id="ytick_15">
     <g id="line2d_26">
      <g>
       <use xlink:href="#m2e149239b9" x="34.156623" y="24.307305" style="stroke: #000000; stroke-width: 0.3"/>
      </g>
     </g>
    </g>
    <g id="text_8">
     <!-- density -->
     <g transform="translate(14.810347 80.778202) rotate(-90) scale(0.11 -0.11)">
      <defs>
       <path id="CMR17-64" d="M 1869 4345 
L 1869 4179 
C 2246 4179 2304 4141 2304 3843 
L 2304 2371 
C 2278 2403 2016 2816 1498 2816 
C 845 2816 211 2228 211 1376 
C 211 529 806 -64 1434 -64 
C 1978 -64 2259 361 2291 406 
L 2291 -64 
L 3066 -13 
L 3066 154 
C 2688 154 2630 193 2630 503 
L 2630 4416 
L 1869 4345 
z
M 2291 762 
C 2291 568 2176 393 2029 264 
C 1811 70 1594 38 1472 38 
C 1286 38 621 135 621 1369 
C 621 2636 1363 2713 1530 2713 
C 1824 2713 2061 2545 2208 2313 
C 2291 2177 2291 2157 2291 2041 
L 2291 762 
z
" transform="scale(0.015625)"/>
       <path id="CMR17-65" d="M 2438 1503 
C 2464 1529 2464 1542 2464 1606 
C 2464 2251 2118 2816 1389 2816 
C 710 2816 173 2175 173 1394 
C 173 554 781 -64 1459 -64 
C 2176 -64 2458 619 2458 755 
C 2458 800 2419 800 2406 800 
C 2362 800 2355 787 2330 709 
C 2189 270 1837 51 1504 51 
C 1229 51 954 206 781 490 
C 582 819 582 1200 582 1503 
L 2438 1503 
z
M 589 1600 
C 634 2511 1126 2713 1382 2713 
C 1818 2713 2112 2308 2118 1600 
L 589 1600 
z
" transform="scale(0.015625)"/>
       <path id="CMR17-6e" d="M 2656 1954 
C 2656 2282 2592 2816 1837 2816 
C 1331 2816 1069 2424 973 2166 
L 966 2166 
L 966 2816 
L 211 2745 
L 211 2578 
C 589 2578 646 2540 646 2231 
L 646 443 
C 646 198 621 166 211 166 
L 211 0 
C 365 12 646 12 813 12 
C 979 12 1267 12 1421 0 
L 1421 166 
C 1011 166 986 192 986 443 
L 986 1678 
C 986 2269 1344 2713 1792 2713 
C 2266 2713 2317 2289 2317 1980 
L 2317 443 
C 2317 198 2291 166 1882 166 
L 1882 0 
C 2035 12 2317 12 2483 12 
C 2650 12 2938 12 3091 0 
L 3091 166 
C 2682 166 2656 192 2656 443 
L 2656 1954 
z
" transform="scale(0.015625)"/>
       <path id="CMR17-73" d="M 1978 2688 
C 1978 2803 1971 2809 1933 2809 
C 1907 2809 1901 2803 1824 2707 
C 1805 2681 1747 2617 1728 2592 
C 1523 2809 1235 2816 1126 2816 
C 416 2816 160 2444 160 2073 
C 160 1497 813 1363 998 1324 
C 1402 1241 1542 1216 1677 1100 
C 1760 1024 1901 883 1901 652 
C 1901 384 1747 38 1158 38 
C 602 38 403 460 288 1024 
C 269 1113 269 1120 218 1120 
C 166 1120 160 1113 160 985 
L 160 64 
C 160 -52 166 -58 205 -58 
C 237 -58 243 -52 275 0 
C 314 57 410 211 448 275 
C 576 102 800 -64 1158 -64 
C 1792 -64 2131 281 2131 780 
C 2131 1107 1958 1280 1875 1356 
C 1683 1555 1459 1600 1190 1651 
C 838 1728 390 1817 390 2208 
C 390 2374 480 2726 1126 2726 
C 1811 2726 1850 2086 1862 1881 
C 1869 1849 1901 1843 1920 1843 
C 1978 1843 1978 1862 1978 1971 
L 1978 2688 
z
" transform="scale(0.015625)"/>
       <path id="CMR17-69" d="M 992 3961 
C 992 4102 877 4224 730 4224 
C 589 4224 467 4108 467 3961 
C 467 3820 582 3699 730 3699 
C 870 3699 992 3814 992 3961 
z
M 243 2745 
L 243 2579 
C 602 2579 653 2540 653 2231 
L 653 443 
C 653 198 627 166 218 166 
L 218 0 
C 371 12 646 12 806 12 
C 960 12 1222 12 1370 0 
L 1370 166 
C 992 166 979 205 979 436 
L 979 2816 
L 243 2745 
z
" transform="scale(0.015625)"/>
       <path id="CMR17-74" d="M 966 2585 
L 1862 2585 
L 1862 2752 
L 966 2752 
L 966 3968 
L 851 3968 
C 838 3292 614 2700 70 2687 
L 70 2585 
L 627 2585 
L 627 778 
C 627 655 627 -64 1370 -64 
C 1747 -64 1965 308 1965 784 
L 1965 1151 
L 1850 1151 
L 1850 790 
C 1850 347 1677 51 1408 51 
C 1222 51 966 179 966 765 
L 966 2585 
z
" transform="scale(0.015625)"/>
       <path id="CMR17-79" d="M 2496 2183 
C 2656 2579 2944 2585 3034 2585 
L 3034 2752 
C 2912 2745 2752 2739 2630 2739 
C 2496 2739 2285 2739 2157 2752 
L 2157 2585 
C 2400 2566 2406 2384 2406 2332 
C 2406 2268 2394 2235 2362 2158 
L 1664 409 
L 902 2300 
C 870 2378 870 2423 870 2430 
C 870 2572 1018 2585 1171 2585 
L 1171 2752 
C 1018 2739 742 2739 582 2739 
C 410 2739 205 2739 64 2752 
L 64 2585 
C 410 2585 448 2553 531 2345 
L 1485 -31 
C 1197 -795 1030 -1242 627 -1242 
C 557 -1242 397 -1223 282 -1106 
C 429 -1093 493 -1002 493 -892 
C 493 -782 416 -685 288 -685 
C 147 -685 77 -782 77 -899 
C 77 -1158 339 -1344 627 -1344 
C 998 -1344 1229 -983 1357 -659 
L 2496 2183 
z
" transform="scale(0.015625)"/>
      </defs>
      <use xlink:href="#CMR17-64" transform="scale(0.996264)"/>
      <use xlink:href="#CMR17-65" transform="translate(50.89537 0) scale(0.996264)"/>
      <use xlink:href="#CMR17-6e" transform="translate(91.38103 0) scale(0.996264)"/>
      <use xlink:href="#CMR17-73" transform="translate(142.2764 0) scale(0.996264)"/>
      <use xlink:href="#CMR17-69" transform="translate(178.077738 0) scale(0.996264)"/>
      <use xlink:href="#CMR17-74" transform="translate(202.948796 0) scale(0.996264)"/>
      <use xlink:href="#CMR17-79" transform="translate(235.62711 0) scale(0.996264)"/>
     </g>
    </g>
   </g>
   <g id="line2d_27">
    <path d="M 34.156623 105.280543 
L 35.151275 105.280543 
L 36.145927 105.280543 
L 37.14058 105.280543 
L 38.135232 105.280543 
L 39.129885 105.280543 
L 40.124537 105.280542 
L 41.119189 105.280542 
L 42.113842 105.280541 
L 43.108494 105.28054 
L 44.103147 105.280536 
L 45.097799 105.280528 
L 46.092452 105.280511 
L 47.087104 105.280477 
L 48.081756 105.280409 
L 49.076409 105.280277 
L 50.071061 105.280025 
L 51.065714 105.279552 
L 52.060366 105.278684 
L 53.055018 105.277124 
L 54.049671 105.274376 
L 55.044323 105.269637 
L 56.038976 105.26163 
L 57.033628 105.248383 
L 58.02828 105.226922 
L 59.022933 105.192882 
L 60.017585 105.140022 
L 61.012238 105.059672 
L 62.00689 104.940138 
L 63.001542 104.766127 
L 63.996195 104.518298 
L 64.990847 104.173065 
L 65.9855 103.702797 
L 66.980152 103.076603 
L 67.974804 102.261817 
L 68.969457 101.226312 
L 69.964109 99.941611 
L 70.958762 98.386702 
L 71.953414 96.552254 
L 72.948066 94.444817 
L 73.942719 92.090449 
L 74.937371 89.537133 
L 75.932024 86.855406 
L 76.926676 84.136713 
L 77.921329 81.489274 
L 78.915981 79.031555 
L 79.910633 76.883801 
L 80.905286 75.158426 
L 81.899938 73.950321 
L 82.894591 73.328218 
L 83.889243 73.328218 
L 84.883895 73.950321 
L 85.878548 75.158426 
L 86.8732 76.883801 
L 87.867853 79.031555 
L 88.862505 81.489274 
L 89.857157 84.136713 
L 90.85181 86.855406 
L 91.846462 89.537133 
L 92.841115 92.090449 
L 93.835767 94.444817 
L 94.830419 96.552254 
L 95.825072 98.386702 
L 96.819724 99.941611 
L 97.814377 101.226312 
L 98.809029 102.261817 
L 99.803681 103.076603 
L 100.798334 103.702797 
L 101.792986 104.173065 
L 102.787639 104.518298 
L 103.782291 104.766127 
L 104.776943 104.940138 
L 105.771596 105.059672 
L 106.766248 105.140022 
L 107.760901 105.192882 
L 108.755553 105.226922 
L 109.750206 105.248383 
L 110.744858 105.26163 
L 111.73951 105.269637 
L 112.734163 105.274376 
L 113.728815 105.277124 
L 114.723468 105.278684 
L 115.71812 105.279552 
L 116.712772 105.280025 
L 117.707425 105.280277 
L 118.702077 105.280409 
L 119.69673 105.280477 
L 120.691382 105.280511 
L 121.686034 105.280528 
L 122.680687 105.280536 
L 123.675339 105.28054 
L 124.669992 105.280541 
L 125.664644 105.280542 
L 126.659296 105.280542 
L 127.653949 105.280543 
L 128.648601 105.280543 
L 129.643254 105.280543 
L 130.637906 105.280543 
L 131.632558 105.280543 
L 132.627211 105.280543 
" clip-path="url(#p21316a2ac4)" style="fill: none; stroke: #db4e4e; stroke-linecap: square"/>
   </g>
   <g id="patch_53">
    <path d="M 34.156623 105.280543 
L 34.156623 22.120543 
" style="fill: none; stroke: #000000; stroke-width: 0.3; stroke-linejoin: miter; stroke-linecap: square"/>
   </g>
   <g id="patch_54">
    <path d="M 132.627211 105.280543 
L 132.627211 22.120543 
" style="fill: none; stroke: #000000; stroke-width: 0.3; stroke-linejoin: miter; stroke-linecap: square"/>
   </g>
   <g id="patch_55">
    <path d="M 34.156623 105.280543 
L 132.627211 105.280543 
" style="fill: none; stroke: #000000; stroke-width: 0.3; stroke-linejoin: miter; stroke-linecap: square"/>
   </g>
   <g id="patch_56">
    <path d="M 34.156623 22.120543 
L 132.627211 22.120543 
" style="fill: none; stroke: #000000; stroke-width: 0.3; stroke-linejoin: miter; stroke-linecap: square"/>
   </g>
   <g id="text_9">
    <!-- white noise ($\sigma^2_\varepsilon = 0.42$) -->
    <g transform="translate(27.67667 16.120543) scale(0.11 -0.11)">
     <defs>
      <path id="CMR17-77" d="M 3725 2186 
C 3853 2566 4109 2579 4205 2585 
L 4205 2752 
C 4077 2745 3949 2739 3821 2739 
C 3699 2739 3424 2739 3315 2752 
L 3315 2585 
C 3514 2572 3622 2456 3622 2296 
C 3622 2251 3610 2193 3597 2148 
L 2995 398 
L 2342 2296 
C 2330 2341 2310 2392 2310 2418 
C 2310 2585 2528 2585 2630 2585 
L 2630 2752 
C 2483 2739 2214 2739 2061 2739 
C 1901 2739 1734 2739 1587 2752 
L 1587 2585 
C 1939 2585 1939 2572 2074 2167 
L 1485 443 
L 851 2302 
C 819 2386 819 2399 819 2418 
C 819 2585 1037 2585 1139 2585 
L 1139 2752 
C 986 2739 717 2739 557 2739 
C 416 2739 198 2739 64 2752 
L 64 2585 
C 346 2585 416 2566 486 2353 
L 1274 38 
C 1299 -45 1318 -64 1370 -64 
C 1414 -64 1440 -52 1472 44 
L 2131 1987 
L 2797 44 
C 2829 -52 2854 -64 2899 -64 
C 2950 -64 2970 -45 2995 38 
L 3725 2186 
z
" transform="scale(0.015625)"/>
      <path id="CMR17-68" d="M 2656 1954 
C 2656 2282 2592 2816 1837 2816 
C 1312 2816 1056 2392 979 2179 
L 973 2179 
L 973 4416 
L 211 4345 
L 211 4179 
C 589 4179 646 4141 646 3843 
L 646 443 
C 646 198 621 166 211 166 
L 211 0 
C 365 12 646 12 813 12 
C 979 12 1267 12 1421 0 
L 1421 166 
C 1011 166 986 192 986 443 
L 986 1678 
C 986 2269 1344 2713 1792 2713 
C 2266 2713 2317 2289 2317 1980 
L 2317 443 
C 2317 198 2291 166 1882 166 
L 1882 0 
C 2035 12 2317 12 2483 12 
C 2650 12 2938 12 3091 0 
L 3091 166 
C 2682 166 2656 192 2656 443 
L 2656 1954 
z
" transform="scale(0.015625)"/>
      <path id="CMR17-6f" d="M 2758 1356 
C 2758 2176 2163 2816 1466 2816 
C 768 2816 173 2176 173 1356 
C 173 550 768 -64 1466 -64 
C 2163 -64 2758 550 2758 1356 
z
M 1466 51 
C 1165 51 909 230 762 480 
C 602 768 582 1126 582 1408 
C 582 1676 595 2009 762 2297 
C 890 2508 1139 2713 1466 2713 
C 1754 2713 1997 2553 2150 2329 
C 2349 2028 2349 1606 2349 1408 
C 2349 1158 2336 774 2163 467 
C 1984 172 1709 51 1466 51 
z
" transform="scale(0.015625)"/>
      <path id="CMR17-28" d="M 1958 -1562 
C 1958 -1556 1958 -1543 1939 -1524 
C 1645 -1223 858 -403 858 1596 
C 858 3595 1632 4408 1946 4729 
C 1946 4735 1958 4748 1958 4767 
C 1958 4787 1939 4800 1914 4800 
C 1843 4800 1299 4325 986 3620 
C 666 2909 576 2218 576 1603 
C 576 1141 621 360 1005 -467 
C 1312 -1133 1837 -1600 1914 -1600 
C 1946 -1600 1958 -1588 1958 -1562 
z
" transform="scale(0.015625)"/>
      <path id="CMMI12-1b" d="M 3251 2406 
C 3334 2406 3546 2406 3546 2611 
C 3546 2752 3424 2752 3309 2752 
L 1894 2752 
C 934 2752 243 1685 243 932 
C 243 389 595 -64 1171 -64 
C 1926 -64 2752 746 2752 1704 
C 2752 1953 2694 2195 2541 2406 
L 3251 2406 
z
M 1178 64 
C 851 64 614 312 614 753 
C 614 1136 845 2406 1786 2406 
C 2061 2406 2368 2272 2368 1780 
C 2368 1557 2266 1021 2042 651 
C 1811 274 1466 64 1178 64 
z
" transform="scale(0.015625)"/>
      <path id="CMR17-32" d="M 2669 990 
L 2554 990 
C 2490 537 2438 460 2413 422 
C 2381 371 1920 371 1830 371 
L 602 371 
C 832 620 1280 1073 1824 1596 
C 2214 1966 2669 2400 2669 3033 
C 2669 3788 2067 4224 1395 4224 
C 691 4224 262 3603 262 3027 
C 262 2777 448 2745 525 2745 
C 589 2745 781 2783 781 3007 
C 781 3206 614 3264 525 3264 
C 486 3264 448 3257 422 3244 
C 544 3788 915 4057 1306 4057 
C 1862 4057 2227 3616 2227 3033 
C 2227 2477 1901 1998 1536 1583 
L 262 147 
L 262 0 
L 2515 0 
L 2669 990 
z
" transform="scale(0.015625)"/>
      <path id="CMMI12-22" d="M 890 1427 
C 1094 1344 1312 1344 1434 1344 
C 1600 1344 1933 1344 1933 1554 
C 1933 1683 1811 1728 1485 1728 
C 1325 1728 1133 1708 909 1612 
C 710 1708 634 1853 634 1991 
C 634 2379 1261 2604 1830 2604 
C 1939 2604 2170 2604 2438 2410 
C 2477 2385 2496 2366 2541 2366 
C 2618 2366 2701 2448 2701 2523 
C 2701 2636 2330 2880 1888 2880 
C 1171 2880 493 2454 493 1991 
C 493 1759 646 1612 755 1508 
C 384 1288 166 953 166 649 
C 166 221 563 -128 1178 -128 
C 2022 -128 2362 426 2362 513 
C 2362 544 2336 568 2304 568 
C 2272 568 2259 550 2234 513 
C 2163 395 1997 147 1235 147 
C 838 147 314 246 314 686 
C 314 897 474 1213 890 1427 
z
M 1088 1517 
C 1261 1599 1427 1599 1472 1599 
C 1651 1599 1683 1581 1786 1545 
C 1677 1472 1664 1472 1434 1472 
C 1318 1472 1216 1472 1088 1517 
z
" transform="scale(0.015625)"/>
      <path id="CMR17-3d" d="M 4115 2048 
C 4211 2048 4307 2048 4307 2156 
C 4307 2272 4198 2272 4090 2272 
L 512 2272 
C 403 2272 294 2272 294 2156 
C 294 2048 390 2048 486 2048 
L 4115 2048 
z
M 4090 927 
C 4198 927 4307 927 4307 1043 
C 4307 1152 4211 1152 4115 1152 
L 486 1152 
C 390 1152 294 1152 294 1043 
C 294 927 403 927 512 927 
L 4090 927 
z
" transform="scale(0.015625)"/>
      <path id="CMR17-34" d="M 2150 4147 
C 2150 4281 2144 4288 2029 4288 
L 128 1254 
L 128 1088 
L 1779 1088 
L 1779 460 
C 1779 230 1766 166 1318 166 
L 1197 166 
L 1197 0 
C 1402 12 1747 12 1965 12 
C 2182 12 2528 12 2733 0 
L 2733 166 
L 2611 166 
C 2163 166 2150 230 2150 460 
L 2150 1088 
L 2803 1088 
L 2803 1254 
L 2150 1254 
L 2150 4147 
z
M 1798 3723 
L 1798 1254 
L 256 1254 
L 1798 3723 
z
" transform="scale(0.015625)"/>
      <path id="CMR17-29" d="M 1683 1596 
C 1683 2057 1638 2839 1254 3665 
C 947 4332 422 4800 346 4800 
C 326 4800 301 4793 301 4761 
C 301 4748 307 4742 314 4729 
C 621 4408 1402 3595 1402 1603 
C 1402 -396 627 -1210 314 -1530 
C 307 -1543 301 -1549 301 -1562 
C 301 -1594 326 -1600 346 -1600 
C 416 -1600 960 -1127 1274 -422 
C 1594 289 1683 981 1683 1596 
z
" transform="scale(0.015625)"/>
     </defs>
     <use xlink:href="#CMR17-77" transform="scale(0.996264)"/>
     <use xlink:href="#CMR17-68" transform="translate(66.509881 0) scale(0.996264)"/>
     <use xlink:href="#CMR17-69" transform="translate(117.40525 0) scale(0.996264)"/>
     <use xlink:href="#CMR17-74" transform="translate(142.276309 0) scale(0.996264)"/>
     <use xlink:href="#CMR17-65" transform="translate(177.557077 0) scale(0.996264)"/>
     <use xlink:href="#CMR17-6e" transform="translate(248.118703 0) scale(0.996264)"/>
     <use xlink:href="#CMR17-6f" transform="translate(299.014073 0) scale(0.996264)"/>
     <use xlink:href="#CMR17-69" transform="translate(344.70455 0) scale(0.996264)"/>
     <use xlink:href="#CMR17-73" transform="translate(369.575609 0) scale(0.996264)"/>
     <use xlink:href="#CMR17-65" transform="translate(405.376946 0) scale(0.996264)"/>
     <use xlink:href="#CMR17-28" transform="translate(475.938573 0) scale(0.996264)"/>
     <use xlink:href="#CMMI12-1b" transform="translate(511.219341 0) scale(0.996264)"/>
     <use xlink:href="#CMR17-32" transform="translate(570.239395 36.153639) scale(0.697382)"/>
     <use xlink:href="#CMMI12-22" transform="translate(566.664802 -24.62935) scale(0.697382)"/>
     <use xlink:href="#CMR17-3d" transform="translate(630.394717 0) scale(0.996264)"/>
     <use xlink:href="#CMR17-30" transform="translate(729.783514 0) scale(0.996264)"/>
     <use xlink:href="#CMMI12-3a" transform="translate(775.473992 0) scale(0.996264)"/>
     <use xlink:href="#CMR17-34" transform="translate(802.571169 0) scale(0.996264)"/>
     <use xlink:href="#CMR17-32" transform="translate(848.261646 0) scale(0.996264)"/>
     <use xlink:href="#CMR17-29" transform="translate(893.952123 0) scale(0.996264)"/>
    </g>
   </g>
  </g>
  <g id="axes_2">
   <g id="patch_57">
    <path d="M 152.321329 105.280543 
L 250.791917 105.280543 
L 250.791917 22.120543 
L 152.321329 22.120543 
z
" style="fill: #ffffff"/>
   </g>
   <g id="patch_58">
    <path d="M 133.484929 105.280543 
L 136.049802 105.280543 
L 136.049802 105.258338 
L 133.484929 105.258338 
z
" clip-path="url(#p128202efec)" style="fill: #335791"/>
   </g>
   <g id="patch_59">
    <path d="M 136.049802 105.280543 
L 138.614675 105.280543 
L 138.614675 105.258338 
L 136.049802 105.258338 
z
" clip-path="url(#p128202efec)" style="fill: #335791"/>
   </g>
   <g id="patch_60">
    <path d="M 138.614675 105.280543 
L 141.179547 105.280543 
L 141.179547 105.280543 
L 138.614675 105.280543 
z
" clip-path="url(#p128202efec)" style="fill: #335791"/>
   </g>
   <g id="patch_61">
    <path d="M 141.179547 105.280543 
L 143.74442 105.280543 
L 143.74442 105.236132 
L 141.179547 105.236132 
z
" clip-path="url(#p128202efec)" style="fill: #335791"/>
   </g>
   <g id="patch_62">
    <path d="M 143.74442 105.280543 
L 146.309293 105.280543 
L 146.309293 105.236132 
L 143.74442 105.236132 
z
" clip-path="url(#p128202efec)" style="fill: #335791"/>
   </g>
   <g id="patch_63">
    <path d="M 146.309293 105.280543 
L 148.874165 105.280543 
L 148.874165 105.280543 
L 146.309293 105.280543 
z
" clip-path="url(#p128202efec)" style="fill: #335791"/>
   </g>
   <g id="patch_64">
    <path d="M 148.874165 105.280543 
L 151.439038 105.280543 
L 151.439038 105.191722 
L 148.874165 105.191722 
z
" clip-path="url(#p128202efec)" style="fill: #335791"/>
   </g>
   <g id="patch_65">
    <path d="M 151.439038 105.280543 
L 154.003911 105.280543 
L 154.003911 105.191722 
L 151.439038 105.191722 
z
" clip-path="url(#p128202efec)" style="fill: #335791"/>
   </g>
   <g id="patch_66">
    <path d="M 154.003911 105.280543 
L 156.568783 105.280543 
L 156.568783 105.080696 
L 154.003911 105.080696 
z
" clip-path="url(#p128202efec)" style="fill: #335791"/>
   </g>
   <g id="patch_67">
    <path d="M 156.568783 105.280543 
L 159.133656 105.280543 
L 159.133656 104.88085 
L 156.568783 104.88085 
z
" clip-path="url(#p128202efec)" style="fill: #335791"/>
   </g>
   <g id="patch_68">
    <path d="M 159.133656 105.280543 
L 161.698528 105.280543 
L 161.698528 104.814234 
L 159.133656 104.814234 
z
" clip-path="url(#p128202efec)" style="fill: #335791"/>
   </g>
   <g id="patch_69">
    <path d="M 161.698528 105.280543 
L 164.263401 105.280543 
L 164.263401 104.569977 
L 161.698528 104.569977 
z
" clip-path="url(#p128202efec)" style="fill: #335791"/>
   </g>
   <g id="patch_70">
    <path d="M 164.263401 105.280543 
L 166.828274 105.280543 
L 166.828274 104.059258 
L 164.263401 104.059258 
z
" clip-path="url(#p128202efec)" style="fill: #335791"/>
   </g>
   <g id="patch_71">
    <path d="M 166.828274 105.280543 
L 169.393146 105.280543 
L 169.393146 103.970437 
L 166.828274 103.970437 
z
" clip-path="url(#p128202efec)" style="fill: #335791"/>
   </g>
   <g id="patch_72">
    <path d="M 169.393146 105.280543 
L 171.958019 105.280543 
L 171.958019 103.326487 
L 169.393146 103.326487 
z
" clip-path="url(#p128202efec)" style="fill: #335791"/>
   </g>
   <g id="patch_73">
    <path d="M 171.958019 105.280543 
L 174.522892 105.280543 
L 174.522892 102.43828 
L 171.958019 102.43828 
z
" clip-path="url(#p128202efec)" style="fill: #335791"/>
   </g>
   <g id="patch_74">
    <path d="M 174.522892 105.280543 
L 177.087764 105.280543 
L 177.087764 101.439048 
L 174.522892 101.439048 
z
" clip-path="url(#p128202efec)" style="fill: #335791"/>
   </g>
   <g id="patch_75">
    <path d="M 177.087764 105.280543 
L 179.652637 105.280543 
L 179.652637 100.239968 
L 177.087764 100.239968 
z
" clip-path="url(#p128202efec)" style="fill: #335791"/>
   </g>
   <g id="patch_76">
    <path d="M 179.652637 105.280543 
L 182.21751 105.280543 
L 182.21751 99.17412 
L 179.652637 99.17412 
z
" clip-path="url(#p128202efec)" style="fill: #335791"/>
   </g>
   <g id="patch_77">
    <path d="M 182.21751 105.280543 
L 184.782382 105.280543 
L 184.782382 98.152682 
L 182.21751 98.152682 
z
" clip-path="url(#p128202efec)" style="fill: #335791"/>
   </g>
   <g id="patch_78">
    <path d="M 184.782382 105.280543 
L 187.347255 105.280543 
L 187.347255 96.664935 
L 184.782382 96.664935 
z
" clip-path="url(#p128202efec)" style="fill: #335791"/>
   </g>
   <g id="patch_79">
    <path d="M 187.347255 105.280543 
L 189.912128 105.280543 
L 189.912128 94.955137 
L 187.347255 94.955137 
z
" clip-path="url(#p128202efec)" style="fill: #335791"/>
   </g>
   <g id="patch_80">
    <path d="M 189.912128 105.280543 
L 192.477 105.280543 
L 192.477 93.600621 
L 189.912128 93.600621 
z
" clip-path="url(#p128202efec)" style="fill: #335791"/>
   </g>
   <g id="patch_81">
    <path d="M 192.477 105.280543 
L 195.041873 105.280543 
L 195.041873 92.401541 
L 192.477 92.401541 
z
" clip-path="url(#p128202efec)" style="fill: #335791"/>
   </g>
   <g id="patch_82">
    <path d="M 195.041873 105.280543 
L 197.606746 105.280543 
L 197.606746 90.625127 
L 195.041873 90.625127 
z
" clip-path="url(#p128202efec)" style="fill: #335791"/>
   </g>
   <g id="patch_83">
    <path d="M 197.606746 105.280543 
L 200.171618 105.280543 
L 200.171618 91.380103 
L 197.606746 91.380103 
z
" clip-path="url(#p128202efec)" style="fill: #335791"/>
   </g>
   <g id="patch_84">
    <path d="M 200.171618 105.280543 
L 202.736491 105.280543 
L 202.736491 91.024821 
L 200.171618 91.024821 
z
" clip-path="url(#p128202efec)" style="fill: #335791"/>
   </g>
   <g id="patch_85">
    <path d="M 202.736491 105.280543 
L 205.301364 105.280543 
L 205.301364 91.380103 
L 202.736491 91.380103 
z
" clip-path="url(#p128202efec)" style="fill: #335791"/>
   </g>
   <g id="patch_86">
    <path d="M 205.301364 105.280543 
L 207.866236 105.280543 
L 207.866236 91.646566 
L 205.301364 91.646566 
z
" clip-path="url(#p128202efec)" style="fill: #335791"/>
   </g>
   <g id="patch_87">
    <path d="M 207.866236 105.280543 
L 210.431109 105.280543 
L 210.431109 92.512567 
L 207.866236 92.512567 
z
" clip-path="url(#p128202efec)" style="fill: #335791"/>
   </g>
   <g id="patch_88">
    <path d="M 210.431109 105.280543 
L 212.995981 105.280543 
L 212.995981 93.200928 
L 210.431109 93.200928 
z
" clip-path="url(#p128202efec)" style="fill: #335791"/>
   </g>
   <g id="patch_89">
    <path d="M 212.995981 105.280543 
L 215.560854 105.280543 
L 215.560854 95.932164 
L 212.995981 95.932164 
z
" clip-path="url(#p128202efec)" style="fill: #335791"/>
   </g>
   <g id="patch_90">
    <path d="M 215.560854 105.280543 
L 218.125727 105.280543 
L 218.125727 96.109806 
L 215.560854 96.109806 
z
" clip-path="url(#p128202efec)" style="fill: #335791"/>
   </g>
   <g id="patch_91">
    <path d="M 218.125727 105.280543 
L 220.690599 105.280543 
L 220.690599 97.353295 
L 218.125727 97.353295 
z
" clip-path="url(#p128202efec)" style="fill: #335791"/>
   </g>
   <g id="patch_92">
    <path d="M 220.690599 105.280543 
L 223.255472 105.280543 
L 223.255472 99.462787 
L 220.690599 99.462787 
z
" clip-path="url(#p128202efec)" style="fill: #335791"/>
   </g>
   <g id="patch_93">
    <path d="M 223.255472 105.280543 
L 225.820345 105.280543 
L 225.820345 100.151147 
L 223.255472 100.151147 
z
" clip-path="url(#p128202efec)" style="fill: #335791"/>
   </g>
   <g id="patch_94">
    <path d="M 225.820345 105.280543 
L 228.385217 105.280543 
L 228.385217 101.616689 
L 225.820345 101.616689 
z
" clip-path="url(#p128202efec)" style="fill: #335791"/>
   </g>
   <g id="patch_95">
    <path d="M 228.385217 105.280543 
L 230.95009 105.280543 
L 230.95009 101.905356 
L 228.385217 101.905356 
z
" clip-path="url(#p128202efec)" style="fill: #335791"/>
   </g>
   <g id="patch_96">
    <path d="M 230.95009 105.280543 
L 233.514963 105.280543 
L 233.514963 103.08223 
L 230.95009 103.08223 
z
" clip-path="url(#p128202efec)" style="fill: #335791"/>
   </g>
   <g id="patch_97">
    <path d="M 233.514963 105.280543 
L 236.079835 105.280543 
L 236.079835 103.615155 
L 233.514963 103.615155 
z
" clip-path="url(#p128202efec)" style="fill: #335791"/>
   </g>
   <g id="patch_98">
    <path d="M 236.079835 105.280543 
L 238.644708 105.280543 
L 238.644708 104.037053 
L 236.079835 104.037053 
z
" clip-path="url(#p128202efec)" style="fill: #335791"/>
   </g>
   <g id="patch_99">
    <path d="M 238.644708 105.280543 
L 241.209581 105.280543 
L 241.209581 104.614387 
L 238.644708 104.614387 
z
" clip-path="url(#p128202efec)" style="fill: #335791"/>
   </g>
   <g id="patch_100">
    <path d="M 241.209581 105.280543 
L 243.774453 105.280543 
L 243.774453 104.747619 
L 241.209581 104.747619 
z
" clip-path="url(#p128202efec)" style="fill: #335791"/>
   </g>
   <g id="patch_101">
    <path d="M 243.774453 105.280543 
L 246.339326 105.280543 
L 246.339326 104.836439 
L 243.774453 104.836439 
z
" clip-path="url(#p128202efec)" style="fill: #335791"/>
   </g>
   <g id="patch_102">
    <path d="M 246.339326 105.280543 
L 248.904199 105.280543 
L 248.904199 105.058491 
L 246.339326 105.058491 
z
" clip-path="url(#p128202efec)" style="fill: #335791"/>
   </g>
   <g id="patch_103">
    <path d="M 248.904199 105.280543 
L 251.469071 105.280543 
L 251.469071 105.080696 
L 248.904199 105.080696 
z
" clip-path="url(#p128202efec)" style="fill: #335791"/>
   </g>
   <g id="patch_104">
    <path d="M 251.469071 105.280543 
L 254.033944 105.280543 
L 254.033944 105.147312 
L 251.469071 105.147312 
z
" clip-path="url(#p128202efec)" style="fill: #335791"/>
   </g>
   <g id="patch_105">
    <path d="M 254.033944 105.280543 
L 256.598817 105.280543 
L 256.598817 105.213927 
L 254.033944 105.213927 
z
" clip-path="url(#p128202efec)" style="fill: #335791"/>
   </g>
   <g id="patch_106">
    <path d="M 256.598817 105.280543 
L 259.163689 105.280543 
L 259.163689 105.280543 
L 256.598817 105.280543 
z
" clip-path="url(#p128202efec)" style="fill: #335791"/>
   </g>
   <g id="patch_107">
    <path d="M 259.163689 105.280543 
L 261.728562 105.280543 
L 261.728562 105.258338 
L 259.163689 105.258338 
z
" clip-path="url(#p128202efec)" style="fill: #335791"/>
   </g>
   <g id="matplotlib.axis_3">
    <g id="xtick_12">
     <g id="line2d_28">
      <g>
       <use xlink:href="#m4e73fa4ed6" x="152.321329" y="105.280543" style="stroke: #000000; stroke-width: 0.5"/>
      </g>
     </g>
     <g id="text_10">
      <!-- $\mathdefault{−0.5}$ -->
      <g transform="translate(142.849964 115.507193) scale(0.09 -0.09)">
       <use xlink:href="#CMSY10-0" transform="scale(0.996264)"/>
       <use xlink:href="#CMR17-30" transform="translate(77.487468 0) scale(0.996264)"/>
       <use xlink:href="#CMMI12-3a" transform="translate(123.177945 0) scale(0.996264)"/>
       <use xlink:href="#CMR17-35" transform="translate(150.275122 0) scale(0.996264)"/>
      </g>
     </g>
    </g>
    <g id="xtick_13">
     <g id="line2d_29">
      <g>
       <use xlink:href="#m4e73fa4ed6" x="201.556623" y="105.280543" style="stroke: #000000; stroke-width: 0.5"/>
      </g>
     </g>
     <g id="text_11">
      <!-- $\mathdefault{0.0}$ -->
      <g transform="translate(195.669018 115.507193) scale(0.09 -0.09)">
       <use xlink:href="#CMR17-30" transform="scale(0.996264)"/>
       <use xlink:href="#CMMI12-3a" transform="translate(45.690477 0) scale(0.996264)"/>
       <use xlink:href="#CMR17-30" transform="translate(72.787654 0) scale(0.996264)"/>
      </g>
     </g>
    </g>
    <g id="xtick_14">
     <g id="line2d_30">
      <g>
       <use xlink:href="#m4e73fa4ed6" x="250.791917" y="105.280543" style="stroke: #000000; stroke-width: 0.5"/>
      </g>
     </g>
     <g id="text_12">
      <!-- $\mathdefault{0.5}$ -->
      <g transform="translate(244.904312 115.507193) scale(0.09 -0.09)">
       <use xlink:href="#CMR17-30" transform="scale(0.996264)"/>
       <use xlink:href="#CMMI12-3a" transform="translate(45.690477 0) scale(0.996264)"/>
       <use xlink:href="#CMR17-35" transform="translate(72.787654 0) scale(0.996264)"/>
      </g>
     </g>
    </g>
    <g id="xtick_15">
     <g id="line2d_31">
      <g>
       <use xlink:href="#m8b841d7232" x="162.168387" y="105.280543" style="stroke: #000000; stroke-width: 0.3"/>
      </g>
     </g>
    </g>
    <g id="xtick_16">
     <g id="line2d_32">
      <g>
       <use xlink:href="#m8b841d7232" x="172.015446" y="105.280543" style="stroke: #000000; stroke-width: 0.3"/>
      </g>
     </g>
    </g>
    <g id="xtick_17">
     <g id="line2d_33">
      <g>
       <use xlink:href="#m8b841d7232" x="181.862505" y="105.280543" style="stroke: #000000; stroke-width: 0.3"/>
      </g>
     </g>
    </g>
    <g id="xtick_18">
     <g id="line2d_34">
      <g>
       <use xlink:href="#m8b841d7232" x="191.709564" y="105.280543" style="stroke: #000000; stroke-width: 0.3"/>
      </g>
     </g>
    </g>
    <g id="xtick_19">
     <g id="line2d_35">
      <g>
       <use xlink:href="#m8b841d7232" x="211.403681" y="105.280543" style="stroke: #000000; stroke-width: 0.3"/>
      </g>
     </g>
    </g>
    <g id="xtick_20">
     <g id="line2d_36">
      <g>
       <use xlink:href="#m8b841d7232" x="221.25074" y="105.280543" style="stroke: #000000; stroke-width: 0.3"/>
      </g>
     </g>
    </g>
    <g id="xtick_21">
     <g id="line2d_37">
      <g>
       <use xlink:href="#m8b841d7232" x="231.097799" y="105.280543" style="stroke: #000000; stroke-width: 0.3"/>
      </g>
     </g>
    </g>
    <g id="xtick_22">
     <g id="line2d_38">
      <g>
       <use xlink:href="#m8b841d7232" x="240.944858" y="105.280543" style="stroke: #000000; stroke-width: 0.3"/>
      </g>
     </g>
    </g>
    <g id="text_13">
     <!-- $\hat{\beta}_\mathrm{OLS}$ -->
     <g transform="translate(189.964154 131.752943) scale(0.11 -0.11)">
      <use xlink:href="#CMR17-5e" transform="translate(15.58093 26.296621) scale(0.996264)"/>
      <use xlink:href="#CMMI12-c" transform="scale(0.996264)"/>
      <use xlink:href="#CMR17-4f" transform="translate(55.070737 -14.943915) scale(0.697382)"/>
      <use xlink:href="#CMR17-4c" transform="translate(105.270868 -14.943915) scale(0.697382)"/>
      <use xlink:href="#CMR17-53" transform="translate(145.437671 -14.943915) scale(0.697382)"/>
     </g>
    </g>
   </g>
   <g id="matplotlib.axis_4">
    <g id="ytick_16">
     <g id="line2d_39">
      <g>
       <use xlink:href="#m5fb0660633" x="152.321329" y="105.280543" style="stroke: #000000; stroke-width: 0.3"/>
      </g>
     </g>
    </g>
    <g id="ytick_17">
     <g id="line2d_40">
      <g>
       <use xlink:href="#m5fb0660633" x="152.321329" y="76.361529" style="stroke: #000000; stroke-width: 0.3"/>
      </g>
     </g>
    </g>
    <g id="ytick_18">
     <g id="line2d_41">
      <g>
       <use xlink:href="#m5fb0660633" x="152.321329" y="47.442516" style="stroke: #000000; stroke-width: 0.3"/>
      </g>
     </g>
    </g>
    <g id="ytick_19">
     <g id="line2d_42">
      <g>
       <use xlink:href="#m2e149239b9" x="152.321329" y="99.49674" style="stroke: #000000; stroke-width: 0.3"/>
      </g>
     </g>
    </g>
    <g id="ytick_20">
     <g id="line2d_43">
      <g>
       <use xlink:href="#m2e149239b9" x="152.321329" y="93.712937" style="stroke: #000000; stroke-width: 0.3"/>
      </g>
     </g>
    </g>
    <g id="ytick_21">
     <g id="line2d_44">
      <g>
       <use xlink:href="#m2e149239b9" x="152.321329" y="87.929135" style="stroke: #000000; stroke-width: 0.3"/>
      </g>
     </g>
    </g>
    <g id="ytick_22">
     <g id="line2d_45">
      <g>
       <use xlink:href="#m2e149239b9" x="152.321329" y="82.145332" style="stroke: #000000; stroke-width: 0.3"/>
      </g>
     </g>
    </g>
    <g id="ytick_23">
     <g id="line2d_46">
      <g>
       <use xlink:href="#m2e149239b9" x="152.321329" y="70.577727" style="stroke: #000000; stroke-width: 0.3"/>
      </g>
     </g>
    </g>
    <g id="ytick_24">
     <g id="line2d_47">
      <g>
       <use xlink:href="#m2e149239b9" x="152.321329" y="64.793924" style="stroke: #000000; stroke-width: 0.3"/>
      </g>
     </g>
    </g>
    <g id="ytick_25">
     <g id="line2d_48">
      <g>
       <use xlink:href="#m2e149239b9" x="152.321329" y="59.010121" style="stroke: #000000; stroke-width: 0.3"/>
      </g>
     </g>
    </g>
    <g id="ytick_26">
     <g id="line2d_49">
      <g>
       <use xlink:href="#m2e149239b9" x="152.321329" y="53.226319" style="stroke: #000000; stroke-width: 0.3"/>
      </g>
     </g>
    </g>
    <g id="ytick_27">
     <g id="line2d_50">
      <g>
       <use xlink:href="#m2e149239b9" x="152.321329" y="41.658713" style="stroke: #000000; stroke-width: 0.3"/>
      </g>
     </g>
    </g>
    <g id="ytick_28">
     <g id="line2d_51">
      <g>
       <use xlink:href="#m2e149239b9" x="152.321329" y="35.874911" style="stroke: #000000; stroke-width: 0.3"/>
      </g>
     </g>
    </g>
    <g id="ytick_29">
     <g id="line2d_52">
      <g>
       <use xlink:href="#m2e149239b9" x="152.321329" y="30.091108" style="stroke: #000000; stroke-width: 0.3"/>
      </g>
     </g>
    </g>
    <g id="ytick_30">
     <g id="line2d_53">
      <g>
       <use xlink:href="#m2e149239b9" x="152.321329" y="24.307305" style="stroke: #000000; stroke-width: 0.3"/>
      </g>
     </g>
    </g>
   </g>
   <g id="line2d_54">
    <path d="M 152.321329 105.280543 
L 153.315981 105.280543 
L 154.310633 105.280543 
L 155.305286 105.280543 
L 156.299938 105.280543 
L 157.294591 105.280543 
L 158.289243 105.280542 
L 159.283895 105.280542 
L 160.278548 105.280541 
L 161.2732 105.28054 
L 162.267853 105.280536 
L 163.262505 105.280528 
L 164.257157 105.280511 
L 165.25181 105.280477 
L 166.246462 105.280409 
L 167.241115 105.280277 
L 168.235767 105.280025 
L 169.230419 105.279552 
L 170.225072 105.278684 
L 171.219724 105.277124 
L 172.214377 105.274376 
L 173.209029 105.269637 
L 174.203681 105.26163 
L 175.198334 105.248383 
L 176.192986 105.226922 
L 177.187639 105.192882 
L 178.182291 105.140022 
L 179.176943 105.059672 
L 180.171596 104.940138 
L 181.166248 104.766127 
L 182.160901 104.518298 
L 183.155553 104.173065 
L 184.150206 103.702797 
L 185.144858 103.076603 
L 186.13951 102.261817 
L 187.134163 101.226312 
L 188.128815 99.941611 
L 189.123468 98.386702 
L 190.11812 96.552254 
L 191.112772 94.444817 
L 192.107425 92.090449 
L 193.102077 89.537133 
L 194.09673 86.855406 
L 195.091382 84.136713 
L 196.086034 81.489274 
L 197.080687 79.031555 
L 198.075339 76.883801 
L 199.069992 75.158426 
L 200.064644 73.950321 
L 201.059296 73.328218 
L 202.053949 73.328218 
L 203.048601 73.950321 
L 204.043254 75.158426 
L 205.037906 76.883801 
L 206.032558 79.031555 
L 207.027211 81.489274 
L 208.021863 84.136713 
L 209.016516 86.855406 
L 210.011168 89.537133 
L 211.00582 92.090449 
L 212.000473 94.444817 
L 212.995125 96.552254 
L 213.989778 98.386702 
L 214.98443 99.941611 
L 215.979083 101.226312 
L 216.973735 102.261817 
L 217.968387 103.076603 
L 218.96304 103.702797 
L 219.957692 104.173065 
L 220.952345 104.518298 
L 221.946997 104.766127 
L 222.941649 104.940138 
L 223.936302 105.059672 
L 224.930954 105.140022 
L 225.925607 105.192882 
L 226.920259 105.226922 
L 227.914911 105.248383 
L 228.909564 105.26163 
L 229.904216 105.269637 
L 230.898869 105.274376 
L 231.893521 105.277124 
L 232.888173 105.278684 
L 233.882826 105.279552 
L 234.877478 105.280025 
L 235.872131 105.280277 
L 236.866783 105.280409 
L 237.861435 105.280477 
L 238.856088 105.280511 
L 239.85074 105.280528 
L 240.845393 105.280536 
L 241.840045 105.28054 
L 242.834697 105.280541 
L 243.82935 105.280542 
L 244.824002 105.280542 
L 245.818655 105.280543 
L 246.813307 105.280543 
L 247.80796 105.280543 
L 248.802612 105.280543 
L 249.797264 105.280543 
L 250.791917 105.280543 
" clip-path="url(#p128202efec)" style="fill: none; stroke: #db4e4e; stroke-linecap: square"/>
   </g>
   <g id="patch_108">
    <path d="M 152.321329 105.280543 
L 152.321329 22.120543 
" style="fill: none; stroke: #000000; stroke-width: 0.3; stroke-linejoin: miter; stroke-linecap: square"/>
   </g>
   <g id="patch_109">
    <path d="M 250.791917 105.280543 
L 250.791917 22.120543 
" style="fill: none; stroke: #000000; stroke-width: 0.3; stroke-linejoin: miter; stroke-linecap: square"/>
   </g>
   <g id="patch_110">
    <path d="M 152.321329 105.280543 
L 250.791917 105.280543 
" style="fill: none; stroke: #000000; stroke-width: 0.3; stroke-linejoin: miter; stroke-linecap: square"/>
   </g>
   <g id="patch_111">
    <path d="M 152.321329 22.120543 
L 250.791917 22.120543 
" style="fill: none; stroke: #000000; stroke-width: 0.3; stroke-linejoin: miter; stroke-linecap: square"/>
   </g>
   <g id="text_14">
    <!-- $\rho = 0.7$ ($\sigma_\varepsilon = 0.42$) -->
    <g transform="translate(155.83049 16.120543) scale(0.11 -0.11)">
     <defs>
      <path id="CMMI12-1a" d="M 198 -1085 
C 192 -1116 179 -1154 179 -1191 
C 179 -1287 256 -1351 352 -1351 
C 448 -1351 538 -1287 576 -1198 
C 602 -1141 781 -390 986 389 
C 1114 70 1350 -64 1600 -64 
C 2323 -64 3142 830 3142 1794 
C 3142 2477 2726 2816 2285 2816 
C 1722 2816 1037 2234 826 1385 
L 198 -1085 
z
M 1594 64 
C 1158 64 1050 568 1050 645 
C 1050 683 1210 1289 1229 1385 
C 1555 2656 2182 2687 2278 2687 
C 2566 2687 2726 2426 2726 2049 
C 2726 1724 2554 1091 2445 823 
C 2253 383 1920 64 1594 64 
z
" transform="scale(0.015625)"/>
      <path id="CMR17-37" d="M 2886 3955 
L 2886 4096 
L 1382 4096 
C 634 4096 621 4166 595 4288 
L 480 4288 
L 294 3104 
L 410 3104 
C 429 3226 474 3552 550 3673 
C 589 3724 1062 3724 1171 3724 
L 2579 3724 
L 1869 2670 
C 1395 1961 1069 1003 1069 166 
C 1069 89 1069 -128 1299 -128 
C 1530 -128 1530 89 1530 172 
L 1530 466 
C 1530 1514 1709 2204 2003 2644 
L 2886 3955 
z
" transform="scale(0.015625)"/>
     </defs>
     <use xlink:href="#CMMI12-1a" transform="scale(0.996264)"/>
     <use xlink:href="#CMR17-3d" transform="translate(77.988382 0) scale(0.996264)"/>
     <use xlink:href="#CMR17-30" transform="translate(177.377179 0) scale(0.996264)"/>
     <use xlink:href="#CMMI12-3a" transform="translate(223.067656 0) scale(0.996264)"/>
     <use xlink:href="#CMR17-37" transform="translate(250.164833 0) scale(0.996264)"/>
     <use xlink:href="#CMR17-28" transform="translate(325.931276 0) scale(0.996264)"/>
     <use xlink:href="#CMMI12-1b" transform="translate(361.212044 0) scale(0.996264)"/>
     <use xlink:href="#CMMI12-22" transform="translate(416.657505 -14.943915) scale(0.697382)"/>
     <use xlink:href="#CMR17-3d" transform="translate(476.784628 0) scale(0.996264)"/>
     <use xlink:href="#CMR17-30" transform="translate(576.173426 0) scale(0.996264)"/>
     <use xlink:href="#CMMI12-3a" transform="translate(621.863903 0) scale(0.996264)"/>
     <use xlink:href="#CMR17-34" transform="translate(648.96108 0) scale(0.996264)"/>
     <use xlink:href="#CMR17-32" transform="translate(694.651557 0) scale(0.996264)"/>
     <use xlink:href="#CMR17-29" transform="translate(740.342034 0) scale(0.996264)"/>
    </g>
   </g>
  </g>
  <g id="axes_3">
   <g id="patch_112">
    <path d="M 270.486034 105.280543 
L 368.956623 105.280543 
L 368.956623 22.120543 
L 270.486034 22.120543 
z
" style="fill: #ffffff"/>
   </g>
   <g id="patch_113">
    <path d="M 308.83159 105.280543 
L 309.296854 105.280543 
L 309.296854 105.03572 
L 308.83159 105.03572 
z
" clip-path="url(#pa637f162e6)" style="fill: #335791"/>
   </g>
   <g id="patch_114">
    <path d="M 309.296854 105.280543 
L 309.762118 105.280543 
L 309.762118 104.790898 
L 309.296854 104.790898 
z
" clip-path="url(#pa637f162e6)" style="fill: #335791"/>
   </g>
   <g id="patch_115">
    <path d="M 309.762118 105.280543 
L 310.227381 105.280543 
L 310.227381 104.546076 
L 309.762118 104.546076 
z
" clip-path="url(#pa637f162e6)" style="fill: #335791"/>
   </g>
   <g id="patch_116">
    <path d="M 310.227381 105.280543 
L 310.692645 105.280543 
L 310.692645 104.668487 
L 310.227381 104.668487 
z
" clip-path="url(#pa637f162e6)" style="fill: #335791"/>
   </g>
   <g id="patch_117">
    <path d="M 310.692645 105.280543 
L 311.157908 105.280543 
L 311.157908 103.444376 
L 310.692645 103.444376 
z
" clip-path="url(#pa637f162e6)" style="fill: #335791"/>
   </g>
   <g id="patch_118">
    <path d="M 311.157908 105.280543 
L 311.623172 105.280543 
L 311.623172 103.077142 
L 311.157908 103.077142 
z
" clip-path="url(#pa637f162e6)" style="fill: #335791"/>
   </g>
   <g id="patch_119">
    <path d="M 311.623172 105.280543 
L 312.088436 105.280543 
L 312.088436 102.83232 
L 311.623172 102.83232 
z
" clip-path="url(#pa637f162e6)" style="fill: #335791"/>
   </g>
   <g id="patch_120">
    <path d="M 312.088436 105.280543 
L 312.553699 105.280543 
L 312.553699 101.363387 
L 312.088436 101.363387 
z
" clip-path="url(#pa637f162e6)" style="fill: #335791"/>
   </g>
   <g id="patch_121">
    <path d="M 312.553699 105.280543 
L 313.018963 105.280543 
L 313.018963 99.282397 
L 312.553699 99.282397 
z
" clip-path="url(#pa637f162e6)" style="fill: #335791"/>
   </g>
   <g id="patch_122">
    <path d="M 313.018963 105.280543 
L 313.484227 105.280543 
L 313.484227 98.180697 
L 313.018963 98.180697 
z
" clip-path="url(#pa637f162e6)" style="fill: #335791"/>
   </g>
   <g id="patch_123">
    <path d="M 313.484227 105.280543 
L 313.94949 105.280543 
L 313.94949 96.099708 
L 313.484227 96.099708 
z
" clip-path="url(#pa637f162e6)" style="fill: #335791"/>
   </g>
   <g id="patch_124">
    <path d="M 313.94949 105.280543 
L 314.414754 105.280543 
L 314.414754 90.101563 
L 313.94949 90.101563 
z
" clip-path="url(#pa637f162e6)" style="fill: #335791"/>
   </g>
   <g id="patch_125">
    <path d="M 314.414754 105.280543 
L 314.880017 105.280543 
L 314.880017 84.593062 
L 314.414754 84.593062 
z
" clip-path="url(#pa637f162e6)" style="fill: #335791"/>
   </g>
   <g id="patch_126">
    <path d="M 314.880017 105.280543 
L 315.345281 105.280543 
L 315.345281 80.186261 
L 314.880017 80.186261 
z
" clip-path="url(#pa637f162e6)" style="fill: #335791"/>
   </g>
   <g id="patch_127">
    <path d="M 315.345281 105.280543 
L 315.810545 105.280543 
L 315.810545 79.941439 
L 315.345281 79.941439 
z
" clip-path="url(#pa637f162e6)" style="fill: #335791"/>
   </g>
   <g id="patch_128">
    <path d="M 315.810545 105.280543 
L 316.275808 105.280543 
L 316.275808 70.760605 
L 315.810545 70.760605 
z
" clip-path="url(#pa637f162e6)" style="fill: #335791"/>
   </g>
   <g id="patch_129">
    <path d="M 316.275808 105.280543 
L 316.741072 105.280543 
L 316.741072 65.007282 
L 316.275808 65.007282 
z
" clip-path="url(#pa637f162e6)" style="fill: #335791"/>
   </g>
   <g id="patch_130">
    <path d="M 316.741072 105.280543 
L 317.206336 105.280543 
L 317.206336 53.010991 
L 316.741072 53.010991 
z
" clip-path="url(#pa637f162e6)" style="fill: #335791"/>
   </g>
   <g id="patch_131">
    <path d="M 317.206336 105.280543 
L 317.671599 105.280543 
L 317.671599 55.09198 
L 317.206336 55.09198 
z
" clip-path="url(#pa637f162e6)" style="fill: #335791"/>
   </g>
   <g id="patch_132">
    <path d="M 317.671599 105.280543 
L 318.136863 105.280543 
L 318.136863 40.402645 
L 317.671599 40.402645 
z
" clip-path="url(#pa637f162e6)" style="fill: #335791"/>
   </g>
   <g id="patch_133">
    <path d="M 318.136863 105.280543 
L 318.602126 105.280543 
L 318.602126 38.933711 
L 318.136863 38.933711 
z
" clip-path="url(#pa637f162e6)" style="fill: #335791"/>
   </g>
   <g id="patch_134">
    <path d="M 318.602126 105.280543 
L 319.06739 105.280543 
L 319.06739 26.080543 
L 318.602126 26.080543 
z
" clip-path="url(#pa637f162e6)" style="fill: #335791"/>
   </g>
   <g id="patch_135">
    <path d="M 319.06739 105.280543 
L 319.532654 105.280543 
L 319.532654 38.8113 
L 319.06739 38.8113 
z
" clip-path="url(#pa637f162e6)" style="fill: #335791"/>
   </g>
   <g id="patch_136">
    <path d="M 319.532654 105.280543 
L 319.997917 105.280543 
L 319.997917 27.059832 
L 319.532654 27.059832 
z
" clip-path="url(#pa637f162e6)" style="fill: #335791"/>
   </g>
   <g id="patch_137">
    <path d="M 319.997917 105.280543 
L 320.463181 105.280543 
L 320.463181 31.344221 
L 319.997917 31.344221 
z
" clip-path="url(#pa637f162e6)" style="fill: #335791"/>
   </g>
   <g id="patch_138">
    <path d="M 320.463181 105.280543 
L 320.928445 105.280543 
L 320.928445 29.997699 
L 320.463181 29.997699 
z
" clip-path="url(#pa637f162e6)" style="fill: #335791"/>
   </g>
   <g id="patch_139">
    <path d="M 320.928445 105.280543 
L 321.393708 105.280543 
L 321.393708 38.076833 
L 320.928445 38.076833 
z
" clip-path="url(#pa637f162e6)" style="fill: #335791"/>
   </g>
   <g id="patch_140">
    <path d="M 321.393708 105.280543 
L 321.858972 105.280543 
L 321.858972 41.137111 
L 321.393708 41.137111 
z
" clip-path="url(#pa637f162e6)" style="fill: #335791"/>
   </g>
   <g id="patch_141">
    <path d="M 321.858972 105.280543 
L 322.324235 105.280543 
L 322.324235 50.807591 
L 321.858972 50.807591 
z
" clip-path="url(#pa637f162e6)" style="fill: #335791"/>
   </g>
   <g id="patch_142">
    <path d="M 322.324235 105.280543 
L 322.789499 105.280543 
L 322.789499 59.498781 
L 322.324235 59.498781 
z
" clip-path="url(#pa637f162e6)" style="fill: #335791"/>
   </g>
   <g id="patch_143">
    <path d="M 322.789499 105.280543 
L 323.254763 105.280543 
L 323.254763 67.088271 
L 322.789499 67.088271 
z
" clip-path="url(#pa637f162e6)" style="fill: #335791"/>
   </g>
   <g id="patch_144">
    <path d="M 323.254763 105.280543 
L 323.720026 105.280543 
L 323.720026 71.495071 
L 323.254763 71.495071 
z
" clip-path="url(#pa637f162e6)" style="fill: #335791"/>
   </g>
   <g id="patch_145">
    <path d="M 323.720026 105.280543 
L 324.18529 105.280543 
L 324.18529 75.779461 
L 323.720026 75.779461 
z
" clip-path="url(#pa637f162e6)" style="fill: #335791"/>
   </g>
   <g id="patch_146">
    <path d="M 324.18529 105.280543 
L 324.650554 105.280543 
L 324.650554 81.900017 
L 324.18529 81.900017 
z
" clip-path="url(#pa637f162e6)" style="fill: #335791"/>
   </g>
   <g id="patch_147">
    <path d="M 324.650554 105.280543 
L 325.115817 105.280543 
L 325.115817 89.122274 
L 324.650554 89.122274 
z
" clip-path="url(#pa637f162e6)" style="fill: #335791"/>
   </g>
   <g id="patch_148">
    <path d="M 325.115817 105.280543 
L 325.581081 105.280543 
L 325.581081 92.304963 
L 325.115817 92.304963 
z
" clip-path="url(#pa637f162e6)" style="fill: #335791"/>
   </g>
   <g id="patch_149">
    <path d="M 325.581081 105.280543 
L 326.046344 105.280543 
L 326.046344 94.875597 
L 325.581081 94.875597 
z
" clip-path="url(#pa637f162e6)" style="fill: #335791"/>
   </g>
   <g id="patch_150">
    <path d="M 326.046344 105.280543 
L 326.511608 105.280543 
L 326.511608 97.323819 
L 326.046344 97.323819 
z
" clip-path="url(#pa637f162e6)" style="fill: #335791"/>
   </g>
   <g id="patch_151">
    <path d="M 326.511608 105.280543 
L 326.976872 105.280543 
L 326.976872 99.404809 
L 326.511608 99.404809 
z
" clip-path="url(#pa637f162e6)" style="fill: #335791"/>
   </g>
   <g id="patch_152">
    <path d="M 326.976872 105.280543 
L 327.442135 105.280543 
L 327.442135 100.873742 
L 326.976872 100.873742 
z
" clip-path="url(#pa637f162e6)" style="fill: #335791"/>
   </g>
   <g id="patch_153">
    <path d="M 327.442135 105.280543 
L 327.907399 105.280543 
L 327.907399 103.444376 
L 327.442135 103.444376 
z
" clip-path="url(#pa637f162e6)" style="fill: #335791"/>
   </g>
   <g id="patch_154">
    <path d="M 327.907399 105.280543 
L 328.372663 105.280543 
L 328.372663 102.954731 
L 327.907399 102.954731 
z
" clip-path="url(#pa637f162e6)" style="fill: #335791"/>
   </g>
   <g id="patch_155">
    <path d="M 328.372663 105.280543 
L 328.837926 105.280543 
L 328.837926 104.178843 
L 328.372663 104.178843 
z
" clip-path="url(#pa637f162e6)" style="fill: #335791"/>
   </g>
   <g id="patch_156">
    <path d="M 328.837926 105.280543 
L 329.30319 105.280543 
L 329.30319 104.790898 
L 328.837926 104.790898 
z
" clip-path="url(#pa637f162e6)" style="fill: #335791"/>
   </g>
   <g id="patch_157">
    <path d="M 329.30319 105.280543 
L 329.768453 105.280543 
L 329.768453 104.913309 
L 329.30319 104.913309 
z
" clip-path="url(#pa637f162e6)" style="fill: #335791"/>
   </g>
   <g id="patch_158">
    <path d="M 329.768453 105.280543 
L 330.233717 105.280543 
L 330.233717 104.790898 
L 329.768453 104.790898 
z
" clip-path="url(#pa637f162e6)" style="fill: #335791"/>
   </g>
   <g id="patch_159">
    <path d="M 330.233717 105.280543 
L 330.698981 105.280543 
L 330.698981 105.03572 
L 330.233717 105.03572 
z
" clip-path="url(#pa637f162e6)" style="fill: #335791"/>
   </g>
   <g id="patch_160">
    <path d="M 330.698981 105.280543 
L 331.164244 105.280543 
L 331.164244 105.280543 
L 330.698981 105.280543 
z
" clip-path="url(#pa637f162e6)" style="fill: #335791"/>
   </g>
   <g id="patch_161">
    <path d="M 331.164244 105.280543 
L 331.629508 105.280543 
L 331.629508 105.03572 
L 331.164244 105.03572 
z
" clip-path="url(#pa637f162e6)" style="fill: #335791"/>
   </g>
   <g id="patch_162">
    <path d="M 331.629508 105.280543 
L 332.094772 105.280543 
L 332.094772 105.158132 
L 331.629508 105.158132 
z
" clip-path="url(#pa637f162e6)" style="fill: #335791"/>
   </g>
   <g id="matplotlib.axis_5">
    <g id="xtick_23">
     <g id="line2d_55">
      <g>
       <use xlink:href="#m4e73fa4ed6" x="270.486034" y="105.280543" style="stroke: #000000; stroke-width: 0.5"/>
      </g>
     </g>
     <g id="text_15">
      <!-- $\mathdefault{−0.5}$ -->
      <g transform="translate(261.01467 115.507193) scale(0.09 -0.09)">
       <use xlink:href="#CMSY10-0" transform="scale(0.996264)"/>
       <use xlink:href="#CMR17-30" transform="translate(77.487468 0) scale(0.996264)"/>
       <use xlink:href="#CMMI12-3a" transform="translate(123.177945 0) scale(0.996264)"/>
       <use xlink:href="#CMR17-35" transform="translate(150.275122 0) scale(0.996264)"/>
      </g>
     </g>
    </g>
    <g id="xtick_24">
     <g id="line2d_56">
      <g>
       <use xlink:href="#m4e73fa4ed6" x="319.721329" y="105.280543" style="stroke: #000000; stroke-width: 0.5"/>
      </g>
     </g>
     <g id="text_16">
      <!-- $\mathdefault{0.0}$ -->
      <g transform="translate(313.833724 115.507193) scale(0.09 -0.09)">
       <use xlink:href="#CMR17-30" transform="scale(0.996264)"/>
       <use xlink:href="#CMMI12-3a" transform="translate(45.690477 0) scale(0.996264)"/>
       <use xlink:href="#CMR17-30" transform="translate(72.787654 0) scale(0.996264)"/>
      </g>
     </g>
    </g>
    <g id="xtick_25">
     <g id="line2d_57">
      <g>
       <use xlink:href="#m4e73fa4ed6" x="368.956623" y="105.280543" style="stroke: #000000; stroke-width: 0.5"/>
      </g>
     </g>
     <g id="text_17">
      <!-- $\mathdefault{0.5}$ -->
      <g transform="translate(363.069018 115.507193) scale(0.09 -0.09)">
       <use xlink:href="#CMR17-30" transform="scale(0.996264)"/>
       <use xlink:href="#CMMI12-3a" transform="translate(45.690477 0) scale(0.996264)"/>
       <use xlink:href="#CMR17-35" transform="translate(72.787654 0) scale(0.996264)"/>
      </g>
     </g>
    </g>
    <g id="xtick_26">
     <g id="line2d_58">
      <g>
       <use xlink:href="#m8b841d7232" x="280.333093" y="105.280543" style="stroke: #000000; stroke-width: 0.3"/>
      </g>
     </g>
    </g>
    <g id="xtick_27">
     <g id="line2d_59">
      <g>
       <use xlink:href="#m8b841d7232" x="290.180152" y="105.280543" style="stroke: #000000; stroke-width: 0.3"/>
      </g>
     </g>
    </g>
    <g id="xtick_28">
     <g id="line2d_60">
      <g>
       <use xlink:href="#m8b841d7232" x="300.027211" y="105.280543" style="stroke: #000000; stroke-width: 0.3"/>
      </g>
     </g>
    </g>
    <g id="xtick_29">
     <g id="line2d_61">
      <g>
       <use xlink:href="#m8b841d7232" x="309.87427" y="105.280543" style="stroke: #000000; stroke-width: 0.3"/>
      </g>
     </g>
    </g>
    <g id="xtick_30">
     <g id="line2d_62">
      <g>
       <use xlink:href="#m8b841d7232" x="329.568387" y="105.280543" style="stroke: #000000; stroke-width: 0.3"/>
      </g>
     </g>
    </g>
    <g id="xtick_31">
     <g id="line2d_63">
      <g>
       <use xlink:href="#m8b841d7232" x="339.415446" y="105.280543" style="stroke: #000000; stroke-width: 0.3"/>
      </g>
     </g>
    </g>
    <g id="xtick_32">
     <g id="line2d_64">
      <g>
       <use xlink:href="#m8b841d7232" x="349.262505" y="105.280543" style="stroke: #000000; stroke-width: 0.3"/>
      </g>
     </g>
    </g>
    <g id="xtick_33">
     <g id="line2d_65">
      <g>
       <use xlink:href="#m8b841d7232" x="359.109564" y="105.280543" style="stroke: #000000; stroke-width: 0.3"/>
      </g>
     </g>
    </g>
    <g id="text_18">
     <!-- $\hat{\beta}_\mathrm{OLS}$ -->
     <g transform="translate(308.12886 131.752943) scale(0.11 -0.11)">
      <use xlink:href="#CMR17-5e" transform="translate(15.58093 26.296621) scale(0.996264)"/>
      <use xlink:href="#CMMI12-c" transform="scale(0.996264)"/>
      <use xlink:href="#CMR17-4f" transform="translate(55.070737 -14.943915) scale(0.697382)"/>
      <use xlink:href="#CMR17-4c" transform="translate(105.270868 -14.943915) scale(0.697382)"/>
      <use xlink:href="#CMR17-53" transform="translate(145.437671 -14.943915) scale(0.697382)"/>
     </g>
    </g>
   </g>
   <g id="matplotlib.axis_6">
    <g id="ytick_31">
     <g id="line2d_66">
      <g>
       <use xlink:href="#m5fb0660633" x="270.486034" y="105.280543" style="stroke: #000000; stroke-width: 0.3"/>
      </g>
     </g>
    </g>
    <g id="ytick_32">
     <g id="line2d_67">
      <g>
       <use xlink:href="#m5fb0660633" x="270.486034" y="76.361529" style="stroke: #000000; stroke-width: 0.3"/>
      </g>
     </g>
    </g>
    <g id="ytick_33">
     <g id="line2d_68">
      <g>
       <use xlink:href="#m5fb0660633" x="270.486034" y="47.442516" style="stroke: #000000; stroke-width: 0.3"/>
      </g>
     </g>
    </g>
    <g id="ytick_34">
     <g id="line2d_69">
      <g>
       <use xlink:href="#m2e149239b9" x="270.486034" y="99.49674" style="stroke: #000000; stroke-width: 0.3"/>
      </g>
     </g>
    </g>
    <g id="ytick_35">
     <g id="line2d_70">
      <g>
       <use xlink:href="#m2e149239b9" x="270.486034" y="93.712937" style="stroke: #000000; stroke-width: 0.3"/>
      </g>
     </g>
    </g>
    <g id="ytick_36">
     <g id="line2d_71">
      <g>
       <use xlink:href="#m2e149239b9" x="270.486034" y="87.929135" style="stroke: #000000; stroke-width: 0.3"/>
      </g>
     </g>
    </g>
    <g id="ytick_37">
     <g id="line2d_72">
      <g>
       <use xlink:href="#m2e149239b9" x="270.486034" y="82.145332" style="stroke: #000000; stroke-width: 0.3"/>
      </g>
     </g>
    </g>
    <g id="ytick_38">
     <g id="line2d_73">
      <g>
       <use xlink:href="#m2e149239b9" x="270.486034" y="70.577727" style="stroke: #000000; stroke-width: 0.3"/>
      </g>
     </g>
    </g>
    <g id="ytick_39">
     <g id="line2d_74">
      <g>
       <use xlink:href="#m2e149239b9" x="270.486034" y="64.793924" style="stroke: #000000; stroke-width: 0.3"/>
      </g>
     </g>
    </g>
    <g id="ytick_40">
     <g id="line2d_75">
      <g>
       <use xlink:href="#m2e149239b9" x="270.486034" y="59.010121" style="stroke: #000000; stroke-width: 0.3"/>
      </g>
     </g>
    </g>
    <g id="ytick_41">
     <g id="line2d_76">
      <g>
       <use xlink:href="#m2e149239b9" x="270.486034" y="53.226319" style="stroke: #000000; stroke-width: 0.3"/>
      </g>
     </g>
    </g>
    <g id="ytick_42">
     <g id="line2d_77">
      <g>
       <use xlink:href="#m2e149239b9" x="270.486034" y="41.658713" style="stroke: #000000; stroke-width: 0.3"/>
      </g>
     </g>
    </g>
    <g id="ytick_43">
     <g id="line2d_78">
      <g>
       <use xlink:href="#m2e149239b9" x="270.486034" y="35.874911" style="stroke: #000000; stroke-width: 0.3"/>
      </g>
     </g>
    </g>
    <g id="ytick_44">
     <g id="line2d_79">
      <g>
       <use xlink:href="#m2e149239b9" x="270.486034" y="30.091108" style="stroke: #000000; stroke-width: 0.3"/>
      </g>
     </g>
    </g>
    <g id="ytick_45">
     <g id="line2d_80">
      <g>
       <use xlink:href="#m2e149239b9" x="270.486034" y="24.307305" style="stroke: #000000; stroke-width: 0.3"/>
      </g>
     </g>
    </g>
   </g>
   <g id="line2d_81">
    <path d="M 270.486034 105.280543 
L 271.480687 105.280543 
L 272.475339 105.280543 
L 273.469992 105.280543 
L 274.464644 105.280543 
L 275.459296 105.280543 
L 276.453949 105.280542 
L 277.448601 105.280542 
L 278.443254 105.280541 
L 279.437906 105.28054 
L 280.432558 105.280536 
L 281.427211 105.280528 
L 282.421863 105.280511 
L 283.416516 105.280477 
L 284.411168 105.280409 
L 285.40582 105.280277 
L 286.400473 105.280025 
L 287.395125 105.279552 
L 288.389778 105.278684 
L 289.38443 105.277124 
L 290.379083 105.274376 
L 291.373735 105.269637 
L 292.368387 105.26163 
L 293.36304 105.248383 
L 294.357692 105.226922 
L 295.352345 105.192882 
L 296.346997 105.140022 
L 297.341649 105.059672 
L 298.336302 104.940138 
L 299.330954 104.766127 
L 300.325607 104.518298 
L 301.320259 104.173065 
L 302.314911 103.702797 
L 303.309564 103.076603 
L 304.304216 102.261817 
L 305.298869 101.226312 
L 306.293521 99.941611 
L 307.288173 98.386702 
L 308.282826 96.552254 
L 309.277478 94.444817 
L 310.272131 92.090449 
L 311.266783 89.537133 
L 312.261435 86.855406 
L 313.256088 84.136713 
L 314.25074 81.489274 
L 315.245393 79.031555 
L 316.240045 76.883801 
L 317.234697 75.158426 
L 318.22935 73.950321 
L 319.224002 73.328218 
L 320.218655 73.328218 
L 321.213307 73.950321 
L 322.20796 75.158426 
L 323.202612 76.883801 
L 324.197264 79.031555 
L 325.191917 81.489274 
L 326.186569 84.136713 
L 327.181222 86.855406 
L 328.175874 89.537133 
L 329.170526 92.090449 
L 330.165179 94.444817 
L 331.159831 96.552254 
L 332.154484 98.386702 
L 333.149136 99.941611 
L 334.143788 101.226312 
L 335.138441 102.261817 
L 336.133093 103.076603 
L 337.127746 103.702797 
L 338.122398 104.173065 
L 339.11705 104.518298 
L 340.111703 104.766127 
L 341.106355 104.940138 
L 342.101008 105.059672 
L 343.09566 105.140022 
L 344.090312 105.192882 
L 345.084965 105.226922 
L 346.079617 105.248383 
L 347.07427 105.26163 
L 348.068922 105.269637 
L 349.063574 105.274376 
L 350.058227 105.277124 
L 351.052879 105.278684 
L 352.047532 105.279552 
L 353.042184 105.280025 
L 354.036837 105.280277 
L 355.031489 105.280409 
L 356.026141 105.280477 
L 357.020794 105.280511 
L 358.015446 105.280528 
L 359.010099 105.280536 
L 360.004751 105.28054 
L 360.999403 105.280541 
L 361.994056 105.280542 
L 362.988708 105.280542 
L 363.983361 105.280543 
L 364.978013 105.280543 
L 365.972665 105.280543 
L 366.967318 105.280543 
L 367.96197 105.280543 
L 368.956623 105.280543 
" clip-path="url(#pa637f162e6)" style="fill: none; stroke: #db4e4e; stroke-linecap: square"/>
   </g>
   <g id="patch_163">
    <path d="M 270.486034 105.280543 
L 270.486034 22.120543 
" style="fill: none; stroke: #000000; stroke-width: 0.3; stroke-linejoin: miter; stroke-linecap: square"/>
   </g>
   <g id="patch_164">
    <path d="M 368.956623 105.280543 
L 368.956623 22.120543 
" style="fill: none; stroke: #000000; stroke-width: 0.3; stroke-linejoin: miter; stroke-linecap: square"/>
   </g>
   <g id="patch_165">
    <path d="M 270.486034 105.280543 
L 368.956623 105.280543 
" style="fill: none; stroke: #000000; stroke-width: 0.3; stroke-linejoin: miter; stroke-linecap: square"/>
   </g>
   <g id="patch_166">
    <path d="M 270.486034 22.120543 
L 368.956623 22.120543 
" style="fill: none; stroke: #000000; stroke-width: 0.3; stroke-linejoin: miter; stroke-linecap: square"/>
   </g>
   <g id="text_19">
    <!-- $\rho = -0.7$ ($\sigma_\varepsilon = 0.42$) -->
    <g transform="translate(269.733391 16.120543) scale(0.11 -0.11)">
     <use xlink:href="#CMMI12-1a" transform="scale(0.996264)"/>
     <use xlink:href="#CMR17-3d" transform="translate(77.988382 0) scale(0.996264)"/>
     <use xlink:href="#CMSY10-0" transform="translate(177.377179 0) scale(0.996264)"/>
     <use xlink:href="#CMR17-30" transform="translate(254.864646 0) scale(0.996264)"/>
     <use xlink:href="#CMMI12-3a" transform="translate(300.555123 0) scale(0.996264)"/>
     <use xlink:href="#CMR17-37" transform="translate(327.652301 0) scale(0.996264)"/>
     <use xlink:href="#CMR17-28" transform="translate(403.418744 0) scale(0.996264)"/>
     <use xlink:href="#CMMI12-1b" transform="translate(438.699512 0) scale(0.996264)"/>
     <use xlink:href="#CMMI12-22" transform="translate(494.144973 -14.943915) scale(0.697382)"/>
     <use xlink:href="#CMR17-3d" transform="translate(554.272096 0) scale(0.996264)"/>
     <use xlink:href="#CMR17-30" transform="translate(653.660893 0) scale(0.996264)"/>
     <use xlink:href="#CMMI12-3a" transform="translate(699.35137 0) scale(0.996264)"/>
     <use xlink:href="#CMR17-34" transform="translate(726.448547 0) scale(0.996264)"/>
     <use xlink:href="#CMR17-32" transform="translate(772.139025 0) scale(0.996264)"/>
     <use xlink:href="#CMR17-29" transform="translate(817.829502 0) scale(0.996264)"/>
    </g>
   </g>
  </g>
 </g>
 <defs>
  <clipPath id="p21316a2ac4">
   <rect x="34.156623" y="22.120543" width="98.470588" height="83.16"/>
  </clipPath>
  <clipPath id="p128202efec">
   <rect x="152.321329" y="22.120543" width="98.470588" height="83.16"/>
  </clipPath>
  <clipPath id="pa637f162e6">
   <rect x="270.486034" y="22.120543" width="98.470588" height="83.16"/>
  </clipPath>
 </defs>
</svg>
