<?xml version="1.0" encoding="utf-8" standalone="no"?>
<!DOCTYPE svg PUBLIC "-//W3C//DTD SVG 1.1//EN"
  "http://www.w3.org/Graphics/SVG/1.1/DTD/svg11.dtd">
<svg xmlns:xlink="http://www.w3.org/1999/xlink" width="384.076785pt" height="138.191896pt" viewBox="0 0 384.076785 138.191896" xmlns="http://www.w3.org/2000/svg" version="1.1">
 <metadata>
  <rdf:RDF xmlns:dc="http://purl.org/dc/elements/1.1/" xmlns:cc="http://creativecommons.org/ns#" xmlns:rdf="http://www.w3.org/1999/02/22-rdf-syntax-ns#">
   <cc:Work>
    <dc:type rdf:resource="http://purl.org/dc/dcmitype/StillImage"/>
    <dc:date>2025-02-23T18:03:40.257188</dc:date>
    <dc:format>image/svg+xml</dc:format>
    <dc:creator>
     <cc:Agent>
      <dc:title>Matplotlib v3.10.0, https://matplotlib.org/</dc:title>
     </cc:Agent>
    </dc:creator>
   </cc:Work>
  </rdf:RDF>
 </metadata>
 <defs>
  <style type="text/css">*{stroke-linejoin: round; stroke-linecap: butt}</style>
 </defs>
 <g id="figure_1">
  <g id="patch_1">
   <path d="M 0 138.191896 
L 384.076785 138.191896 
L 384.076785 0 
L 0 0 
z
" style="fill: #ffffff"/>
  </g>
  <g id="axes_1">
   <g id="patch_2">
    <path d="M 41.324141 105.280543 
L 139.79473 105.280543 
L 139.79473 22.120543 
L 41.324141 22.120543 
z
" style="fill: #ffffff"/>
   </g>
   <g id="patch_3">
    <path d="M 47.323478 105.280543 
L 49.101106 105.280543 
L 49.101106 105.0727 
L 47.323478 105.0727 
z
" clip-path="url(#p690e4b6633)" style="fill: #335791"/>
   </g>
   <g id="patch_4">
    <path d="M 49.101106 105.280543 
L 50.878733 105.280543 
L 50.878733 105.280543 
L 49.101106 105.280543 
z
" clip-path="url(#p690e4b6633)" style="fill: #335791"/>
   </g>
   <g id="patch_5">
    <path d="M 50.878733 105.280543 
L 52.656361 105.280543 
L 52.656361 105.228582 
L 50.878733 105.228582 
z
" clip-path="url(#p690e4b6633)" style="fill: #335791"/>
   </g>
   <g id="patch_6">
    <path d="M 52.656361 105.280543 
L 54.433988 105.280543 
L 54.433988 105.124661 
L 52.656361 105.124661 
z
" clip-path="url(#p690e4b6633)" style="fill: #335791"/>
   </g>
   <g id="patch_7">
    <path d="M 54.433988 105.280543 
L 56.211616 105.280543 
L 56.211616 105.0727 
L 54.433988 105.0727 
z
" clip-path="url(#p690e4b6633)" style="fill: #335791"/>
   </g>
   <g id="patch_8">
    <path d="M 56.211616 105.280543 
L 57.989244 105.280543 
L 57.989244 104.864858 
L 56.211616 104.864858 
z
" clip-path="url(#p690e4b6633)" style="fill: #335791"/>
   </g>
   <g id="patch_9">
    <path d="M 57.989244 105.280543 
L 59.766871 105.280543 
L 59.766871 104.449174 
L 57.989244 104.449174 
z
" clip-path="url(#p690e4b6633)" style="fill: #335791"/>
   </g>
   <g id="patch_10">
    <path d="M 59.766871 105.280543 
L 61.544499 105.280543 
L 61.544499 104.397213 
L 59.766871 104.397213 
z
" clip-path="url(#p690e4b6633)" style="fill: #335791"/>
   </g>
   <g id="patch_11">
    <path d="M 61.544499 105.280543 
L 63.322126 105.280543 
L 63.322126 104.189371 
L 61.544499 104.189371 
z
" clip-path="url(#p690e4b6633)" style="fill: #335791"/>
   </g>
   <g id="patch_12">
    <path d="M 63.322126 105.280543 
L 65.099754 105.280543 
L 65.099754 103.254081 
L 63.322126 103.254081 
z
" clip-path="url(#p690e4b6633)" style="fill: #335791"/>
   </g>
   <g id="patch_13">
    <path d="M 65.099754 105.280543 
L 66.877381 105.280543 
L 66.877381 102.162909 
L 65.099754 102.162909 
z
" clip-path="url(#p690e4b6633)" style="fill: #335791"/>
   </g>
   <g id="patch_14">
    <path d="M 66.877381 105.280543 
L 68.655009 105.280543 
L 68.655009 101.071737 
L 66.877381 101.071737 
z
" clip-path="url(#p690e4b6633)" style="fill: #335791"/>
   </g>
   <g id="patch_15">
    <path d="M 68.655009 105.280543 
L 70.432636 105.280543 
L 70.432636 100.39625 
L 68.655009 100.39625 
z
" clip-path="url(#p690e4b6633)" style="fill: #335791"/>
   </g>
   <g id="patch_16">
    <path d="M 70.432636 105.280543 
L 72.210264 105.280543 
L 72.210264 97.018814 
L 70.432636 97.018814 
z
" clip-path="url(#p690e4b6633)" style="fill: #335791"/>
   </g>
   <g id="patch_17">
    <path d="M 72.210264 105.280543 
L 73.987891 105.280543 
L 73.987891 96.499208 
L 72.210264 96.499208 
z
" clip-path="url(#p690e4b6633)" style="fill: #335791"/>
   </g>
   <g id="patch_18">
    <path d="M 73.987891 105.280543 
L 75.765519 105.280543 
L 75.765519 91.97864 
L 73.987891 91.97864 
z
" clip-path="url(#p690e4b6633)" style="fill: #335791"/>
   </g>
   <g id="patch_19">
    <path d="M 75.765519 105.280543 
L 77.543146 105.280543 
L 77.543146 88.861006 
L 75.765519 88.861006 
z
" clip-path="url(#p690e4b6633)" style="fill: #335791"/>
   </g>
   <g id="patch_20">
    <path d="M 77.543146 105.280543 
L 79.320774 105.280543 
L 79.320774 86.47082 
L 77.543146 86.47082 
z
" clip-path="url(#p690e4b6633)" style="fill: #335791"/>
   </g>
   <g id="patch_21">
    <path d="M 79.320774 105.280543 
L 81.098401 105.280543 
L 81.098401 83.768871 
L 79.320774 83.768871 
z
" clip-path="url(#p690e4b6633)" style="fill: #335791"/>
   </g>
   <g id="patch_22">
    <path d="M 81.098401 105.280543 
L 82.876029 105.280543 
L 82.876029 80.85908 
L 81.098401 80.85908 
z
" clip-path="url(#p690e4b6633)" style="fill: #335791"/>
   </g>
   <g id="patch_23">
    <path d="M 82.876029 105.280543 
L 84.653656 105.280543 
L 84.653656 77.481644 
L 82.876029 77.481644 
z
" clip-path="url(#p690e4b6633)" style="fill: #335791"/>
   </g>
   <g id="patch_24">
    <path d="M 84.653656 105.280543 
L 86.431284 105.280543 
L 86.431284 75.091458 
L 84.653656 75.091458 
z
" clip-path="url(#p690e4b6633)" style="fill: #335791"/>
   </g>
   <g id="patch_25">
    <path d="M 86.431284 105.280543 
L 88.208911 105.280543 
L 88.208911 72.909114 
L 86.431284 72.909114 
z
" clip-path="url(#p690e4b6633)" style="fill: #335791"/>
   </g>
   <g id="patch_26">
    <path d="M 88.208911 105.280543 
L 89.986539 105.280543 
L 89.986539 72.961075 
L 88.208911 72.961075 
z
" clip-path="url(#p690e4b6633)" style="fill: #335791"/>
   </g>
   <g id="patch_27">
    <path d="M 89.986539 105.280543 
L 91.764166 105.280543 
L 91.764166 69.479718 
L 89.986539 69.479718 
z
" clip-path="url(#p690e4b6633)" style="fill: #335791"/>
   </g>
   <g id="patch_28">
    <path d="M 91.764166 105.280543 
L 93.541794 105.280543 
L 93.541794 73.584602 
L 91.764166 73.584602 
z
" clip-path="url(#p690e4b6633)" style="fill: #335791"/>
   </g>
   <g id="patch_29">
    <path d="M 93.541794 105.280543 
L 95.319421 105.280543 
L 95.319421 75.195379 
L 93.541794 75.195379 
z
" clip-path="url(#p690e4b6633)" style="fill: #335791"/>
   </g>
   <g id="patch_30">
    <path d="M 95.319421 105.280543 
L 97.097049 105.280543 
L 97.097049 77.013999 
L 95.319421 77.013999 
z
" clip-path="url(#p690e4b6633)" style="fill: #335791"/>
   </g>
   <g id="patch_31">
    <path d="M 97.097049 105.280543 
L 98.874676 105.280543 
L 98.874676 78.001249 
L 97.097049 78.001249 
z
" clip-path="url(#p690e4b6633)" style="fill: #335791"/>
   </g>
   <g id="patch_32">
    <path d="M 98.874676 105.280543 
L 100.652304 105.280543 
L 100.652304 81.534567 
L 98.874676 81.534567 
z
" clip-path="url(#p690e4b6633)" style="fill: #335791"/>
   </g>
   <g id="patch_33">
    <path d="M 100.652304 105.280543 
L 102.429931 105.280543 
L 102.429931 85.899254 
L 100.652304 85.899254 
z
" clip-path="url(#p690e4b6633)" style="fill: #335791"/>
   </g>
   <g id="patch_34">
    <path d="M 102.429931 105.280543 
L 104.207559 105.280543 
L 104.207559 88.809046 
L 102.429931 88.809046 
z
" clip-path="url(#p690e4b6633)" style="fill: #335791"/>
   </g>
   <g id="patch_35">
    <path d="M 104.207559 105.280543 
L 105.985186 105.280543 
L 105.985186 92.654127 
L 104.207559 92.654127 
z
" clip-path="url(#p690e4b6633)" style="fill: #335791"/>
   </g>
   <g id="patch_36">
    <path d="M 105.985186 105.280543 
L 107.762814 105.280543 
L 107.762814 95.096273 
L 105.985186 95.096273 
z
" clip-path="url(#p690e4b6633)" style="fill: #335791"/>
   </g>
   <g id="patch_37">
    <path d="M 107.762814 105.280543 
L 109.540441 105.280543 
L 109.540441 96.135484 
L 107.762814 96.135484 
z
" clip-path="url(#p690e4b6633)" style="fill: #335791"/>
   </g>
   <g id="patch_38">
    <path d="M 109.540441 105.280543 
L 111.318069 105.280543 
L 111.318069 98.629591 
L 109.540441 98.629591 
z
" clip-path="url(#p690e4b6633)" style="fill: #335791"/>
   </g>
   <g id="patch_39">
    <path d="M 111.318069 105.280543 
L 113.095696 105.280543 
L 113.095696 99.980566 
L 111.318069 99.980566 
z
" clip-path="url(#p690e4b6633)" style="fill: #335791"/>
   </g>
   <g id="patch_40">
    <path d="M 113.095696 105.280543 
L 114.873324 105.280543 
L 114.873324 101.955067 
L 113.095696 101.955067 
z
" clip-path="url(#p690e4b6633)" style="fill: #335791"/>
   </g>
   <g id="patch_41">
    <path d="M 114.873324 105.280543 
L 116.650951 105.280543 
L 116.650951 102.578594 
L 114.873324 102.578594 
z
" clip-path="url(#p690e4b6633)" style="fill: #335791"/>
   </g>
   <g id="patch_42">
    <path d="M 116.650951 105.280543 
L 118.428579 105.280543 
L 118.428579 103.617805 
L 116.650951 103.617805 
z
" clip-path="url(#p690e4b6633)" style="fill: #335791"/>
   </g>
   <g id="patch_43">
    <path d="M 118.428579 105.280543 
L 120.206206 105.280543 
L 120.206206 104.189371 
L 118.428579 104.189371 
z
" clip-path="url(#p690e4b6633)" style="fill: #335791"/>
   </g>
   <g id="patch_44">
    <path d="M 120.206206 105.280543 
L 121.983834 105.280543 
L 121.983834 104.657016 
L 120.206206 104.657016 
z
" clip-path="url(#p690e4b6633)" style="fill: #335791"/>
   </g>
   <g id="patch_45">
    <path d="M 121.983834 105.280543 
L 123.761461 105.280543 
L 123.761461 104.864858 
L 121.983834 104.864858 
z
" clip-path="url(#p690e4b6633)" style="fill: #335791"/>
   </g>
   <g id="patch_46">
    <path d="M 123.761461 105.280543 
L 125.539089 105.280543 
L 125.539089 104.968779 
L 123.761461 104.968779 
z
" clip-path="url(#p690e4b6633)" style="fill: #335791"/>
   </g>
   <g id="patch_47">
    <path d="M 125.539089 105.280543 
L 127.316716 105.280543 
L 127.316716 105.124661 
L 125.539089 105.124661 
z
" clip-path="url(#p690e4b6633)" style="fill: #335791"/>
   </g>
   <g id="patch_48">
    <path d="M 127.316716 105.280543 
L 129.094344 105.280543 
L 129.094344 105.124661 
L 127.316716 105.124661 
z
" clip-path="url(#p690e4b6633)" style="fill: #335791"/>
   </g>
   <g id="patch_49">
    <path d="M 129.094344 105.280543 
L 130.871971 105.280543 
L 130.871971 105.0727 
L 129.094344 105.0727 
z
" clip-path="url(#p690e4b6633)" style="fill: #335791"/>
   </g>
   <g id="patch_50">
    <path d="M 130.871971 105.280543 
L 132.649599 105.280543 
L 132.649599 105.280543 
L 130.871971 105.280543 
z
" clip-path="url(#p690e4b6633)" style="fill: #335791"/>
   </g>
   <g id="patch_51">
    <path d="M 132.649599 105.280543 
L 134.427226 105.280543 
L 134.427226 105.280543 
L 132.649599 105.280543 
z
" clip-path="url(#p690e4b6633)" style="fill: #335791"/>
   </g>
   <g id="patch_52">
    <path d="M 134.427226 105.280543 
L 136.204854 105.280543 
L 136.204854 105.228582 
L 134.427226 105.228582 
z
" clip-path="url(#p690e4b6633)" style="fill: #335791"/>
   </g>
   <g id="matplotlib.axis_1">
    <g id="xtick_1">
     <g id="line2d_1">
      <defs>
       <path id="m47333181d1" d="M 0 0 
L 0 -4 
" style="stroke: #000000; stroke-width: 0.5"/>
      </defs>
      <g>
       <use xlink:href="#m47333181d1" x="63.206494" y="105.280543" style="stroke: #000000; stroke-width: 0.5"/>
      </g>
     </g>
     <g id="text_1">
      <!-- $\mathdefault{−2.5}$ -->
      <g transform="translate(53.73513 115.507193) scale(0.09 -0.09)">
       <defs>
        <path id="CMSY10-0" d="M 4218 1472 
C 4326 1472 4442 1472 4442 1600 
C 4442 1728 4326 1728 4218 1728 
L 755 1728 
C 646 1728 531 1728 531 1600 
C 531 1472 646 1472 755 1472 
L 4218 1472 
z
" transform="scale(0.015625)"/>
        <path id="CMR17-32" d="M 2669 990 
L 2554 990 
C 2490 537 2438 460 2413 422 
C 2381 371 1920 371 1830 371 
L 602 371 
C 832 620 1280 1073 1824 1596 
C 2214 1966 2669 2400 2669 3033 
C 2669 3788 2067 4224 1395 4224 
C 691 4224 262 3603 262 3027 
C 262 2777 448 2745 525 2745 
C 589 2745 781 2783 781 3007 
C 781 3206 614 3264 525 3264 
C 486 3264 448 3257 422 3244 
C 544 3788 915 4057 1306 4057 
C 1862 4057 2227 3616 2227 3033 
C 2227 2477 1901 1998 1536 1583 
L 262 147 
L 262 0 
L 2515 0 
L 2669 990 
z
" transform="scale(0.015625)"/>
        <path id="CMMI12-3a" d="M 1178 307 
C 1178 492 1024 620 870 620 
C 685 620 557 467 557 313 
C 557 128 710 0 864 0 
C 1050 0 1178 153 1178 307 
z
" transform="scale(0.015625)"/>
        <path id="CMR17-35" d="M 730 3750 
C 794 3724 1056 3641 1325 3641 
C 1920 3641 2246 3961 2432 4140 
C 2432 4191 2432 4224 2394 4224 
C 2387 4224 2374 4224 2323 4198 
C 2099 4102 1837 4032 1517 4032 
C 1325 4032 1037 4055 723 4191 
C 653 4224 640 4224 634 4224 
C 602 4224 595 4217 595 4090 
L 595 2231 
C 595 2113 595 2080 659 2080 
C 691 2080 704 2093 736 2139 
C 941 2435 1222 2560 1542 2560 
C 1766 2560 2246 2415 2246 1293 
C 2246 1087 2246 716 2054 422 
C 1894 159 1645 25 1370 25 
C 947 25 518 319 403 812 
C 429 806 480 793 506 793 
C 589 793 749 838 749 1036 
C 749 1209 627 1280 506 1280 
C 358 1280 262 1190 262 1011 
C 262 454 704 -128 1382 -128 
C 2042 -128 2669 441 2669 1267 
C 2669 2054 2170 2662 1549 2662 
C 1222 2662 947 2540 730 2304 
L 730 3750 
z
" transform="scale(0.015625)"/>
       </defs>
       <use xlink:href="#CMSY10-0" transform="scale(0.996264)"/>
       <use xlink:href="#CMR17-32" transform="translate(77.487468 0) scale(0.996264)"/>
       <use xlink:href="#CMMI12-3a" transform="translate(123.177945 0) scale(0.996264)"/>
       <use xlink:href="#CMR17-35" transform="translate(150.275122 0) scale(0.996264)"/>
      </g>
     </g>
    </g>
    <g id="xtick_2">
     <g id="line2d_2">
      <g>
       <use xlink:href="#m47333181d1" x="90.559436" y="105.280543" style="stroke: #000000; stroke-width: 0.5"/>
      </g>
     </g>
     <g id="text_2">
      <!-- $\mathdefault{0.0}$ -->
      <g transform="translate(84.671831 115.507193) scale(0.09 -0.09)">
       <defs>
        <path id="CMR17-30" d="M 2688 2038 
C 2688 2430 2682 3099 2413 3613 
C 2176 4063 1798 4224 1466 4224 
C 1158 4224 768 4082 525 3620 
C 269 3137 243 2539 243 2038 
C 243 1671 250 1112 448 623 
C 723 -39 1216 -128 1466 -128 
C 1760 -128 2208 -7 2470 604 
C 2662 1048 2688 1568 2688 2038 
z
M 1466 -26 
C 1056 -26 813 328 723 816 
C 653 1196 653 1749 653 2109 
C 653 2604 653 3015 736 3407 
C 858 3954 1216 4121 1466 4121 
C 1728 4121 2067 3947 2189 3420 
C 2272 3054 2278 2623 2278 2109 
C 2278 1691 2278 1176 2202 797 
C 2067 96 1690 -26 1466 -26 
z
" transform="scale(0.015625)"/>
       </defs>
       <use xlink:href="#CMR17-30" transform="scale(0.996264)"/>
       <use xlink:href="#CMMI12-3a" transform="translate(45.690477 0) scale(0.996264)"/>
       <use xlink:href="#CMR17-30" transform="translate(72.787654 0) scale(0.996264)"/>
      </g>
     </g>
    </g>
    <g id="xtick_3">
     <g id="line2d_3">
      <g>
       <use xlink:href="#m47333181d1" x="117.912377" y="105.280543" style="stroke: #000000; stroke-width: 0.5"/>
      </g>
     </g>
     <g id="text_3">
      <!-- $\mathdefault{2.5}$ -->
      <g transform="translate(112.024772 115.507193) scale(0.09 -0.09)">
       <use xlink:href="#CMR17-32" transform="scale(0.996264)"/>
       <use xlink:href="#CMMI12-3a" transform="translate(45.690477 0) scale(0.996264)"/>
       <use xlink:href="#CMR17-35" transform="translate(72.787654 0) scale(0.996264)"/>
      </g>
     </g>
    </g>
    <g id="xtick_4">
     <g id="line2d_4">
      <defs>
       <path id="mf57c0b7fd4" d="M 0 0 
L 0 -2 
" style="stroke: #000000; stroke-width: 0.3"/>
      </defs>
      <g>
       <use xlink:href="#mf57c0b7fd4" x="41.324141" y="105.280543" style="stroke: #000000; stroke-width: 0.3"/>
      </g>
     </g>
    </g>
    <g id="xtick_5">
     <g id="line2d_5">
      <g>
       <use xlink:href="#mf57c0b7fd4" x="46.79473" y="105.280543" style="stroke: #000000; stroke-width: 0.3"/>
      </g>
     </g>
    </g>
    <g id="xtick_6">
     <g id="line2d_6">
      <g>
       <use xlink:href="#mf57c0b7fd4" x="52.265318" y="105.280543" style="stroke: #000000; stroke-width: 0.3"/>
      </g>
     </g>
    </g>
    <g id="xtick_7">
     <g id="line2d_7">
      <g>
       <use xlink:href="#mf57c0b7fd4" x="57.735906" y="105.280543" style="stroke: #000000; stroke-width: 0.3"/>
      </g>
     </g>
    </g>
    <g id="xtick_8">
     <g id="line2d_8">
      <g>
       <use xlink:href="#mf57c0b7fd4" x="68.677083" y="105.280543" style="stroke: #000000; stroke-width: 0.3"/>
      </g>
     </g>
    </g>
    <g id="xtick_9">
     <g id="line2d_9">
      <g>
       <use xlink:href="#mf57c0b7fd4" x="74.147671" y="105.280543" style="stroke: #000000; stroke-width: 0.3"/>
      </g>
     </g>
    </g>
    <g id="xtick_10">
     <g id="line2d_10">
      <g>
       <use xlink:href="#mf57c0b7fd4" x="79.618259" y="105.280543" style="stroke: #000000; stroke-width: 0.3"/>
      </g>
     </g>
    </g>
    <g id="xtick_11">
     <g id="line2d_11">
      <g>
       <use xlink:href="#mf57c0b7fd4" x="85.088847" y="105.280543" style="stroke: #000000; stroke-width: 0.3"/>
      </g>
     </g>
    </g>
    <g id="xtick_12">
     <g id="line2d_12">
      <g>
       <use xlink:href="#mf57c0b7fd4" x="96.030024" y="105.280543" style="stroke: #000000; stroke-width: 0.3"/>
      </g>
     </g>
    </g>
    <g id="xtick_13">
     <g id="line2d_13">
      <g>
       <use xlink:href="#mf57c0b7fd4" x="101.500612" y="105.280543" style="stroke: #000000; stroke-width: 0.3"/>
      </g>
     </g>
    </g>
    <g id="xtick_14">
     <g id="line2d_14">
      <g>
       <use xlink:href="#mf57c0b7fd4" x="106.9712" y="105.280543" style="stroke: #000000; stroke-width: 0.3"/>
      </g>
     </g>
    </g>
    <g id="xtick_15">
     <g id="line2d_15">
      <g>
       <use xlink:href="#mf57c0b7fd4" x="112.441788" y="105.280543" style="stroke: #000000; stroke-width: 0.3"/>
      </g>
     </g>
    </g>
    <g id="xtick_16">
     <g id="line2d_16">
      <g>
       <use xlink:href="#mf57c0b7fd4" x="123.382965" y="105.280543" style="stroke: #000000; stroke-width: 0.3"/>
      </g>
     </g>
    </g>
    <g id="xtick_17">
     <g id="line2d_17">
      <g>
       <use xlink:href="#mf57c0b7fd4" x="128.853553" y="105.280543" style="stroke: #000000; stroke-width: 0.3"/>
      </g>
     </g>
    </g>
    <g id="xtick_18">
     <g id="line2d_18">
      <g>
       <use xlink:href="#mf57c0b7fd4" x="134.324141" y="105.280543" style="stroke: #000000; stroke-width: 0.3"/>
      </g>
     </g>
    </g>
    <g id="xtick_19">
     <g id="line2d_19">
      <g>
       <use xlink:href="#mf57c0b7fd4" x="139.79473" y="105.280543" style="stroke: #000000; stroke-width: 0.3"/>
      </g>
     </g>
    </g>
    <g id="text_4">
     <!-- $\hat{t}$ -->
     <g transform="translate(87.743587 128.861001) scale(0.11 -0.11)">
      <defs>
       <path id="CMR17-5e" d="M 1466 4416 
L 678 3532 
L 755 3456 
L 1466 4159 
L 2176 3456 
L 2253 3532 
L 1466 4416 
z
" transform="scale(0.015625)"/>
       <path id="CMMI12-74" d="M 1286 2566 
L 1875 2566 
C 1997 2566 2061 2566 2061 2681 
C 2061 2752 2022 2752 1894 2752 
L 1331 2752 
L 1568 3664 
C 1594 3752 1594 3764 1594 3808 
C 1594 3910 1510 3968 1427 3968 
C 1376 3968 1229 3948 1178 3746 
L 928 2752 
L 326 2752 
C 198 2752 141 2752 141 2630 
C 141 2566 186 2566 307 2566 
L 877 2566 
L 454 881 
C 403 657 384 593 384 510 
C 384 210 595 -64 954 -64 
C 1600 -64 1946 868 1946 913 
C 1946 951 1920 970 1882 970 
C 1869 970 1843 970 1830 944 
C 1824 938 1818 932 1773 830 
C 1638 510 1344 64 973 64 
C 781 64 768 223 768 364 
C 768 370 768 491 787 568 
L 1286 2566 
z
" transform="scale(0.015625)"/>
      </defs>
      <use xlink:href="#CMR17-5e" transform="translate(2.89708 18.389976) scale(0.996264)"/>
      <use xlink:href="#CMMI12-74" transform="scale(0.996264)"/>
     </g>
    </g>
   </g>
   <g id="matplotlib.axis_2">
    <g id="ytick_1">
     <g id="line2d_20">
      <defs>
       <path id="mfe0363d72f" d="M 0 0 
L 4 0 
" style="stroke: #000000; stroke-width: 0.3"/>
      </defs>
      <g>
       <use xlink:href="#mfe0363d72f" x="41.324141" y="105.280543" style="stroke: #000000; stroke-width: 0.3"/>
      </g>
     </g>
     <g id="text_5">
      <!-- $\mathdefault{0.00}$ -->
      <g transform="translate(20.941241 108.393868) scale(0.09 -0.09)">
       <use xlink:href="#CMR17-30" transform="scale(0.996264)"/>
       <use xlink:href="#CMMI12-3a" transform="translate(45.690477 0) scale(0.996264)"/>
       <use xlink:href="#CMR17-30" transform="translate(72.787654 0) scale(0.996264)"/>
       <use xlink:href="#CMR17-30" transform="translate(118.478131 0) scale(0.996264)"/>
      </g>
     </g>
    </g>
    <g id="ytick_2">
     <g id="line2d_21">
      <g>
       <use xlink:href="#mfe0363d72f" x="41.324141" y="84.17529" style="stroke: #000000; stroke-width: 0.3"/>
      </g>
     </g>
     <g id="text_6">
      <!-- $\mathdefault{0.25}$ -->
      <g transform="translate(20.941241 87.288615) scale(0.09 -0.09)">
       <use xlink:href="#CMR17-30" transform="scale(0.996264)"/>
       <use xlink:href="#CMMI12-3a" transform="translate(45.690477 0) scale(0.996264)"/>
       <use xlink:href="#CMR17-32" transform="translate(72.787654 0) scale(0.996264)"/>
       <use xlink:href="#CMR17-35" transform="translate(118.478131 0) scale(0.996264)"/>
      </g>
     </g>
    </g>
    <g id="ytick_3">
     <g id="line2d_22">
      <g>
       <use xlink:href="#mfe0363d72f" x="41.324141" y="63.070037" style="stroke: #000000; stroke-width: 0.3"/>
      </g>
     </g>
     <g id="text_7">
      <!-- $\mathdefault{0.50}$ -->
      <g transform="translate(20.941241 66.183362) scale(0.09 -0.09)">
       <use xlink:href="#CMR17-30" transform="scale(0.996264)"/>
       <use xlink:href="#CMMI12-3a" transform="translate(45.690477 0) scale(0.996264)"/>
       <use xlink:href="#CMR17-35" transform="translate(72.787654 0) scale(0.996264)"/>
       <use xlink:href="#CMR17-30" transform="translate(118.478131 0) scale(0.996264)"/>
      </g>
     </g>
    </g>
    <g id="ytick_4">
     <g id="line2d_23">
      <g>
       <use xlink:href="#mfe0363d72f" x="41.324141" y="41.964784" style="stroke: #000000; stroke-width: 0.3"/>
      </g>
     </g>
     <g id="text_8">
      <!-- $\mathdefault{0.75}$ -->
      <g transform="translate(20.941241 45.078109) scale(0.09 -0.09)">
       <defs>
        <path id="CMR17-37" d="M 2886 3955 
L 2886 4096 
L 1382 4096 
C 634 4096 621 4166 595 4288 
L 480 4288 
L 294 3104 
L 410 3104 
C 429 3226 474 3552 550 3673 
C 589 3724 1062 3724 1171 3724 
L 2579 3724 
L 1869 2670 
C 1395 1961 1069 1003 1069 166 
C 1069 89 1069 -128 1299 -128 
C 1530 -128 1530 89 1530 172 
L 1530 466 
C 1530 1514 1709 2204 2003 2644 
L 2886 3955 
z
" transform="scale(0.015625)"/>
       </defs>
       <use xlink:href="#CMR17-30" transform="scale(0.996264)"/>
       <use xlink:href="#CMMI12-3a" transform="translate(45.690477 0) scale(0.996264)"/>
       <use xlink:href="#CMR17-37" transform="translate(72.787654 0) scale(0.996264)"/>
       <use xlink:href="#CMR17-35" transform="translate(118.478131 0) scale(0.996264)"/>
      </g>
     </g>
    </g>
    <g id="ytick_5">
     <g id="line2d_24">
      <defs>
       <path id="m06ba783e0f" d="M 0 0 
L 2 0 
" style="stroke: #000000; stroke-width: 0.3"/>
      </defs>
      <g>
       <use xlink:href="#m06ba783e0f" x="41.324141" y="101.059492" style="stroke: #000000; stroke-width: 0.3"/>
      </g>
     </g>
    </g>
    <g id="ytick_6">
     <g id="line2d_25">
      <g>
       <use xlink:href="#m06ba783e0f" x="41.324141" y="96.838442" style="stroke: #000000; stroke-width: 0.3"/>
      </g>
     </g>
    </g>
    <g id="ytick_7">
     <g id="line2d_26">
      <g>
       <use xlink:href="#m06ba783e0f" x="41.324141" y="92.617391" style="stroke: #000000; stroke-width: 0.3"/>
      </g>
     </g>
    </g>
    <g id="ytick_8">
     <g id="line2d_27">
      <g>
       <use xlink:href="#m06ba783e0f" x="41.324141" y="88.39634" style="stroke: #000000; stroke-width: 0.3"/>
      </g>
     </g>
    </g>
    <g id="ytick_9">
     <g id="line2d_28">
      <g>
       <use xlink:href="#m06ba783e0f" x="41.324141" y="79.954239" style="stroke: #000000; stroke-width: 0.3"/>
      </g>
     </g>
    </g>
    <g id="ytick_10">
     <g id="line2d_29">
      <g>
       <use xlink:href="#m06ba783e0f" x="41.324141" y="75.733189" style="stroke: #000000; stroke-width: 0.3"/>
      </g>
     </g>
    </g>
    <g id="ytick_11">
     <g id="line2d_30">
      <g>
       <use xlink:href="#m06ba783e0f" x="41.324141" y="71.512138" style="stroke: #000000; stroke-width: 0.3"/>
      </g>
     </g>
    </g>
    <g id="ytick_12">
     <g id="line2d_31">
      <g>
       <use xlink:href="#m06ba783e0f" x="41.324141" y="67.291087" style="stroke: #000000; stroke-width: 0.3"/>
      </g>
     </g>
    </g>
    <g id="ytick_13">
     <g id="line2d_32">
      <g>
       <use xlink:href="#m06ba783e0f" x="41.324141" y="58.848986" style="stroke: #000000; stroke-width: 0.3"/>
      </g>
     </g>
    </g>
    <g id="ytick_14">
     <g id="line2d_33">
      <g>
       <use xlink:href="#m06ba783e0f" x="41.324141" y="54.627936" style="stroke: #000000; stroke-width: 0.3"/>
      </g>
     </g>
    </g>
    <g id="ytick_15">
     <g id="line2d_34">
      <g>
       <use xlink:href="#m06ba783e0f" x="41.324141" y="50.406885" style="stroke: #000000; stroke-width: 0.3"/>
      </g>
     </g>
    </g>
    <g id="ytick_16">
     <g id="line2d_35">
      <g>
       <use xlink:href="#m06ba783e0f" x="41.324141" y="46.185834" style="stroke: #000000; stroke-width: 0.3"/>
      </g>
     </g>
    </g>
    <g id="ytick_17">
     <g id="line2d_36">
      <g>
       <use xlink:href="#m06ba783e0f" x="41.324141" y="37.743733" style="stroke: #000000; stroke-width: 0.3"/>
      </g>
     </g>
    </g>
    <g id="ytick_18">
     <g id="line2d_37">
      <g>
       <use xlink:href="#m06ba783e0f" x="41.324141" y="33.522683" style="stroke: #000000; stroke-width: 0.3"/>
      </g>
     </g>
    </g>
    <g id="ytick_19">
     <g id="line2d_38">
      <g>
       <use xlink:href="#m06ba783e0f" x="41.324141" y="29.301632" style="stroke: #000000; stroke-width: 0.3"/>
      </g>
     </g>
    </g>
    <g id="ytick_20">
     <g id="line2d_39">
      <g>
       <use xlink:href="#m06ba783e0f" x="41.324141" y="25.080581" style="stroke: #000000; stroke-width: 0.3"/>
      </g>
     </g>
    </g>
    <g id="text_9">
     <!-- density -->
     <g transform="translate(14.810347 80.778202) rotate(-90) scale(0.11 -0.11)">
      <defs>
       <path id="CMR17-64" d="M 1869 4345 
L 1869 4179 
C 2246 4179 2304 4141 2304 3843 
L 2304 2371 
C 2278 2403 2016 2816 1498 2816 
C 845 2816 211 2228 211 1376 
C 211 529 806 -64 1434 -64 
C 1978 -64 2259 361 2291 406 
L 2291 -64 
L 3066 -13 
L 3066 154 
C 2688 154 2630 193 2630 503 
L 2630 4416 
L 1869 4345 
z
M 2291 762 
C 2291 568 2176 393 2029 264 
C 1811 70 1594 38 1472 38 
C 1286 38 621 135 621 1369 
C 621 2636 1363 2713 1530 2713 
C 1824 2713 2061 2545 2208 2313 
C 2291 2177 2291 2157 2291 2041 
L 2291 762 
z
" transform="scale(0.015625)"/>
       <path id="CMR17-65" d="M 2438 1503 
C 2464 1529 2464 1542 2464 1606 
C 2464 2251 2118 2816 1389 2816 
C 710 2816 173 2175 173 1394 
C 173 554 781 -64 1459 -64 
C 2176 -64 2458 619 2458 755 
C 2458 800 2419 800 2406 800 
C 2362 800 2355 787 2330 709 
C 2189 270 1837 51 1504 51 
C 1229 51 954 206 781 490 
C 582 819 582 1200 582 1503 
L 2438 1503 
z
M 589 1600 
C 634 2511 1126 2713 1382 2713 
C 1818 2713 2112 2308 2118 1600 
L 589 1600 
z
" transform="scale(0.015625)"/>
       <path id="CMR17-6e" d="M 2656 1954 
C 2656 2282 2592 2816 1837 2816 
C 1331 2816 1069 2424 973 2166 
L 966 2166 
L 966 2816 
L 211 2745 
L 211 2578 
C 589 2578 646 2540 646 2231 
L 646 443 
C 646 198 621 166 211 166 
L 211 0 
C 365 12 646 12 813 12 
C 979 12 1267 12 1421 0 
L 1421 166 
C 1011 166 986 192 986 443 
L 986 1678 
C 986 2269 1344 2713 1792 2713 
C 2266 2713 2317 2289 2317 1980 
L 2317 443 
C 2317 198 2291 166 1882 166 
L 1882 0 
C 2035 12 2317 12 2483 12 
C 2650 12 2938 12 3091 0 
L 3091 166 
C 2682 166 2656 192 2656 443 
L 2656 1954 
z
" transform="scale(0.015625)"/>
       <path id="CMR17-73" d="M 1978 2688 
C 1978 2803 1971 2809 1933 2809 
C 1907 2809 1901 2803 1824 2707 
C 1805 2681 1747 2617 1728 2592 
C 1523 2809 1235 2816 1126 2816 
C 416 2816 160 2444 160 2073 
C 160 1497 813 1363 998 1324 
C 1402 1241 1542 1216 1677 1100 
C 1760 1024 1901 883 1901 652 
C 1901 384 1747 38 1158 38 
C 602 38 403 460 288 1024 
C 269 1113 269 1120 218 1120 
C 166 1120 160 1113 160 985 
L 160 64 
C 160 -52 166 -58 205 -58 
C 237 -58 243 -52 275 0 
C 314 57 410 211 448 275 
C 576 102 800 -64 1158 -64 
C 1792 -64 2131 281 2131 780 
C 2131 1107 1958 1280 1875 1356 
C 1683 1555 1459 1600 1190 1651 
C 838 1728 390 1817 390 2208 
C 390 2374 480 2726 1126 2726 
C 1811 2726 1850 2086 1862 1881 
C 1869 1849 1901 1843 1920 1843 
C 1978 1843 1978 1862 1978 1971 
L 1978 2688 
z
" transform="scale(0.015625)"/>
       <path id="CMR17-69" d="M 992 3961 
C 992 4102 877 4224 730 4224 
C 589 4224 467 4108 467 3961 
C 467 3820 582 3699 730 3699 
C 870 3699 992 3814 992 3961 
z
M 243 2745 
L 243 2579 
C 602 2579 653 2540 653 2231 
L 653 443 
C 653 198 627 166 218 166 
L 218 0 
C 371 12 646 12 806 12 
C 960 12 1222 12 1370 0 
L 1370 166 
C 992 166 979 205 979 436 
L 979 2816 
L 243 2745 
z
" transform="scale(0.015625)"/>
       <path id="CMR17-74" d="M 966 2585 
L 1862 2585 
L 1862 2752 
L 966 2752 
L 966 3968 
L 851 3968 
C 838 3292 614 2700 70 2687 
L 70 2585 
L 627 2585 
L 627 778 
C 627 655 627 -64 1370 -64 
C 1747 -64 1965 308 1965 784 
L 1965 1151 
L 1850 1151 
L 1850 790 
C 1850 347 1677 51 1408 51 
C 1222 51 966 179 966 765 
L 966 2585 
z
" transform="scale(0.015625)"/>
       <path id="CMR17-79" d="M 2496 2183 
C 2656 2579 2944 2585 3034 2585 
L 3034 2752 
C 2912 2745 2752 2739 2630 2739 
C 2496 2739 2285 2739 2157 2752 
L 2157 2585 
C 2400 2566 2406 2384 2406 2332 
C 2406 2268 2394 2235 2362 2158 
L 1664 409 
L 902 2300 
C 870 2378 870 2423 870 2430 
C 870 2572 1018 2585 1171 2585 
L 1171 2752 
C 1018 2739 742 2739 582 2739 
C 410 2739 205 2739 64 2752 
L 64 2585 
C 410 2585 448 2553 531 2345 
L 1485 -31 
C 1197 -795 1030 -1242 627 -1242 
C 557 -1242 397 -1223 282 -1106 
C 429 -1093 493 -1002 493 -892 
C 493 -782 416 -685 288 -685 
C 147 -685 77 -782 77 -899 
C 77 -1158 339 -1344 627 -1344 
C 998 -1344 1229 -983 1357 -659 
L 2496 2183 
z
" transform="scale(0.015625)"/>
      </defs>
      <use xlink:href="#CMR17-64" transform="scale(0.996264)"/>
      <use xlink:href="#CMR17-65" transform="translate(50.89537 0) scale(0.996264)"/>
      <use xlink:href="#CMR17-6e" transform="translate(91.38103 0) scale(0.996264)"/>
      <use xlink:href="#CMR17-73" transform="translate(142.2764 0) scale(0.996264)"/>
      <use xlink:href="#CMR17-69" transform="translate(178.077738 0) scale(0.996264)"/>
      <use xlink:href="#CMR17-74" transform="translate(202.948796 0) scale(0.996264)"/>
      <use xlink:href="#CMR17-79" transform="translate(235.62711 0) scale(0.996264)"/>
     </g>
    </g>
   </g>
   <g id="line2d_40">
    <path d="M 41.324141 105.277465 
L 42.318794 105.276217 
L 43.313446 105.274493 
L 44.308099 105.272121 
L 45.302751 105.268876 
L 46.297403 105.264462 
L 47.292056 105.258491 
L 48.286708 105.25046 
L 49.281361 105.239722 
L 50.276013 105.225451 
L 51.270665 105.206604 
L 52.265318 105.181869 
L 53.25997 105.149617 
L 54.254623 105.107842 
L 55.249275 105.054098 
L 56.243927 104.985434 
L 57.23858 104.898327 
L 58.233232 104.788623 
L 59.227885 104.651477 
L 60.222537 104.481318 
L 61.21719 104.271827 
L 62.211842 104.015944 
L 63.206494 103.705913 
L 64.201147 103.333371 
L 65.195799 102.889486 
L 66.190452 102.365159 
L 67.185104 101.751287 
L 68.179756 101.039093 
L 69.174409 100.220513 
L 70.169061 99.288651 
L 71.163714 98.238268 
L 72.158366 97.066307 
L 73.153018 95.772412 
L 74.147671 94.359437 
L 75.142323 92.833881 
L 76.136976 91.206251 
L 77.131628 89.49128 
L 78.12628 87.708008 
L 79.120933 85.879658 
L 80.115585 84.033327 
L 81.110238 82.199447 
L 82.10489 80.411053 
L 83.099542 78.702852 
L 84.094195 77.110137 
L 85.088847 75.667583 
L 86.0835 74.407995 
L 87.078152 73.361051 
L 88.072805 72.552126 
L 89.067457 72.001252 
L 90.062109 71.722276 
L 91.056762 71.722276 
L 92.051414 72.001252 
L 93.046067 72.552126 
L 94.040719 73.361051 
L 95.035371 74.407995 
L 96.030024 75.667583 
L 97.024676 77.110137 
L 98.019329 78.702852 
L 99.013981 80.411053 
L 100.008633 82.199447 
L 101.003286 84.033327 
L 101.997938 85.879658 
L 102.992591 87.708008 
L 103.987243 89.49128 
L 104.981895 91.206251 
L 105.976548 92.833881 
L 106.9712 94.359437 
L 107.965853 95.772412 
L 108.960505 97.066307 
L 109.955157 98.238268 
L 110.94981 99.288651 
L 111.944462 100.220513 
L 112.939115 101.039093 
L 113.933767 101.751287 
L 114.928419 102.365159 
L 115.923072 102.889486 
L 116.917724 103.333371 
L 117.912377 103.705913 
L 118.907029 104.015944 
L 119.901682 104.271827 
L 120.896334 104.481318 
L 121.890986 104.651477 
L 122.885639 104.788623 
L 123.880291 104.898327 
L 124.874944 104.985434 
L 125.869596 105.054098 
L 126.864248 105.107842 
L 127.858901 105.149617 
L 128.853553 105.181869 
L 129.848206 105.206604 
L 130.842858 105.225451 
L 131.83751 105.239722 
L 132.832163 105.25046 
L 133.826815 105.258491 
L 134.821468 105.264462 
L 135.81612 105.268876 
L 136.810772 105.272121 
L 137.805425 105.274493 
L 138.800077 105.276217 
L 139.79473 105.277465 
" clip-path="url(#p690e4b6633)" style="fill: none; stroke: #db4e4e; stroke-linecap: square"/>
   </g>
   <g id="patch_53">
    <path d="M 41.324141 105.280543 
L 41.324141 22.120543 
" style="fill: none; stroke: #000000; stroke-width: 0.3; stroke-linejoin: miter; stroke-linecap: square"/>
   </g>
   <g id="patch_54">
    <path d="M 139.79473 105.280543 
L 139.79473 22.120543 
" style="fill: none; stroke: #000000; stroke-width: 0.3; stroke-linejoin: miter; stroke-linecap: square"/>
   </g>
   <g id="patch_55">
    <path d="M 41.324141 105.280543 
L 139.79473 105.280543 
" style="fill: none; stroke: #000000; stroke-width: 0.3; stroke-linejoin: miter; stroke-linecap: square"/>
   </g>
   <g id="patch_56">
    <path d="M 41.324141 22.120543 
L 139.79473 22.120543 
" style="fill: none; stroke: #000000; stroke-width: 0.3; stroke-linejoin: miter; stroke-linecap: square"/>
   </g>
   <g id="text_10">
    <!-- white noise ($\sigma^2_\varepsilon = 0.42$) -->
    <g transform="translate(34.844189 16.120543) scale(0.11 -0.11)">
     <defs>
      <path id="CMR17-77" d="M 3725 2186 
C 3853 2566 4109 2579 4205 2585 
L 4205 2752 
C 4077 2745 3949 2739 3821 2739 
C 3699 2739 3424 2739 3315 2752 
L 3315 2585 
C 3514 2572 3622 2456 3622 2296 
C 3622 2251 3610 2193 3597 2148 
L 2995 398 
L 2342 2296 
C 2330 2341 2310 2392 2310 2418 
C 2310 2585 2528 2585 2630 2585 
L 2630 2752 
C 2483 2739 2214 2739 2061 2739 
C 1901 2739 1734 2739 1587 2752 
L 1587 2585 
C 1939 2585 1939 2572 2074 2167 
L 1485 443 
L 851 2302 
C 819 2386 819 2399 819 2418 
C 819 2585 1037 2585 1139 2585 
L 1139 2752 
C 986 2739 717 2739 557 2739 
C 416 2739 198 2739 64 2752 
L 64 2585 
C 346 2585 416 2566 486 2353 
L 1274 38 
C 1299 -45 1318 -64 1370 -64 
C 1414 -64 1440 -52 1472 44 
L 2131 1987 
L 2797 44 
C 2829 -52 2854 -64 2899 -64 
C 2950 -64 2970 -45 2995 38 
L 3725 2186 
z
" transform="scale(0.015625)"/>
      <path id="CMR17-68" d="M 2656 1954 
C 2656 2282 2592 2816 1837 2816 
C 1312 2816 1056 2392 979 2179 
L 973 2179 
L 973 4416 
L 211 4345 
L 211 4179 
C 589 4179 646 4141 646 3843 
L 646 443 
C 646 198 621 166 211 166 
L 211 0 
C 365 12 646 12 813 12 
C 979 12 1267 12 1421 0 
L 1421 166 
C 1011 166 986 192 986 443 
L 986 1678 
C 986 2269 1344 2713 1792 2713 
C 2266 2713 2317 2289 2317 1980 
L 2317 443 
C 2317 198 2291 166 1882 166 
L 1882 0 
C 2035 12 2317 12 2483 12 
C 2650 12 2938 12 3091 0 
L 3091 166 
C 2682 166 2656 192 2656 443 
L 2656 1954 
z
" transform="scale(0.015625)"/>
      <path id="CMR17-6f" d="M 2758 1356 
C 2758 2176 2163 2816 1466 2816 
C 768 2816 173 2176 173 1356 
C 173 550 768 -64 1466 -64 
C 2163 -64 2758 550 2758 1356 
z
M 1466 51 
C 1165 51 909 230 762 480 
C 602 768 582 1126 582 1408 
C 582 1676 595 2009 762 2297 
C 890 2508 1139 2713 1466 2713 
C 1754 2713 1997 2553 2150 2329 
C 2349 2028 2349 1606 2349 1408 
C 2349 1158 2336 774 2163 467 
C 1984 172 1709 51 1466 51 
z
" transform="scale(0.015625)"/>
      <path id="CMR17-28" d="M 1958 -1562 
C 1958 -1556 1958 -1543 1939 -1524 
C 1645 -1223 858 -403 858 1596 
C 858 3595 1632 4408 1946 4729 
C 1946 4735 1958 4748 1958 4767 
C 1958 4787 1939 4800 1914 4800 
C 1843 4800 1299 4325 986 3620 
C 666 2909 576 2218 576 1603 
C 576 1141 621 360 1005 -467 
C 1312 -1133 1837 -1600 1914 -1600 
C 1946 -1600 1958 -1588 1958 -1562 
z
" transform="scale(0.015625)"/>
      <path id="CMMI12-1b" d="M 3251 2406 
C 3334 2406 3546 2406 3546 2611 
C 3546 2752 3424 2752 3309 2752 
L 1894 2752 
C 934 2752 243 1685 243 932 
C 243 389 595 -64 1171 -64 
C 1926 -64 2752 746 2752 1704 
C 2752 1953 2694 2195 2541 2406 
L 3251 2406 
z
M 1178 64 
C 851 64 614 312 614 753 
C 614 1136 845 2406 1786 2406 
C 2061 2406 2368 2272 2368 1780 
C 2368 1557 2266 1021 2042 651 
C 1811 274 1466 64 1178 64 
z
" transform="scale(0.015625)"/>
      <path id="CMMI12-22" d="M 890 1427 
C 1094 1344 1312 1344 1434 1344 
C 1600 1344 1933 1344 1933 1554 
C 1933 1683 1811 1728 1485 1728 
C 1325 1728 1133 1708 909 1612 
C 710 1708 634 1853 634 1991 
C 634 2379 1261 2604 1830 2604 
C 1939 2604 2170 2604 2438 2410 
C 2477 2385 2496 2366 2541 2366 
C 2618 2366 2701 2448 2701 2523 
C 2701 2636 2330 2880 1888 2880 
C 1171 2880 493 2454 493 1991 
C 493 1759 646 1612 755 1508 
C 384 1288 166 953 166 649 
C 166 221 563 -128 1178 -128 
C 2022 -128 2362 426 2362 513 
C 2362 544 2336 568 2304 568 
C 2272 568 2259 550 2234 513 
C 2163 395 1997 147 1235 147 
C 838 147 314 246 314 686 
C 314 897 474 1213 890 1427 
z
M 1088 1517 
C 1261 1599 1427 1599 1472 1599 
C 1651 1599 1683 1581 1786 1545 
C 1677 1472 1664 1472 1434 1472 
C 1318 1472 1216 1472 1088 1517 
z
" transform="scale(0.015625)"/>
      <path id="CMR17-3d" d="M 4115 2048 
C 4211 2048 4307 2048 4307 2156 
C 4307 2272 4198 2272 4090 2272 
L 512 2272 
C 403 2272 294 2272 294 2156 
C 294 2048 390 2048 486 2048 
L 4115 2048 
z
M 4090 927 
C 4198 927 4307 927 4307 1043 
C 4307 1152 4211 1152 4115 1152 
L 486 1152 
C 390 1152 294 1152 294 1043 
C 294 927 403 927 512 927 
L 4090 927 
z
" transform="scale(0.015625)"/>
      <path id="CMR17-34" d="M 2150 4147 
C 2150 4281 2144 4288 2029 4288 
L 128 1254 
L 128 1088 
L 1779 1088 
L 1779 460 
C 1779 230 1766 166 1318 166 
L 1197 166 
L 1197 0 
C 1402 12 1747 12 1965 12 
C 2182 12 2528 12 2733 0 
L 2733 166 
L 2611 166 
C 2163 166 2150 230 2150 460 
L 2150 1088 
L 2803 1088 
L 2803 1254 
L 2150 1254 
L 2150 4147 
z
M 1798 3723 
L 1798 1254 
L 256 1254 
L 1798 3723 
z
" transform="scale(0.015625)"/>
      <path id="CMR17-29" d="M 1683 1596 
C 1683 2057 1638 2839 1254 3665 
C 947 4332 422 4800 346 4800 
C 326 4800 301 4793 301 4761 
C 301 4748 307 4742 314 4729 
C 621 4408 1402 3595 1402 1603 
C 1402 -396 627 -1210 314 -1530 
C 307 -1543 301 -1549 301 -1562 
C 301 -1594 326 -1600 346 -1600 
C 416 -1600 960 -1127 1274 -422 
C 1594 289 1683 981 1683 1596 
z
" transform="scale(0.015625)"/>
     </defs>
     <use xlink:href="#CMR17-77" transform="scale(0.996264)"/>
     <use xlink:href="#CMR17-68" transform="translate(66.509881 0) scale(0.996264)"/>
     <use xlink:href="#CMR17-69" transform="translate(117.40525 0) scale(0.996264)"/>
     <use xlink:href="#CMR17-74" transform="translate(142.276309 0) scale(0.996264)"/>
     <use xlink:href="#CMR17-65" transform="translate(177.557077 0) scale(0.996264)"/>
     <use xlink:href="#CMR17-6e" transform="translate(248.118703 0) scale(0.996264)"/>
     <use xlink:href="#CMR17-6f" transform="translate(299.014073 0) scale(0.996264)"/>
     <use xlink:href="#CMR17-69" transform="translate(344.70455 0) scale(0.996264)"/>
     <use xlink:href="#CMR17-73" transform="translate(369.575609 0) scale(0.996264)"/>
     <use xlink:href="#CMR17-65" transform="translate(405.376946 0) scale(0.996264)"/>
     <use xlink:href="#CMR17-28" transform="translate(475.938573 0) scale(0.996264)"/>
     <use xlink:href="#CMMI12-1b" transform="translate(511.219341 0) scale(0.996264)"/>
     <use xlink:href="#CMR17-32" transform="translate(570.239395 36.153639) scale(0.697382)"/>
     <use xlink:href="#CMMI12-22" transform="translate(566.664802 -24.62935) scale(0.697382)"/>
     <use xlink:href="#CMR17-3d" transform="translate(630.394717 0) scale(0.996264)"/>
     <use xlink:href="#CMR17-30" transform="translate(729.783514 0) scale(0.996264)"/>
     <use xlink:href="#CMMI12-3a" transform="translate(775.473992 0) scale(0.996264)"/>
     <use xlink:href="#CMR17-34" transform="translate(802.571169 0) scale(0.996264)"/>
     <use xlink:href="#CMR17-32" transform="translate(848.261646 0) scale(0.996264)"/>
     <use xlink:href="#CMR17-29" transform="translate(893.952123 0) scale(0.996264)"/>
    </g>
   </g>
  </g>
  <g id="axes_2">
   <g id="patch_57">
    <path d="M 159.488847 105.280543 
L 257.959436 105.280543 
L 257.959436 22.120543 
L 159.488847 22.120543 
z
" style="fill: #ffffff"/>
   </g>
   <g id="patch_58">
    <path d="M 111.3903 105.280543 
L 115.404177 105.280543 
L 115.404177 105.165484 
L 111.3903 105.165484 
z
" clip-path="url(#pa14fd93f41)" style="fill: #335791"/>
   </g>
   <g id="patch_59">
    <path d="M 115.404177 105.280543 
L 119.418054 105.280543 
L 119.418054 105.188496 
L 115.404177 105.188496 
z
" clip-path="url(#pa14fd93f41)" style="fill: #335791"/>
   </g>
   <g id="patch_60">
    <path d="M 119.418054 105.280543 
L 123.431931 105.280543 
L 123.431931 105.234519 
L 119.418054 105.234519 
z
" clip-path="url(#pa14fd93f41)" style="fill: #335791"/>
   </g>
   <g id="patch_61">
    <path d="M 123.431931 105.280543 
L 127.445808 105.280543 
L 127.445808 105.142472 
L 123.431931 105.142472 
z
" clip-path="url(#pa14fd93f41)" style="fill: #335791"/>
   </g>
   <g id="patch_62">
    <path d="M 127.445808 105.280543 
L 131.459685 105.280543 
L 131.459685 105.165484 
L 127.445808 105.165484 
z
" clip-path="url(#pa14fd93f41)" style="fill: #335791"/>
   </g>
   <g id="patch_63">
    <path d="M 131.459685 105.280543 
L 135.473562 105.280543 
L 135.473562 105.073437 
L 131.459685 105.073437 
z
" clip-path="url(#pa14fd93f41)" style="fill: #335791"/>
   </g>
   <g id="patch_64">
    <path d="M 135.473562 105.280543 
L 139.487439 105.280543 
L 139.487439 104.86633 
L 135.473562 104.86633 
z
" clip-path="url(#pa14fd93f41)" style="fill: #335791"/>
   </g>
   <g id="patch_65">
    <path d="M 139.487439 105.280543 
L 143.501316 105.280543 
L 143.501316 104.636212 
L 139.487439 104.636212 
z
" clip-path="url(#pa14fd93f41)" style="fill: #335791"/>
   </g>
   <g id="patch_66">
    <path d="M 143.501316 105.280543 
L 147.515193 105.280543 
L 147.515193 104.498142 
L 143.501316 104.498142 
z
" clip-path="url(#pa14fd93f41)" style="fill: #335791"/>
   </g>
   <g id="patch_67">
    <path d="M 147.515193 105.280543 
L 151.52907 105.280543 
L 151.52907 104.268024 
L 147.515193 104.268024 
z
" clip-path="url(#pa14fd93f41)" style="fill: #335791"/>
   </g>
   <g id="patch_68">
    <path d="M 151.52907 105.280543 
L 155.542947 105.280543 
L 155.542947 103.692729 
L 151.52907 103.692729 
z
" clip-path="url(#pa14fd93f41)" style="fill: #335791"/>
   </g>
   <g id="patch_69">
    <path d="M 155.542947 105.280543 
L 159.556824 105.280543 
L 159.556824 103.232493 
L 155.542947 103.232493 
z
" clip-path="url(#pa14fd93f41)" style="fill: #335791"/>
   </g>
   <g id="patch_70">
    <path d="M 159.556824 105.280543 
L 163.570701 105.280543 
L 163.570701 102.565151 
L 159.556824 102.565151 
z
" clip-path="url(#pa14fd93f41)" style="fill: #335791"/>
   </g>
   <g id="patch_71">
    <path d="M 163.570701 105.280543 
L 167.584578 105.280543 
L 167.584578 101.874797 
L 163.570701 101.874797 
z
" clip-path="url(#pa14fd93f41)" style="fill: #335791"/>
   </g>
   <g id="patch_72">
    <path d="M 167.584578 105.280543 
L 171.598455 105.280543 
L 171.598455 101.138419 
L 167.584578 101.138419 
z
" clip-path="url(#pa14fd93f41)" style="fill: #335791"/>
   </g>
   <g id="patch_73">
    <path d="M 171.598455 105.280543 
L 175.612332 105.280543 
L 175.612332 99.711688 
L 171.598455 99.711688 
z
" clip-path="url(#pa14fd93f41)" style="fill: #335791"/>
   </g>
   <g id="patch_74">
    <path d="M 175.612332 105.280543 
L 179.626209 105.280543 
L 179.626209 98.077851 
L 175.612332 98.077851 
z
" clip-path="url(#pa14fd93f41)" style="fill: #335791"/>
   </g>
   <g id="patch_75">
    <path d="M 179.626209 105.280543 
L 183.640086 105.280543 
L 183.640086 97.502556 
L 179.626209 97.502556 
z
" clip-path="url(#pa14fd93f41)" style="fill: #335791"/>
   </g>
   <g id="patch_76">
    <path d="M 183.640086 105.280543 
L 187.653963 105.280543 
L 187.653963 96.052813 
L 183.640086 96.052813 
z
" clip-path="url(#pa14fd93f41)" style="fill: #335791"/>
   </g>
   <g id="patch_77">
    <path d="M 187.653963 105.280543 
L 191.66784 105.280543 
L 191.66784 94.557046 
L 187.653963 94.557046 
z
" clip-path="url(#pa14fd93f41)" style="fill: #335791"/>
   </g>
   <g id="patch_78">
    <path d="M 191.66784 105.280543 
L 195.681717 105.280543 
L 195.681717 93.728621 
L 191.66784 93.728621 
z
" clip-path="url(#pa14fd93f41)" style="fill: #335791"/>
   </g>
   <g id="patch_79">
    <path d="M 195.681717 105.280543 
L 199.695594 105.280543 
L 199.695594 90.829135 
L 195.681717 90.829135 
z
" clip-path="url(#pa14fd93f41)" style="fill: #335791"/>
   </g>
   <g id="patch_80">
    <path d="M 199.695594 105.280543 
L 203.709471 105.280543 
L 203.709471 91.243347 
L 199.695594 91.243347 
z
" clip-path="url(#pa14fd93f41)" style="fill: #335791"/>
   </g>
   <g id="patch_81">
    <path d="M 203.709471 105.280543 
L 207.723348 105.280543 
L 207.723348 91.611536 
L 203.709471 91.611536 
z
" clip-path="url(#pa14fd93f41)" style="fill: #335791"/>
   </g>
   <g id="patch_82">
    <path d="M 207.723348 105.280543 
L 211.737226 105.280543 
L 211.737226 90.990217 
L 207.723348 90.990217 
z
" clip-path="url(#pa14fd93f41)" style="fill: #335791"/>
   </g>
   <g id="patch_83">
    <path d="M 211.737226 105.280543 
L 215.751103 105.280543 
L 215.751103 91.473465 
L 211.737226 91.473465 
z
" clip-path="url(#pa14fd93f41)" style="fill: #335791"/>
   </g>
   <g id="patch_84">
    <path d="M 215.751103 105.280543 
L 219.76498 105.280543 
L 219.76498 91.726595 
L 215.751103 91.726595 
z
" clip-path="url(#pa14fd93f41)" style="fill: #335791"/>
   </g>
   <g id="patch_85">
    <path d="M 219.76498 105.280543 
L 223.778857 105.280543 
L 223.778857 93.314409 
L 219.76498 93.314409 
z
" clip-path="url(#pa14fd93f41)" style="fill: #335791"/>
   </g>
   <g id="patch_86">
    <path d="M 223.778857 105.280543 
L 227.792734 105.280543 
L 227.792734 94.119822 
L 223.778857 94.119822 
z
" clip-path="url(#pa14fd93f41)" style="fill: #335791"/>
   </g>
   <g id="patch_87">
    <path d="M 227.792734 105.280543 
L 231.806611 105.280543 
L 231.806611 95.155353 
L 227.792734 95.155353 
z
" clip-path="url(#pa14fd93f41)" style="fill: #335791"/>
   </g>
   <g id="patch_88">
    <path d="M 231.806611 105.280543 
L 235.820488 105.280543 
L 235.820488 96.697143 
L 231.806611 96.697143 
z
" clip-path="url(#pa14fd93f41)" style="fill: #335791"/>
   </g>
   <g id="patch_89">
    <path d="M 235.820488 105.280543 
L 239.834365 105.280543 
L 239.834365 98.353992 
L 235.820488 98.353992 
z
" clip-path="url(#pa14fd93f41)" style="fill: #335791"/>
   </g>
   <g id="patch_90">
    <path d="M 239.834365 105.280543 
L 243.848242 105.280543 
L 243.848242 98.722181 
L 239.834365 98.722181 
z
" clip-path="url(#pa14fd93f41)" style="fill: #335791"/>
   </g>
   <g id="patch_91">
    <path d="M 243.848242 105.280543 
L 247.862119 105.280543 
L 247.862119 100.148912 
L 243.848242 100.148912 
z
" clip-path="url(#pa14fd93f41)" style="fill: #335791"/>
   </g>
   <g id="patch_92">
    <path d="M 247.862119 105.280543 
L 251.875996 105.280543 
L 251.875996 101.414561 
L 247.862119 101.414561 
z
" clip-path="url(#pa14fd93f41)" style="fill: #335791"/>
   </g>
   <g id="patch_93">
    <path d="M 251.875996 105.280543 
L 255.889873 105.280543 
L 255.889873 102.150938 
L 251.875996 102.150938 
z
" clip-path="url(#pa14fd93f41)" style="fill: #335791"/>
   </g>
   <g id="patch_94">
    <path d="M 255.889873 105.280543 
L 259.90375 105.280543 
L 259.90375 102.496115 
L 255.889873 102.496115 
z
" clip-path="url(#pa14fd93f41)" style="fill: #335791"/>
   </g>
   <g id="patch_95">
    <path d="M 259.90375 105.280543 
L 263.917627 105.280543 
L 263.917627 103.232493 
L 259.90375 103.232493 
z
" clip-path="url(#pa14fd93f41)" style="fill: #335791"/>
   </g>
   <g id="patch_96">
    <path d="M 263.917627 105.280543 
L 267.931504 105.280543 
L 267.931504 103.96887 
L 263.917627 103.96887 
z
" clip-path="url(#pa14fd93f41)" style="fill: #335791"/>
   </g>
   <g id="patch_97">
    <path d="M 267.931504 105.280543 
L 271.945381 105.280543 
L 271.945381 104.429106 
L 267.931504 104.429106 
z
" clip-path="url(#pa14fd93f41)" style="fill: #335791"/>
   </g>
   <g id="patch_98">
    <path d="M 271.945381 105.280543 
L 275.959258 105.280543 
L 275.959258 104.47513 
L 271.945381 104.47513 
z
" clip-path="url(#pa14fd93f41)" style="fill: #335791"/>
   </g>
   <g id="patch_99">
    <path d="M 275.959258 105.280543 
L 279.973135 105.280543 
L 279.973135 104.935366 
L 275.959258 104.935366 
z
" clip-path="url(#pa14fd93f41)" style="fill: #335791"/>
   </g>
   <g id="patch_100">
    <path d="M 279.973135 105.280543 
L 283.987012 105.280543 
L 283.987012 104.751271 
L 279.973135 104.751271 
z
" clip-path="url(#pa14fd93f41)" style="fill: #335791"/>
   </g>
   <g id="patch_101">
    <path d="M 283.987012 105.280543 
L 288.000889 105.280543 
L 288.000889 105.165484 
L 283.987012 105.165484 
z
" clip-path="url(#pa14fd93f41)" style="fill: #335791"/>
   </g>
   <g id="patch_102">
    <path d="M 288.000889 105.280543 
L 292.014766 105.280543 
L 292.014766 105.11946 
L 288.000889 105.11946 
z
" clip-path="url(#pa14fd93f41)" style="fill: #335791"/>
   </g>
   <g id="patch_103">
    <path d="M 292.014766 105.280543 
L 296.028643 105.280543 
L 296.028643 105.050425 
L 292.014766 105.050425 
z
" clip-path="url(#pa14fd93f41)" style="fill: #335791"/>
   </g>
   <g id="patch_104">
    <path d="M 296.028643 105.280543 
L 300.04252 105.280543 
L 300.04252 105.211507 
L 296.028643 105.211507 
z
" clip-path="url(#pa14fd93f41)" style="fill: #335791"/>
   </g>
   <g id="patch_105">
    <path d="M 300.04252 105.280543 
L 304.056397 105.280543 
L 304.056397 105.257531 
L 300.04252 105.257531 
z
" clip-path="url(#pa14fd93f41)" style="fill: #335791"/>
   </g>
   <g id="patch_106">
    <path d="M 304.056397 105.280543 
L 308.070274 105.280543 
L 308.070274 105.234519 
L 304.056397 105.234519 
z
" clip-path="url(#pa14fd93f41)" style="fill: #335791"/>
   </g>
   <g id="patch_107">
    <path d="M 308.070274 105.280543 
L 312.084151 105.280543 
L 312.084151 105.257531 
L 308.070274 105.257531 
z
" clip-path="url(#pa14fd93f41)" style="fill: #335791"/>
   </g>
   <g id="matplotlib.axis_3">
    <g id="xtick_20">
     <g id="line2d_41">
      <g>
       <use xlink:href="#m47333181d1" x="181.3712" y="105.280543" style="stroke: #000000; stroke-width: 0.5"/>
      </g>
     </g>
     <g id="text_11">
      <!-- $\mathdefault{−2.5}$ -->
      <g transform="translate(171.899836 115.507193) scale(0.09 -0.09)">
       <use xlink:href="#CMSY10-0" transform="scale(0.996264)"/>
       <use xlink:href="#CMR17-32" transform="translate(77.487468 0) scale(0.996264)"/>
       <use xlink:href="#CMMI12-3a" transform="translate(123.177945 0) scale(0.996264)"/>
       <use xlink:href="#CMR17-35" transform="translate(150.275122 0) scale(0.996264)"/>
      </g>
     </g>
    </g>
    <g id="xtick_21">
     <g id="line2d_42">
      <g>
       <use xlink:href="#m47333181d1" x="208.724141" y="105.280543" style="stroke: #000000; stroke-width: 0.5"/>
      </g>
     </g>
     <g id="text_12">
      <!-- $\mathdefault{0.0}$ -->
      <g transform="translate(202.836537 115.507193) scale(0.09 -0.09)">
       <use xlink:href="#CMR17-30" transform="scale(0.996264)"/>
       <use xlink:href="#CMMI12-3a" transform="translate(45.690477 0) scale(0.996264)"/>
       <use xlink:href="#CMR17-30" transform="translate(72.787654 0) scale(0.996264)"/>
      </g>
     </g>
    </g>
    <g id="xtick_22">
     <g id="line2d_43">
      <g>
       <use xlink:href="#m47333181d1" x="236.077083" y="105.280543" style="stroke: #000000; stroke-width: 0.5"/>
      </g>
     </g>
     <g id="text_13">
      <!-- $\mathdefault{2.5}$ -->
      <g transform="translate(230.189478 115.507193) scale(0.09 -0.09)">
       <use xlink:href="#CMR17-32" transform="scale(0.996264)"/>
       <use xlink:href="#CMMI12-3a" transform="translate(45.690477 0) scale(0.996264)"/>
       <use xlink:href="#CMR17-35" transform="translate(72.787654 0) scale(0.996264)"/>
      </g>
     </g>
    </g>
    <g id="xtick_23">
     <g id="line2d_44">
      <g>
       <use xlink:href="#mf57c0b7fd4" x="159.488847" y="105.280543" style="stroke: #000000; stroke-width: 0.3"/>
      </g>
     </g>
    </g>
    <g id="xtick_24">
     <g id="line2d_45">
      <g>
       <use xlink:href="#mf57c0b7fd4" x="164.959436" y="105.280543" style="stroke: #000000; stroke-width: 0.3"/>
      </g>
     </g>
    </g>
    <g id="xtick_25">
     <g id="line2d_46">
      <g>
       <use xlink:href="#mf57c0b7fd4" x="170.430024" y="105.280543" style="stroke: #000000; stroke-width: 0.3"/>
      </g>
     </g>
    </g>
    <g id="xtick_26">
     <g id="line2d_47">
      <g>
       <use xlink:href="#mf57c0b7fd4" x="175.900612" y="105.280543" style="stroke: #000000; stroke-width: 0.3"/>
      </g>
     </g>
    </g>
    <g id="xtick_27">
     <g id="line2d_48">
      <g>
       <use xlink:href="#mf57c0b7fd4" x="186.841788" y="105.280543" style="stroke: #000000; stroke-width: 0.3"/>
      </g>
     </g>
    </g>
    <g id="xtick_28">
     <g id="line2d_49">
      <g>
       <use xlink:href="#mf57c0b7fd4" x="192.312377" y="105.280543" style="stroke: #000000; stroke-width: 0.3"/>
      </g>
     </g>
    </g>
    <g id="xtick_29">
     <g id="line2d_50">
      <g>
       <use xlink:href="#mf57c0b7fd4" x="197.782965" y="105.280543" style="stroke: #000000; stroke-width: 0.3"/>
      </g>
     </g>
    </g>
    <g id="xtick_30">
     <g id="line2d_51">
      <g>
       <use xlink:href="#mf57c0b7fd4" x="203.253553" y="105.280543" style="stroke: #000000; stroke-width: 0.3"/>
      </g>
     </g>
    </g>
    <g id="xtick_31">
     <g id="line2d_52">
      <g>
       <use xlink:href="#mf57c0b7fd4" x="214.19473" y="105.280543" style="stroke: #000000; stroke-width: 0.3"/>
      </g>
     </g>
    </g>
    <g id="xtick_32">
     <g id="line2d_53">
      <g>
       <use xlink:href="#mf57c0b7fd4" x="219.665318" y="105.280543" style="stroke: #000000; stroke-width: 0.3"/>
      </g>
     </g>
    </g>
    <g id="xtick_33">
     <g id="line2d_54">
      <g>
       <use xlink:href="#mf57c0b7fd4" x="225.135906" y="105.280543" style="stroke: #000000; stroke-width: 0.3"/>
      </g>
     </g>
    </g>
    <g id="xtick_34">
     <g id="line2d_55">
      <g>
       <use xlink:href="#mf57c0b7fd4" x="230.606494" y="105.280543" style="stroke: #000000; stroke-width: 0.3"/>
      </g>
     </g>
    </g>
    <g id="xtick_35">
     <g id="line2d_56">
      <g>
       <use xlink:href="#mf57c0b7fd4" x="241.547671" y="105.280543" style="stroke: #000000; stroke-width: 0.3"/>
      </g>
     </g>
    </g>
    <g id="xtick_36">
     <g id="line2d_57">
      <g>
       <use xlink:href="#mf57c0b7fd4" x="247.018259" y="105.280543" style="stroke: #000000; stroke-width: 0.3"/>
      </g>
     </g>
    </g>
    <g id="xtick_37">
     <g id="line2d_58">
      <g>
       <use xlink:href="#mf57c0b7fd4" x="252.488847" y="105.280543" style="stroke: #000000; stroke-width: 0.3"/>
      </g>
     </g>
    </g>
    <g id="xtick_38">
     <g id="line2d_59">
      <g>
       <use xlink:href="#mf57c0b7fd4" x="257.959436" y="105.280543" style="stroke: #000000; stroke-width: 0.3"/>
      </g>
     </g>
    </g>
    <g id="text_14">
     <!-- $\hat{t}$ -->
     <g transform="translate(205.908292 128.861001) scale(0.11 -0.11)">
      <use xlink:href="#CMR17-5e" transform="translate(2.89708 18.389976) scale(0.996264)"/>
      <use xlink:href="#CMMI12-74" transform="scale(0.996264)"/>
     </g>
    </g>
   </g>
   <g id="matplotlib.axis_4">
    <g id="ytick_21">
     <g id="line2d_60">
      <g>
       <use xlink:href="#mfe0363d72f" x="159.488847" y="105.280543" style="stroke: #000000; stroke-width: 0.3"/>
      </g>
     </g>
    </g>
    <g id="ytick_22">
     <g id="line2d_61">
      <g>
       <use xlink:href="#mfe0363d72f" x="159.488847" y="84.17529" style="stroke: #000000; stroke-width: 0.3"/>
      </g>
     </g>
    </g>
    <g id="ytick_23">
     <g id="line2d_62">
      <g>
       <use xlink:href="#mfe0363d72f" x="159.488847" y="63.070037" style="stroke: #000000; stroke-width: 0.3"/>
      </g>
     </g>
    </g>
    <g id="ytick_24">
     <g id="line2d_63">
      <g>
       <use xlink:href="#mfe0363d72f" x="159.488847" y="41.964784" style="stroke: #000000; stroke-width: 0.3"/>
      </g>
     </g>
    </g>
    <g id="ytick_25">
     <g id="line2d_64">
      <g>
       <use xlink:href="#m06ba783e0f" x="159.488847" y="101.059492" style="stroke: #000000; stroke-width: 0.3"/>
      </g>
     </g>
    </g>
    <g id="ytick_26">
     <g id="line2d_65">
      <g>
       <use xlink:href="#m06ba783e0f" x="159.488847" y="96.838442" style="stroke: #000000; stroke-width: 0.3"/>
      </g>
     </g>
    </g>
    <g id="ytick_27">
     <g id="line2d_66">
      <g>
       <use xlink:href="#m06ba783e0f" x="159.488847" y="92.617391" style="stroke: #000000; stroke-width: 0.3"/>
      </g>
     </g>
    </g>
    <g id="ytick_28">
     <g id="line2d_67">
      <g>
       <use xlink:href="#m06ba783e0f" x="159.488847" y="88.39634" style="stroke: #000000; stroke-width: 0.3"/>
      </g>
     </g>
    </g>
    <g id="ytick_29">
     <g id="line2d_68">
      <g>
       <use xlink:href="#m06ba783e0f" x="159.488847" y="79.954239" style="stroke: #000000; stroke-width: 0.3"/>
      </g>
     </g>
    </g>
    <g id="ytick_30">
     <g id="line2d_69">
      <g>
       <use xlink:href="#m06ba783e0f" x="159.488847" y="75.733189" style="stroke: #000000; stroke-width: 0.3"/>
      </g>
     </g>
    </g>
    <g id="ytick_31">
     <g id="line2d_70">
      <g>
       <use xlink:href="#m06ba783e0f" x="159.488847" y="71.512138" style="stroke: #000000; stroke-width: 0.3"/>
      </g>
     </g>
    </g>
    <g id="ytick_32">
     <g id="line2d_71">
      <g>
       <use xlink:href="#m06ba783e0f" x="159.488847" y="67.291087" style="stroke: #000000; stroke-width: 0.3"/>
      </g>
     </g>
    </g>
    <g id="ytick_33">
     <g id="line2d_72">
      <g>
       <use xlink:href="#m06ba783e0f" x="159.488847" y="58.848986" style="stroke: #000000; stroke-width: 0.3"/>
      </g>
     </g>
    </g>
    <g id="ytick_34">
     <g id="line2d_73">
      <g>
       <use xlink:href="#m06ba783e0f" x="159.488847" y="54.627936" style="stroke: #000000; stroke-width: 0.3"/>
      </g>
     </g>
    </g>
    <g id="ytick_35">
     <g id="line2d_74">
      <g>
       <use xlink:href="#m06ba783e0f" x="159.488847" y="50.406885" style="stroke: #000000; stroke-width: 0.3"/>
      </g>
     </g>
    </g>
    <g id="ytick_36">
     <g id="line2d_75">
      <g>
       <use xlink:href="#m06ba783e0f" x="159.488847" y="46.185834" style="stroke: #000000; stroke-width: 0.3"/>
      </g>
     </g>
    </g>
    <g id="ytick_37">
     <g id="line2d_76">
      <g>
       <use xlink:href="#m06ba783e0f" x="159.488847" y="37.743733" style="stroke: #000000; stroke-width: 0.3"/>
      </g>
     </g>
    </g>
    <g id="ytick_38">
     <g id="line2d_77">
      <g>
       <use xlink:href="#m06ba783e0f" x="159.488847" y="33.522683" style="stroke: #000000; stroke-width: 0.3"/>
      </g>
     </g>
    </g>
    <g id="ytick_39">
     <g id="line2d_78">
      <g>
       <use xlink:href="#m06ba783e0f" x="159.488847" y="29.301632" style="stroke: #000000; stroke-width: 0.3"/>
      </g>
     </g>
    </g>
    <g id="ytick_40">
     <g id="line2d_79">
      <g>
       <use xlink:href="#m06ba783e0f" x="159.488847" y="25.080581" style="stroke: #000000; stroke-width: 0.3"/>
      </g>
     </g>
    </g>
   </g>
   <g id="line2d_80">
    <path d="M 159.488847 105.277465 
L 160.4835 105.276217 
L 161.478152 105.274493 
L 162.472805 105.272121 
L 163.467457 105.268876 
L 164.462109 105.264462 
L 165.456762 105.258491 
L 166.451414 105.25046 
L 167.446067 105.239722 
L 168.440719 105.225451 
L 169.435371 105.206604 
L 170.430024 105.181869 
L 171.424676 105.149617 
L 172.419329 105.107842 
L 173.413981 105.054098 
L 174.408633 104.985434 
L 175.403286 104.898327 
L 176.397938 104.788623 
L 177.392591 104.651477 
L 178.387243 104.481318 
L 179.381895 104.271827 
L 180.376548 104.015944 
L 181.3712 103.705913 
L 182.365853 103.333371 
L 183.360505 102.889486 
L 184.355157 102.365159 
L 185.34981 101.751287 
L 186.344462 101.039093 
L 187.339115 100.220513 
L 188.333767 99.288651 
L 189.328419 98.238268 
L 190.323072 97.066307 
L 191.317724 95.772412 
L 192.312377 94.359437 
L 193.307029 92.833881 
L 194.301682 91.206251 
L 195.296334 89.49128 
L 196.290986 87.708008 
L 197.285639 85.879658 
L 198.280291 84.033327 
L 199.274944 82.199447 
L 200.269596 80.411053 
L 201.264248 78.702852 
L 202.258901 77.110137 
L 203.253553 75.667583 
L 204.248206 74.407995 
L 205.242858 73.361051 
L 206.23751 72.552126 
L 207.232163 72.001252 
L 208.226815 71.722276 
L 209.221468 71.722276 
L 210.21612 72.001252 
L 211.210772 72.552126 
L 212.205425 73.361051 
L 213.200077 74.407995 
L 214.19473 75.667583 
L 215.189382 77.110137 
L 216.184034 78.702852 
L 217.178687 80.411053 
L 218.173339 82.199447 
L 219.167992 84.033327 
L 220.162644 85.879658 
L 221.157296 87.708008 
L 222.151949 89.49128 
L 223.146601 91.206251 
L 224.141254 92.833881 
L 225.135906 94.359437 
L 226.130559 95.772412 
L 227.125211 97.066307 
L 228.119863 98.238268 
L 229.114516 99.288651 
L 230.109168 100.220513 
L 231.103821 101.039093 
L 232.098473 101.751287 
L 233.093125 102.365159 
L 234.087778 102.889486 
L 235.08243 103.333371 
L 236.077083 103.705913 
L 237.071735 104.015944 
L 238.066387 104.271827 
L 239.06104 104.481318 
L 240.055692 104.651477 
L 241.050345 104.788623 
L 242.044997 104.898327 
L 243.039649 104.985434 
L 244.034302 105.054098 
L 245.028954 105.107842 
L 246.023607 105.149617 
L 247.018259 105.181869 
L 248.012911 105.206604 
L 249.007564 105.225451 
L 250.002216 105.239722 
L 250.996869 105.25046 
L 251.991521 105.258491 
L 252.986173 105.264462 
L 253.980826 105.268876 
L 254.975478 105.272121 
L 255.970131 105.274493 
L 256.964783 105.276217 
L 257.959436 105.277465 
" clip-path="url(#pa14fd93f41)" style="fill: none; stroke: #db4e4e; stroke-linecap: square"/>
   </g>
   <g id="patch_108">
    <path d="M 159.488847 105.280543 
L 159.488847 22.120543 
" style="fill: none; stroke: #000000; stroke-width: 0.3; stroke-linejoin: miter; stroke-linecap: square"/>
   </g>
   <g id="patch_109">
    <path d="M 257.959436 105.280543 
L 257.959436 22.120543 
" style="fill: none; stroke: #000000; stroke-width: 0.3; stroke-linejoin: miter; stroke-linecap: square"/>
   </g>
   <g id="patch_110">
    <path d="M 159.488847 105.280543 
L 257.959436 105.280543 
" style="fill: none; stroke: #000000; stroke-width: 0.3; stroke-linejoin: miter; stroke-linecap: square"/>
   </g>
   <g id="patch_111">
    <path d="M 159.488847 22.120543 
L 257.959436 22.120543 
" style="fill: none; stroke: #000000; stroke-width: 0.3; stroke-linejoin: miter; stroke-linecap: square"/>
   </g>
   <g id="text_15">
    <!-- $\rho = 0.7$ ($\sigma_\varepsilon = 0.42$) -->
    <g transform="translate(162.998009 16.120543) scale(0.11 -0.11)">
     <defs>
      <path id="CMMI12-1a" d="M 198 -1085 
C 192 -1116 179 -1154 179 -1191 
C 179 -1287 256 -1351 352 -1351 
C 448 -1351 538 -1287 576 -1198 
C 602 -1141 781 -390 986 389 
C 1114 70 1350 -64 1600 -64 
C 2323 -64 3142 830 3142 1794 
C 3142 2477 2726 2816 2285 2816 
C 1722 2816 1037 2234 826 1385 
L 198 -1085 
z
M 1594 64 
C 1158 64 1050 568 1050 645 
C 1050 683 1210 1289 1229 1385 
C 1555 2656 2182 2687 2278 2687 
C 2566 2687 2726 2426 2726 2049 
C 2726 1724 2554 1091 2445 823 
C 2253 383 1920 64 1594 64 
z
" transform="scale(0.015625)"/>
     </defs>
     <use xlink:href="#CMMI12-1a" transform="scale(0.996264)"/>
     <use xlink:href="#CMR17-3d" transform="translate(77.988382 0) scale(0.996264)"/>
     <use xlink:href="#CMR17-30" transform="translate(177.377179 0) scale(0.996264)"/>
     <use xlink:href="#CMMI12-3a" transform="translate(223.067656 0) scale(0.996264)"/>
     <use xlink:href="#CMR17-37" transform="translate(250.164833 0) scale(0.996264)"/>
     <use xlink:href="#CMR17-28" transform="translate(325.931276 0) scale(0.996264)"/>
     <use xlink:href="#CMMI12-1b" transform="translate(361.212044 0) scale(0.996264)"/>
     <use xlink:href="#CMMI12-22" transform="translate(416.657505 -14.943915) scale(0.697382)"/>
     <use xlink:href="#CMR17-3d" transform="translate(476.784628 0) scale(0.996264)"/>
     <use xlink:href="#CMR17-30" transform="translate(576.173426 0) scale(0.996264)"/>
     <use xlink:href="#CMMI12-3a" transform="translate(621.863903 0) scale(0.996264)"/>
     <use xlink:href="#CMR17-34" transform="translate(648.96108 0) scale(0.996264)"/>
     <use xlink:href="#CMR17-32" transform="translate(694.651557 0) scale(0.996264)"/>
     <use xlink:href="#CMR17-29" transform="translate(740.342034 0) scale(0.996264)"/>
    </g>
   </g>
  </g>
  <g id="axes_3">
   <g id="patch_112">
    <path d="M 277.653553 105.280543 
L 376.124141 105.280543 
L 376.124141 22.120543 
L 277.653553 22.120543 
z
" style="fill: #ffffff"/>
   </g>
   <g id="patch_113">
    <path d="M 308.239944 105.280543 
L 309.016662 105.280543 
L 309.016662 105.042705 
L 308.239944 105.042705 
z
" clip-path="url(#p9469880594)" style="fill: #335791"/>
   </g>
   <g id="patch_114">
    <path d="M 309.016662 105.280543 
L 309.793381 105.280543 
L 309.793381 105.042705 
L 309.016662 105.042705 
z
" clip-path="url(#p9469880594)" style="fill: #335791"/>
   </g>
   <g id="patch_115">
    <path d="M 309.793381 105.280543 
L 310.570099 105.280543 
L 310.570099 104.923786 
L 309.793381 104.923786 
z
" clip-path="url(#p9469880594)" style="fill: #335791"/>
   </g>
   <g id="patch_116">
    <path d="M 310.570099 105.280543 
L 311.346818 105.280543 
L 311.346818 105.042705 
L 310.570099 105.042705 
z
" clip-path="url(#p9469880594)" style="fill: #335791"/>
   </g>
   <g id="patch_117">
    <path d="M 311.346818 105.280543 
L 312.123536 105.280543 
L 312.123536 104.329191 
L 311.346818 104.329191 
z
" clip-path="url(#p9469880594)" style="fill: #335791"/>
   </g>
   <g id="patch_118">
    <path d="M 312.123536 105.280543 
L 312.900255 105.280543 
L 312.900255 103.734597 
L 312.123536 103.734597 
z
" clip-path="url(#p9469880594)" style="fill: #335791"/>
   </g>
   <g id="patch_119">
    <path d="M 312.900255 105.280543 
L 313.676973 105.280543 
L 313.676973 103.615678 
L 312.900255 103.615678 
z
" clip-path="url(#p9469880594)" style="fill: #335791"/>
   </g>
   <g id="patch_120">
    <path d="M 313.676973 105.280543 
L 314.453692 105.280543 
L 314.453692 102.069732 
L 313.676973 102.069732 
z
" clip-path="url(#p9469880594)" style="fill: #335791"/>
   </g>
   <g id="patch_121">
    <path d="M 314.453692 105.280543 
L 315.23041 105.280543 
L 315.23041 100.999462 
L 314.453692 100.999462 
z
" clip-path="url(#p9469880594)" style="fill: #335791"/>
   </g>
   <g id="patch_122">
    <path d="M 315.23041 105.280543 
L 316.007128 105.280543 
L 316.007128 101.237299 
L 315.23041 101.237299 
z
" clip-path="url(#p9469880594)" style="fill: #335791"/>
   </g>
   <g id="patch_123">
    <path d="M 316.007128 105.280543 
L 316.783847 105.280543 
L 316.783847 99.691354 
L 316.007128 99.691354 
z
" clip-path="url(#p9469880594)" style="fill: #335791"/>
   </g>
   <g id="patch_124">
    <path d="M 316.783847 105.280543 
L 317.560565 105.280543 
L 317.560565 98.264326 
L 316.783847 98.264326 
z
" clip-path="url(#p9469880594)" style="fill: #335791"/>
   </g>
   <g id="patch_125">
    <path d="M 317.560565 105.280543 
L 318.337284 105.280543 
L 318.337284 90.653516 
L 317.560565 90.653516 
z
" clip-path="url(#p9469880594)" style="fill: #335791"/>
   </g>
   <g id="patch_126">
    <path d="M 318.337284 105.280543 
L 319.114002 105.280543 
L 319.114002 84.945408 
L 318.337284 84.945408 
z
" clip-path="url(#p9469880594)" style="fill: #335791"/>
   </g>
   <g id="patch_127">
    <path d="M 319.114002 105.280543 
L 319.890721 105.280543 
L 319.890721 82.329191 
L 319.114002 82.329191 
z
" clip-path="url(#p9469880594)" style="fill: #335791"/>
   </g>
   <g id="patch_128">
    <path d="M 319.890721 105.280543 
L 320.667439 105.280543 
L 320.667439 78.523786 
L 319.890721 78.523786 
z
" clip-path="url(#p9469880594)" style="fill: #335791"/>
   </g>
   <g id="patch_129">
    <path d="M 320.667439 105.280543 
L 321.444158 105.280543 
L 321.444158 72.221083 
L 320.667439 72.221083 
z
" clip-path="url(#p9469880594)" style="fill: #335791"/>
   </g>
   <g id="patch_130">
    <path d="M 321.444158 105.280543 
L 322.220876 105.280543 
L 322.220876 61.875137 
L 321.444158 61.875137 
z
" clip-path="url(#p9469880594)" style="fill: #335791"/>
   </g>
   <g id="patch_131">
    <path d="M 322.220876 105.280543 
L 322.997595 105.280543 
L 322.997595 56.167029 
L 322.220876 56.167029 
z
" clip-path="url(#p9469880594)" style="fill: #335791"/>
   </g>
   <g id="patch_132">
    <path d="M 322.997595 105.280543 
L 323.774313 105.280543 
L 323.774313 47.604867 
L 322.997595 47.604867 
z
" clip-path="url(#p9469880594)" style="fill: #335791"/>
   </g>
   <g id="patch_133">
    <path d="M 323.774313 105.280543 
L 324.551031 105.280543 
L 324.551031 40.945408 
L 323.774313 40.945408 
z
" clip-path="url(#p9469880594)" style="fill: #335791"/>
   </g>
   <g id="patch_134">
    <path d="M 324.551031 105.280543 
L 325.32775 105.280543 
L 325.32775 31.669732 
L 324.551031 31.669732 
z
" clip-path="url(#p9469880594)" style="fill: #335791"/>
   </g>
   <g id="patch_135">
    <path d="M 325.32775 105.280543 
L 326.104468 105.280543 
L 326.104468 27.150813 
L 325.32775 27.150813 
z
" clip-path="url(#p9469880594)" style="fill: #335791"/>
   </g>
   <g id="patch_136">
    <path d="M 326.104468 105.280543 
L 326.881187 105.280543 
L 326.881187 28.815678 
L 326.104468 28.815678 
z
" clip-path="url(#p9469880594)" style="fill: #335791"/>
   </g>
   <g id="patch_137">
    <path d="M 326.881187 105.280543 
L 327.657905 105.280543 
L 327.657905 26.080543 
L 326.881187 26.080543 
z
" clip-path="url(#p9469880594)" style="fill: #335791"/>
   </g>
   <g id="patch_138">
    <path d="M 327.657905 105.280543 
L 328.434624 105.280543 
L 328.434624 27.745408 
L 327.657905 27.745408 
z
" clip-path="url(#p9469880594)" style="fill: #335791"/>
   </g>
   <g id="patch_139">
    <path d="M 328.434624 105.280543 
L 329.211342 105.280543 
L 329.211342 28.221083 
L 328.434624 28.221083 
z
" clip-path="url(#p9469880594)" style="fill: #335791"/>
   </g>
   <g id="patch_140">
    <path d="M 329.211342 105.280543 
L 329.988061 105.280543 
L 329.988061 40.469732 
L 329.211342 40.469732 
z
" clip-path="url(#p9469880594)" style="fill: #335791"/>
   </g>
   <g id="patch_141">
    <path d="M 329.988061 105.280543 
L 330.764779 105.280543 
L 330.764779 45.345408 
L 329.988061 45.345408 
z
" clip-path="url(#p9469880594)" style="fill: #335791"/>
   </g>
   <g id="patch_142">
    <path d="M 330.764779 105.280543 
L 331.541498 105.280543 
L 331.541498 57.356218 
L 330.764779 57.356218 
z
" clip-path="url(#p9469880594)" style="fill: #335791"/>
   </g>
   <g id="patch_143">
    <path d="M 331.541498 105.280543 
L 332.318216 105.280543 
L 332.318216 64.610272 
L 331.541498 64.610272 
z
" clip-path="url(#p9469880594)" style="fill: #335791"/>
   </g>
   <g id="patch_144">
    <path d="M 332.318216 105.280543 
L 333.094934 105.280543 
L 333.094934 69.842705 
L 332.318216 69.842705 
z
" clip-path="url(#p9469880594)" style="fill: #335791"/>
   </g>
   <g id="patch_145">
    <path d="M 333.094934 105.280543 
L 333.871653 105.280543 
L 333.871653 72.340002 
L 333.094934 72.340002 
z
" clip-path="url(#p9469880594)" style="fill: #335791"/>
   </g>
   <g id="patch_146">
    <path d="M 333.871653 105.280543 
L 334.648371 105.280543 
L 334.648371 83.756218 
L 333.871653 83.756218 
z
" clip-path="url(#p9469880594)" style="fill: #335791"/>
   </g>
   <g id="patch_147">
    <path d="M 334.648371 105.280543 
L 335.42509 105.280543 
L 335.42509 88.037299 
L 334.648371 88.037299 
z
" clip-path="url(#p9469880594)" style="fill: #335791"/>
   </g>
   <g id="patch_148">
    <path d="M 335.42509 105.280543 
L 336.201808 105.280543 
L 336.201808 93.864326 
L 335.42509 93.864326 
z
" clip-path="url(#p9469880594)" style="fill: #335791"/>
   </g>
   <g id="patch_149">
    <path d="M 336.201808 105.280543 
L 336.978527 105.280543 
L 336.978527 96.837299 
L 336.201808 96.837299 
z
" clip-path="url(#p9469880594)" style="fill: #335791"/>
   </g>
   <g id="patch_150">
    <path d="M 336.978527 105.280543 
L 337.755245 105.280543 
L 337.755245 97.669732 
L 336.978527 97.669732 
z
" clip-path="url(#p9469880594)" style="fill: #335791"/>
   </g>
   <g id="patch_151">
    <path d="M 337.755245 105.280543 
L 338.531964 105.280543 
L 338.531964 100.404867 
L 337.755245 100.404867 
z
" clip-path="url(#p9469880594)" style="fill: #335791"/>
   </g>
   <g id="patch_152">
    <path d="M 338.531964 105.280543 
L 339.308682 105.280543 
L 339.308682 101.237299 
L 338.531964 101.237299 
z
" clip-path="url(#p9469880594)" style="fill: #335791"/>
   </g>
   <g id="patch_153">
    <path d="M 339.308682 105.280543 
L 340.085401 105.280543 
L 340.085401 101.712975 
L 339.308682 101.712975 
z
" clip-path="url(#p9469880594)" style="fill: #335791"/>
   </g>
   <g id="patch_154">
    <path d="M 340.085401 105.280543 
L 340.862119 105.280543 
L 340.862119 103.37784 
L 340.085401 103.37784 
z
" clip-path="url(#p9469880594)" style="fill: #335791"/>
   </g>
   <g id="patch_155">
    <path d="M 340.862119 105.280543 
L 341.638837 105.280543 
L 341.638837 104.44811 
L 340.862119 104.44811 
z
" clip-path="url(#p9469880594)" style="fill: #335791"/>
   </g>
   <g id="patch_156">
    <path d="M 341.638837 105.280543 
L 342.415556 105.280543 
L 342.415556 104.685948 
L 341.638837 104.685948 
z
" clip-path="url(#p9469880594)" style="fill: #335791"/>
   </g>
   <g id="patch_157">
    <path d="M 342.415556 105.280543 
L 343.192274 105.280543 
L 343.192274 104.685948 
L 342.415556 104.685948 
z
" clip-path="url(#p9469880594)" style="fill: #335791"/>
   </g>
   <g id="patch_158">
    <path d="M 343.192274 105.280543 
L 343.968993 105.280543 
L 343.968993 104.685948 
L 343.192274 104.685948 
z
" clip-path="url(#p9469880594)" style="fill: #335791"/>
   </g>
   <g id="patch_159">
    <path d="M 343.968993 105.280543 
L 344.745711 105.280543 
L 344.745711 105.161624 
L 343.968993 105.161624 
z
" clip-path="url(#p9469880594)" style="fill: #335791"/>
   </g>
   <g id="patch_160">
    <path d="M 344.745711 105.280543 
L 345.52243 105.280543 
L 345.52243 104.923786 
L 344.745711 104.923786 
z
" clip-path="url(#p9469880594)" style="fill: #335791"/>
   </g>
   <g id="patch_161">
    <path d="M 345.52243 105.280543 
L 346.299148 105.280543 
L 346.299148 105.280543 
L 345.52243 105.280543 
z
" clip-path="url(#p9469880594)" style="fill: #335791"/>
   </g>
   <g id="patch_162">
    <path d="M 346.299148 105.280543 
L 347.075867 105.280543 
L 347.075867 105.161624 
L 346.299148 105.161624 
z
" clip-path="url(#p9469880594)" style="fill: #335791"/>
   </g>
   <g id="matplotlib.axis_5">
    <g id="xtick_39">
     <g id="line2d_81">
      <g>
       <use xlink:href="#m47333181d1" x="299.535906" y="105.280543" style="stroke: #000000; stroke-width: 0.5"/>
      </g>
     </g>
     <g id="text_16">
      <!-- $\mathdefault{−2.5}$ -->
      <g transform="translate(290.064542 115.507193) scale(0.09 -0.09)">
       <use xlink:href="#CMSY10-0" transform="scale(0.996264)"/>
       <use xlink:href="#CMR17-32" transform="translate(77.487468 0) scale(0.996264)"/>
       <use xlink:href="#CMMI12-3a" transform="translate(123.177945 0) scale(0.996264)"/>
       <use xlink:href="#CMR17-35" transform="translate(150.275122 0) scale(0.996264)"/>
      </g>
     </g>
    </g>
    <g id="xtick_40">
     <g id="line2d_82">
      <g>
       <use xlink:href="#m47333181d1" x="326.888847" y="105.280543" style="stroke: #000000; stroke-width: 0.5"/>
      </g>
     </g>
     <g id="text_17">
      <!-- $\mathdefault{0.0}$ -->
      <g transform="translate(321.001243 115.507193) scale(0.09 -0.09)">
       <use xlink:href="#CMR17-30" transform="scale(0.996264)"/>
       <use xlink:href="#CMMI12-3a" transform="translate(45.690477 0) scale(0.996264)"/>
       <use xlink:href="#CMR17-30" transform="translate(72.787654 0) scale(0.996264)"/>
      </g>
     </g>
    </g>
    <g id="xtick_41">
     <g id="line2d_83">
      <g>
       <use xlink:href="#m47333181d1" x="354.241788" y="105.280543" style="stroke: #000000; stroke-width: 0.5"/>
      </g>
     </g>
     <g id="text_18">
      <!-- $\mathdefault{2.5}$ -->
      <g transform="translate(348.354184 115.507193) scale(0.09 -0.09)">
       <use xlink:href="#CMR17-32" transform="scale(0.996264)"/>
       <use xlink:href="#CMMI12-3a" transform="translate(45.690477 0) scale(0.996264)"/>
       <use xlink:href="#CMR17-35" transform="translate(72.787654 0) scale(0.996264)"/>
      </g>
     </g>
    </g>
    <g id="xtick_42">
     <g id="line2d_84">
      <g>
       <use xlink:href="#mf57c0b7fd4" x="277.653553" y="105.280543" style="stroke: #000000; stroke-width: 0.3"/>
      </g>
     </g>
    </g>
    <g id="xtick_43">
     <g id="line2d_85">
      <g>
       <use xlink:href="#mf57c0b7fd4" x="283.124141" y="105.280543" style="stroke: #000000; stroke-width: 0.3"/>
      </g>
     </g>
    </g>
    <g id="xtick_44">
     <g id="line2d_86">
      <g>
       <use xlink:href="#mf57c0b7fd4" x="288.59473" y="105.280543" style="stroke: #000000; stroke-width: 0.3"/>
      </g>
     </g>
    </g>
    <g id="xtick_45">
     <g id="line2d_87">
      <g>
       <use xlink:href="#mf57c0b7fd4" x="294.065318" y="105.280543" style="stroke: #000000; stroke-width: 0.3"/>
      </g>
     </g>
    </g>
    <g id="xtick_46">
     <g id="line2d_88">
      <g>
       <use xlink:href="#mf57c0b7fd4" x="305.006494" y="105.280543" style="stroke: #000000; stroke-width: 0.3"/>
      </g>
     </g>
    </g>
    <g id="xtick_47">
     <g id="line2d_89">
      <g>
       <use xlink:href="#mf57c0b7fd4" x="310.477083" y="105.280543" style="stroke: #000000; stroke-width: 0.3"/>
      </g>
     </g>
    </g>
    <g id="xtick_48">
     <g id="line2d_90">
      <g>
       <use xlink:href="#mf57c0b7fd4" x="315.947671" y="105.280543" style="stroke: #000000; stroke-width: 0.3"/>
      </g>
     </g>
    </g>
    <g id="xtick_49">
     <g id="line2d_91">
      <g>
       <use xlink:href="#mf57c0b7fd4" x="321.418259" y="105.280543" style="stroke: #000000; stroke-width: 0.3"/>
      </g>
     </g>
    </g>
    <g id="xtick_50">
     <g id="line2d_92">
      <g>
       <use xlink:href="#mf57c0b7fd4" x="332.359436" y="105.280543" style="stroke: #000000; stroke-width: 0.3"/>
      </g>
     </g>
    </g>
    <g id="xtick_51">
     <g id="line2d_93">
      <g>
       <use xlink:href="#mf57c0b7fd4" x="337.830024" y="105.280543" style="stroke: #000000; stroke-width: 0.3"/>
      </g>
     </g>
    </g>
    <g id="xtick_52">
     <g id="line2d_94">
      <g>
       <use xlink:href="#mf57c0b7fd4" x="343.300612" y="105.280543" style="stroke: #000000; stroke-width: 0.3"/>
      </g>
     </g>
    </g>
    <g id="xtick_53">
     <g id="line2d_95">
      <g>
       <use xlink:href="#mf57c0b7fd4" x="348.7712" y="105.280543" style="stroke: #000000; stroke-width: 0.3"/>
      </g>
     </g>
    </g>
    <g id="xtick_54">
     <g id="line2d_96">
      <g>
       <use xlink:href="#mf57c0b7fd4" x="359.712377" y="105.280543" style="stroke: #000000; stroke-width: 0.3"/>
      </g>
     </g>
    </g>
    <g id="xtick_55">
     <g id="line2d_97">
      <g>
       <use xlink:href="#mf57c0b7fd4" x="365.182965" y="105.280543" style="stroke: #000000; stroke-width: 0.3"/>
      </g>
     </g>
    </g>
    <g id="xtick_56">
     <g id="line2d_98">
      <g>
       <use xlink:href="#mf57c0b7fd4" x="370.653553" y="105.280543" style="stroke: #000000; stroke-width: 0.3"/>
      </g>
     </g>
    </g>
    <g id="xtick_57">
     <g id="line2d_99">
      <g>
       <use xlink:href="#mf57c0b7fd4" x="376.124141" y="105.280543" style="stroke: #000000; stroke-width: 0.3"/>
      </g>
     </g>
    </g>
    <g id="text_19">
     <!-- $\hat{t}$ -->
     <g transform="translate(324.072998 128.861001) scale(0.11 -0.11)">
      <use xlink:href="#CMR17-5e" transform="translate(2.89708 18.389976) scale(0.996264)"/>
      <use xlink:href="#CMMI12-74" transform="scale(0.996264)"/>
     </g>
    </g>
   </g>
   <g id="matplotlib.axis_6">
    <g id="ytick_41">
     <g id="line2d_100">
      <g>
       <use xlink:href="#mfe0363d72f" x="277.653553" y="105.280543" style="stroke: #000000; stroke-width: 0.3"/>
      </g>
     </g>
    </g>
    <g id="ytick_42">
     <g id="line2d_101">
      <g>
       <use xlink:href="#mfe0363d72f" x="277.653553" y="84.17529" style="stroke: #000000; stroke-width: 0.3"/>
      </g>
     </g>
    </g>
    <g id="ytick_43">
     <g id="line2d_102">
      <g>
       <use xlink:href="#mfe0363d72f" x="277.653553" y="63.070037" style="stroke: #000000; stroke-width: 0.3"/>
      </g>
     </g>
    </g>
    <g id="ytick_44">
     <g id="line2d_103">
      <g>
       <use xlink:href="#mfe0363d72f" x="277.653553" y="41.964784" style="stroke: #000000; stroke-width: 0.3"/>
      </g>
     </g>
    </g>
    <g id="ytick_45">
     <g id="line2d_104">
      <g>
       <use xlink:href="#m06ba783e0f" x="277.653553" y="101.059492" style="stroke: #000000; stroke-width: 0.3"/>
      </g>
     </g>
    </g>
    <g id="ytick_46">
     <g id="line2d_105">
      <g>
       <use xlink:href="#m06ba783e0f" x="277.653553" y="96.838442" style="stroke: #000000; stroke-width: 0.3"/>
      </g>
     </g>
    </g>
    <g id="ytick_47">
     <g id="line2d_106">
      <g>
       <use xlink:href="#m06ba783e0f" x="277.653553" y="92.617391" style="stroke: #000000; stroke-width: 0.3"/>
      </g>
     </g>
    </g>
    <g id="ytick_48">
     <g id="line2d_107">
      <g>
       <use xlink:href="#m06ba783e0f" x="277.653553" y="88.39634" style="stroke: #000000; stroke-width: 0.3"/>
      </g>
     </g>
    </g>
    <g id="ytick_49">
     <g id="line2d_108">
      <g>
       <use xlink:href="#m06ba783e0f" x="277.653553" y="79.954239" style="stroke: #000000; stroke-width: 0.3"/>
      </g>
     </g>
    </g>
    <g id="ytick_50">
     <g id="line2d_109">
      <g>
       <use xlink:href="#m06ba783e0f" x="277.653553" y="75.733189" style="stroke: #000000; stroke-width: 0.3"/>
      </g>
     </g>
    </g>
    <g id="ytick_51">
     <g id="line2d_110">
      <g>
       <use xlink:href="#m06ba783e0f" x="277.653553" y="71.512138" style="stroke: #000000; stroke-width: 0.3"/>
      </g>
     </g>
    </g>
    <g id="ytick_52">
     <g id="line2d_111">
      <g>
       <use xlink:href="#m06ba783e0f" x="277.653553" y="67.291087" style="stroke: #000000; stroke-width: 0.3"/>
      </g>
     </g>
    </g>
    <g id="ytick_53">
     <g id="line2d_112">
      <g>
       <use xlink:href="#m06ba783e0f" x="277.653553" y="58.848986" style="stroke: #000000; stroke-width: 0.3"/>
      </g>
     </g>
    </g>
    <g id="ytick_54">
     <g id="line2d_113">
      <g>
       <use xlink:href="#m06ba783e0f" x="277.653553" y="54.627936" style="stroke: #000000; stroke-width: 0.3"/>
      </g>
     </g>
    </g>
    <g id="ytick_55">
     <g id="line2d_114">
      <g>
       <use xlink:href="#m06ba783e0f" x="277.653553" y="50.406885" style="stroke: #000000; stroke-width: 0.3"/>
      </g>
     </g>
    </g>
    <g id="ytick_56">
     <g id="line2d_115">
      <g>
       <use xlink:href="#m06ba783e0f" x="277.653553" y="46.185834" style="stroke: #000000; stroke-width: 0.3"/>
      </g>
     </g>
    </g>
    <g id="ytick_57">
     <g id="line2d_116">
      <g>
       <use xlink:href="#m06ba783e0f" x="277.653553" y="37.743733" style="stroke: #000000; stroke-width: 0.3"/>
      </g>
     </g>
    </g>
    <g id="ytick_58">
     <g id="line2d_117">
      <g>
       <use xlink:href="#m06ba783e0f" x="277.653553" y="33.522683" style="stroke: #000000; stroke-width: 0.3"/>
      </g>
     </g>
    </g>
    <g id="ytick_59">
     <g id="line2d_118">
      <g>
       <use xlink:href="#m06ba783e0f" x="277.653553" y="29.301632" style="stroke: #000000; stroke-width: 0.3"/>
      </g>
     </g>
    </g>
    <g id="ytick_60">
     <g id="line2d_119">
      <g>
       <use xlink:href="#m06ba783e0f" x="277.653553" y="25.080581" style="stroke: #000000; stroke-width: 0.3"/>
      </g>
     </g>
    </g>
   </g>
   <g id="line2d_120">
    <path d="M 277.653553 105.277465 
L 278.648206 105.276217 
L 279.642858 105.274493 
L 280.63751 105.272121 
L 281.632163 105.268876 
L 282.626815 105.264462 
L 283.621468 105.258491 
L 284.61612 105.25046 
L 285.610772 105.239722 
L 286.605425 105.225451 
L 287.600077 105.206604 
L 288.59473 105.181869 
L 289.589382 105.149617 
L 290.584034 105.107842 
L 291.578687 105.054098 
L 292.573339 104.985434 
L 293.567992 104.898327 
L 294.562644 104.788623 
L 295.557296 104.651477 
L 296.551949 104.481318 
L 297.546601 104.271827 
L 298.541254 104.015944 
L 299.535906 103.705913 
L 300.530559 103.333371 
L 301.525211 102.889486 
L 302.519863 102.365159 
L 303.514516 101.751287 
L 304.509168 101.039093 
L 305.503821 100.220513 
L 306.498473 99.288651 
L 307.493125 98.238268 
L 308.487778 97.066307 
L 309.48243 95.772412 
L 310.477083 94.359437 
L 311.471735 92.833881 
L 312.466387 91.206251 
L 313.46104 89.49128 
L 314.455692 87.708008 
L 315.450345 85.879658 
L 316.444997 84.033327 
L 317.439649 82.199447 
L 318.434302 80.411053 
L 319.428954 78.702852 
L 320.423607 77.110137 
L 321.418259 75.667583 
L 322.412911 74.407995 
L 323.407564 73.361051 
L 324.402216 72.552126 
L 325.396869 72.001252 
L 326.391521 71.722276 
L 327.386173 71.722276 
L 328.380826 72.001252 
L 329.375478 72.552126 
L 330.370131 73.361051 
L 331.364783 74.407995 
L 332.359436 75.667583 
L 333.354088 77.110137 
L 334.34874 78.702852 
L 335.343393 80.411053 
L 336.338045 82.199447 
L 337.332698 84.033327 
L 338.32735 85.879658 
L 339.322002 87.708008 
L 340.316655 89.49128 
L 341.311307 91.206251 
L 342.30596 92.833881 
L 343.300612 94.359437 
L 344.295264 95.772412 
L 345.289917 97.066307 
L 346.284569 98.238268 
L 347.279222 99.288651 
L 348.273874 100.220513 
L 349.268526 101.039093 
L 350.263179 101.751287 
L 351.257831 102.365159 
L 352.252484 102.889486 
L 353.247136 103.333371 
L 354.241788 103.705913 
L 355.236441 104.015944 
L 356.231093 104.271827 
L 357.225746 104.481318 
L 358.220398 104.651477 
L 359.21505 104.788623 
L 360.209703 104.898327 
L 361.204355 104.985434 
L 362.199008 105.054098 
L 363.19366 105.107842 
L 364.188313 105.149617 
L 365.182965 105.181869 
L 366.177617 105.206604 
L 367.17227 105.225451 
L 368.166922 105.239722 
L 369.161575 105.25046 
L 370.156227 105.258491 
L 371.150879 105.264462 
L 372.145532 105.268876 
L 373.140184 105.272121 
L 374.134837 105.274493 
L 375.129489 105.276217 
L 376.124141 105.277465 
" clip-path="url(#p9469880594)" style="fill: none; stroke: #db4e4e; stroke-linecap: square"/>
   </g>
   <g id="patch_163">
    <path d="M 277.653553 105.280543 
L 277.653553 22.120543 
" style="fill: none; stroke: #000000; stroke-width: 0.3; stroke-linejoin: miter; stroke-linecap: square"/>
   </g>
   <g id="patch_164">
    <path d="M 376.124141 105.280543 
L 376.124141 22.120543 
" style="fill: none; stroke: #000000; stroke-width: 0.3; stroke-linejoin: miter; stroke-linecap: square"/>
   </g>
   <g id="patch_165">
    <path d="M 277.653553 105.280543 
L 376.124141 105.280543 
" style="fill: none; stroke: #000000; stroke-width: 0.3; stroke-linejoin: miter; stroke-linecap: square"/>
   </g>
   <g id="patch_166">
    <path d="M 277.653553 22.120543 
L 376.124141 22.120543 
" style="fill: none; stroke: #000000; stroke-width: 0.3; stroke-linejoin: miter; stroke-linecap: square"/>
   </g>
   <g id="text_20">
    <!-- $\rho = -0.7$ ($\sigma_\varepsilon = 0.42$) -->
    <g transform="translate(276.90091 16.120543) scale(0.11 -0.11)">
     <use xlink:href="#CMMI12-1a" transform="scale(0.996264)"/>
     <use xlink:href="#CMR17-3d" transform="translate(77.988382 0) scale(0.996264)"/>
     <use xlink:href="#CMSY10-0" transform="translate(177.377179 0) scale(0.996264)"/>
     <use xlink:href="#CMR17-30" transform="translate(254.864646 0) scale(0.996264)"/>
     <use xlink:href="#CMMI12-3a" transform="translate(300.555123 0) scale(0.996264)"/>
     <use xlink:href="#CMR17-37" transform="translate(327.652301 0) scale(0.996264)"/>
     <use xlink:href="#CMR17-28" transform="translate(403.418744 0) scale(0.996264)"/>
     <use xlink:href="#CMMI12-1b" transform="translate(438.699512 0) scale(0.996264)"/>
     <use xlink:href="#CMMI12-22" transform="translate(494.144973 -14.943915) scale(0.697382)"/>
     <use xlink:href="#CMR17-3d" transform="translate(554.272096 0) scale(0.996264)"/>
     <use xlink:href="#CMR17-30" transform="translate(653.660893 0) scale(0.996264)"/>
     <use xlink:href="#CMMI12-3a" transform="translate(699.35137 0) scale(0.996264)"/>
     <use xlink:href="#CMR17-34" transform="translate(726.448547 0) scale(0.996264)"/>
     <use xlink:href="#CMR17-32" transform="translate(772.139025 0) scale(0.996264)"/>
     <use xlink:href="#CMR17-29" transform="translate(817.829502 0) scale(0.996264)"/>
    </g>
   </g>
  </g>
 </g>
 <defs>
  <clipPath id="p690e4b6633">
   <rect x="41.324141" y="22.120543" width="98.470588" height="83.16"/>
  </clipPath>
  <clipPath id="pa14fd93f41">
   <rect x="159.488847" y="22.120543" width="98.470588" height="83.16"/>
  </clipPath>
  <clipPath id="p9469880594">
   <rect x="277.653553" y="22.120543" width="98.470588" height="83.16"/>
  </clipPath>
 </defs>
</svg>
